<svg width="22" height="25" viewBox="0 0 22 25" fill="none" xmlns="http://www.w3.org/2000/svg">
<path fill-rule="evenodd" clip-rule="evenodd" d="M20.0653 12.9461C20.0653 18.0741 15.9082 22.2307 10.7807 22.2307C5.65274 22.2307 1.49609 18.0736 1.49609 12.9461C1.49609 7.81816 5.65317 3.66151 10.7807 3.66151C15.9086 3.66151 20.0653 7.81859 20.0653 12.9461Z" fill="#0078AD"/>
<path d="M10.2532 8.02136C7.46912 8.02136 5.20459 10.2872 5.20459 13.0713C5.20459 14.4743 5.77952 15.7447 6.70633 16.6608C6.71337 16.668 6.72045 16.675 6.72754 16.682C6.73246 16.6868 6.73716 16.6918 6.74213 16.6966C6.75137 16.706 6.76066 16.7152 6.76995 16.7245C6.77016 16.7247 6.77105 16.7242 6.77127 16.7245C6.78505 16.7386 6.79841 16.7529 6.81237 16.7669C6.8306 16.7855 6.84948 16.8042 6.86806 16.8226C6.88201 16.8367 6.89635 16.851 6.91047 16.865C6.9285 16.8833 6.94652 16.9013 6.9648 16.9193C6.97011 16.9247 6.97541 16.9299 6.98071 16.9352C6.98092 16.9354 6.98181 16.935 6.98202 16.9352C6.98245 16.9356 6.98296 16.9361 6.98334 16.9365C6.98419 16.9374 6.98512 16.9383 6.98601 16.9392C6.99852 16.952 7.01049 16.965 7.02312 16.9776C7.02334 16.9778 7.02423 16.9774 7.02444 16.9776C7.03822 16.9918 7.05159 17.0061 7.06554 17.02C7.08378 17.0387 7.10265 17.0573 7.12123 17.0757C7.13518 17.0899 7.14952 17.1042 7.16364 17.1181C7.18159 17.1364 7.19978 17.1545 7.21798 17.1725C7.22328 17.1778 7.22858 17.1831 7.23388 17.1884C7.2341 17.1886 7.23499 17.1882 7.2352 17.1884C7.23562 17.1888 7.23613 17.1893 7.23651 17.1897C7.23736 17.1906 7.23829 17.1914 7.23919 17.1924C7.2517 17.2051 7.26366 17.2182 7.2763 17.2308C7.28122 17.2356 7.28593 17.2406 7.29089 17.2454C7.30014 17.2548 7.30942 17.2639 7.31871 17.2732C7.31977 17.2743 7.32164 17.2747 7.3227 17.2759C7.33996 17.2935 7.35684 17.3115 7.3744 17.3289C7.38836 17.3431 7.40269 17.3573 7.41682 17.3713C7.43472 17.3895 7.453 17.4078 7.47115 17.4257C7.47645 17.431 7.48176 17.4363 7.48706 17.4416C7.48727 17.4418 7.48816 17.4413 7.48837 17.4416C7.4888 17.4419 7.48931 17.4425 7.48969 17.4429C7.49054 17.4438 7.49147 17.4446 7.49236 17.4455C7.50487 17.4583 7.51683 17.4714 7.52947 17.484C7.52968 17.4842 7.53058 17.4838 7.53079 17.484C7.53121 17.4844 7.53172 17.4849 7.5321 17.4853C7.54546 17.4989 7.55836 17.5129 7.57189 17.5264C7.59034 17.5453 7.60879 17.5635 7.62758 17.5821C7.64153 17.5962 7.65587 17.6105 7.66999 17.6245C7.68789 17.6427 7.70617 17.6609 7.72433 17.6788C7.72963 17.6842 7.73493 17.6894 7.74023 17.6947C7.74044 17.6949 7.74133 17.6945 7.74155 17.6947C7.74197 17.6951 7.74248 17.6957 7.74286 17.6961C7.74371 17.6969 7.74464 17.6978 7.74553 17.6987C7.75805 17.7115 7.77001 17.7246 7.78265 17.7372C7.78286 17.7374 7.78375 17.7369 7.78396 17.7372C7.78439 17.7375 7.78489 17.7381 7.78528 17.7385C7.78612 17.7394 7.78706 17.7402 7.78795 17.7411C7.80046 17.7539 7.81242 17.767 7.82506 17.7796C7.82527 17.7798 7.82616 17.7794 7.82638 17.7796C7.84016 17.7937 7.85352 17.808 7.86748 17.822C7.88571 17.8406 7.90459 17.8593 7.92317 17.8777C7.93712 17.8918 7.95146 17.9061 7.96558 17.9201C7.98361 17.9384 8.00163 17.9564 8.01991 17.9744C8.02522 17.9798 8.03052 17.985 8.03582 17.9903C8.03603 17.9905 8.03692 17.9901 8.03714 17.9903C8.03756 17.9907 8.03807 17.9913 8.03845 17.9916C8.0393 17.9925 8.04023 17.9934 8.04112 17.9943C8.05363 18.0071 8.0656 18.0201 8.07824 18.0327C8.09223 18.0471 8.10648 18.061 8.12065 18.0752C8.12171 18.0763 8.12358 18.0767 8.12464 18.0778C8.1419 18.0955 8.15878 18.1135 8.17634 18.1308C8.1903 18.145 8.20463 18.1593 8.21876 18.1733C8.2367 18.1915 8.25489 18.2097 8.27309 18.2276C8.27839 18.2329 8.28369 18.2382 8.28899 18.2435C8.28921 18.2437 8.2901 18.2433 8.29031 18.2435C8.29073 18.2439 8.29124 18.2444 8.29162 18.2448C8.29247 18.2457 8.29341 18.2466 8.2943 18.2475C8.30681 18.2603 8.31877 18.2733 8.33141 18.2859C8.33633 18.2907 8.34104 18.2957 8.346 18.3005C8.35525 18.3099 8.36454 18.319 8.37382 18.3283C8.39227 18.3472 8.41072 18.3654 8.42951 18.384C8.44347 18.3982 8.45781 18.4124 8.47193 18.4264C8.48983 18.4446 8.50811 18.4629 8.52626 18.4808C8.53156 18.4861 8.53687 18.4914 8.54217 18.4967C8.54238 18.4969 8.54327 18.4965 8.54348 18.4967C8.54391 18.4971 8.54442 18.4976 8.5448 18.498C8.54565 18.4989 8.54658 18.4997 8.54747 18.5007C8.55998 18.5134 8.57194 18.5265 8.58458 18.5391C8.5848 18.5393 8.58569 18.5389 8.5859 18.5391C8.58632 18.5395 8.58683 18.54 8.58721 18.5404C8.58806 18.5413 8.58899 18.5421 8.58988 18.5431C8.6024 18.5558 8.61436 18.5689 8.627 18.5815C8.62721 18.5817 8.6281 18.5813 8.62831 18.5815C8.6421 18.5956 8.65546 18.61 8.66941 18.6239C8.68765 18.6426 8.70653 18.6612 8.7251 18.6796C8.73906 18.6938 8.75339 18.708 8.76752 18.722C8.78554 18.7403 8.80357 18.7583 8.82185 18.7764C8.82715 18.7817 8.83246 18.787 8.83776 18.7923C8.83797 18.7925 8.83886 18.792 8.83907 18.7923C8.8395 18.7926 8.84001 18.7932 8.84039 18.7936C8.84124 18.7945 8.84217 18.7953 8.84306 18.7962C8.85557 18.809 8.86753 18.8221 8.88017 18.8347C8.88038 18.8349 8.88127 18.8345 8.88149 18.8347C8.89527 18.8488 8.90863 18.8631 8.92259 18.8771C8.94082 18.8958 8.9597 18.9144 8.97828 18.9328C8.99223 18.9469 9.00657 18.9612 9.02069 18.9752C9.03863 18.9934 9.05683 19.0116 9.07503 19.0295C9.08033 19.0349 9.08563 19.0401 9.09093 19.0454C9.09114 19.0456 9.09203 19.0452 9.09225 19.0454C9.09267 19.0458 9.09318 19.0464 9.09356 19.0468C9.09441 19.0476 9.09534 19.0485 9.09623 19.0494C9.10875 19.0622 9.12071 19.0753 9.13335 19.0879C9.13827 19.0926 9.14297 19.0976 9.14794 19.1024C9.15718 19.1118 9.16647 19.121 9.17576 19.1303C9.17682 19.1314 9.17869 19.1318 9.17975 19.1329C9.19701 19.1506 9.21389 19.1686 9.23145 19.186C9.24541 19.2001 9.25974 19.2144 9.27387 19.2284C9.29181 19.2466 9.31 19.2648 9.3282 19.2827C9.3335 19.288 9.3388 19.2933 9.3441 19.2986C9.34432 19.2988 9.34521 19.2984 9.34542 19.2986C9.34584 19.299 9.34635 19.2995 9.34673 19.2999C9.34758 19.3008 9.34852 19.3017 9.34941 19.3026C9.36192 19.3154 9.37388 19.3284 9.38652 19.341C9.39144 19.3458 9.39615 19.3508 9.40111 19.3556C9.41036 19.365 9.41965 19.3742 9.42893 19.3834C9.44738 19.4024 9.46584 19.4205 9.48463 19.4391C9.49858 19.4533 9.51292 19.4675 9.52704 19.4815C9.54494 19.4997 9.56322 19.518 9.58137 19.5359C9.58668 19.5412 9.59198 19.5465 9.59728 19.5518C9.59749 19.552 9.59838 19.5516 9.59859 19.5518C9.59902 19.5522 9.59953 19.5527 9.59991 19.5531C9.60076 19.554 9.60169 19.5548 9.60258 19.5558C9.61509 19.5685 9.62705 19.5816 9.63969 19.5942C9.63991 19.5944 9.6408 19.594 9.64101 19.5942C9.64143 19.5946 9.64194 19.5951 9.64232 19.5955C9.64317 19.5964 9.6441 19.5973 9.645 19.5982C9.65751 19.611 9.66947 19.624 9.68211 19.6366C9.68232 19.6368 9.68321 19.6364 9.68342 19.6366C9.69721 19.6507 9.71057 19.6651 9.72452 19.679C9.74276 19.6977 9.76164 19.7163 9.78021 19.7347C9.79417 19.7489 9.8085 19.7631 9.82263 19.7771C9.84065 19.7954 9.85868 19.8134 9.87696 19.8315C9.88226 19.8368 9.88757 19.8421 9.89287 19.8474C9.89308 19.8476 9.89397 19.8472 9.89418 19.8474C9.89461 19.8478 9.89512 19.8483 9.8955 19.8487C9.89635 19.8496 9.89728 19.8504 9.89817 19.8514C9.91068 19.8641 9.92264 19.8772 9.93528 19.8898C9.94928 19.9041 9.96353 19.918 9.9777 19.9322C9.97876 19.9333 9.98062 19.9337 9.98168 19.9349C9.99895 19.9525 10.0158 19.9705 10.0334 19.9879C10.0473 20.0021 10.0617 20.0163 10.0758 20.0303C10.0937 20.0485 10.1119 20.0667 10.1301 20.0846C10.1354 20.09 10.1407 20.0952 10.146 20.1005C10.1463 20.1008 10.1471 20.1003 10.1474 20.1005C10.1478 20.1009 10.1483 20.1015 10.1487 20.1019C10.1495 20.1028 10.1505 20.1036 10.1513 20.1045C10.1639 20.1173 10.1758 20.1304 10.1885 20.143C10.1934 20.1478 10.1981 20.1528 10.203 20.1576C10.2123 20.1669 10.2216 20.1761 10.2309 20.1854C10.2493 20.2043 10.2678 20.2224 10.2866 20.2411C10.3005 20.2552 10.3149 20.2695 10.329 20.2835C10.3469 20.3016 10.3652 20.3199 10.3833 20.3378C10.3886 20.3432 10.3939 20.3484 10.3992 20.3537C10.3994 20.3539 10.4003 20.3535 10.4005 20.3537C10.401 20.3541 10.4015 20.3547 10.4018 20.355C10.4027 20.3559 10.4036 20.3568 10.4045 20.3577C10.417 20.3705 10.429 20.3835 10.4416 20.3961C10.4418 20.3963 10.4427 20.3959 10.4429 20.3961C10.4434 20.3965 10.4439 20.3971 10.4443 20.3974C10.4576 20.4111 10.4705 20.425 10.484 20.4386C10.5025 20.4575 10.5209 20.4756 10.5397 20.4942C10.5537 20.5084 10.568 20.5227 10.5822 20.5367C10.5961 20.5508 10.6104 20.5651 10.6246 20.5791C10.6426 20.5974 10.6606 20.6154 10.6789 20.6334C10.6842 20.6387 10.6895 20.644 10.6948 20.6493C10.695 20.6495 10.6959 20.6491 10.6961 20.6493C10.6965 20.6497 10.6971 20.6502 10.6974 20.6506C10.6983 20.6515 10.6992 20.6524 10.7001 20.6533C10.7126 20.6661 10.7246 20.6791 10.7372 20.6917C10.7374 20.6919 10.7383 20.6915 10.7385 20.6917C10.7523 20.7058 10.7657 20.7202 10.7796 20.7341C10.7979 20.7528 10.8167 20.7714 10.8353 20.7898C10.8493 20.804 10.8636 20.8182 10.8777 20.8322C10.8958 20.8505 10.9138 20.8686 10.9321 20.8866C10.9374 20.8919 10.9427 20.8972 10.948 20.9025C10.9482 20.9027 10.9491 20.9023 10.9493 20.9025C10.9497 20.9029 10.9502 20.9034 10.9506 20.9038C10.9515 20.9047 10.9524 20.9055 10.9533 20.9065C10.9658 20.9192 10.9778 20.9323 10.9904 20.9449C11.0044 20.9592 11.0186 20.9731 11.0328 20.9873C11.0339 20.9884 11.0357 20.9888 11.0368 20.99C11.0541 21.0076 11.0709 21.0256 11.0885 21.043C11.1025 21.0572 11.1168 21.0714 11.1309 21.0854C11.1489 21.1037 11.1671 21.1218 11.1852 21.1398C11.1905 21.1451 11.1959 21.1504 11.2012 21.1557C11.2014 21.1559 11.2023 21.1554 11.2025 21.1557C11.2029 21.156 11.2034 21.1566 11.2038 21.157C11.2046 21.1579 11.2056 21.1587 11.2065 21.1596C11.219 21.1724 11.2309 21.1855 11.2436 21.1981C11.2485 21.2029 11.2532 21.2079 11.2582 21.2127C11.2674 21.222 11.2767 21.2312 11.286 21.2405C11.3044 21.2594 11.3229 21.2776 11.3417 21.2962C11.3556 21.3103 11.37 21.3246 11.3841 21.3386C11.402 21.3567 11.4203 21.375 11.4384 21.3929C11.4437 21.3983 11.449 21.4035 11.4543 21.4088C11.4545 21.409 11.4554 21.4086 11.4556 21.4088C11.4561 21.4092 11.4566 21.4098 11.457 21.4101C11.4578 21.411 11.4587 21.4119 11.4596 21.4128C11.4721 21.4256 11.4841 21.4386 11.4967 21.4512C11.497 21.4515 11.4978 21.451 11.4981 21.4512C11.4985 21.4516 11.499 21.4522 11.4994 21.4526C11.5002 21.4535 11.5012 21.4543 11.502 21.4552C11.5146 21.468 11.5265 21.4811 11.5392 21.4937C11.5394 21.4939 11.5403 21.4934 11.5405 21.4937C11.5543 21.5078 11.5676 21.5221 11.5816 21.5361C11.5998 21.5547 11.6187 21.5734 11.6373 21.5918C11.6512 21.6059 11.6656 21.6202 11.6797 21.6342C11.6977 21.6525 11.7157 21.6705 11.734 21.6885C11.7393 21.6939 11.7446 21.6991 11.7499 21.7044C11.7501 21.7046 11.751 21.7042 11.7512 21.7044C11.7517 21.7048 11.7522 21.7054 11.7525 21.7057C11.7534 21.7066 11.7543 21.7075 11.7552 21.7084C11.7677 21.7212 11.7797 21.7342 11.7923 21.7468C11.8063 21.7612 11.8206 21.7751 11.8347 21.7892C11.8358 21.7904 11.8377 21.7908 11.8387 21.7919C11.856 21.8096 11.8729 21.8275 11.8904 21.8449C11.9044 21.8591 11.9187 21.8734 11.9329 21.8874C11.9508 21.9056 11.969 21.9237 11.9872 21.9417C11.9925 21.947 11.9978 21.9523 12.0031 21.9576C12.0033 21.9578 12.0042 21.9574 12.0044 21.9576C12.0048 21.958 12.0053 21.9585 12.0057 21.9589C12.0066 21.9598 12.0075 21.9606 12.0084 21.9616C12.0209 21.9743 12.0329 21.9874 12.0455 22C12.0504 22.0048 12.0551 22.0098 12.0601 22.0146C12.0693 22.024 12.0786 22.0331 12.0879 22.0424C12.1064 22.0613 12.1248 22.0795 12.1436 22.0981C12.1532 22.1079 12.163 22.1176 12.1728 22.1273C15.9541 21.5585 18.9888 18.7099 19.8312 15.0254L19.7994 14.9922C19.799 14.9918 19.7985 14.9913 19.7981 14.9909L19.757 14.9498C19.7566 14.9494 19.7561 14.9489 19.7557 14.9485L19.7146 14.9074C19.7121 14.9049 19.7096 14.9027 19.7066 14.9008L19.6721 14.865C19.6697 14.8625 19.6671 14.8603 19.6641 14.8584L19.6297 14.8226C19.6272 14.8201 19.6246 14.8179 19.6217 14.816L19.5872 14.7802C19.5848 14.7777 19.5821 14.7767 19.5792 14.7749L19.5447 14.7391L19.5036 14.6966C19.5032 14.6962 19.5027 14.6957 19.5023 14.6953L19.4612 14.6542C19.4608 14.6538 19.4603 14.6533 19.4599 14.6529L19.4188 14.6118C19.4184 14.6114 19.418 14.6109 19.4175 14.6105L19.3764 14.5694C19.376 14.569 19.3755 14.5685 19.3751 14.5681L19.334 14.527C19.3328 14.5258 19.3313 14.5254 19.33 14.5243L19.2916 14.4859L19.2505 14.4435C19.25 14.443 19.2496 14.4425 19.2491 14.4422L19.208 14.4011C19.2076 14.4006 19.2072 14.4001 19.2067 14.3997L19.0808 14.2738C19.0794 14.2724 19.0771 14.2724 19.0755 14.2711L19.0384 14.2327L18.9973 14.1903L18.996 14.189L18.9549 14.1479C18.9545 14.1475 18.954 14.1469 18.9536 14.1466L18.9125 14.1055C18.912 14.105 18.9116 14.1045 18.9111 14.1042L18.87 14.0631C18.8693 14.0623 18.8681 14.0624 18.8674 14.0617L18.8276 14.0206C18.8264 14.0195 18.825 14.019 18.8236 14.018L18.7852 13.9795L18.7839 13.9782L18.7428 13.9371L18.7017 13.8947C18.7012 13.8943 18.7008 13.8938 18.7003 13.8934L18.6592 13.8523C18.6588 13.8519 18.6584 13.8514 18.6579 13.851L18.6168 13.8099C18.6164 13.8095 18.6159 13.8089 18.6155 13.8086L18.5744 13.7675C18.5739 13.767 18.5736 13.7666 18.5731 13.7661L18.532 13.725C18.5304 13.7234 18.5286 13.7224 18.5267 13.7211L18.4896 13.6839L18.4485 13.6415C18.4481 13.6411 18.4476 13.6406 18.4472 13.6402L18.4061 13.5991C18.4056 13.5987 18.4052 13.5982 18.4048 13.5978L18.3637 13.5567C18.3632 13.5563 18.3628 13.5558 18.3623 13.5554L18.3212 13.5143C18.3208 13.5138 18.3204 13.5134 18.3199 13.513L18.2788 13.4719C18.2773 13.4703 18.2753 13.4704 18.2735 13.4692L18.2364 13.4308L18.1953 13.3884L18.194 13.387L18.1529 13.3459C18.1525 13.3455 18.152 13.3451 18.1516 13.3446L18.1105 13.3035C18.1101 13.3031 18.1096 13.3026 18.1092 13.3022L18.0257 13.2187C18.0228 13.2158 18.0201 13.2135 18.0164 13.2121L17.9832 13.1776L17.9421 13.1352C17.9418 13.1348 17.9412 13.1343 17.9408 13.1339L17.8997 13.0928C17.899 13.0921 17.8978 13.0921 17.897 13.0915L17.8573 13.0504C17.8566 13.0497 17.8554 13.0496 17.8546 13.049L17.8148 13.0079C17.8144 13.0075 17.814 13.007 17.8135 13.0066L17.7724 12.9655C17.772 12.9651 17.7715 12.9646 17.7711 12.9642L17.73 12.9231C17.7275 12.9206 17.7253 12.9191 17.722 12.9178L17.6875 12.882L17.6464 12.8396C17.646 12.8392 17.6455 12.8387 17.6451 12.8383L17.604 12.7972C17.6036 12.7967 17.6032 12.7963 17.6027 12.7959L17.5616 12.7548C17.5612 12.7543 17.5607 12.7538 17.5603 12.7535L17.5192 12.7124C17.5188 12.7119 17.5183 12.7114 17.5179 12.711L17.4768 12.6699C17.4746 12.6678 17.4729 12.6671 17.4701 12.666L17.4343 12.6288L17.3932 12.5864C17.3929 12.586 17.3924 12.5854 17.3919 12.5851L17.3508 12.544C17.3504 12.5436 17.3499 12.543 17.3495 12.5427L17.3084 12.5016C17.308 12.5011 17.3076 12.5007 17.3071 12.5003L17.266 12.4592C17.2656 12.4587 17.2652 12.4582 17.2647 12.4579L17.2236 12.4168C17.2218 12.4149 17.2193 12.4137 17.217 12.4128L17.1812 12.3757C17.1794 12.3739 17.1782 12.3713 17.1759 12.3704L17.1401 12.3333C17.1396 12.3328 17.1392 12.3323 17.1388 12.3319L17.0977 12.2908C17.0973 12.2905 17.0968 12.2899 17.0963 12.2895L17.0552 12.2484C17.0536 12.2468 17.0521 12.2453 17.0499 12.2444L17.0128 12.206C17.0113 12.2044 17.0096 12.2028 17.0075 12.202L16.9704 12.1636C16.9689 12.1621 16.9671 12.1617 16.9651 12.1609L16.9253 12.1211C16.9244 12.1205 16.9238 12.1189 16.9227 12.1185L16.8855 12.08C16.8841 12.0786 16.8834 12.0768 16.8816 12.076L16.8444 12.0376L16.8418 12.0363C16.8409 12.0357 16.8401 12.0341 16.8391 12.0336L16.802 11.9952C16.8017 11.9949 16.8009 11.9955 16.8007 11.9952L16.7596 11.9528L16.7583 11.9515C16.7574 11.9508 16.7566 11.9505 16.7556 11.9502L16.7172 11.9104L16.7158 11.9091C16.715 11.9085 16.7141 11.9081 16.7132 11.9077L16.6747 11.868C16.6739 11.8672 16.6731 11.8672 16.6721 11.8666L16.6323 11.8269L16.5912 11.7844C16.5909 11.7841 16.5902 11.7847 16.5899 11.7844L16.5488 11.742C16.5485 11.7417 16.5478 11.7423 16.5475 11.742L16.5064 11.6996C16.5061 11.6993 16.5054 11.6999 16.505 11.6996L16.4639 11.6572C16.4636 11.6569 16.463 11.6575 16.4626 11.6572L16.4215 11.6148C16.4208 11.614 16.4199 11.6152 16.4189 11.6148L16.3791 11.5737L16.338 11.5313C16.3377 11.531 16.3369 11.5315 16.3367 11.5313L16.2956 11.4889C16.2953 11.4886 16.2945 11.4891 16.2942 11.4889L16.2531 11.4464C16.2528 11.4461 16.2521 11.4467 16.2518 11.4464L16.2107 11.404C16.2104 11.4037 16.2098 11.4043 16.2094 11.404L16.1683 11.3616C16.1676 11.3609 16.1666 11.3605 16.1656 11.3603L16.1259 11.3205L16.0848 11.2781C16.0845 11.2779 16.0837 11.2783 16.0834 11.2781L16.0423 11.2357C16.0417 11.235 16.0406 11.2343 16.0397 11.2344L15.9999 11.1933C15.9993 11.1927 15.998 11.1919 15.9972 11.192L15.915 11.1084C15.9147 11.1081 15.9141 11.1084 15.9137 11.1084C15.9128 11.1075 15.912 11.1067 15.911 11.1058L15.8726 11.0673C15.8724 11.0671 15.8729 11.066 15.8726 11.066C15.8703 11.0636 15.8672 11.0615 15.8646 11.0594L15.8301 11.0249L15.789 10.9825C15.7674 10.9607 15.7364 10.948 15.7068 10.9507C15.697 10.9515 15.6872 10.9533 15.6777 10.9573C15.6398 10.9729 15.6153 11.0105 15.6153 11.0514V11.3139C15.5997 11.2978 15.5834 11.2821 15.5676 11.2662C15.5538 11.2519 15.5393 11.2379 15.5252 11.2238C15.5113 11.2094 15.4969 11.1956 15.4828 11.1813C15.469 11.1671 15.4543 11.1543 15.4404 11.1402C15.4264 11.1259 15.4121 11.112 15.398 11.0978C15.3969 11.0967 15.3964 11.095 15.3953 11.0938C15.3897 11.0884 15.3837 11.0833 15.3781 11.0779C15.3768 11.0766 15.3754 11.0753 15.3741 11.074C15.368 11.0681 15.363 11.0613 15.3569 11.0554C15.343 11.0411 15.3285 11.0271 15.3145 11.013C15.3006 10.9987 15.2861 10.9847 15.272 10.9705C15.2582 10.9563 15.2437 10.9423 15.2296 10.9281C15.2158 10.9139 15.2012 10.9011 15.1872 10.887C15.1733 10.8727 15.1589 10.8588 15.1448 10.8446C15.1435 10.8433 15.1421 10.842 15.1408 10.8406C15.1354 10.8354 15.1304 10.8299 15.1249 10.8247C15.1236 10.8234 15.1222 10.8221 15.1209 10.8207C15.1148 10.8148 15.1098 10.8081 15.1037 10.8022C15.0898 10.7879 15.0753 10.7739 15.0613 10.7597C15.0474 10.7455 15.0329 10.7315 15.0189 10.7173C15.005 10.703 14.9905 10.689 14.9765 10.6749C14.9626 10.6607 14.948 10.6479 14.934 10.6338C14.9201 10.6194 14.9057 10.6056 14.8916 10.5914C14.8829 10.5824 14.8739 10.5738 14.8651 10.5649C14.8599 10.5598 14.8557 10.554 14.8505 10.549C14.8367 10.5347 14.8221 10.5207 14.8081 10.5066C14.7942 10.4923 14.7797 10.4783 14.7657 10.4642C14.7518 10.4499 14.7373 10.4359 14.7233 10.4217C14.7093 10.4074 14.695 10.3935 14.6809 10.3793C14.667 10.3651 14.6524 10.3523 14.6384 10.3382C14.6245 10.3238 14.6102 10.31 14.596 10.2958C14.5949 10.2947 14.5945 10.293 14.5934 10.2918C14.5877 10.2864 14.5818 10.2813 14.5761 10.2759C14.5748 10.2746 14.5735 10.2733 14.5722 10.2719C14.566 10.266 14.561 10.2593 14.5549 10.2534C14.5411 10.2391 14.5266 10.2251 14.5125 10.2109C14.4986 10.1966 14.4841 10.1826 14.4701 10.1685C14.4562 10.1542 14.4417 10.1402 14.4277 10.1261C14.4139 10.1119 14.3992 10.0991 14.3853 10.085C14.3713 10.0706 14.357 10.0568 14.3429 10.0426C14.3415 10.0412 14.3402 10.04 14.3389 10.0386C14.3334 10.0334 14.3284 10.0279 14.323 10.0227C14.3217 10.0213 14.3203 10.0201 14.319 10.0187C14.3129 10.0128 14.3079 10.006 14.3018 10.0001C14.2879 9.98585 14.2734 9.97185 14.2593 9.95772C14.2455 9.94343 14.231 9.92943 14.2169 9.91531C14.2031 9.90102 14.1886 9.88702 14.1745 9.87289C14.1607 9.85869 14.1461 9.84588 14.1321 9.83179C14.1181 9.81742 14.1038 9.80359 14.0897 9.78938C14.0884 9.78802 14.087 9.78675 14.0857 9.78539C14.0803 9.78018 14.0753 9.77466 14.0698 9.76949C14.0685 9.76813 14.0671 9.76686 14.0658 9.7655C14.0597 9.7596 14.0547 9.75282 14.0486 9.74692C14.0347 9.73263 14.0202 9.71863 14.0062 9.70451C13.9923 9.69021 13.9778 9.67622 13.9638 9.66209C13.9499 9.6478 13.9354 9.6338 13.9213 9.61968C13.9073 9.60521 13.8931 9.59156 13.8789 9.57726C12.9386 8.60902 11.6263 8.02115 10.2525 8.02115" fill="black" fill-opacity="0.235"/>
<path fill-rule="evenodd" clip-rule="evenodd" d="M10.9056 2.25545C4.93234 2.25545 0.0898438 7.09795 0.0898438 13.0712C0.0898438 19.0445 4.93234 23.887 10.9056 23.887C16.8789 23.887 21.7214 19.0445 21.7214 13.0712C21.7214 7.09795 16.8789 2.25545 10.9056 2.25545ZM11.28 4.16119C16.408 4.16119 20.5646 8.31784 20.5646 13.4458C20.5646 18.5737 16.408 22.7304 11.28 22.7304C6.15206 22.7304 1.99414 18.5737 1.99414 13.4458C1.99414 8.31784 6.15206 4.16119 11.28 4.16119Z" fill="black" fill-opacity="0.067"/>
<path fill-rule="evenodd" clip-rule="evenodd" d="M10.9056 2.40092C5.01253 2.40092 0.235352 7.1781 0.235352 13.0712C0.235352 18.9643 5.01253 23.7402 10.9056 23.7402C16.7988 23.7402 21.5759 18.9643 21.5759 13.0712C21.5759 7.1781 16.7988 2.40092 10.9056 2.40092ZM11.1553 4.03627C16.2832 4.03627 20.4399 8.19292 20.4399 13.3209C20.4399 18.4488 16.2832 22.6055 11.1553 22.6055C6.02731 22.6055 1.86938 18.4488 1.86938 13.3209C1.86938 8.19292 6.02731 4.03627 11.1553 4.03627Z" fill="black" fill-opacity="0.129"/>
<path fill-rule="evenodd" clip-rule="evenodd" d="M10.9055 2.5676C5.10438 2.5676 0.401855 7.27013 0.401855 13.0712C0.401855 18.8723 5.10438 23.5748 10.9055 23.5748C16.7065 23.5748 21.4091 18.8723 21.4091 13.0712C21.4091 7.27013 16.7065 2.5676 10.9055 2.5676ZM11.0302 3.91177C16.1582 3.91177 20.3148 8.06842 20.3148 13.1964C20.3148 18.3243 16.1582 22.481 11.0302 22.481C5.90229 22.481 1.74437 18.3243 1.74437 13.1964C1.74437 8.06842 5.90229 3.91177 11.0302 3.91177Z" fill="black" fill-opacity="0.129"/>
<path fill-rule="evenodd" clip-rule="evenodd" d="M10.7801 2.5464C5.03624 2.5464 0.380371 7.2027 0.380371 12.9461C0.380371 18.6899 5.03667 23.3458 10.7801 23.3458C16.5239 23.3458 21.1797 18.6895 21.1797 12.9461C21.1797 7.20228 16.5234 2.5464 10.7801 2.5464ZM10.7801 3.66179C15.908 3.66179 20.0647 7.81844 20.0647 12.9464C20.0647 18.0743 15.908 22.231 10.7801 22.231C5.65211 22.231 1.49418 18.0743 1.49418 12.9464C1.49418 7.81844 5.65211 3.66179 10.7801 3.66179Z" fill="white" stroke="black" stroke-opacity="0.31" stroke-width="0.0763787"/>
<path d="M10.2541 8.02176C7.46996 8.02176 5.20459 10.2867 5.20459 13.0712C5.20459 15.8553 7.46954 18.1207 10.2541 18.1207C12.2421 18.1207 14.0527 16.9443 14.865 15.1228C14.879 15.0915 14.8741 15.0538 14.8555 15.025C14.8369 14.9964 14.8045 14.9808 14.7703 14.9808H12.9083C12.8767 14.9808 12.8453 14.9935 12.8262 15.0187C12.2159 15.8219 11.2543 16.303 10.2542 16.303C8.47235 16.303 7.02262 14.8533 7.02262 13.0714C7.02262 11.2896 8.47235 9.83983 10.2542 9.83983C11.2979 9.83983 12.2851 10.3509 12.8924 11.2094C12.9114 11.2362 12.9416 11.2536 12.9745 11.2536H14.811C14.8449 11.2536 14.8743 11.2377 14.8931 11.2094C14.9118 11.1812 14.9158 11.1459 14.9026 11.1147C14.12 9.26574 12.2521 8.02201 10.2539 8.02201L10.2541 8.02176ZM15.7072 10.9508C15.6973 10.9516 15.6883 10.953 15.6788 10.9571C15.6409 10.9726 15.6156 11.0109 15.6156 11.0517V12.1626H11.9803C11.9244 12.1626 11.8793 12.2078 11.8793 12.2636V13.9708C11.8793 14.0266 11.9244 14.0718 11.9803 14.0718H15.6156V15.1826C15.6156 15.2228 15.6385 15.2582 15.6756 15.2741C15.7127 15.2901 15.7567 15.2828 15.7861 15.2552L17.8973 13.267C17.917 13.2483 17.9285 13.2217 17.9289 13.1944C17.9295 13.1673 17.9196 13.1412 17.9005 13.1218L15.7892 10.982C15.7676 10.9602 15.7368 10.9477 15.7071 10.9505" fill="white"/>
</svg>
