<svg width="41" height="28" viewBox="0 0 41 28" fill="none" xmlns="http://www.w3.org/2000/svg">
<g clip-path="url(#clip0_2052_47591)">
<path d="M34.0378 24.2531C33.7091 24.2531 33.4424 24.5206 33.4424 24.8502C33.4424 25.1798 33.7091 25.4474 34.0378 25.4474H34.0441C34.3728 25.4474 34.6363 25.1798 34.6363 24.8502C34.6363 24.5206 34.3664 24.2531 34.0378 24.2531Z" fill="#B41D8D"/>
<path d="M14.3112 24.2531C13.9826 24.2531 13.7158 24.5206 13.7158 24.8502C13.7158 25.1798 13.9826 25.4474 14.3112 25.4474H14.3176C14.6462 25.4474 14.9098 25.1798 14.9098 24.8502C14.9098 24.5206 14.6399 24.2531 14.3112 24.2531Z" fill="#B41D8D"/>
<path d="M40.0248 17.6104L38.1211 16.2449L38.0934 10.4701C38.0894 9.58072 37.4281 8.935 36.5215 8.935H31.8997C31.9537 8.6205 31.8846 8.31078 31.7013 8.07112C31.5004 7.80917 31.1845 7.65869 30.8344 7.65869H26.6849C26.3563 7.65869 26.0895 7.92621 26.0895 8.25584C26.0895 8.58547 26.3563 8.85299 26.6849 8.85299H30.6947L26.5801 24.2531H17.5382C17.5501 23.6552 17.381 23.0946 17.0412 22.6504C16.5729 22.0381 15.8449 21.7005 14.9923 21.7005C13.4602 21.7005 11.9384 22.7905 11.3398 24.2531H8.72326L9.88625 19.8987C9.97119 19.5802 9.78305 19.253 9.46551 19.167C9.14876 19.0818 8.8217 19.2705 8.73596 19.589L7.5428 24.0564C7.44833 24.4092 7.51184 24.7659 7.71745 25.0334C7.91829 25.2953 8.23425 25.4458 8.58433 25.4458H11.0834C11.0715 26.0438 11.2406 26.6043 11.5803 27.0486C12.0487 27.6616 12.7767 27.9984 13.6293 27.9984C15.1614 27.9984 16.6832 26.9084 17.2818 25.4458H30.809C30.7971 26.0438 30.9662 26.6043 31.3059 27.0486C31.7743 27.6616 32.5023 27.9984 33.3549 27.9984C34.887 27.9984 36.4088 26.9084 37.0074 25.4458H37.2185C38.1886 25.4458 39.15 24.691 39.4072 23.7268L40.5781 19.3437C40.7639 18.6526 40.5519 17.9878 40.0248 17.6104ZM16.2807 24.6958C15.9751 25.8399 14.7605 26.8057 13.6285 26.8057C13.1545 26.8057 12.7624 26.6345 12.5242 26.3232C12.2678 25.988 12.2027 25.5199 12.3408 25.0047C12.6465 23.8606 13.8611 22.894 14.9931 22.894C15.467 22.894 15.8592 23.0652 16.0973 23.3765C16.353 23.7125 16.4188 24.1807 16.2807 24.6958ZM36.9288 15.9559H33.0722C32.9714 15.9559 32.8349 15.9344 32.7563 15.8317C32.6864 15.7409 32.6721 15.5952 32.7158 15.4312L33.227 13.5163C33.3453 13.0721 33.8312 12.6827 34.2654 12.6827H36.9121L36.9288 15.9559ZM36.0079 24.6958C35.7023 25.8399 34.4877 26.8057 33.3557 26.8057C32.8817 26.8057 32.4896 26.6345 32.2514 26.3232C31.995 25.988 31.9299 25.5199 32.068 25.0047C32.3737 23.8606 33.5882 22.894 34.7203 22.894C35.1942 22.894 35.5864 23.0652 35.8245 23.3765C36.0801 23.7125 36.1452 24.1807 36.0079 24.6958ZM38.2577 23.4195C38.1434 23.8478 37.6877 24.2244 37.2654 24.2507C37.2773 23.6536 37.1074 23.0938 36.7684 22.6504C36.3 22.0381 35.5721 21.7005 34.7195 21.7005C33.1874 21.7005 31.6655 22.7905 31.067 24.2531H27.8138L28.8585 20.3414H36.0381C36.3667 20.3414 36.6335 20.0739 36.6335 19.7442C36.6335 19.4146 36.3667 19.1471 36.0381 19.1471H29.1776L31.587 10.1293H36.5215C36.6946 10.1293 36.901 10.189 36.9026 10.4757L36.9073 11.4876H34.2662C33.2961 11.4876 32.3348 12.2424 32.0776 13.2066L31.5663 15.1215C31.4258 15.6462 31.5155 16.1701 31.8124 16.5578C32.0998 16.9336 32.5594 17.1494 33.073 17.1494H37.3368L39.3333 18.581C39.5032 18.7028 39.45 18.9592 39.4302 19.0348L39.4008 19.1463H38.5847C38.2561 19.1463 37.9894 19.4138 37.9894 19.7434C37.9894 20.0731 38.2561 20.3406 38.5847 20.3406H39.0817L38.2577 23.4195Z" fill="#B41D8D"/>
<path d="M15.2313 19.065C20.4723 19.065 24.7353 14.7886 24.7353 9.53292C24.7353 4.27719 20.4715 0 15.2313 0C9.99113 0 5.72656 4.2764 5.72656 9.53212C5.72656 14.7878 9.99034 19.065 15.2313 19.065ZM15.2313 1.1943C19.8158 1.1943 23.5445 4.93485 23.5445 9.53212C23.5445 14.1294 19.815 17.8699 15.2313 17.8699C10.6476 17.8699 6.91734 14.1302 6.91734 9.53212C6.91734 4.93406 10.6469 1.1943 15.2313 1.1943Z" fill="#B41D8D"/>
<path d="M12.6868 12.6827C12.8392 12.6827 12.9916 12.6246 13.1075 12.5076L14.4015 11.2097C14.6516 11.3347 14.9342 11.4056 15.2319 11.4056C16.2623 11.4056 17.0998 10.5648 17.0998 9.53215C17.0998 9.23278 17.0292 8.95013 16.9045 8.69932L20.1077 5.48665C20.3403 5.25337 20.3403 4.87517 20.1077 4.64188C19.8751 4.4086 19.498 4.4086 19.2654 4.64188L16.0623 7.85455C15.8122 7.72955 15.5296 7.65869 15.2319 7.65869C14.2015 7.65869 13.364 8.49948 13.364 9.53215C13.364 9.83152 13.4346 10.1142 13.5592 10.365L12.2653 11.6628C12.0327 11.8961 12.0327 12.2743 12.2653 12.5076C12.382 12.6246 12.5344 12.6827 12.6868 12.6827ZM15.2319 8.85299C15.605 8.85299 15.909 9.15794 15.909 9.53215C15.909 9.90636 15.605 10.2113 15.2319 10.2113C14.8588 10.2113 14.5547 9.90636 14.5547 9.53215C14.5547 9.15794 14.858 8.85299 15.2319 8.85299Z" fill="#B41D8D"/>
<path d="M15.2311 4.38547C15.5598 4.38547 15.8265 4.11794 15.8265 3.78832V3.14976C15.8265 2.82014 15.5598 2.55261 15.2311 2.55261C14.9025 2.55261 14.6357 2.82014 14.6357 3.14976V3.78832C14.6357 4.11794 14.9025 4.38547 15.2311 4.38547Z" fill="#B41D8D"/>
<path d="M15.2311 14.6796C14.9025 14.6796 14.6357 14.9471 14.6357 15.2767V15.9153C14.6357 16.2449 14.9025 16.5124 15.2311 16.5124C15.5598 16.5124 15.8265 16.2449 15.8265 15.9153V15.2767C15.8265 14.9471 15.5598 14.6796 15.2311 14.6796Z" fill="#B41D8D"/>
<path d="M20.9587 10.1292H21.5953C21.924 10.1292 22.1907 9.86172 22.1907 9.53209C22.1907 9.20246 21.924 8.93494 21.5953 8.93494H20.9587C20.63 8.93494 20.3633 9.20246 20.3633 9.53209C20.3633 9.86251 20.63 10.1292 20.9587 10.1292Z" fill="#B41D8D"/>
<path d="M10.0989 9.53209C10.0989 9.20246 9.8322 8.93494 9.50354 8.93494H8.86687C8.53822 8.93494 8.27148 9.20246 8.27148 9.53209C8.27148 9.86172 8.53822 10.1292 8.86687 10.1292H9.50354C9.83299 10.1292 10.0989 9.86251 10.0989 9.53209Z" fill="#B41D8D"/>
<path d="M6.9589 17.2322H0.595388C0.266734 17.2322 0 17.4997 0 17.8293C0 18.159 0.266734 18.4265 0.595388 18.4265H6.9589C7.28755 18.4265 7.55428 18.159 7.55428 17.8293C7.55428 17.4997 7.28755 17.2322 6.9589 17.2322Z" fill="#B41D8D"/>
<path d="M6.32201 19.7856H2.50359C2.17494 19.7856 1.9082 20.0532 1.9082 20.3828C1.9082 20.7124 2.17494 20.9799 2.50359 20.9799H6.32201C6.65067 20.9799 6.9174 20.7124 6.9174 20.3828C6.9174 20.0532 6.65146 19.7856 6.32201 19.7856Z" fill="#B41D8D"/>
<path d="M5.68629 22.3383H4.41375C4.08509 22.3383 3.81836 22.6058 3.81836 22.9354C3.81836 23.265 4.08509 23.5326 4.41375 23.5326H5.68629C6.01494 23.5326 6.28168 23.265 6.28168 22.9354C6.28168 22.6058 6.01494 22.3383 5.68629 22.3383Z" fill="#B41D8D"/>
</g>
<defs>
<clipPath id="clip0_2052_47591">
<rect width="40.6452" height="28" fill="white"/>
</clipPath>
</defs>
</svg>
