<svg width="24" height="24" viewBox="0 0 24 24" fill="none" xmlns="http://www.w3.org/2000/svg">
<path fill-rule="evenodd" clip-rule="evenodd" d="M7.5 22.5002C8.32843 22.5002 9 21.8286 9 21.0002C9 20.1717 8.32843 19.5002 7.5 19.5002C6.67157 19.5002 6 20.1717 6 21.0002C6 21.8286 6.67157 22.5002 7.5 22.5002ZM18 22.5002C18.8284 22.5002 19.5 21.8286 19.5 21.0002C19.5 20.1717 18.8284 19.5002 18 19.5002C17.1716 19.5002 16.5 20.1717 16.5 21.0002C16.5 21.8286 17.1716 22.5002 18 22.5002ZM4.365 5.25015H21C21.2311 5.24447 21.4519 5.34569 21.5985 5.52448C21.745 5.70327 21.8009 5.93966 21.75 6.16515L20.25 12.9152C20.1714 13.264 19.8575 13.5089 19.5 13.5002H6L6.615 16.5002H19.5V18.0002H6C5.63793 18.0075 5.32236 17.755 5.25 17.4002L2.385 3.00015H0V1.50015H3C3.36207 1.49285 3.67764 1.74531 3.75 2.10015L4.365 5.25015ZM5.715 12.0002H18.9L20.0625 6.75015H4.665L5.715 12.0002Z" fill="black"/>
</svg>
