<svg width="28" height="28" viewBox="0 0 28 28" fill="none" xmlns="http://www.w3.org/2000/svg">
<path d="M14 27.0666C6.79495 27.0666 0.933441 21.2051 0.933441 14C0.933441 6.79495 6.79495 0.933441 14 0.933441C21.2051 0.933441 27.0666 6.79495 27.0666 14C27.0666 21.2051 21.2051 27.0666 14 27.0666ZM14 0C6.28037 0 0 6.28037 0 14C0 21.7196 6.28037 28 14 28C21.7196 28 28 21.7196 28 14C28 6.28037 21.7196 0 14 0Z" fill="#B41D8D"/>
<path d="M19.463 8.53654C19.2806 8.3542 18.9854 8.3542 18.8031 8.53654L13.9996 13.34L9.1961 8.53654C9.01376 8.3542 8.71851 8.3542 8.53617 8.53654C8.35383 8.71888 8.35383 9.01413 8.53617 9.19647L13.3396 13.9999L8.53617 18.8034C8.35383 18.9858 8.35383 19.281 8.53617 19.4634C8.62734 19.5545 8.74674 19.6 8.86614 19.6C8.98553 19.6 9.10493 19.5545 9.1961 19.4634L13.9996 14.6599L18.8031 19.4634C18.8942 19.5545 19.0136 19.6 19.133 19.6C19.2524 19.6 19.3718 19.5545 19.463 19.4634C19.6453 19.281 19.6453 18.9858 19.463 18.8034L14.6595 13.9999L19.463 9.19647C19.645 9.01413 19.645 8.71888 19.463 8.53654Z" fill="#B41D8D"/>
</svg>
