<svg width="30" height="31" viewBox="0 0 30 31" fill="none" xmlns="http://www.w3.org/2000/svg">
<path d="M10.45 9.24543C10.5 9.9871 10.625 10.7121 10.825 11.4038L9.825 12.4038C9.48333 11.4038 9.26667 10.3454 9.19167 9.24543H10.45ZM18.6667 19.2621C19.375 19.4621 20.1 19.5871 20.8333 19.6371V20.8788C19.7333 20.8038 18.675 20.5871 17.6667 20.2538L18.6667 19.2621ZM11.25 7.57877H8.33333C7.875 7.57877 7.5 7.95377 7.5 8.4121C7.5 16.2371 13.8417 22.5788 21.6667 22.5788C22.125 22.5788 22.5 22.2038 22.5 21.7454V18.8371C22.5 18.3788 22.125 18.0038 21.6667 18.0038C20.6333 18.0038 19.625 17.8371 18.6917 17.5288C18.6083 17.4954 18.5167 17.4871 18.4333 17.4871C18.2167 17.4871 18.0083 17.5704 17.8417 17.7288L16.0083 19.5621C13.65 18.3538 11.7167 16.4288 10.5167 14.0704L12.35 12.2371C12.5833 12.0038 12.65 11.6788 12.5583 11.3871C12.25 10.4538 12.0833 9.45377 12.0833 8.4121C12.0833 7.95377 11.7083 7.57877 11.25 7.57877Z" fill="#1B68B5"/>
    <rect y="0.0787659" width="30" height="30" rx="4" fill="#347AB6" fill-opacity="0.1"/>
</svg>

