<svg width="19" height="14" viewBox="0 0 19 14" fill="none" xmlns="http://www.w3.org/2000/svg">
<path d="M7.44787 10.2871H16.4014C16.5503 10.2869 16.6944 10.2349 16.8092 10.1401C16.924 10.0453 17.0023 9.91352 17.0306 9.76737L18.3115 3.05168C18.329 2.95918 18.3258 2.86414 18.3022 2.77299C18.2787 2.68184 18.2354 2.59686 18.1753 2.52439C18.1152 2.45191 18.0399 2.39356 17.9547 2.35353C17.8694 2.31351 17.7764 2.293 17.6823 2.29303H4.90896L4.34749 0.865685C4.25396 0.625855 4.08999 0.419867 3.87717 0.27506C3.66434 0.130253 3.4126 0.0533087 3.15519 0.0543597H1.03008C0.944881 0.0524508 0.860129 0.0675893 0.780855 0.098876C0.701581 0.130163 0.629396 0.176916 0.568462 0.2365C0.507528 0.296084 0.459112 0.367361 0.426057 0.445915C0.393003 0.524468 0.375977 0.608978 0.375977 0.694203C0.375977 0.779427 0.393003 0.863624 0.426057 0.942177C0.459112 1.02073 0.507528 1.09201 0.568462 1.15159C0.629396 1.21118 0.701581 1.25793 0.780855 1.28922C0.860129 1.3205 0.944881 1.33564 1.03008 1.33373H3.15519L6.39273 9.56266L5.40655 10.9696C5.23854 11.2093 5.13955 11.4908 5.12041 11.7828C5.10127 12.0749 5.16271 12.3666 5.298 12.6261C5.43329 12.8857 5.63722 13.1031 5.88761 13.2547C6.138 13.4063 6.42521 13.4859 6.7179 13.4854H16.4014C16.571 13.4854 16.7337 13.4182 16.8536 13.2983C16.9735 13.1783 17.0409 13.0158 17.0409 12.8462C17.0409 12.6766 16.9735 12.5138 16.8536 12.3938C16.7337 12.2739 16.571 12.2067 16.4014 12.2067H6.7179C6.6596 12.2062 6.60249 12.1898 6.55277 12.1593C6.50304 12.1289 6.46253 12.0856 6.4356 12.0339C6.40867 11.9822 6.39636 11.9241 6.39994 11.8659C6.40352 11.8077 6.42284 11.7515 6.4559 11.7035L7.44787 10.2871ZM13.8393 7.0895H11.5977V5.49099H13.8393V7.0895ZM14.4814 5.49099H16.5439L16.239 7.0895H14.4814V5.49099ZM13.8393 7.72934V9.00871H11.5977V7.72934H13.8393ZM11.5977 4.85146V3.57209H13.8393V4.85146H11.5977ZM10.9573 4.85146H8.7162V3.57209H10.9579L10.9573 4.85146ZM10.9573 5.49099V7.0895H8.7162V5.49099H10.9573ZM10.9573 7.72934V9.00871H8.7162V7.72934H10.9573ZM8.07518 9.00871H7.55093L7.04754 7.72934H8.07486L8.07518 9.00871ZM14.4798 9.00871V7.72934H16.1154L15.8711 9.00871H14.4798ZM16.6627 4.85146H14.4798V3.57209H16.9083L16.6627 4.85146ZM8.07353 3.57209V4.85146H5.91371L5.4107 3.57209H8.07353ZM6.16544 5.4913H8.07353V7.08981H6.79463L6.16544 5.4913Z" fill="#B41D8D"/>
</svg>
