<svg width="46" height="46" viewBox="0 0 46 46" fill="none" xmlns="http://www.w3.org/2000/svg">
<path d="M6.30027 19.8474L3.81543 20.2979V30.0248L6.30027 30.4753V19.8474Z" fill="#B41D8D"/>
<path d="M41.5669 20.2979L39.082 19.8474V30.4827L41.5669 30.0322V20.2979Z" fill="#B41D8D"/>
<path d="M29.7108 14.1679L28.708 11.45H16.6747L15.6719 14.1679H29.7108Z" fill="#B41D8D"/>
<path d="M25.9141 24.5006C26.2164 24.5006 26.5113 24.5006 26.703 24.5006C27.1602 24.5006 27.5583 24.1461 27.5583 23.7472C27.5583 23.3484 27.1602 22.9939 26.703 22.9939H25.9141C25.9141 23.2967 25.9141 24.2125 25.9141 24.5006Z" fill="#B41D8D"/>
<path d="M36.8698 19.7662C34.3481 17.5062 31.0817 16.2581 27.6973 16.2581H17.6842C14.2998 16.2581 11.0334 17.5062 8.51172 19.7662V31.3469C10.5173 34.4119 13.9312 36.2583 17.5957 36.2583H19.4391L22.6981 34.8551L25.9572 36.2583H27.8005C31.4577 36.2583 34.8716 34.4119 36.8846 31.3469V19.7662H36.8698ZM19.5055 30.1283H17.5736L14.5653 21.3985L16.6593 20.6747L18.5248 26.0736L20.3092 20.6894L22.4106 21.3911L19.5055 30.1283ZM28.2798 30.2834L25.9056 27.5802V29.855H23.6936V20.7781H26.7019C28.3978 20.7781 29.7692 22.1075 29.7692 23.7471C29.7692 24.9805 28.9876 26.0366 27.8816 26.4872L29.9388 28.821L28.2798 30.2834Z" fill="#B41D8D"/>
</svg>
