<svg width="24" height="24" viewBox="0 0 24 24" fill="none" xmlns="http://www.w3.org/2000/svg">
<path d="M24 15.0004C24 12.3604 21.95 10.2204 19.35 10.0404C18.67 6.59035 15.64 4.00035 12 4.00035C10.67 4.00035 9.43 4.36035 8.35 4.97035L9.84 6.46035C10.51 6.17035 11.23 6.00035 12 6.00035C15.04 6.00035 17.5 8.46035 17.5 11.5004V12.0004H19C20.66 12.0004 22 13.3404 22 15.0004C22 15.9904 21.52 16.8504 20.79 17.4004L22.2 18.8104C23.29 17.8904 24 16.5404 24 15.0004ZM4.41 3.86035L3 5.27035L5.77 8.04035H5.35C2.34 8.36035 0 10.9104 0 14.0004C0 17.3104 2.69 20.0004 6 20.0004H17.73L19.73 22.0004L21.14 20.5904L4.41 3.86035ZM6 18.0004C3.79 18.0004 2 16.2104 2 14.0004C2 11.7904 3.79 10.0004 6 10.0004H7.73L15.73 18.0004H6Z" fill="#323232"/>
</svg>
