<svg width="24" height="24" viewBox="0 0 24 24" fill="none" xmlns="http://www.w3.org/2000/svg">
<path d="M20 8.69043V4.00043H15.31L12 0.69043L8.69 4.00043H4V8.69043L0.690002 12.0004L4 15.3104V20.0004H8.69L12 23.3104L15.31 20.0004H20V15.3104L23.31 12.0004L20 8.69043ZM12 18.0004C8.69 18.0004 6 15.3104 6 12.0004C6 8.69043 8.69 6.00043 12 6.00043C15.31 6.00043 18 8.69043 18 12.0004C18 15.3104 15.31 18.0004 12 18.0004ZM12 8.00043C9.79 8.00043 8 9.79043 8 12.0004C8 14.2104 9.79 16.0004 12 16.0004C14.21 16.0004 16 14.2104 16 12.0004C16 9.79043 14.21 8.00043 12 8.00043Z" fill="#323232"/>
</svg>
