<svg width="24" height="24" viewBox="0 0 24 24" fill="none" xmlns="http://www.w3.org/2000/svg">
<path d="M19.9999 8.69043V4.00043H15.3099L11.9999 0.69043L8.68994 4.00043H3.99994V8.69043L0.689941 12.0004L3.99994 15.3104V20.0004H8.68994L11.9999 23.3104L15.3099 20.0004H19.9999V15.3104L23.3099 12.0004L19.9999 8.69043ZM17.9999 14.4804V18.0004H14.4799L11.9999 20.4804L9.51994 18.0004H5.99994V14.4804L3.51994 12.0004L5.99994 9.52043V6.00043H9.51994L11.9999 3.52043L14.4799 6.00043H17.9999V9.52043L20.4799 12.0004L17.9999 14.4804ZM11.9999 6.00043V18.0004C15.3099 18.0004 17.9999 15.3104 17.9999 12.0004C17.9999 8.69043 15.3099 6.00043 11.9999 6.00043Z" fill="#323232"/>
</svg>
