<svg width="30" height="30" viewBox="0 0 30 30" fill="none" xmlns="http://www.w3.org/2000/svg">
<rect width="30" height="30" rx="4" fill="#347AB6" fill-opacity="0.1"/>
<path d="M10.45 9.16667C10.5 9.90833 10.625 10.6333 10.825 11.325L9.825 12.325C9.48333 11.325 9.26667 10.2667 9.19167 9.16667H10.45ZM18.6667 19.1833C19.375 19.3833 20.1 19.5083 20.8333 19.5583V20.8C19.7333 20.725 18.675 20.5083 17.6667 20.175L18.6667 19.1833ZM11.25 7.5H8.33333C7.875 7.5 7.5 7.875 7.5 8.33333C7.5 16.1583 13.8417 22.5 21.6667 22.5C22.125 22.5 22.5 22.125 22.5 21.6667V18.7583C22.5 18.3 22.125 17.925 21.6667 17.925C20.6333 17.925 19.625 17.7583 18.6917 17.45C18.6083 17.4167 18.5167 17.4083 18.4333 17.4083C18.2167 17.4083 18.0083 17.4917 17.8417 17.65L16.0083 19.4833C13.65 18.275 11.7167 16.35 10.5167 13.9917L12.35 12.1583C12.5833 11.925 12.65 11.6 12.5583 11.3083C12.25 10.375 12.0833 9.375 12.0833 8.33333C12.0833 7.875 11.7083 7.5 11.25 7.5Z" fill="#1B68B5"/>
</svg>
