<svg width="24" height="24" viewBox="0 0 24 24" fill="none" xmlns="http://www.w3.org/2000/svg">
<path d="M21.6 18.2002L13 11.7502V10.8402C14.65 10.3502 15.8 8.67016 15.43 6.79016C15.17 5.48016 14.13 4.39016 12.82 4.09016C10.54 3.57016 8.50002 5.30016 8.50002 7.50016H10.5C10.5 6.67016 11.17 6.00016 12 6.00016C12.83 6.00016 13.5 6.67016 13.5 7.50016C13.5 8.34016 12.81 9.02016 11.97 9.00016C11.43 8.99016 11 9.45016 11 9.99016V11.7502L2.40002 18.2002C1.63002 18.7802 2.04002 20.0002 3.00002 20.0002H12H21C21.96 20.0002 22.37 18.7802 21.6 18.2002ZM6.00002 18.0002L12 13.5002L18 18.0002H6.00002Z" fill="#323232"/>
</svg>
