<svg width="24" height="24" viewBox="0 0 24 24" fill="none" xmlns="http://www.w3.org/2000/svg">
<path d="M16.9999 6V14.17L18.9999 16.17V3C18.9999 1.9 18.0999 1.01 16.9999 1.01L6.99989 1C6.14989 1 5.41989 1.55 5.12989 2.3L8.82989 6H16.9999ZM6.99989 3H16.9999V4H6.99989V3ZM21.1899 21.19L18.9999 19L16.9999 17L6.99989 7L4.99989 5L2.80989 2.81L1.38989 4.22L4.99989 7.83V21C4.99989 22.1 5.89989 23 6.99989 23H16.9999C17.8499 23 18.5799 22.45 18.8699 21.7L19.7799 22.61L21.1899 21.19ZM16.9999 21H6.99989V20H16.9999V21ZM6.99989 18V9.83L15.1699 18H6.99989Z" fill="#323232"/>
</svg>
