<svg width="24" height="24" viewBox="0 0 24 24" fill="none" xmlns="http://www.w3.org/2000/svg">
<path d="M10.9399 8.11961L7.47993 4.65961L8.99993 2.99961H14.9999L16.8299 4.99961H19.9999C21.0999 4.99961 21.9999 5.89961 21.9999 6.99961V18.9996C21.9999 19.0496 21.9899 19.0996 21.9799 19.1596L16.8799 14.0596C16.9599 13.7096 16.9999 13.3596 16.9999 12.9996C16.9999 10.2396 14.7599 7.99961 11.9999 7.99961C11.6399 7.99961 11.2899 8.03961 10.9399 8.11961ZM20.4899 23.3096L18.1699 20.9996H3.99993C2.89993 20.9996 1.99993 20.0996 1.99993 18.9996V6.99961C1.99993 6.40961 2.26993 5.87961 2.67993 5.50961L0.679932 3.50961L2.09993 2.09961L21.8999 21.8996L20.4899 23.3096ZM14.4899 17.3196L12.9899 15.8196C12.6699 15.9196 12.3499 15.9996 11.9999 15.9996C10.3399 15.9996 8.99993 14.6596 8.99993 12.9996C8.99993 12.6496 9.07993 12.3296 9.18993 12.0196L7.68993 10.5196C7.24993 11.2396 6.99993 12.0896 6.99993 12.9996C6.99993 15.7596 9.23993 17.9996 11.9999 17.9996C12.9099 17.9996 13.7599 17.7496 14.4899 17.3196Z" fill="#323232"/>
</svg>
