<svg width="24" height="24" viewBox="0 0 24 24" fill="none" xmlns="http://www.w3.org/2000/svg">
<path d="M7.99989 19.9996C7.99989 21.0996 7.09989 21.9996 5.99989 21.9996C4.89989 21.9996 3.99989 21.0996 3.99989 19.9996C3.99989 18.8996 4.89989 17.9996 5.99989 17.9996C7.09989 17.9996 7.99989 18.8996 7.99989 19.9996ZM14.9999 8.65957V12.1696L16.9999 14.1696V6.26957C17.5799 5.58957 17.9699 4.99957 18.6499 4.99957C19.4199 4.99957 19.9999 5.65957 19.9999 6.47957V6.99957H21.9999V6.47957C21.9999 4.55957 20.5199 2.99957 18.6499 2.99957C16.9899 2.99957 16.1099 4.26957 15.4699 5.02957L11.9699 9.13957L13.3899 10.5596L14.9999 8.65957ZM19.7799 22.6096L17.8699 20.6996C17.5799 21.4596 16.8599 21.9996 15.9999 21.9996C14.8999 21.9996 13.9999 21.0996 13.9999 19.9996C13.9999 19.1396 14.5399 18.4196 15.2999 18.1296L14.1699 16.9996H7.42989C6.57989 16.9996 6.11989 15.9996 6.66989 15.3496L9.35989 12.1896L1.38989 4.21957L2.79989 2.80957L10.6599 10.6696L12.0799 12.0896L21.1899 21.1996L19.7799 22.6096ZM12.1699 14.9996L10.7799 13.6096L9.59989 14.9996H12.1699ZM9.99989 4.99957C10.2899 4.99957 10.5799 5.01957 10.8599 5.04957L9.48989 6.66957L10.9099 8.08957L14.2999 4.09957C13.0299 3.39957 11.5599 2.99957 9.99989 2.99957C8.76989 2.99957 7.59989 3.24957 6.52989 3.69957L8.09989 5.26957C8.70989 5.09957 9.34989 4.99957 9.99989 4.99957Z" fill="#323232"/>
</svg>
