<svg width="24" height="24" viewBox="0 0 24 24" fill="none" xmlns="http://www.w3.org/2000/svg">
<path d="M16 22C17.1046 22 18 21.1046 18 20C18 18.8954 17.1046 18 16 18C14.8954 18 14 18.8954 14 20C14 21.1046 14.8954 22 16 22Z" fill="#323232"/>
<path d="M6 22C7.10457 22 8 21.1046 8 20C8 18.8954 7.10457 18 6 18C4.89543 18 4 18.8954 4 20C4 21.1046 4.89543 22 6 22Z" fill="#323232"/>
<path d="M21.9999 7V6.48C21.9999 4.56 20.5199 3 18.6499 3C16.9899 3 16.1099 4.27 15.4699 5.03L6.66995 15.35C6.11995 16 6.57995 17 7.42995 17H14.9999C16.0999 17 16.9999 16.1 16.9999 15V6.27C17.5799 5.59 17.9699 5 18.6499 5C19.4199 5 19.9999 5.66 19.9999 6.48V7H21.9999Z" fill="#323232"/>
<path d="M14.3 4.1C13.03 3.4 11.56 3 9.99997 3C8.02997 3 6.20997 3.64 4.71997 4.72L9.60997 9.61L14.3 4.1Z" fill="#323232"/>
</svg>
