<svg width="24" height="24" viewBox="0 0 24 24" fill="none" xmlns="http://www.w3.org/2000/svg">
<path d="M19.9999 8.69043V4.00043H15.3099L11.9999 0.69043L8.68994 4.00043H3.99994V8.69043L0.689941 12.0004L3.99994 15.3104V20.0004H8.68994L11.9999 23.3104L15.3099 20.0004H19.9999V15.3104L23.3099 12.0004L19.9999 8.69043ZM17.9999 14.4804V18.0004H14.4799L11.9999 20.4804L9.51994 18.0004H5.99994V14.4804L3.51994 12.0004L5.99994 9.52043V6.00043H9.51994L11.9999 3.52043L14.4799 6.00043H17.9999V9.52043L20.4799 12.0004L17.9999 14.4804ZM12.2899 7.00043C11.5499 7.00043 10.8399 7.17043 10.2099 7.46043C11.9299 8.25043 13.1299 9.99043 13.1299 12.0004C13.1299 14.0104 11.9299 15.7504 10.2099 16.5404C10.8399 16.8304 11.5499 17.0004 12.2899 17.0004C15.0499 17.0004 17.2899 14.7604 17.2899 12.0004C17.2899 9.24043 15.0499 7.00043 12.2899 7.00043Z" fill="#323232"/>
</svg>
