<svg width="24" height="24" viewBox="0 0 24 24" fill="none" xmlns="http://www.w3.org/2000/svg">
<path d="M17.5 15V13H18.6L19.5 15H21L20.1 12.9C20.6 12.7 21 12.1 21 11.5V10.5C21 9.7 20.3 9 19.5 9H16V13.9L17.1 15H17.5ZM17.5 10.5H19.5V11.5H17.5V10.5ZM13 10.5V10.9L14.5 12.4V10.5C14.5 9.7 13.8 9 13 9H11.1L12.6 10.5H13ZM9.50002 9.5L2.50002 2.5L1.40002 3.5L6.90002 9H6.50002V11H4.50002V9H3.00002V15H4.50002V12.5H6.50002V15H8.00002V10.1L9.50002 11.6V15H12.9L20.5 22.6L21.6 21.5L9.50002 9.5V9.5Z" fill="#323232"/>
</svg>
