<svg width="24" height="24" viewBox="0 0 24 24" fill="none" xmlns="http://www.w3.org/2000/svg">
<path d="M14 3.00035H12C12 4.35035 11.69 5.63035 11.16 6.77035L12.65 8.26035C13.51 6.70035 14 4.91035 14 3.00035ZM21 12.0004V10.0004C19.09 10.0004 17.3 10.4904 15.73 11.3504L17.22 12.8404C18.37 12.3104 19.65 12.0004 21 12.0004ZM21 16.0004V14.0004C20.21 14.0004 19.46 14.1304 18.76 14.3704L20.44 16.0504C20.63 16.0404 20.81 16.0004 21 16.0004ZM10 3.00035H8C8 3.19035 7.96 3.37035 7.94 3.56035L9.62 5.24035C9.87 4.54035 10 3.78035 10 3.00035ZM4.41 2.86035L3 4.27035L5.84 7.11035C5.03 7.67035 4.06 8.00035 3 8.00035V10.0004C4.61 10.0004 6.09 9.45035 7.27 8.54035L8.7 9.97035C7.14 11.2404 5.16 12.0004 3 12.0004V14.0004C5.72 14.0004 8.2 13.0104 10.11 11.3804L12.62 13.8904C10.99 15.8104 10 18.2904 10 21.0004H12C12 18.8404 12.76 16.8604 14.03 15.3004L15.46 16.7304C14.55 17.9104 14 19.3904 14 21.0004H16C16 19.9404 16.33 18.9704 16.89 18.1604L19.73 21.0004L21.14 19.5904L4.41 2.86035Z" fill="#323232"/>
</svg>
