<svg width="24" height="24" viewBox="0 0 24 24" fill="none" xmlns="http://www.w3.org/2000/svg">
<path d="M21.19 21.19L2.81001 2.81L1.39001 4.22L5.17001 8H4.00001L5.00001 18H6.00001C6.00001 20.21 7.79001 22 10 22C12.21 22 14 20.21 14 18V16.83L19.78 22.61L21.19 21.19V21.19ZM12 18C12 19.1 11.1 20 10 20C8.90001 20 8.00001 19.1 8.00001 18H9.00001L9.56001 12.39L12 14.83V18ZM14 6V11.17L12 9.17V6C12 3.79 13.79 2 16 2C18.21 2 20 3.79 20 6V17.17L18 15.17V6C18 4.9 17.1 4 16 4C14.9 4 14 4.9 14 6ZM10 5C10 5.62 9.80001 6.18 9.48001 6.66L5.33001 2.51C5.81001 2.19 6.38001 2 7.00001 2C8.66001 2 10 3.34 10 5Z" fill="#323232"/>
</svg>
