<svg width="24" height="24" viewBox="0 0 24 24" fill="none" xmlns="http://www.w3.org/2000/svg">
<path d="M2.52998 19.65L3.86998 20.21V11.18L1.43998 17.04C1.02998 18.06 1.51998 19.23 2.52998 19.65ZM22.03 15.95L17.07 3.98C16.76 3.23 16.03 2.77 15.26 2.75C15 2.75 14.73 2.79 14.47 2.9L7.09998 5.95C6.34998 6.26 5.88998 6.98 5.86998 7.75C5.85998 8.02 5.90998 8.29 6.01998 8.55L10.98 20.52C11.29 21.28 12.03 21.74 12.81 21.75C13.07 21.75 13.33 21.7 13.58 21.6L20.94 18.55C21.96 18.13 22.45 16.96 22.03 15.95ZM12.83 19.75L7.86998 7.79L15.22 4.75H15.23L20.18 16.7L12.83 19.75Z" fill="#323232"/>
<path d="M11 10C11.5523 10 12 9.55228 12 9C12 8.44772 11.5523 8 11 8C10.4477 8 10 8.44772 10 9C10 9.55228 10.4477 10 11 10Z" fill="#323232"/>
<path d="M5.88 19.7502C5.88 20.8502 6.78 21.7502 7.88 21.7502H9.33L5.88 13.4102V19.7502Z" fill="#323232"/>
</svg>
