<svg width="24" height="24" viewBox="0 0 24 24" fill="none" xmlns="http://www.w3.org/2000/svg">
<path d="M5.00005 14.4998H19V8.4998H5.00005V14.4998ZM11 0.549805V3.4998H13V0.549805H11ZM19.04 3.0498L17.25 4.8398L18.66 6.2498L20.46 4.4598L19.04 3.0498ZM13 22.4498V19.4998H11V22.4498H13ZM20.4501 18.5398L18.65 16.7498L17.24 18.1598L19.03 19.9598L20.4501 18.5398V18.5398ZM3.55005 4.4598L5.34005 6.2498L6.75005 4.8398L4.96005 3.0498L3.55005 4.4598ZM4.96005 19.9498L6.75005 18.1498L5.34005 16.7398L3.55005 18.5298L4.96005 19.9498V19.9498Z" fill="#323232"/>
</svg>
