<svg width="100" height="100" viewBox="0 0 100 100" fill="none" xmlns="http://www.w3.org/2000/svg">
<path d="M52.484 23.364C52.7055 23.2856 52.9196 23.1879 53.124 23.072C53.409 22.8964 53.6562 22.6656 53.8509 22.3933C54.0456 22.1209 54.184 21.8125 54.258 21.486C54.3056 21.2619 54.3244 21.0328 54.314 20.804C54.29 20.5516 54.2405 20.3023 54.166 20.06C54.028 19.542 53.878 18.978 53.716 18.376L52.624 14.268L51.304 9.28797C51.186 8.83997 51.066 8.38597 50.942 7.92197C50.8438 7.45829 50.6163 7.03187 50.286 6.69197C49.945 6.34494 49.5073 6.10868 49.03 6.01397C48.5341 5.92857 48.0245 5.97477 47.552 6.14797L34.45 9.59997C33.8895 9.74942 33.4009 10.0941 33.072 10.572C32.7459 11.0425 32.6004 11.6148 32.662 12.184C32.7033 12.4677 32.7662 12.7478 32.85 13.022C32.924 13.304 32.996 13.584 33.07 13.862C33.2167 14.4193 33.3614 14.972 33.504 15.52C34.078 17.72 34.63 19.826 35.158 21.842C35.4247 22.85 35.6807 23.8313 35.926 24.786C36.0089 25.2545 36.2106 25.6938 36.512 26.062C36.8094 26.4111 37.1999 26.6684 37.638 26.804C38.514 27.112 39.384 26.694 40.214 26.514L42.614 25.892L49.836 24.028L51.802 23.53L52.314 23.406C52.43 23.378 52.49 23.37 52.49 23.37C52.49 23.37 52.434 23.392 52.32 23.424L51.812 23.568L49.854 24.1L42.654 26.024L40.254 26.658L38.982 26.992C38.5149 27.1105 38.024 27.0962 37.5646 26.9506C37.1051 26.805 36.6956 26.5339 36.382 26.168C36.0621 25.7822 35.8466 25.3209 35.756 24.828C35.504 23.876 35.2453 22.8953 34.98 21.886C34.45 19.872 33.892 17.76 33.316 15.568C33.172 15.02 33.0267 14.4673 32.88 13.91C32.8053 13.6326 32.7313 13.3526 32.658 13.07C32.5692 12.7869 32.5023 12.4974 32.458 12.204C32.3916 11.5891 32.5485 10.9708 32.9 10.462C33.256 9.9391 33.7886 9.56206 34.4 9.39997L47.504 5.96797C48.0031 5.7897 48.54 5.74422 49.062 5.83597C49.5719 5.9424 50.038 6.19951 50.4 6.57397C50.7491 6.93653 50.9895 7.38967 51.094 7.88197C51.214 8.34397 51.334 8.79997 51.45 9.24797C51.916 11.048 52.35 12.708 52.746 14.234C53.142 15.76 53.498 17.136 53.812 18.348C53.968 18.9546 54.1133 19.5173 54.248 20.036C54.323 20.2852 54.3739 20.541 54.4 20.8C54.4087 21.0366 54.3859 21.2734 54.332 21.504C54.2529 21.837 54.1069 22.1506 53.9031 22.4256C53.6992 22.7006 53.4417 22.9314 53.146 23.104C52.9939 23.194 52.8313 23.2652 52.662 23.316C52.544 23.352 52.484 23.364 52.484 23.364Z" fill="#E0E0E0"/>
<path d="M47.216 18.2439C47.1767 18.2615 47.1358 18.2756 47.094 18.2859L46.742 18.3859L45.43 18.7479L41.03 19.9319H40.994L40.978 19.8979L40.674 19.1999L38.544 14.0959L38.576 14.1099L37.4 14.4099L37.086 14.4859L36.976 14.5079C37.0101 14.4925 37.0456 14.4805 37.082 14.4719L37.392 14.3819L38.564 14.0579H38.588V14.0799L40.746 19.1739L41.042 19.8799L40.992 19.8539L45.408 18.6979L46.726 18.3619L47.082 18.2759C47.1257 18.2615 47.1705 18.2508 47.216 18.2439Z" fill="#E0E0E0"/>
<path d="M40.49 18.652C40.49 18.652 40.5 18.652 40.52 18.64L40.61 18.612L40.964 18.512L42.288 18.148L46.864 16.918L46.834 16.962C46.766 16.162 46.692 15.284 46.614 14.38C46.576 13.916 46.536 13.46 46.5 13.024L46.554 13.062L41.154 14.478L39.554 14.89L39.122 14.998L39.01 15.022C38.984 15.022 38.972 15.022 38.97 15.022L39.008 15.01L39.118 14.976L39.548 14.854L41.148 14.418L46.548 12.974L46.596 12.96V13.01C46.632 13.446 46.67 13.902 46.71 14.366C46.786 15.27 46.858 16.142 46.926 16.95V16.984H46.892L42.308 18.184L40.978 18.524L40.62 18.612L40.528 18.634L40.49 18.652Z" fill="#E0E0E0"/>
<path d="M43 21.1619C43 21.1619 42.978 21.1099 42.926 21.0239C42.853 20.9044 42.7427 20.8123 42.612 20.7619C42.5175 20.7257 42.4155 20.7133 42.315 20.7258C42.2145 20.7384 42.1187 20.7755 42.036 20.8339C41.9739 20.8869 41.9233 20.9519 41.8872 21.025C41.8511 21.0981 41.8303 21.1778 41.8261 21.2593C41.8218 21.3407 41.8342 21.4222 41.8625 21.4987C41.8908 21.5752 41.9344 21.6451 41.9906 21.7042C42.0468 21.7632 42.1145 21.8102 42.1895 21.8423C42.2645 21.8743 42.3452 21.8908 42.4268 21.8905C42.5083 21.8903 42.589 21.8735 42.6638 21.8411C42.7387 21.8087 42.8061 21.7613 42.862 21.7019C42.9501 21.5937 43 21.4594 43.004 21.3199C43.004 21.2199 42.992 21.1639 43.004 21.1619C43.0296 21.2106 43.0427 21.2649 43.042 21.3199C43.05 21.4706 43.0047 21.6193 42.914 21.7399C42.8452 21.832 42.7539 21.9049 42.6488 21.9514C42.5437 21.998 42.4284 22.0168 42.314 22.0059C42.1743 21.9942 42.0416 21.9395 41.9341 21.8493C41.8267 21.7592 41.7498 21.6381 41.7138 21.5025C41.6779 21.3669 41.6848 21.2236 41.7335 21.0921C41.7822 20.9606 41.8704 20.8474 41.986 20.7679C42.0792 20.7036 42.1872 20.6641 42.2999 20.6532C42.4127 20.6424 42.5263 20.6605 42.63 20.7059C42.7684 20.7666 42.8814 20.8733 42.95 21.0079C42.9791 21.0544 42.9963 21.1073 43 21.1619Z" fill="#E0E0E0"/>
<path d="M47 20.1041C47 20.1041 46.978 20.0501 46.926 19.9661C46.8524 19.847 46.7422 19.7551 46.612 19.7041C46.5088 19.6645 46.3966 19.6543 46.288 19.6744C46.1793 19.6946 46.0783 19.7444 45.9961 19.8183C45.914 19.8922 45.8538 19.9873 45.8223 20.0933C45.7908 20.1992 45.7891 20.3118 45.8175 20.4186C45.8459 20.5254 45.9033 20.6223 45.9833 20.6986C46.0633 20.7748 46.1627 20.8275 46.2708 20.8509C46.3788 20.8742 46.4912 20.8672 46.5955 20.8307C46.6998 20.7942 46.792 20.7296 46.862 20.6441C46.9501 20.5351 47 20.4002 47.004 20.2601C47.004 20.1621 46.992 20.1061 47.004 20.1041C47.0299 20.1519 47.0429 20.2057 47.042 20.2601C47.0505 20.4108 47.0051 20.5597 46.914 20.6801C46.8461 20.7706 46.7564 20.8425 46.6532 20.889C46.55 20.9355 46.4368 20.9552 46.324 20.9461C46.1844 20.9342 46.052 20.8794 45.9449 20.7892C45.8378 20.699 45.7612 20.5779 45.7257 20.4424C45.6902 20.307 45.6975 20.1638 45.7466 20.0327C45.7957 19.9016 45.8842 19.7889 46 19.7101C46.0935 19.6457 46.2019 19.6062 46.3149 19.5953C46.428 19.5845 46.5419 19.6026 46.646 19.6481C46.7847 19.7082 46.8979 19.815 46.966 19.9501C46.9897 19.9979 47.0013 20.0507 47 20.1041Z" fill="#E0E0E0"/>
<path d="M83.336 95.13C78.846 92.93 77.118 87.806 76.552 83.056C76.458 82.256 76.242 81.456 76.512 80.696C76.782 79.936 77.582 79.338 78.34 79.562C78.968 79.748 79.328 80.39 79.74 80.902C80.2938 81.5864 81.0292 82.1007 81.862 82.386C82.404 82.568 83.05 82.632 83.504 82.282C84.128 81.802 84.062 80.85 83.938 80.066L83.236 75.684C83.11 74.9 82.984 74.1 83.114 73.318C83.244 72.536 83.676 71.762 84.39 71.438C85.104 71.114 86.094 71.402 86.368 72.146C86.484 72.454 86.47 72.796 86.542 73.118C86.614 73.44 86.82 73.778 87.142 73.822C87.464 73.866 87.742 73.594 87.942 73.328C88.63 72.412 89.022 71.308 89.38 70.214C89.738 69.12 90.076 68.004 90.678 67.028C91.28 66.052 92.19 65.21 93.304 64.972C94.418 64.734 95.722 65.246 96.176 66.304C96.63 67.362 96.168 68.588 95.6 69.6C94.7634 71.0883 93.7159 72.4477 92.49 73.636C92.27 73.85 92.03 74.08 91.98 74.386C91.89 74.934 92.466 75.386 93.008 75.47C93.624 75.576 94.248 75.418 94.872 75.394C95.496 75.37 96.198 75.54 96.518 76.084C96.964 76.836 96.422 77.78 95.846 78.432C94.6926 79.735 93.3241 80.8303 91.8 81.67C91.254 81.968 90.676 82.248 90.272 82.724C89.868 83.2 89.698 83.95 90.072 84.46C90.446 84.97 91.186 85.036 91.774 84.83C92.362 84.624 92.852 84.214 93.394 83.908C94.41 83.334 95.814 83.194 96.648 84.02C97.196 84.564 97.366 85.41 97.248 86.176C97.13 86.942 96.762 87.64 96.356 88.296C94.94 90.59 92.98 92.562 90.612 93.814C88.244 95.066 85.962 95.658 83.338 95.13" fill="#F5F5F5"/>
<path d="M84.0999 91.98C84.4882 89.2844 85.0311 86.6133 85.7259 83.98C85.9059 83.2787 86.0839 82.5867 86.2599 81.904C86.4359 81.224 86.6119 80.55 86.8239 79.904C87.2345 78.658 87.7132 77.4355 88.2579 76.242C88.7699 75.1 89.2979 74.042 89.7979 73.042C90.2979 72.042 90.7879 71.134 91.2679 70.318C92.0169 69.0264 92.8676 67.7965 93.8119 66.64C94.1439 66.24 94.4119 65.922 94.5979 65.716L94.8099 65.482C94.8325 65.4541 94.858 65.4286 94.8859 65.406C94.8665 65.436 94.8451 65.4648 94.8219 65.492L94.6219 65.736C94.4459 65.948 94.1839 66.262 93.8579 66.678C92.9331 67.8449 92.0974 69.0797 91.3579 70.372C90.8859 71.188 90.4059 72.106 89.9079 73.098C89.4099 74.09 88.8899 75.16 88.3819 76.298C87.8429 77.4888 87.3689 78.7079 86.9619 79.95C86.7519 80.596 86.5799 81.264 86.4019 81.95C86.2239 82.636 86.0499 83.324 85.8699 84.024C85.1767 86.6515 84.6305 89.3157 84.2339 92.004" fill="#E0E0E0"/>
<path d="M86.8641 79.892C86.8108 79.7892 86.7679 79.6813 86.7361 79.57C86.6621 79.358 86.5641 79.05 86.4501 78.668C86.2181 77.904 85.9361 76.838 85.6281 75.668C85.3201 74.498 85.0281 73.432 84.7801 72.668C84.6601 72.288 84.5601 71.982 84.4881 71.77C84.4442 71.6631 84.412 71.5518 84.3921 71.438C84.4535 71.5361 84.5038 71.6407 84.5421 71.75C84.6301 71.95 84.7421 72.258 84.8781 72.634C85.1461 73.388 85.4601 74.446 85.7681 75.624C86.0761 76.802 86.3401 77.836 86.5481 78.64C86.6441 79.002 86.7261 79.308 86.7921 79.552C86.8291 79.6622 86.8532 79.7763 86.8641 79.892Z" fill="#E0E0E0"/>
<path d="M96.6619 76.4561C96.5322 76.5047 96.3983 76.5415 96.2619 76.5661C96.0079 76.6281 95.6379 76.7181 95.1839 76.8421C94.2759 77.0841 93.0319 77.4621 91.6779 77.9381C90.3239 78.4141 89.1199 78.9041 88.2579 79.2821C87.8259 79.4661 87.4799 79.6261 87.2399 79.7341C87.1183 79.798 86.9911 79.8509 86.8599 79.8921C86.9716 79.8147 87.0901 79.7478 87.2139 79.6921C87.4479 79.5661 87.7879 79.3921 88.2139 79.1941C89.0679 78.7941 90.2719 78.2881 91.6279 77.8081C92.7851 77.3948 93.9626 77.041 95.1559 76.7481C95.6139 76.6361 95.9879 76.5621 96.2479 76.5181C96.3837 76.4844 96.5223 76.4636 96.6619 76.4561Z" fill="#E0E0E0"/>
<path d="M84.2 91.7758C84.1655 91.7429 84.1359 91.7052 84.112 91.6638L83.882 91.3258C83.682 91.0298 83.412 90.5958 83.082 90.0558C82.418 88.9758 81.546 87.4558 80.608 85.7618C79.67 84.0678 78.808 82.5418 78.174 81.4478L77.4 80.1558C77.318 80.0158 77.25 79.8998 77.2 79.8038C77.1727 79.7637 77.1512 79.7199 77.136 79.6738C77.1694 79.7085 77.1989 79.7467 77.224 79.7878C77.286 79.8798 77.362 79.9878 77.452 80.1258C77.652 80.4198 77.924 80.8538 78.252 81.3938C78.916 82.4758 79.786 83.9938 80.726 85.6898C81.666 87.3858 82.526 88.9098 83.16 90.0018L83.922 91.2938L84.122 91.6478C84.1534 91.687 84.1796 91.73 84.2 91.7758Z" fill="#E0E0E0"/>
<path d="M96.9339 85.3999C96.8967 85.4314 96.8549 85.457 96.8099 85.4759L96.4399 85.6659L95.0759 86.3519C93.9259 86.9319 92.3439 87.7519 90.5979 88.6559C88.8519 89.5599 87.2619 90.3679 86.0979 90.9239C85.5159 91.2019 85.0439 91.4219 84.7139 91.5679L84.3319 91.7339C84.2888 91.7555 84.2431 91.7716 84.1959 91.7819C84.234 91.7515 84.2756 91.726 84.3199 91.7059L84.6899 91.5159L86.0519 90.8299C87.2039 90.2519 88.7859 89.4299 90.5319 88.5259C92.2779 87.6219 93.8679 86.8139 95.0299 86.2579C95.6119 85.9799 96.0859 85.7599 96.4159 85.6139L96.7959 85.4499C96.8395 85.4271 96.8859 85.4102 96.9339 85.3999Z" fill="#E0E0E0"/>
<path d="M6.49402 22.7379C6.49402 22.7379 4.26402 23.2799 6.03402 28.1079C7.80402 32.9359 9.13802 35.3819 9.13802 35.3819C9.13802 35.3819 9.42202 36.4879 8.51202 36.5439C7.60202 36.5999 5.68602 36.0519 5.15802 37.0899C4.61002 38.1679 5.30202 39.3319 6.85002 40.4659C8.39802 41.5999 11.698 44.2099 12 44.4479C12.302 44.6859 12.548 45.2099 11.936 45.3479C11.324 45.4859 6.86602 45.4119 6.95802 47.5279C7.05002 49.6439 11.878 52.0979 12.4 52.3759C12.922 52.6539 13.026 52.9019 12.946 53.1979C12.866 53.4939 11.368 53.3279 10.1 53.3579C8.83202 53.3879 7.36602 53.6479 7.52202 54.8659C7.67802 56.0839 10.37 58.9259 17.554 60.5179L20.93 61.0379L23.13 58.3959C27.476 52.4599 27.624 48.5459 26.93 47.5279C26.236 46.5099 24.972 47.2839 23.998 48.0979C23.024 48.9119 22.01 50.0239 21.754 49.8559C21.498 49.6879 21.412 49.4319 21.62 48.8779C21.828 48.3239 23.842 43.2939 22.514 41.6419C21.186 39.9899 17.886 42.9879 17.334 43.2899C16.782 43.5919 16.626 43.0219 16.692 42.6539C16.758 42.2859 17.516 38.1419 17.932 36.2679C18.348 34.3939 18.096 33.0679 16.974 32.6159C15.892 32.1819 14.812 33.8619 14.092 34.4159C13.372 34.9699 12.856 33.9559 12.856 33.9559C12.856 33.9559 12.244 31.2379 10.388 26.4419C8.53202 21.6459 6.45002 22.7499 6.45002 22.7499" fill="#EBEBEB"/>
<path d="M21.01 61.856C19.66 58.33 17.366 52.02 15.368 46.614C13.37 41.208 11.558 36.318 10.226 32.784C9.55999 31.022 9.02599 29.584 8.64399 28.602C8.45999 28.11 8.31399 27.728 8.21599 27.464C8.16799 27.336 8.13199 27.238 8.10599 27.166C8.07999 27.094 8.07199 27.064 8.07199 27.064C8.07199 27.064 8.08799 27.096 8.11599 27.162L8.23599 27.456L8.68399 28.586C9.06999 29.568 9.62199 30.986 10.296 32.758C11.646 36.284 13.47 41.172 15.468 46.578C17.466 51.984 19.748 58.296 21.08 61.83" fill="#E0E0E0"/>
<path d="M7.81198 37.9658C7.89109 37.9899 7.96749 38.0221 8.03998 38.0618C8.18398 38.1278 8.38998 38.2298 8.63998 38.3578C9.14398 38.6158 9.83998 38.9918 10.588 39.4178L12.512 40.5178L13.096 40.8478C13.1671 40.8831 13.2341 40.9261 13.296 40.9758C13.2165 40.9546 13.1399 40.9237 13.068 40.8838C12.924 40.8178 12.718 40.7158 12.468 40.5838C11.964 40.3198 11.28 39.9378 10.528 39.5098L8.59998 38.4238L8.01398 38.0978C7.9411 38.063 7.87317 38.0186 7.81198 37.9658Z" fill="#E0E0E0"/>
<path d="M13.568 40.788C13.542 40.774 14.252 39.32 15.152 37.538C16.052 35.756 16.806 34.324 16.832 34.338C16.858 34.352 16.148 35.806 15.248 37.588C14.348 39.37 13.6 40.8 13.568 40.788Z" fill="#E0E0E0"/>
<path d="M16.262 49.228C16.3074 49.1548 16.3618 49.0877 16.424 49.028L16.892 48.528C17.292 48.104 17.83 47.528 18.404 46.848C18.978 46.168 19.482 45.556 19.84 45.102L20.266 44.564C20.3147 44.4952 20.3703 44.4315 20.432 44.374C20.3956 44.4498 20.3514 44.5215 20.3 44.588C20.208 44.722 20.074 44.914 19.9 45.148C19.556 45.614 19.064 46.246 18.486 46.918C17.908 47.59 17.356 48.17 16.946 48.58C16.746 48.78 16.574 48.948 16.454 49.058C16.3957 49.1209 16.3314 49.1778 16.262 49.228Z" fill="#E0E0E0"/>
<path d="M10.492 47.8218C10.5704 47.8223 10.6484 47.8331 10.724 47.8538L11.346 47.9798C11.868 48.0898 12.59 48.2498 13.386 48.4338C14.182 48.6178 14.902 48.7878 15.42 48.9178L16.034 49.0758C16.1105 49.0914 16.185 49.1156 16.256 49.1478C16.1783 49.1473 16.101 49.1365 16.026 49.1158L15.4 48.9998C14.876 48.8898 14.154 48.7298 13.358 48.5458C12.562 48.3618 11.844 48.1918 11.324 48.0618L10.71 47.9038C10.6343 47.8854 10.5611 47.8578 10.492 47.8218Z" fill="#E0E0E0"/>
<path d="M11.924 55.574C12.023 55.5809 12.1213 55.5956 12.218 55.618L13.018 55.776C13.69 55.914 14.618 56.112 15.638 56.338C16.658 56.564 17.586 56.772 18.252 56.928L19.052 57.128C19.1503 57.1475 19.2467 57.1756 19.34 57.212C19.2401 57.2077 19.1409 57.193 19.044 57.168L18.244 57.01C17.572 56.872 16.644 56.674 15.624 56.448C14.604 56.222 13.668 56 13 55.85L12.2 55.65C12.1056 55.6343 12.0131 55.6088 11.924 55.574Z" fill="#E0E0E0"/>
<path d="M19.162 57.1159C19.2206 57.0264 19.2875 56.9427 19.362 56.8659L19.932 56.2099C20.414 55.6539 21.074 54.8859 21.782 54.0099C22.49 53.1339 23.11 52.3379 23.554 51.7539L24.082 51.0619C24.1415 50.9743 24.2084 50.892 24.282 50.8159C24.2339 50.9106 24.1777 51.001 24.114 51.0859C23.998 51.2579 23.828 51.5019 23.612 51.7999C23.182 52.3999 22.57 53.1999 21.862 54.0779C21.154 54.9559 20.482 55.7099 19.986 56.2539C19.738 56.5239 19.534 56.7419 19.386 56.8879C19.3171 56.9694 19.2422 57.0456 19.162 57.1159Z" fill="#E0E0E0"/>
<path d="M93.028 95.4961C93.028 95.5261 73.762 95.5481 50.002 95.5481C26.242 95.5481 6.97205 95.5261 6.97205 95.4961C6.97205 95.4661 26.234 95.4441 50.002 95.4441C73.77 95.4441 93.028 95.4681 93.028 95.4961Z" fill="#263238"/>
<path d="M83.72 13.116H77.92C77.5393 13.126 77.1781 13.2865 76.9156 13.5625C76.6531 13.8385 76.5109 14.2073 76.52 14.588V15.64C76.5291 16.0207 76.3869 16.3895 76.1244 16.6655C75.8619 16.9415 75.5007 17.102 75.12 17.112H63.81C63.4279 17.1026 63.065 16.9422 62.8008 16.666C62.5366 16.3898 62.3925 16.0202 62.4 15.638V14.576C62.4075 14.1957 62.2647 13.8278 62.0026 13.5522C61.7405 13.2766 61.3802 13.1155 61 13.104H58.96H53.882C52.6706 13.104 51.5089 13.5849 50.6519 14.4411C49.795 15.2973 49.3131 16.4587 49.312 17.67L49.298 90.904C49.298 92.1146 49.7788 93.2757 50.6346 94.132C51.4905 94.9882 52.6514 95.4695 53.862 95.47L83.73 95.488C84.3297 95.4885 84.9236 95.3709 85.4778 95.1417C86.032 94.9126 86.5356 94.5765 86.9598 94.1527C87.384 93.7288 87.7206 93.2255 87.9502 92.6715C88.1798 92.1175 88.298 91.5237 88.298 90.924L88.312 17.688C88.3128 17.0857 88.1944 16.4892 87.9637 15.9328C87.733 15.3764 87.3944 14.8712 86.9676 14.4462C86.5408 14.0213 86.0341 13.6849 85.4767 13.4566C84.9193 13.2283 84.3223 13.1126 83.72 13.116Z" fill="white"/>
<path d="M83.72 13.1161C83.72 13.1161 83.772 13.1161 83.876 13.1161C84.0307 13.1158 84.1851 13.1272 84.338 13.1501C84.9454 13.2266 85.5296 13.4311 86.052 13.7501C86.4393 13.9773 86.79 14.2619 87.092 14.5941C87.4616 14.9928 87.7563 15.4549 87.962 15.9581C88.1994 16.5469 88.3157 17.1774 88.304 17.8121C88.304 18.4861 88.304 19.2121 88.304 19.9641C88.304 26.0481 88.314 34.8501 88.32 45.7241C88.326 56.5981 88.32 69.5521 88.32 83.9241V90.7681C88.3308 91.2408 88.2722 91.7125 88.146 92.1681C88.0186 92.6249 87.8217 93.0593 87.562 93.4561C87.2975 93.8512 86.9776 94.2061 86.612 94.5101C85.8611 95.1183 84.9387 95.4763 83.974 95.5341C83.018 95.5621 82.066 95.5341 81.106 95.5461H75.298H63.364H54.1781C53.1204 95.6001 52.0743 95.3057 51.2 94.7081C50.3351 94.1018 49.7007 93.2207 49.4 92.2081C49.2574 91.7063 49.1934 91.1855 49.21 90.6641V89.1241C49.21 87.0761 49.21 85.0408 49.21 83.0181C49.21 78.9781 49.21 74.9994 49.21 71.0821C49.21 63.2561 49.21 55.7081 49.21 48.5161C49.21 41.3241 49.21 34.4921 49.21 28.0961C49.21 24.8961 49.21 21.8121 49.21 18.8441C49.21 18.4721 49.21 18.1021 49.21 17.7361C49.21 17.5521 49.226 17.3661 49.236 17.1821C49.246 16.9981 49.282 16.8161 49.328 16.6381C49.4929 15.9264 49.8224 15.2634 50.29 14.7021C50.7441 14.1622 51.3154 13.7332 51.9604 13.4476C52.6054 13.162 53.3071 13.0274 54.012 13.0541H57.992H60.844C61.1633 13.0371 61.4793 13.1249 61.744 13.3041C62.0015 13.4852 62.1964 13.7416 62.302 14.0381C62.3897 14.3302 62.421 14.6363 62.394 14.9401V15.4001C62.3896 15.5456 62.3943 15.6912 62.408 15.8361C62.4508 16.1217 62.5783 16.3878 62.774 16.6001C62.956 16.8134 63.2 16.9644 63.472 17.0321C63.6062 17.0643 63.7441 17.0784 63.882 17.0741H65.952H71.972H74.626C74.836 17.0741 75.05 17.0741 75.248 17.0741C75.4465 17.0493 75.637 16.981 75.806 16.8741C75.9686 16.7711 76.1089 16.6366 76.2188 16.4786C76.3287 16.3207 76.406 16.1423 76.446 15.9541C76.479 15.7707 76.4911 15.5842 76.482 15.3981C76.482 15.2141 76.482 15.0321 76.482 14.8521C76.474 14.6744 76.482 14.4964 76.506 14.3201C76.5349 14.1488 76.5931 13.9837 76.6781 13.8321C76.8396 13.5453 77.0944 13.3223 77.4 13.2001C77.6932 13.1077 78.002 13.075 78.308 13.1041H81.27H83.09H83.712H83.09H81.27H78.308C78.016 13.1041 77.708 13.0741 77.416 13.2021C77.1154 13.3228 76.8659 13.544 76.71 13.8281C76.6291 13.9766 76.573 14.1374 76.544 14.3041C76.5225 14.4779 76.5151 14.6531 76.522 14.8281C76.522 15.0081 76.522 15.1901 76.522 15.3741C76.5298 15.5635 76.5177 15.7532 76.486 15.9401C76.445 16.135 76.3655 16.3198 76.2521 16.4836C76.1388 16.6474 75.994 16.787 75.826 16.8941C75.6493 17.0031 75.4505 17.0714 75.244 17.0941C75.032 17.1121 74.828 17.0941 74.616 17.0941H63.882C63.7375 17.0998 63.5928 17.0857 63.4521 17.0521C63.1647 16.9817 62.907 16.8221 62.716 16.5961C62.5196 16.3707 62.3937 16.0925 62.354 15.7961C62.3416 15.6645 62.3369 15.5323 62.3401 15.4001V14.9481C62.3649 14.6537 62.3344 14.3573 62.25 14.0741C62.1506 13.7934 61.966 13.5508 61.722 13.3801C61.4704 13.2111 61.1708 13.1282 60.868 13.1441H54.036C53.3444 13.1181 52.656 13.2505 52.0234 13.5312C51.3908 13.812 50.8307 14.2337 50.386 14.7641C49.9294 15.3141 49.6081 15.9634 49.448 16.6601C49.402 16.8341 49.388 17.0141 49.356 17.1921C49.324 17.3701 49.334 17.5521 49.332 17.7361V18.8441C49.332 21.8121 49.332 24.8961 49.332 28.0961C49.332 34.4961 49.332 41.3261 49.332 48.5161V71.0821C49.332 74.9941 49.332 78.9728 49.332 83.0181V90.6641C49.3147 91.1733 49.3768 91.682 49.516 92.1721C49.8118 93.1574 50.4321 94.0138 51.276 94.6021C52.1285 95.1803 53.1477 95.4614 54.176 95.4021H57.26H63.362H75.296H81.112C82.07 95.4021 83.03 95.4181 83.974 95.3901C84.9129 95.3333 85.8103 94.9835 86.5401 94.3901C86.8966 94.0946 87.2085 93.749 87.466 93.3641C87.7183 92.9783 87.9099 92.556 88.034 92.1121C88.1564 91.6694 88.2136 91.2113 88.204 90.7521C88.204 90.2881 88.204 89.8281 88.204 89.3661C88.204 87.5261 88.204 85.7068 88.204 83.9081C88.204 69.5301 88.218 56.5781 88.224 45.7081C88.23 34.8381 88.244 26.0321 88.25 19.9481C88.25 19.1881 88.25 18.4701 88.25 17.7961C88.2631 17.1666 88.1495 16.5409 87.916 15.9561C87.7134 15.4565 87.4228 14.9972 87.058 14.6001C86.3445 13.8139 85.3777 13.3028 84.326 13.1561C84.1737 13.1325 84.0201 13.1185 83.866 13.1141C83.772 13.1221 83.72 13.1161 83.72 13.1161Z" fill="#263238"/>
<path d="M56.678 20.5121C56.678 20.5301 55.922 20.5541 54.992 20.5601C54.062 20.5661 53.306 20.5601 53.306 20.5401C53.306 20.5201 54.06 20.4981 54.992 20.4901C55.924 20.4821 56.678 20.4921 56.678 20.5121Z" fill="#263238"/>
<path d="M56.684 21.3741C56.684 21.3941 55.93 21.4161 55 21.4241C54.07 21.4321 53.314 21.4241 53.314 21.4021C53.314 21.3801 54.068 21.3601 54.998 21.3521C55.928 21.3441 56.684 21.3541 56.684 21.3741Z" fill="#263238"/>
<path d="M56.692 22.2362C56.692 22.2562 55.938 22.2782 55.006 22.2862C54.074 22.2942 53.32 22.2862 53.32 22.2642C53.32 22.2422 54.074 22.2222 55.006 22.2142C55.938 22.2062 56.692 22.2162 56.692 22.2362Z" fill="#263238"/>
<path d="M67.748 76.98H52.738V91.99H67.748V76.98Z" fill="#F5F5F5"/>
<path d="M65.976 85.5681C64.754 83.8621 62.16 82.6941 60.052 83.0081C58.344 83.2621 56.832 84.0561 56.004 85.7521C55.9485 85.8628 55.9205 85.9853 55.9224 86.1091C55.9243 86.2329 55.9561 86.3544 56.015 86.4633C56.0739 86.5723 56.1581 86.6654 56.2607 86.7348C56.3632 86.8042 56.481 86.8479 56.604 86.8621C59.4498 87.2018 62.3265 87.1924 65.17 86.8341C65.608 86.7781 66.13 86.6561 66.16 86.1141C66.1628 85.9164 66.0979 85.7238 65.976 85.5681Z" fill="#5E11E8"/>
<g opacity="0.5">
<path opacity="0.5" d="M65.976 85.5681C64.754 83.8621 62.16 82.6941 60.052 83.0081C58.344 83.2621 56.832 84.0561 56.004 85.7521" fill="white"/>
</g>
<path d="M59.228 85.482C59.218 85.482 59.13 85.404 59.014 85.244C58.8591 85.0325 58.7489 84.7916 58.69 84.536C58.64 84.2819 58.6186 84.023 58.626 83.764C58.6171 83.6573 58.6259 83.5499 58.652 83.446C58.6853 83.548 58.7015 83.6548 58.7 83.762C58.7135 84.0138 58.7436 84.2643 58.79 84.512C58.8494 84.7557 58.9452 84.9889 59.074 85.204C59.1369 85.2898 59.1887 85.3832 59.228 85.482Z" fill="#F5F5F5"/>
<path d="M61.038 85.4001C61.008 85.4001 61.052 84.9161 60.988 84.3281C60.924 83.7401 60.788 83.2781 60.814 83.2681C61.108 83.9383 61.1863 84.6834 61.038 85.4001Z" fill="#F5F5F5"/>
<path d="M62.91 85.1221C62.88 85.1101 63.022 84.7881 63.056 84.3641C63.09 83.9401 63.012 83.5981 63.042 83.5901C63.1426 83.8377 63.183 84.1057 63.1601 84.3719C63.1372 84.6382 63.0515 84.8953 62.91 85.1221Z" fill="#F5F5F5"/>
<g opacity="0.3">
<path opacity="0.3" d="M60.706 83.0881L60.7218 83.1178L60.706 83.0881Z" fill="black"/>
</g>
<path d="M67.922 28.458H52.738V51.22H67.922V28.458Z" fill="#F5F5F5"/>
<path d="M67.922 52.936H52.738V75.698H67.922V52.936Z" fill="#F5F5F5"/>
<path d="M84.5521 48.6382H69.3681V69.8902H84.5521V48.6382Z" fill="#F5F5F5"/>
<path d="M84.428 71.384H69.244V91.988H84.428V71.384Z" fill="#F5F5F5"/>
<path d="M84.5521 28.458H69.3681V47.258H84.5521V28.458Z" fill="#F5F5F5"/>
<path d="M62.716 35.2642V41.5742C62.716 41.8502 62.494 42.1362 62.086 42.3522C61.5392 42.6089 60.9397 42.7336 60.336 42.7162H60.326C58.836 42.7162 57.946 42.1282 57.946 41.5742V35.2522C57.946 34.6362 58.4 33.9942 58.856 33.3582C59.162 32.9342 59.236 32.3242 59.256 31.9582C59.256 31.9162 59.256 31.8782 59.256 31.8422H59.214C59.1265 31.8488 59.04 31.8206 58.9733 31.7636C58.9066 31.7066 58.8651 31.6256 58.858 31.5382V31.2722C58.8646 31.1842 58.9058 31.1025 58.9725 31.0448C59.0392 30.9871 59.126 30.9581 59.214 30.9642H61.452C61.5184 30.9623 61.5841 30.9786 61.6419 31.0114C61.6997 31.0442 61.7475 31.0922 61.78 31.1502C61.7984 31.1882 61.808 31.2299 61.808 31.2722V31.5382C61.8003 31.6254 61.7587 31.7061 61.6921 31.763C61.6255 31.8198 61.5393 31.8483 61.452 31.8422H61.4C61.4 31.8782 61.4 31.9162 61.4 31.9582C61.414 32.3182 61.488 32.9282 61.8 33.3582C62.256 33.9942 62.708 34.6362 62.71 35.2522L62.716 35.2642Z" fill="#FAFAFA"/>
<path d="M62.716 35.2642V35.2002C62.7106 35.1371 62.702 35.0743 62.69 35.0122C62.6365 34.7736 62.5475 34.5444 62.426 34.3322C62.2309 33.9946 62.0151 33.6693 61.78 33.3582C61.5048 32.9035 61.366 32.3794 61.38 31.8482V31.8122H61.4C61.4789 31.8241 61.5593 31.8064 61.6258 31.7624C61.6923 31.7184 61.7401 31.6513 61.76 31.5742C61.76 31.4942 61.76 31.3962 61.76 31.3062C61.7648 31.2649 61.7591 31.223 61.7434 31.1846C61.7276 31.1461 61.7024 31.1122 61.67 31.0862C61.6017 31.0312 61.5156 31.0035 61.428 31.0082H60.526H59.238C59.1879 31.0037 59.1373 31.01 59.0897 31.0265C59.0422 31.0431 58.9986 31.0695 58.962 31.1042C58.9288 31.139 58.9066 31.1828 58.898 31.2302C58.8949 31.2848 58.8949 31.3395 58.898 31.3942C58.898 31.4502 58.898 31.5162 58.898 31.5622C58.9044 31.611 58.9261 31.6565 58.96 31.6922C58.9973 31.7297 59.0425 31.7584 59.0924 31.776C59.1423 31.7937 59.1954 31.7999 59.248 31.7942H59.294V31.8442C59.2917 32.1023 59.2636 32.3596 59.21 32.6122C59.1581 32.8773 59.0556 33.1299 58.908 33.3562C58.5716 33.784 58.2939 34.2548 58.082 34.7562C58.0369 34.8855 58.0074 35.0198 57.994 35.1562C57.994 35.2902 57.994 35.4382 57.994 35.5802V36.4482C57.994 37.0348 57.994 37.6295 57.994 38.2322C57.994 39.2922 57.994 40.3282 57.994 41.3282C57.9879 41.4484 57.9933 41.5689 58.01 41.6882C58.0391 41.8 58.0962 41.9026 58.176 41.9862C58.3388 42.1591 58.5365 42.2955 58.756 42.3862C59.1884 42.5595 59.6484 42.6537 60.114 42.6642C60.5574 42.6872 61.0018 42.6475 61.434 42.5462C61.842 42.4655 62.2167 42.2649 62.51 41.9702C62.5729 41.8977 62.6205 41.8134 62.65 41.7222C62.6725 41.6293 62.6806 41.5335 62.674 41.4382V40.8582C62.674 40.4782 62.674 40.1142 62.674 39.7662C62.674 38.3802 62.686 37.2582 62.69 36.4742C62.69 36.0902 62.69 35.7902 62.69 35.5782C62.69 35.3662 62.7 35.2662 62.7 35.2662C62.7105 35.3698 62.7145 35.474 62.712 35.5782C62.712 35.7902 62.712 36.0902 62.722 36.4742C62.722 37.2582 62.722 38.3802 62.738 39.7662C62.738 40.1142 62.738 40.4782 62.738 40.8582V41.4382C62.7457 41.5414 62.7376 41.6453 62.714 41.7462C62.6815 41.8491 62.6284 41.9443 62.558 42.0262C62.254 42.3348 61.8635 42.544 61.438 42.6262C60.9977 42.7321 60.5444 42.7745 60.092 42.7522C59.612 42.7428 59.1377 42.6466 58.692 42.4682C58.459 42.3747 58.2489 42.2321 58.076 42.0502C57.9854 41.9536 57.9201 41.8361 57.886 41.7082C57.8667 41.5811 57.86 41.4525 57.866 41.3242C57.866 40.3242 57.866 39.2882 57.866 38.2282C57.866 37.6242 57.866 37.0295 57.866 36.4442V35.5762C57.866 35.4302 57.866 35.2942 57.866 35.1442C57.8791 34.9996 57.91 34.8572 57.958 34.7202C58.1733 34.2104 58.4565 33.732 58.8 33.2982C59.0576 32.8571 59.1865 32.3527 59.172 31.8422L59.22 31.8902C59.1545 31.8957 59.0885 31.8866 59.0269 31.8634C58.9653 31.8402 58.9097 31.8036 58.864 31.7562C58.8175 31.7065 58.7874 31.6436 58.778 31.5762C58.778 31.5062 58.778 31.4562 58.778 31.3962C58.7742 31.3369 58.7742 31.2774 58.778 31.2182C58.7899 31.1524 58.8212 31.0918 58.868 31.0442C58.9127 31.0006 58.9661 30.967 59.0247 30.9456C59.0833 30.9242 59.1458 30.9155 59.208 30.9202H60.496H61.398C61.5033 30.9171 61.6062 30.9518 61.688 31.0182C61.7279 31.0521 61.7592 31.0949 61.7794 31.1432C61.7995 31.1916 61.808 31.2439 61.804 31.2962C61.804 31.3902 61.804 31.4742 61.804 31.5742C61.782 31.6681 61.7258 31.7505 61.6463 31.8053C61.5667 31.86 61.4697 31.8831 61.374 31.8702L61.408 31.8362C61.3889 32.3553 61.5194 32.8691 61.784 33.3162C62.0163 33.632 62.2287 33.962 62.42 34.3042C62.5396 34.5206 62.6234 34.7549 62.668 34.9982C62.6783 35.061 62.6843 35.1245 62.686 35.1882C62.7008 35.2113 62.711 35.2371 62.716 35.2642Z" fill="#263238"/>
<path d="M61.282 31.8342C60.6172 31.9041 59.9469 31.9041 59.282 31.8342C59.9469 31.7643 60.6172 31.7643 61.282 31.8342Z" fill="#263238"/>
<path d="M62.516 36.1061C62.4088 36.0538 62.2903 36.0291 62.1711 36.0343C62.052 36.0396 61.9361 36.0746 61.834 36.1361C61.6296 36.2604 61.4088 36.3554 61.178 36.4181C60.8963 36.4442 60.6142 36.3737 60.378 36.2181C60.1422 36.0643 59.894 35.9305 59.636 35.8181C59.3798 35.731 59.1042 35.7176 58.8408 35.7795C58.5773 35.8414 58.3366 35.976 58.146 36.1681V41.5681C58.146 41.5681 58.444 42.4901 60.536 42.3461C62.628 42.2021 62.462 41.2781 62.462 41.2781L62.516 36.1061Z" fill="#5E11E8"/>
<path d="M78.682 79.0502V85.3082C78.682 85.5842 78.462 85.8662 78.054 86.0822C77.5114 86.3384 76.9158 86.4625 76.316 86.4442C74.834 86.4442 73.95 85.8582 73.95 85.3082V79.0582C73.95 79.0582 73.95 79.0582 73.95 79.0442C73.95 78.4322 74.402 77.7942 74.854 77.1642C75.16 76.7422 75.232 76.1342 75.254 75.7782C75.254 75.7362 75.254 75.6982 75.254 75.6642H75.2C75.1129 75.6703 75.0268 75.6418 74.9606 75.5849C74.8943 75.528 74.8531 75.4473 74.846 75.3602V75.0962C74.8526 75.009 74.8937 74.9279 74.96 74.8709C75.0264 74.8139 75.1127 74.7856 75.2 74.7922H77.424C77.49 74.79 77.5553 74.806 77.6128 74.8385C77.6703 74.871 77.7177 74.9186 77.75 74.9762C77.7676 75.0137 77.7764 75.0548 77.776 75.0962V75.3602C77.7693 75.4471 77.7286 75.5278 77.6626 75.5848C77.5967 75.6417 77.5109 75.6703 77.424 75.6642H77.382C77.382 75.6982 77.382 75.7362 77.382 75.7782C77.396 76.1342 77.468 76.7422 77.772 77.1642C78.226 77.7942 78.674 78.4322 78.678 79.0442C78.684 79.0422 78.682 79.0462 78.682 79.0502Z" fill="#FAFAFA"/>
<path d="M78.6819 79.0501C78.6833 79.0288 78.6833 79.0074 78.6819 78.9861C78.6775 78.9231 78.6695 78.8603 78.6579 78.7981C78.6044 78.5617 78.5161 78.3346 78.3959 78.1241C78.2022 77.788 77.9871 77.4646 77.7519 77.1561C77.4778 76.7047 77.339 76.1841 77.3519 75.6561V75.6181H77.3859C77.4642 75.6299 77.5441 75.6121 77.61 75.568C77.6758 75.524 77.7229 75.457 77.7419 75.3801C77.7419 75.3021 77.7419 75.2041 77.7419 75.1141C77.7456 75.0732 77.7394 75.032 77.7237 74.9941C77.7081 74.9561 77.6834 74.9225 77.6519 74.8961C77.5839 74.8422 77.4987 74.8145 77.4119 74.8181H76.5159H75.2359C75.186 74.8137 75.1358 74.82 75.0885 74.8366C75.0413 74.8531 74.9981 74.8796 74.9619 74.9141C74.9283 74.9487 74.906 74.9926 74.8979 75.0401C74.8948 75.0941 74.8948 75.1482 74.8979 75.2021C74.8979 75.2561 74.8979 75.3221 74.8979 75.3681C74.9043 75.4169 74.926 75.4625 74.9599 75.4981C74.9967 75.535 75.0414 75.5631 75.0905 75.5804C75.1397 75.5977 75.1921 75.6038 75.2439 75.5981H75.2919V75.6481C75.2896 75.9043 75.2614 76.1596 75.2079 76.4101C75.1566 76.6732 75.0547 76.9239 74.9079 77.1481C74.5729 77.5758 74.2971 78.0467 74.0879 78.5481C74.0422 78.6772 74.0133 78.8117 74.0019 78.9481C74.0019 79.0801 74.0019 79.2281 74.0019 79.3681C74.0019 79.6521 74.0019 79.9401 74.0019 80.2321V82.0001C74.0019 83.0541 74.0019 84.0841 74.0019 85.0781C73.9958 85.197 74.0012 85.3163 74.0179 85.4341C74.0474 85.5458 74.1045 85.6483 74.1839 85.7321C74.3457 85.9044 74.542 86.0407 74.7599 86.1321C75.1872 86.3 75.6409 86.3907 76.0999 86.4001C76.5406 86.4231 76.9824 86.3834 77.4119 86.2821C77.8174 86.2033 78.1896 86.0039 78.4799 85.7101C78.5427 85.6384 78.5903 85.5547 78.6199 85.4641C78.6416 85.3718 78.649 85.2767 78.6419 85.1821C78.6419 84.9821 78.6419 84.7941 78.6419 84.6061C78.6419 84.2281 78.6419 83.8681 78.6419 83.5221C78.6419 82.1441 78.6539 81.0281 78.6579 80.2501C78.6579 79.8681 78.6579 79.5701 78.6679 79.3621C78.6779 79.1541 78.6679 79.0521 78.6679 79.0521C78.6798 79.155 78.6838 79.2586 78.6799 79.3621C78.6799 79.5621 78.6799 79.8681 78.6799 80.2501C78.6799 81.0281 78.6899 82.1441 78.6979 83.5221C78.6979 83.8681 78.6979 84.2281 78.6979 84.6061C78.6979 84.7941 78.6979 84.9861 78.6979 85.1821C78.7057 85.2849 78.697 85.3882 78.6719 85.4881C78.6397 85.5902 78.5873 85.6847 78.5179 85.7661C78.2163 86.0738 77.8286 86.283 77.4059 86.3661C76.9682 86.472 76.5176 86.5144 76.0679 86.4921C75.5934 86.4823 75.1245 86.3867 74.6839 86.2101C74.4631 86.1152 74.2642 85.9756 74.0999 85.8001C74.0103 85.704 73.9457 85.5872 73.9119 85.4601C73.8926 85.3344 73.8859 85.2071 73.8919 85.0801V79.3641C73.8919 79.2201 73.8919 79.0841 73.8919 78.9361C73.9052 78.7916 73.9361 78.6492 73.9839 78.5121C74.1976 78.0065 74.4789 77.5322 74.8199 77.1021C75.0748 76.6637 75.2029 76.1631 75.1899 75.6561L75.2359 75.7021C75.1711 75.7075 75.106 75.6984 75.0451 75.6756C74.9842 75.6528 74.9292 75.6168 74.8839 75.5701C74.8372 75.5208 74.8077 75.4576 74.7999 75.3901C74.7999 75.3221 74.7999 75.2721 74.7999 75.2121C74.796 75.1529 74.796 75.0934 74.7999 75.0341C74.8126 74.9693 74.8438 74.9095 74.8899 74.8621C74.9343 74.8188 74.9874 74.7854 75.0456 74.764C75.1039 74.7426 75.166 74.7338 75.2279 74.7381H76.5079H77.4039C77.5086 74.7346 77.6111 74.7695 77.6919 74.8361C77.7316 74.8697 77.7628 74.9123 77.783 74.9602C77.8032 75.0082 77.8117 75.0602 77.8079 75.1121C77.8079 75.2061 77.8079 75.2901 77.8079 75.3881C77.7836 75.4804 77.7271 75.561 77.6486 75.6152C77.5701 75.6695 77.4748 75.694 77.3799 75.6841L77.4139 75.6501C77.3953 76.1649 77.5244 76.6743 77.7859 77.1181C78.0182 77.431 78.2293 77.7591 78.4179 78.1001C78.5371 78.3153 78.6208 78.5483 78.6659 78.7901C78.6766 78.8522 78.682 78.9151 78.6819 78.9781C78.6879 79.0281 78.6859 79.0501 78.6819 79.0501Z" fill="#263238"/>
<path d="M77.2579 75.6401C76.5997 75.7095 75.9361 75.7095 75.2779 75.6401C75.9361 75.5708 76.5997 75.5708 77.2579 75.6401Z" fill="#263238"/>
<path d="M78.484 79.8861C78.3777 79.8335 78.2599 79.8085 78.1414 79.8133C78.0229 79.8182 77.9076 79.8529 77.806 79.9141C77.6035 80.0379 77.3847 80.1328 77.156 80.1961C76.8744 80.2214 76.5926 80.1509 76.356 79.9961C76.1219 79.8419 75.875 79.7081 75.618 79.5961C75.3636 79.51 75.0901 79.4972 74.8288 79.559C74.5674 79.6209 74.3288 79.7551 74.14 79.9461V85.3181C74.14 85.3181 74.434 86.2361 76.512 86.0921C78.59 85.9481 78.428 85.0301 78.428 85.0301L78.484 79.8861Z" fill="#5E11E8"/>
<g opacity="0.5">
<path opacity="0.5" d="M78.484 79.8861C78.3777 79.8335 78.2599 79.8085 78.1414 79.8133C78.0229 79.8182 77.9076 79.8529 77.806 79.9141C77.6035 80.0379 77.3847 80.1328 77.156 80.1961C76.8744 80.2214 76.5926 80.1509 76.356 79.9961C76.1219 79.8419 75.875 79.7081 75.618 79.5961C75.3636 79.51 75.0901 79.4972 74.8288 79.559C74.5674 79.6209 74.3288 79.7551 74.14 79.9461V85.3181C74.14 85.3181 74.434 86.2361 76.512 86.0921C78.59 85.9481 78.428 85.0301 78.428 85.0301L78.484 79.8861Z" fill="white"/>
</g>
<path d="M81.9379 56.3081C81.8695 56.2802 81.7952 56.2699 81.7218 56.2783C81.6484 56.2867 81.5783 56.3135 81.5179 56.3561C81.4879 56.3761 81.4559 56.4001 81.4259 56.4241C80.4106 57.1748 79.1765 57.5705 77.9139 57.5501C75.4559 57.5501 73.4199 56.1721 73.0559 54.3721V54.0321C73.059 53.998 73.0549 53.9637 73.044 53.9314C73.0331 53.899 73.0156 53.8692 72.9925 53.844C72.9695 53.8188 72.9414 53.7986 72.9102 53.7848C72.8789 53.771 72.8451 53.7639 72.8109 53.7639C72.7767 53.7639 72.7429 53.771 72.7117 53.7848C72.6804 53.7986 72.6523 53.8188 72.6293 53.844C72.6062 53.8692 72.5887 53.899 72.5778 53.9314C72.5669 53.9637 72.5628 53.998 72.5659 54.0321V54.9841C72.5675 55.0066 72.5722 55.0288 72.5799 55.0501C72.4109 55.4236 72.3217 55.8282 72.3179 56.2381C72.3179 58.3161 74.5179 60.0041 77.2399 60.0041C79.5219 60.0041 81.4399 58.8181 81.9999 57.2041C82.0067 57.197 82.0109 57.1878 82.0119 57.1781C82.0767 57.0493 82.1128 56.9081 82.1179 56.7641C82.1328 56.6789 82.1238 56.5912 82.0921 56.5107C82.0603 56.4303 82.007 56.3602 81.9379 56.3081Z" fill="#5E11E8"/>
<g opacity="0.3">
<path opacity="0.3" d="M72.8719 55.3C72.8719 55.3 75.1899 60.632 81.4719 56.9C81.4719 56.9 79.8539 58.58 77.7439 58.988C75.8319 59.354 72.9999 58.276 72.8719 55.3Z" fill="black"/>
</g>
<path d="M82.1099 56.5761C82.0719 56.6681 81.9219 56.6941 81.7759 56.6321C81.6299 56.5701 81.5419 56.4441 81.5759 56.3521C81.6099 56.2601 81.7639 56.2361 81.9099 56.2981C82.0559 56.3601 82.1499 56.4841 82.1099 56.5761Z" fill="#263238"/>
<path d="M84.452 22.2C84.4354 22.203 84.4185 22.203 84.402 22.2H84.2599H83.734L81.968 22.216H81.9539V22.202C81.9399 22.108 81.9259 22.002 81.9099 21.91C81.7879 21.054 81.68 20.29 81.608 19.79H81.618H81.018C81.004 19.7918 80.9899 19.7918 80.976 19.79H81.018H81.144H81.614H81.624V19.8C81.698 20.298 81.812 21.062 81.94 21.916C81.954 22.016 81.968 22.116 81.982 22.208L81.9659 22.194H83.732H84.45L84.452 22.2Z" fill="#263238"/>
<path d="M81.892 21.7C81.892 21.7 81.892 21.7 81.906 21.7H81.942H82.084H82.616L84.448 21.682L84.432 21.696C84.484 21.386 84.542 21.052 84.6 20.708C84.63 20.53 84.66 20.354 84.69 20.188L84.706 20.208H82.546H81.688C81.678 20.208 81.674 20.208 81.674 20.208H81.734H81.906H82.546L84.706 20.19H84.726V20.21L84.638 20.728C84.578 21.074 84.52 21.408 84.468 21.728V21.74H84.454H82.622H81.898L81.892 21.7Z" fill="#263238"/>
<path d="M82.6001 22.884C82.6001 22.884 82.6001 22.8621 82.5861 22.8241C82.5708 22.7722 82.5384 22.727 82.4941 22.6961C82.4622 22.6735 82.4254 22.659 82.3867 22.6538C82.3481 22.6486 82.3087 22.6528 82.272 22.6661C82.2275 22.6828 82.1891 22.7128 82.1621 22.7519C82.135 22.791 82.1205 22.8375 82.1205 22.8851C82.1205 22.9326 82.135 22.9791 82.1621 23.0182C82.1891 23.0573 82.2275 23.0873 82.272 23.104C82.3087 23.1181 82.3484 23.1225 82.3872 23.1169C82.4261 23.1113 82.4629 23.0959 82.4941 23.0721C82.5373 23.0404 82.5689 22.9954 82.5841 22.9441C82.5961 22.9061 82.596 22.884 82.598 22.884C82.6032 22.9044 82.6032 22.9257 82.598 22.9461C82.5856 23.0036 82.5538 23.0551 82.5081 23.092C82.4737 23.1188 82.4333 23.1366 82.3903 23.144C82.3474 23.1513 82.3033 23.1479 82.2621 23.134C82.2103 23.1164 82.1653 23.083 82.1335 23.0385C82.1017 22.9941 82.0845 22.9407 82.0845 22.886C82.0845 22.8314 82.1017 22.778 82.1335 22.7336C82.1653 22.6891 82.2103 22.6557 82.2621 22.6381C82.3034 22.6234 82.3478 22.6194 82.3912 22.6264C82.4345 22.6334 82.4754 22.6511 82.51 22.678C82.5561 22.714 82.5879 22.765 82.6001 22.8221C82.6058 22.8423 82.6058 22.8638 82.6001 22.884Z" fill="#263238"/>
<path d="M84.1999 22.8741C84.1999 22.8741 84.1999 22.8521 84.1859 22.8161C84.1712 22.764 84.1386 22.7187 84.0939 22.6881C84.0623 22.6651 84.0255 22.6503 83.9867 22.6451C83.948 22.6398 83.9085 22.6443 83.8719 22.6581C83.8389 22.6686 83.8085 22.6864 83.7832 22.7101C83.7578 22.7338 83.738 22.7628 83.7253 22.7951C83.7125 22.8274 83.7071 22.8622 83.7094 22.8968C83.7118 22.9314 83.7218 22.9651 83.7387 22.9954C83.7557 23.0257 83.7792 23.0518 83.8075 23.0719C83.8358 23.092 83.8683 23.1056 83.9025 23.1116C83.9367 23.1176 83.9718 23.1159 84.0052 23.1066C84.0387 23.0974 84.0697 23.0808 84.0959 23.0581C84.1394 23.0254 84.1715 22.9799 84.1879 22.9281C84.1979 22.8901 84.1979 22.8681 84.1999 22.8681C84.2051 22.8884 84.2051 22.9098 84.1999 22.9301C84.1885 22.9875 84.1573 23.0391 84.1119 23.0761C84.0737 23.1062 84.0278 23.1251 83.9794 23.1306C83.9311 23.1361 83.8821 23.128 83.8381 23.1072C83.7941 23.0864 83.7567 23.0538 83.7302 23.013C83.7037 22.9722 83.689 22.9248 83.6879 22.8761C83.6879 22.8216 83.7045 22.7684 83.7356 22.7237C83.7667 22.679 83.8108 22.6449 83.8619 22.6261C83.903 22.6115 83.9471 22.6074 83.9901 22.6144C84.0331 22.6214 84.0737 22.6392 84.1079 22.6661C84.1549 22.7011 84.187 22.7525 84.1979 22.8101C84.2047 22.8308 84.2054 22.853 84.1999 22.8741Z" fill="#263238"/>
<path d="M84.7178 20.6151C85.1 20.5326 85.343 20.1559 85.2605 19.7737C85.178 19.3915 84.8013 19.1485 84.4191 19.231C84.0369 19.3135 83.7939 19.6902 83.8764 20.0724C83.9589 20.4546 84.3356 20.6976 84.7178 20.6151Z" fill="#5E11E8"/>
<path d="M84.656 19.6541V20.1921H84.53V19.7541H84.422V19.6541H84.656Z" fill="white"/>
<path d="M79.104 85.1182H58.43C56.8969 85.1182 55.654 86.361 55.654 87.8942V89.2262C55.654 90.7593 56.8969 92.0022 58.43 92.0022H79.104C80.6371 92.0022 81.88 90.7593 81.88 89.2262V87.8942C81.88 86.361 80.6371 85.1182 79.104 85.1182Z" fill="#5E11E8"/>
<g opacity="0.3">
<path opacity="0.3" d="M79.104 85.1182H58.43C56.8969 85.1182 55.654 86.361 55.654 87.8942V89.2262C55.654 90.7593 56.8969 92.0022 58.43 92.0022H79.104C80.6371 92.0022 81.88 90.7593 81.88 89.2262V87.8942C81.88 86.361 80.6371 85.1182 79.104 85.1182Z" fill="black"/>
</g>
<path d="M78.086 85.1182H57.412C55.8789 85.1182 54.636 86.361 54.636 87.8942V89.2262C54.636 90.7593 55.8789 92.0022 57.412 92.0022H78.086C79.6192 92.0022 80.862 90.7593 80.862 89.2262V87.8942C80.862 86.361 79.6192 85.1182 78.086 85.1182Z" fill="#5E11E8"/>
<path d="M66.96 88.182C66.96 88.534 66.704 88.748 66.282 88.748H65.882V89.242H65.65V87.614H66.286C66.704 87.614 66.96 87.828 66.96 88.182ZM66.728 88.182C66.728 87.948 66.572 87.816 66.274 87.816H65.874V88.546H66.274C66.572 88.546 66.728 88.414 66.728 88.182Z" fill="white"/>
<path d="M68.258 88.8342H67.4L67.222 89.2342H66.982L67.72 87.6062H67.95L68.688 89.2342H68.444L68.258 88.8342ZM68.176 88.6482L67.826 87.8482L67.474 88.6482H68.176Z" fill="white"/>
<path d="M69.448 88.678V89.242H69.218V88.674L68.572 87.614H68.82L69.34 88.472L69.864 87.614H70.094L69.448 88.678Z" fill="white"/>
<path d="M60.836 60.6821C60.8953 60.2986 60.8781 59.9071 60.7855 59.5303C60.6929 59.1534 60.5266 58.7987 60.2963 58.4863C60.066 58.174 59.7761 57.9104 59.4435 57.7106C59.1108 57.5107 58.7419 57.3787 58.358 57.3221C58.3157 57.3055 58.2693 57.302 58.2249 57.312C58.1805 57.3219 58.1402 57.345 58.109 57.3781C58.0778 57.4112 58.0572 57.4529 58.0499 57.4978C58.0426 57.5427 58.0489 57.5888 58.068 57.6301C58.138 58.3779 58.4432 59.0842 58.9398 59.6477C59.4365 60.2112 60.0989 60.6027 60.832 60.7661" fill="#455A64"/>
<path d="M56.714 66.1121C57.456 67.6421 58.514 68.6721 59.844 68.7221C60.108 68.7221 60.308 68.5581 60.56 68.5421C60.7074 68.5756 60.8494 68.6295 60.982 68.7021C61.0524 68.7319 61.1276 68.7489 61.204 68.7521C62.568 68.6781 63.732 67.7181 64.516 66.1121C65.606 63.8621 65.27 61.4461 63.764 60.7121C63.5658 60.6133 63.3589 60.5329 63.146 60.4721C62.9027 60.4042 62.6504 60.3745 62.398 60.3841C61.8105 60.4214 61.2327 60.5517 60.686 60.7701L60.612 60.7981C59.388 60.2561 58.412 60.2541 57.462 60.7121C55.956 61.4461 55.622 63.8621 56.714 66.1121Z" fill="#5E11E8"/>
<path d="M56.74 63.8342C56.6694 63.6932 56.6272 63.5396 56.616 63.3822C56.5713 63.0017 56.6172 62.616 56.75 62.2566C56.8828 61.8972 57.0987 61.5743 57.38 61.3142C57.4897 61.2009 57.6219 61.1116 57.768 61.0522C57.778 61.0662 57.628 61.1642 57.43 61.3662C57.1749 61.6303 56.9773 61.9443 56.8496 62.2885C56.7219 62.6328 56.6669 62.9997 56.688 63.3662C56.708 63.6562 56.758 63.8282 56.74 63.8342Z" fill="#FAFAFA"/>
<path d="M57.016 64.902C56.988 64.902 56.94 64.802 56.908 64.666C56.876 64.53 56.874 64.412 56.908 64.404C56.942 64.396 56.984 64.504 57.016 64.642C57.048 64.78 57.044 64.896 57.016 64.902Z" fill="#FAFAFA"/>
<path d="M63.95 57C63.95 57.02 63.666 57.128 63.242 57.382C62.9947 57.5319 62.7588 57.6997 62.536 57.884C62.2696 58.1146 62.0233 58.3675 61.8 58.64C61.5748 58.9153 61.374 59.2098 61.2 59.52C61.0631 59.7742 60.9454 60.0382 60.848 60.31C60.682 60.778 60.634 61.082 60.614 61.078C60.6125 61.0053 60.6206 60.9326 60.638 60.862C60.6488 60.7776 60.6655 60.6941 60.688 60.612C60.7124 60.5025 60.7425 60.3944 60.778 60.288C60.8661 60.0071 60.9792 59.7347 61.116 59.474C61.4525 58.8339 61.9151 58.2685 62.476 57.812C62.7029 57.6277 62.9451 57.4631 63.2 57.32C63.2977 57.2638 63.3986 57.213 63.502 57.168C63.578 57.1302 63.6561 57.0968 63.736 57.068C63.8044 57.0371 63.8762 57.0143 63.95 57Z" fill="#263238"/>
<path d="M82.472 36.07C81.25 34.366 78.656 33.198 76.548 33.512C74.84 33.766 73.328 34.56 72.5 36.256C72.445 36.3668 72.4174 36.4891 72.4195 36.6128C72.4217 36.7364 72.4535 36.8578 72.5123 36.9665C72.5711 37.0753 72.6552 37.1684 72.7575 37.2379C72.8597 37.3075 72.9772 37.3514 73.1 37.366C75.9458 37.7057 78.8225 37.6963 81.666 37.338C82.106 37.282 82.626 37.16 82.656 36.618C82.6588 36.4197 82.5939 36.2265 82.472 36.07Z" fill="#5E11E8"/>
<path d="M75.7241 35.986C75.7141 35.986 75.6261 35.908 75.5101 35.748C75.3555 35.5362 75.2453 35.2954 75.1861 35.04C75.1361 34.7858 75.1146 34.5269 75.1221 34.268C75.1145 34.1606 75.1232 34.0527 75.1481 33.948C75.182 34.0498 75.1982 34.1567 75.1961 34.264C75.2103 34.5164 75.2411 34.7676 75.2881 35.016C75.3457 35.2602 75.4415 35.4937 75.5721 35.708C75.6344 35.7938 75.6855 35.8872 75.7241 35.986Z" fill="#263238"/>
<path d="M77.536 35.902C77.504 35.902 77.548 35.418 77.486 34.83C77.424 34.242 77.286 33.78 77.312 33.77C77.4737 34.0972 77.5676 34.4536 77.588 34.818C77.6428 35.1792 77.6251 35.5477 77.536 35.902Z" fill="#263238"/>
<path d="M79.4 35.6262C79.372 35.6142 79.512 35.2902 79.546 34.8662C79.58 34.4422 79.502 34.1002 79.532 34.0942C79.6326 34.3419 79.6731 34.6098 79.6501 34.8761C79.6272 35.1424 79.5415 35.3995 79.4 35.6262Z" fill="#263238"/>
<g opacity="0.3">
<path opacity="0.3" d="M77.1999 33.6001L77.2158 33.6298L77.1999 33.6001Z" fill="black"/>
</g>
<g opacity="0.3">
<path opacity="0.3" d="M77.218 33.6221C77.0312 33.9643 76.9596 34.3575 77.0136 34.7437C77.0676 35.1298 77.2445 35.4882 77.518 35.7661C77.6949 35.0393 77.5876 34.2724 77.218 33.6221Z" fill="black"/>
</g>
<g opacity="0.3">
<path opacity="0.3" d="M75.4781 35.6862C75.2841 35.3344 75.1681 34.9449 75.1381 34.5442C75.1402 34.3673 75.1145 34.1912 75.0621 34.0222C74.8517 34.2839 74.7481 34.6154 74.7721 34.9502C74.8005 35.302 74.9657 35.6287 75.2321 35.8602C75.2719 35.8974 75.3198 35.9248 75.3721 35.9402C75.3984 35.9466 75.4261 35.9449 75.4515 35.9353C75.4768 35.9256 75.4986 35.9085 75.5141 35.8862C75.5501 35.8242 75.5141 35.7482 75.4781 35.6862Z" fill="black"/>
</g>
<g opacity="0.3">
<path opacity="0.3" d="M79.57 34.2521C79.563 34.1822 79.5426 34.1143 79.51 34.0521C79.4932 34.0218 79.468 33.9971 79.4375 33.9808C79.407 33.9644 79.3724 33.9573 79.338 33.9601C79.244 33.9761 79.198 34.0821 79.17 34.1741C79.0126 34.5687 78.965 34.9985 79.032 35.4181C79.054 35.5121 79.116 35.6181 79.214 35.6181C79.312 35.6181 79.338 35.5381 79.372 35.4721C79.5638 35.0961 79.6331 34.6694 79.57 34.2521Z" fill="black"/>
</g>
<path d="M56.296 47.0582V47.2462H56.158V47.0602C56.0102 47.0564 55.8672 47.0076 55.748 46.9202L55.822 46.7522C55.9202 46.8243 56.0365 46.8679 56.158 46.8782V46.5442C55.972 46.4982 55.772 46.4382 55.772 46.2042C55.772 46.0342 55.896 45.8842 56.158 45.8602V45.6602H56.296V45.8462C56.4159 45.852 56.5326 45.887 56.636 45.9482L56.566 46.1182C56.4833 46.0696 56.3913 46.0389 56.296 46.0282V46.3662C56.482 46.4102 56.684 46.4702 56.684 46.7022C56.684 46.8842 56.558 47.0302 56.296 47.0582ZM56.158 46.3402V46.0422C56.04 46.0602 55.988 46.1222 55.988 46.1942C55.988 46.2662 56.06 46.3122 56.158 46.3402ZM56.47 46.7282C56.47 46.6462 56.396 46.6062 56.296 46.5782V46.8742C56.418 46.8562 56.47 46.8002 56.47 46.7282Z" fill="#263238"/>
<path d="M57.6859 45.8721V47.0441H57.4679V46.0541H57.2199V45.8721H57.6859Z" fill="#263238"/>
<path d="M58.186 46.9161C58.1832 46.9668 58.1703 47.0165 58.148 47.0621L58.062 47.2981H57.926L57.994 47.0401C57.9697 47.0302 57.9492 47.0129 57.9352 46.9906C57.9212 46.9684 57.9145 46.9424 57.916 46.9161C57.9137 46.897 57.9155 46.8776 57.9212 46.8593C57.9269 46.8409 57.9365 46.8239 57.9492 46.8095C57.962 46.7951 57.9777 46.7836 57.9952 46.7757C58.0128 46.7678 58.0318 46.7637 58.051 46.7637C58.0703 46.7637 58.0893 46.7678 58.1069 46.7757C58.1244 46.7836 58.1401 46.7951 58.1529 46.8095C58.1656 46.8239 58.1752 46.8409 58.1809 46.8593C58.1866 46.8776 58.1884 46.897 58.186 46.9161Z" fill="#263238"/>
<path d="M59.18 46.6841C59.18 46.8841 59.032 47.0621 58.716 47.0621C58.5586 47.0646 58.4045 47.0169 58.276 46.9261L58.368 46.7561C58.467 46.8324 58.5889 46.8733 58.714 46.8721C58.868 46.8721 58.962 46.8041 58.962 46.6921C58.962 46.5801 58.888 46.5101 58.646 46.5101H58.364L58.424 45.8721H59.112V46.0541H58.6L58.574 46.3261H58.686C59.042 46.3261 59.18 46.4761 59.18 46.6841Z" fill="#263238"/>
<path d="M59.306 46.4582C59.306 46.0722 59.518 45.8582 59.796 45.8582C60.074 45.8582 60.286 46.0762 60.286 46.4582C60.286 46.8402 60.076 47.0582 59.796 47.0582C59.516 47.0582 59.306 46.8442 59.306 46.4582ZM60.068 46.4582C60.068 46.1742 59.956 46.0442 59.796 46.0442C59.636 46.0442 59.526 46.1742 59.526 46.4582C59.526 46.7422 59.636 46.8722 59.796 46.8722C59.956 46.8722 60.068 46.7402 60.068 46.4582Z" fill="#263238"/>
<path d="M65.1341 48.5381C65.1341 48.5681 62.9841 48.5901 60.3341 48.5901C57.6841 48.5901 55.5341 48.5681 55.5341 48.5381C55.5341 48.5081 57.6841 48.4861 60.3341 48.4861C62.9841 48.4861 65.1341 48.5101 65.1341 48.5381Z" fill="#263238"/>
<path d="M60 49.3201C60 49.3501 59 49.3721 57.77 49.3721C56.54 49.3721 55.538 49.3501 55.538 49.3201C55.538 49.2901 56.538 49.2681 57.77 49.2681C59.002 49.2681 60 49.2921 60 49.3201Z" fill="#263238"/>
<path d="M73.1301 42.262V42.45H73.0001V42.264C72.8562 42.2579 72.7172 42.2099 72.6001 42.126L72.6741 41.956C72.7715 42.03 72.8881 42.0744 73.0101 42.084V41.748C72.8241 41.704 72.6241 41.642 72.6241 41.41C72.6241 41.24 72.7481 41.09 73.0101 41.064V40.876H73.1481V41.062C73.2683 41.0662 73.3854 41.1013 73.4881 41.164L73.4181 41.332C73.3354 41.2834 73.2434 41.2527 73.1481 41.242V41.58C73.3341 41.626 73.5361 41.684 73.5361 41.918C73.5181 42.088 73.4001 42.236 73.1301 42.262ZM72.9921 41.546V41.248C72.8721 41.266 72.8221 41.326 72.8221 41.4C72.8221 41.474 72.8941 41.518 73.0001 41.546H72.9921ZM73.3041 41.932C73.3041 41.85 73.2301 41.812 73.1301 41.784V42.08C73.2521 42.062 73.3041 42 73.3041 41.932Z" fill="#263238"/>
<path d="M74.964 42.066V42.25H74.098V42.104L74.564 41.662C74.678 41.552 74.698 41.484 74.698 41.418C74.698 41.312 74.624 41.25 74.48 41.25C74.4279 41.2472 74.3759 41.2569 74.3283 41.2781C74.2807 41.2993 74.2387 41.3315 74.206 41.372L74.054 41.254C74.1071 41.1882 74.175 41.1359 74.2521 41.1011C74.3293 41.0664 74.4135 41.0502 74.498 41.054C74.754 41.054 74.918 41.182 74.918 41.39C74.9156 41.463 74.8964 41.5344 74.8617 41.5986C74.8269 41.6628 74.7777 41.7181 74.718 41.76L74.404 42.06L74.964 42.066Z" fill="#263238"/>
<path d="M75.374 42.1221C75.3709 42.1721 75.358 42.221 75.336 42.2661L75.25 42.5021H75.114L75.182 42.2461C75.1575 42.2362 75.1367 42.219 75.1224 42.1968C75.108 42.1746 75.1009 42.1485 75.102 42.1221C75.102 42.086 75.1164 42.0514 75.1419 42.0259C75.1674 42.0004 75.202 41.9861 75.238 41.9861C75.2741 41.9861 75.3087 42.0004 75.3342 42.0259C75.3597 42.0514 75.374 42.086 75.374 42.1221Z" fill="#263238"/>
<path d="M76.382 42.0661V42.2501H75.516V42.1041L75.982 41.6621C76.096 41.5521 76.116 41.4841 76.116 41.4181C76.116 41.3121 76.042 41.2501 75.898 41.2501C75.8459 41.2473 75.794 41.257 75.7463 41.2782C75.6987 41.2994 75.6568 41.3316 75.624 41.3721L75.472 41.2541C75.5254 41.188 75.5936 41.1355 75.6711 41.1007C75.7486 41.066 75.8332 41.05 75.918 41.0541C76.172 41.0541 76.336 41.1821 76.336 41.3901C76.3337 41.4631 76.3144 41.5345 76.2797 41.5987C76.245 41.6629 76.1958 41.7182 76.136 41.7601L75.822 42.0601L76.382 42.0661Z" fill="#263238"/>
<path d="M77.3601 41.8902C77.3601 42.0902 77.2121 42.2662 76.8961 42.2662C76.7386 42.2695 76.5842 42.2218 76.4561 42.1302L76.5481 41.9622C76.6468 42.0375 76.7679 42.0777 76.8921 42.0762C77.0481 42.0762 77.1401 42.0082 77.1401 41.8982C77.1401 41.7882 77.0681 41.7142 76.8261 41.7142H76.5421L76.6041 41.0762H77.2921V41.2602H76.7881L76.7621 41.5302H76.8741C77.2221 41.5302 77.3601 41.6822 77.3601 41.8902Z" fill="#263238"/>
<path d="M81.968 43.7441C81.968 43.7721 79.818 43.7961 77.168 43.7961C74.518 43.7961 72.368 43.7721 72.368 43.7441C72.368 43.7161 74.52 43.6921 77.168 43.6921C79.816 43.6921 81.968 43.7161 81.968 43.7441Z" fill="#263238"/>
<path d="M76.8381 44.5261C76.8381 44.5541 75.8381 44.5781 74.6061 44.5781C73.3741 44.5781 72.3761 44.5541 72.3761 44.5261C72.3761 44.4981 73.3761 44.4741 74.6061 44.4741C75.8361 44.4741 76.8381 44.4981 76.8381 44.5261Z" fill="#263238"/>
<path d="M55.912 71.4V71.588H55.774V71.4C55.6263 71.3959 55.4833 71.3471 55.364 71.26L55.44 71.092C55.537 71.165 55.6529 71.2088 55.774 71.218V70.884C55.588 70.838 55.39 70.778 55.39 70.546C55.39 70.374 55.514 70.226 55.774 70.2V70.01H55.912V70.2C56.0319 70.2058 56.1486 70.2409 56.252 70.302L56.184 70.472C56.1004 70.4237 56.0079 70.3931 55.912 70.382V70.72C56.098 70.766 56.3 70.824 56.3 71.056C56.3 71.224 56.176 71.372 55.912 71.4ZM55.774 70.682V70.384C55.656 70.404 55.606 70.464 55.606 70.538C55.606 70.612 55.678 70.652 55.774 70.68V70.682ZM56.086 71.07C56.086 70.988 56.012 70.95 55.912 70.92V71.218C56.034 71.2 56.086 71.14 56.086 71.068V71.07Z" fill="#263238"/>
<path d="M56.896 70.8002C56.896 70.4142 57.108 70.2002 57.386 70.2002C57.664 70.2002 57.876 70.4162 57.876 70.8002C57.876 71.1842 57.666 71.4002 57.386 71.4002C57.106 71.4002 56.896 71.1842 56.896 70.8002ZM57.658 70.8002C57.658 70.5182 57.546 70.3862 57.386 70.3862C57.226 70.3862 57.116 70.5182 57.116 70.8002C57.116 71.0822 57.226 71.2142 57.386 71.2142C57.546 71.2142 57.658 71.0822 57.658 70.8002Z" fill="#263238"/>
<path d="M58.272 71.2582C58.2688 71.3082 58.2559 71.3571 58.234 71.4022L58.148 71.6382H58.014L58.08 71.3822C58.056 71.3717 58.0358 71.3543 58.0219 71.3322C58.008 71.3101 58.001 71.2843 58.002 71.2582C57.9997 71.2391 58.0014 71.2197 58.0071 71.2013C58.0129 71.1829 58.0224 71.166 58.0352 71.1516C58.0479 71.1371 58.0636 71.1256 58.0812 71.1177C58.0987 71.1098 58.1177 71.1057 58.137 71.1057C58.1562 71.1057 58.1753 71.1098 58.1928 71.1177C58.2104 71.1256 58.2261 71.1371 58.2388 71.1516C58.2516 71.166 58.2611 71.1829 58.2669 71.2013C58.2726 71.2197 58.2743 71.2391 58.272 71.2582Z" fill="#263238"/>
<path d="M59.266 71.0242C59.266 71.2242 59.118 71.4022 58.802 71.4022C58.6445 71.4055 58.4902 71.3578 58.362 71.2662L58.454 71.0962C58.5525 71.1722 58.6736 71.2131 58.798 71.2122C58.954 71.2122 59.046 71.1442 59.046 71.0322C59.046 70.9202 58.974 70.8502 58.732 70.8502H58.448L58.51 70.2122H59.2V70.4002H58.696L58.67 70.6722H58.782C59.128 70.6662 59.266 70.8162 59.266 71.0242Z" fill="#263238"/>
<path d="M59.4 70.8002C59.4 70.4142 59.612 70.2002 59.89 70.2002C60.168 70.2002 60.38 70.4162 60.38 70.8002C60.38 71.1842 60.17 71.4002 59.89 71.4002C59.61 71.4002 59.4 71.1842 59.4 70.8002ZM60.162 70.8002C60.162 70.5182 60.05 70.3862 59.89 70.3862C59.73 70.3862 59.62 70.5182 59.62 70.8002C59.62 71.0822 59.73 71.2142 59.89 71.2142C60.05 71.2142 60.154 71.0822 60.154 70.8002H60.162Z" fill="#263238"/>
<path d="M64.752 72.8801C64.752 72.9081 62.6 72.9321 59.952 72.9321C57.304 72.9321 55.152 72.9081 55.152 72.8801C55.152 72.8521 57.302 72.8281 59.952 72.8281C62.602 72.8281 64.752 72.8501 64.752 72.8801Z" fill="#263238"/>
<path d="M59.62 73.6621C59.62 73.6901 58.62 73.7141 57.39 73.7141C56.16 73.7141 55.16 73.6901 55.16 73.6621C55.16 73.6341 56.16 73.6101 57.39 73.6101C58.62 73.6101 59.62 73.6321 59.62 73.6621Z" fill="#263238"/>
<path d="M72.35 65.0521V65.2401H72.214V65.0541C72.0656 65.0502 71.9219 65.0014 71.802 64.9141L71.878 64.7461C71.9756 64.8193 72.0922 64.8631 72.214 64.8721V64.5381C72.028 64.4921 71.828 64.4321 71.828 64.2001C71.828 64.0281 71.952 63.8801 72.214 63.8541V63.6641H72.35V63.8501C72.4699 63.8559 72.5866 63.8909 72.69 63.9521L72.622 64.1221C72.5386 64.0734 72.4459 64.0428 72.35 64.0321V64.3701C72.536 64.4161 72.738 64.4741 72.738 64.7061C72.738 64.8781 72.614 65.0261 72.35 65.0521ZM72.214 64.3341V64.0361C72.094 64.0561 72.044 64.1161 72.044 64.1901C72.044 64.2641 72.116 64.3061 72.214 64.3341ZM72.524 64.7221C72.524 64.6401 72.45 64.6021 72.35 64.5721V64.8701C72.472 64.8501 72.524 64.8001 72.524 64.7221Z" fill="#263238"/>
<path d="M73.7399 63.866V65.038H73.5219V64.048H73.2739V63.866H73.7399Z" fill="#263238"/>
<path d="M74.242 64.9121C74.2389 64.9621 74.226 65.0111 74.204 65.0561L74.118 65.2921H73.982L74.048 65.0361C74.0241 65.0257 74.0038 65.0083 73.9899 64.9862C73.976 64.964 73.9691 64.9382 73.97 64.9121C73.97 64.8761 73.9843 64.8415 74.0099 64.816C74.0354 64.7904 74.07 64.7761 74.106 64.7761C74.1421 64.7761 74.1767 64.7904 74.2022 64.816C74.2277 64.8415 74.242 64.8761 74.242 64.9121Z" fill="#263238"/>
<path d="M74.362 64.4521C74.362 64.0661 74.574 63.8521 74.852 63.8521C75.13 63.8521 75.342 64.0681 75.342 64.4521C75.342 64.8361 75.142 65.0521 74.852 65.0521C74.562 65.0521 74.362 64.8381 74.362 64.4521ZM75.124 64.4521C75.124 64.1701 75.012 64.038 74.852 64.038C74.692 64.038 74.582 64.1701 74.582 64.4521C74.582 64.7341 74.692 64.866 74.852 64.866C75.012 64.866 75.124 64.7361 75.124 64.4521Z" fill="#263238"/>
<path d="M75.4899 64.4521C75.4899 64.0661 75.7019 63.8521 75.9799 63.8521C76.2579 63.8521 76.4699 64.0681 76.4699 64.4521C76.4699 64.8361 76.2599 65.0521 75.9799 65.0521C75.6999 65.0521 75.4899 64.8381 75.4899 64.4521ZM76.2519 64.4521C76.2519 64.1701 76.1399 64.038 75.9799 64.038C75.8199 64.038 75.7099 64.1701 75.7099 64.4521C75.7099 64.7341 75.8199 64.866 75.9799 64.866C76.1399 64.866 76.2519 64.7361 76.2519 64.4521Z" fill="#263238"/>
<path d="M81.1999 66.534C81.1999 66.562 79.0479 66.586 76.3999 66.586C73.7519 66.586 71.5999 66.562 71.5999 66.534C71.5999 66.506 73.7499 66.48 76.3999 66.48C79.0499 66.48 81.1999 66.504 81.1999 66.534Z" fill="#263238"/>
<path d="M76.0579 67.316C76.0579 67.344 75.0579 67.368 73.8279 67.368C72.5979 67.368 71.5979 67.344 71.5979 67.316C71.5979 67.288 72.5979 67.262 73.8279 67.262C75.0579 67.262 76.0579 67.286 76.0579 67.316Z" fill="#263238"/>
<path d="M73.952 21.7061C73.952 21.7341 71.634 21.7581 68.776 21.7581C65.918 21.7581 63.598 21.7341 63.598 21.7061C63.598 21.6781 65.916 21.6541 68.776 21.6541C71.636 21.6541 73.952 21.6761 73.952 21.7061Z" fill="#5E11E8"/>
<path d="M6.51996 83.81C6.21055 83.8226 5.91432 83.9387 5.67864 84.1395C5.44296 84.3404 5.28146 84.6145 5.21996 84.918C5.08999 85.4058 4.98783 85.9006 4.91396 86.4C4.91396 86.4 3.73996 87.456 4.91396 87.738C6.08796 88.02 6.51396 86.438 6.51396 86.438L6.69396 83.802L6.51996 83.81Z" fill="#FFBE9D"/>
<path d="M18.2759 63.5999C18.2759 63.5999 21.9439 51.2819 22.3179 50.7519C22.9339 49.8739 28.8719 47.2339 28.8719 47.2339L30.4719 43.9859L40.3339 42.3999L42.7799 45.5479L49.6539 50.5999L49.1739 68.0239L48.9179 80.1899L50.2199 95.3779L18.9999 95.3199L20.4119 92.1199L21.8939 64.4959L18.2759 63.5999Z" fill="#5E11E8"/>
<path d="M22.506 61.9381C22.4969 61.9056 22.4928 61.8718 22.494 61.8381C22.494 61.7601 22.494 61.6661 22.478 61.5521C22.478 61.3041 22.456 60.9521 22.448 60.5021C22.432 59.6141 22.432 58.3881 22.47 57.0341C22.508 55.6801 22.58 54.4561 22.648 53.5701C22.68 53.1281 22.712 52.7701 22.738 52.5241L22.768 52.2401C22.771 52.207 22.777 52.1741 22.786 52.1421C22.7916 52.1752 22.7916 52.209 22.786 52.2421C22.786 52.3181 22.786 52.4121 22.774 52.5261C22.76 52.7901 22.74 53.1441 22.716 53.5761C22.668 54.4621 22.608 55.6841 22.57 57.0381C22.532 58.3921 22.52 59.6141 22.518 60.5021C22.518 60.9341 22.518 61.2881 22.518 61.5521C22.518 61.6661 22.518 61.7521 22.518 61.8381C22.5187 61.8718 22.5147 61.9055 22.506 61.9381Z" fill="#263238"/>
<g opacity="0.3">
<path opacity="0.3" d="M29.578 58.4C29.5704 58.262 29.6106 58.1257 29.692 58.014C29.8289 57.8462 30.0166 57.7274 30.2269 57.6754C30.4372 57.6235 30.6586 57.6412 30.8579 57.726C31.3799 57.976 31.64 58.576 31.746 59.146C31.86 59.77 31.844 60.414 31.962 61.038C32.08 61.662 32.362 62.298 32.912 62.62C33.59 63.02 34.48 62.84 35.192 63.176C36.252 63.674 36.498 65.052 36.5519 66.224C36.6519 68.442 36.552 70.662 36.46 72.88L35.848 87.044L35.29 94.15L32.418 95.37L28.618 70.4L29.578 58.4Z" fill="black"/>
</g>
<path d="M30.3999 56.376C30.3784 56.3945 30.3532 56.4081 30.3259 56.416C30.2478 56.444 30.164 56.4522 30.0819 56.44C29.9317 56.4134 29.7915 56.3462 29.6766 56.2458C29.5617 56.1453 29.4764 56.0154 29.4299 55.87C29.3682 55.6709 29.3485 55.4612 29.3719 55.254C29.3984 55.0222 29.4371 54.7918 29.4879 54.564C29.5839 54.08 29.6879 53.552 29.7999 52.998C30.0239 51.888 30.2319 50.884 30.3879 50.158L30.5879 49.3C30.6073 49.1941 30.6347 49.0898 30.6699 48.988C30.6658 49.0958 30.6518 49.2029 30.6279 49.308C30.5859 49.53 30.5339 49.822 30.4699 50.174C30.3319 50.902 30.1339 51.908 29.9099 53.018C29.7959 53.572 29.6879 54.1 29.5899 54.582C29.4919 55.064 29.3899 55.5 29.5079 55.848C29.5483 55.9839 29.624 56.1066 29.7273 56.2036C29.8306 56.3005 29.9578 56.3683 30.0959 56.4C30.1978 56.4146 30.3016 56.4064 30.3999 56.376Z" fill="#263238"/>
<path d="M31.4119 51.7418C31.4119 51.7518 31.3299 51.7518 31.1939 51.7938C31.0031 51.8569 30.8354 51.9753 30.7119 52.1338C30.6191 52.2464 30.5568 52.3809 30.5309 52.5245C30.5049 52.6681 30.5163 52.8159 30.5639 52.9538C30.6162 53.125 30.7188 53.2764 30.8582 53.3885C30.9977 53.5006 31.1677 53.5681 31.346 53.5824C31.5244 53.5966 31.7029 53.5569 31.8584 53.4683C32.0139 53.3798 32.1392 53.2465 32.2179 53.0858C32.2868 52.9574 32.3215 52.8134 32.3187 52.6678C32.3159 52.5221 32.2757 52.3795 32.2019 52.2538C32.1059 52.0772 31.9588 51.9336 31.7799 51.8418C31.6519 51.7778 31.5799 51.7658 31.5799 51.7558C31.5799 51.7458 31.5999 51.7558 31.6379 51.7558C31.6945 51.7635 31.7497 51.7789 31.8019 51.8018C31.9991 51.8847 32.164 52.0293 32.2719 52.2138C32.3484 52.3412 32.3956 52.484 32.4099 52.6318C32.4256 52.8034 32.3909 52.9758 32.3099 53.1278C32.2242 53.3076 32.0859 53.457 31.9134 53.5565C31.7409 53.6559 31.5422 53.7007 31.3437 53.6849C31.1452 53.6691 30.9562 53.5934 30.8016 53.4679C30.647 53.3423 30.5342 53.1729 30.4779 52.9818C30.4217 52.8188 30.4148 52.6428 30.4579 52.4758C30.5042 52.3013 30.5962 52.1423 30.7246 52.0154C30.8529 51.8884 31.0129 51.7981 31.1879 51.7538C31.2434 51.7391 31.3006 51.7324 31.3579 51.7338C31.3763 51.7333 31.3945 51.736 31.4119 51.7418Z" fill="#263238"/>
<path d="M34.77 64.4759L16.738 61.2119L8.31999 63.0599L27.156 66.4499L34.77 64.4759Z" fill="#5E11E8"/>
<g opacity="0.6">
<path opacity="0.6" d="M34.77 64.4759L16.738 61.2119L8.31999 63.0599L27.156 66.4499L34.77 64.4759Z" fill="black"/>
</g>
<path d="M23.24 72.3399C23.484 69.0159 24.396 60.5739 25.08 57.3119C25.28 56.3359 25.52 55.3379 26.08 54.5119C26.64 53.6859 27.628 53.0819 28.612 53.2339C29.492 53.3699 30.2 54.0839 30.556 54.8999C30.9039 55.7255 31.0591 56.6194 31.01 57.5139C30.84 61.5459 30.492 66.0619 30.496 69.7999" fill="#455A64"/>
<path d="M29.346 64.4241C29.1271 64.5062 28.9042 64.577 28.678 64.6361C27.6016 64.9687 26.5715 65.4357 25.612 66.0261C25.4185 66.1579 25.2183 66.2794 25.012 66.3901C25.012 66.3901 25.058 66.3401 25.154 66.2641C25.25 66.1881 25.392 66.0861 25.572 65.9641C26.0446 65.6503 26.5415 65.3747 27.058 65.1401C27.5747 64.9052 28.1098 64.7132 28.658 64.5661C28.868 64.5101 29.04 64.4701 29.158 64.4481C29.2194 64.432 29.2826 64.4239 29.346 64.4241Z" fill="#263238"/>
<path d="M29.646 60.5881C29.646 60.6041 29.376 60.6641 28.944 60.7981C27.8164 61.1446 26.7631 61.698 25.838 62.4301C25.484 62.7101 25.278 62.9021 25.266 62.8901C25.3033 62.8352 25.347 62.7848 25.396 62.7401C25.484 62.6481 25.618 62.5221 25.796 62.3741C26.2486 61.987 26.743 61.6516 27.27 61.3741C27.7971 61.0972 28.3531 60.8792 28.928 60.7241C29.1011 60.6756 29.2767 60.6362 29.454 60.6061C29.5167 60.5902 29.5814 60.5842 29.646 60.5881Z" fill="#263238"/>
<path d="M29.242 57.4998C29.242 57.5178 29.028 57.5279 28.69 57.5899C28.2505 57.6714 27.8244 57.8134 27.424 58.0118C27.0245 58.2124 26.6544 58.4668 26.324 58.7678C26.07 58.9998 25.924 59.1678 25.924 59.1538C25.924 59.1398 25.948 59.1038 26.006 59.0258C26.0882 58.9154 26.1784 58.8111 26.276 58.7138C26.9232 58.0622 27.7663 57.6407 28.676 57.5138C28.8125 57.4949 28.9501 57.4855 29.088 57.4858C29.188 57.4878 29.24 57.4918 29.242 57.4998Z" fill="#263238"/>
<path d="M27 67.116C26.9991 67.1219 26.9991 67.128 27 67.134V78.674C27 79.18 26.6 79.702 25.842 80.098C25.084 80.494 24.002 80.764 22.642 80.766H22.624C19.894 80.766 18.262 79.688 18.262 78.674V67.134C18.2625 67.128 18.2625 67.122 18.262 67.116C18.262 67.116 18.262 67.102 18.262 67.094C18.262 65.966 19.096 64.788 19.932 63.624C20.492 62.848 20.626 61.728 20.652 61.072C20.652 60.992 20.652 60.922 20.652 60.858H20.576C20.4965 60.8648 20.4165 60.8557 20.3406 60.8312C20.2647 60.8068 20.1944 60.7674 20.1339 60.7154C20.0733 60.6635 20.0238 60.6 19.9881 60.5286C19.9524 60.4573 19.9313 60.3796 19.926 60.3V59.812C19.9308 59.732 19.9515 59.6539 19.987 59.5821C20.0225 59.5103 20.0719 59.4463 20.1325 59.3939C20.1931 59.3416 20.2635 59.3018 20.3397 59.2771C20.4159 59.2524 20.4962 59.2432 20.576 59.25H24.676C24.7978 59.246 24.9184 59.2759 25.0243 59.3362C25.1302 59.3966 25.2173 59.4851 25.276 59.592C25.3088 59.6607 25.3258 59.7358 25.326 59.812V60.3C25.3207 60.3798 25.2996 60.4577 25.2637 60.5291C25.2279 60.6006 25.1782 60.6642 25.1174 60.7162C25.0567 60.7682 24.9862 60.8075 24.91 60.8319C24.8339 60.8562 24.7536 60.8651 24.674 60.858H24.6C24.6 60.922 24.6 60.992 24.6 61.072C24.626 61.728 24.76 62.848 25.322 63.624C26.156 64.788 26.986 65.966 26.992 67.094C27 67.102 27 67.112 27 67.116Z" fill="#FAFAFA"/>
<path d="M27 67.116C27.0027 67.0767 27.0027 67.0373 27 66.998C26.9927 66.8826 26.9787 66.7677 26.958 66.654C26.862 66.2151 26.7009 65.7931 26.48 65.402C26.125 64.7809 25.7309 64.183 25.3 63.612C25.0454 63.2351 24.8636 62.8138 24.764 62.37C24.6454 61.8753 24.5837 61.3687 24.58 60.86V60.824H24.616C24.7676 60.8341 24.9188 60.7986 25.05 60.722C25.116 60.6838 25.1728 60.6316 25.2163 60.569C25.2599 60.5065 25.2891 60.4351 25.302 60.36C25.302 60.206 25.302 60.032 25.302 59.866C25.309 59.7859 25.2964 59.7053 25.2654 59.6311C25.2344 59.5569 25.1859 59.4913 25.124 59.44C24.9933 59.3339 24.8281 59.2798 24.66 59.288H23H20.638C20.5411 59.2794 20.4434 59.2918 20.3516 59.3242C20.2598 59.3566 20.1761 59.4084 20.106 59.476C20.0392 59.5454 19.9947 59.6331 19.978 59.728C19.9728 59.8299 19.9728 59.932 19.978 60.034C19.978 60.136 19.978 60.252 19.978 60.346C19.9921 60.4432 20.0354 60.5338 20.102 60.606C20.1735 60.6787 20.2604 60.7344 20.3563 60.7691C20.4521 60.8037 20.5546 60.8163 20.656 60.806H20.704V60.856C20.7007 61.3266 20.6498 61.7956 20.552 62.256C20.455 62.7349 20.2677 63.1911 20 63.6C19.718 64 19.428 64.4 19.16 64.824C18.8827 65.2452 18.6545 65.6968 18.48 66.17C18.3952 66.4102 18.3408 66.6602 18.318 66.914C18.304 67.164 18.318 67.432 18.318 67.692V72.552C18.318 74.494 18.318 76.392 18.318 78.224C18.3072 78.4478 18.3179 78.6722 18.35 78.894C18.4063 79.1051 18.5142 79.2989 18.664 79.458C18.9655 79.7784 19.3316 80.0313 19.738 80.2C20.137 80.367 20.5527 80.491 20.978 80.57C21.3946 80.6487 21.8164 80.6962 22.24 80.712C23.0558 80.7535 23.8733 80.6788 24.668 80.49C25.0476 80.3974 25.4159 80.2633 25.766 80.09C26.1051 79.9284 26.4084 79.7006 26.658 79.42C26.7747 79.2823 26.8637 79.1234 26.92 78.952C26.962 78.7786 26.9769 78.5998 26.964 78.422V77.358C26.964 76.664 26.964 75.996 26.964 75.358C26.964 72.814 26.976 70.758 26.98 69.326C26.984 67.894 26.998 67.114 26.998 67.114C27.0041 67.1624 27.0041 67.2115 26.998 67.26C26.998 67.36 26.998 67.502 26.998 67.686C26.998 68.064 26.998 68.616 26.998 69.326C26.998 70.754 26.998 72.814 27.014 75.358C27.014 75.994 27.014 76.662 27.014 77.358V78.694C27.0115 78.7895 26.9967 78.8842 26.97 78.976C26.9111 79.1587 26.8166 79.3279 26.692 79.474C26.4363 79.7651 26.1239 80.0013 25.774 80.168C25.4183 80.3413 25.0448 80.4755 24.66 80.568C23.8668 80.7579 23.0509 80.836 22.236 80.8C21.8077 80.7851 21.3811 80.7376 20.96 80.658C20.5273 80.5774 20.1043 80.4514 19.698 80.282C19.2771 80.1124 18.8977 79.8538 18.586 79.524C18.4248 79.3555 18.3085 79.1492 18.248 78.924C18.2124 78.6945 18.2003 78.4619 18.212 78.23V67.696C18.212 67.432 18.212 67.176 18.212 66.91C18.2363 66.648 18.2927 66.3901 18.38 66.142C18.5572 65.6608 18.7894 65.2018 19.072 64.774C19.34 64.348 19.634 63.946 19.916 63.548C20.1747 63.148 20.3558 62.7029 20.45 62.236C20.5465 61.7835 20.598 61.3226 20.604 60.86L20.65 60.906C20.5358 60.9161 20.4207 60.9007 20.3132 60.861C20.2056 60.8212 20.1082 60.758 20.028 60.676C19.9482 60.5904 19.8971 60.482 19.882 60.366C19.882 60.248 19.882 60.15 19.882 60.042C19.8762 59.9347 19.8762 59.8272 19.882 59.72C19.9028 59.6076 19.9564 59.5039 20.036 59.422C20.115 59.3455 20.2094 59.2867 20.3128 59.2495C20.4163 59.2122 20.5264 59.1974 20.636 59.206H22.998H24.648C24.8339 59.199 25.016 59.2602 25.16 59.378C25.2298 59.4367 25.2843 59.5113 25.3191 59.5955C25.3539 59.6798 25.368 59.7712 25.36 59.862C25.36 60.034 25.36 60.192 25.36 60.366C25.346 60.4513 25.3133 60.5326 25.2642 60.6038C25.2151 60.675 25.1508 60.7345 25.076 60.778C24.9332 60.8608 24.7687 60.8984 24.604 60.886L24.636 60.854C24.654 61.908 24.858 62.884 25.334 63.576C25.762 64.15 26.1522 64.7513 26.502 65.376C26.7218 65.7712 26.8783 66.1983 26.966 66.642C26.9853 66.7604 26.9967 66.88 27 67C27.007 67.0383 27.007 67.0776 27 67.116Z" fill="#263238"/>
<path d="M24.376 60.83C23.7695 60.8827 23.1605 60.9001 22.552 60.882C21.9428 60.9 21.3331 60.8827 20.726 60.83C21.3332 60.7785 21.9428 60.7611 22.552 60.778C23.1605 60.7611 23.7695 60.7784 24.376 60.83Z" fill="#263238"/>
<path d="M26.636 68.658C26.268 68.418 25.782 68.524 25.386 68.712C24.99 68.9 24.616 69.162 24.186 69.23C23.68 69.312 23.17 69.11 22.72 68.856C22.27 68.602 21.844 68.288 21.36 68.114C20.8906 67.9554 20.386 67.9316 19.9038 68.0454C19.4215 68.1593 18.9809 68.4062 18.632 68.758V78.666C18.632 78.666 19.176 80.356 23.008 80.092C26.84 79.828 26.538 78.134 26.538 78.134L26.636 68.658Z" fill="#5E11E8"/>
<path d="M16.484 61.9141C16.5407 61.5484 16.5243 61.1751 16.4358 60.8157C16.3473 60.4564 16.1885 60.1181 15.9684 59.8206C15.7484 59.523 15.4716 59.272 15.154 59.0821C14.8364 58.8922 14.4842 58.7671 14.118 58.7141C14.0509 58.6968 13.9797 58.7046 13.918 58.7361C13.836 58.7921 13.834 58.9101 13.842 59.0081C13.909 59.7228 14.2005 60.398 14.6747 60.9369C15.1489 61.4758 15.7816 61.8508 16.482 62.0081" fill="#455A64"/>
<path d="M12.55 67.0959C13.258 68.5559 14.276 69.5399 15.538 69.5879C15.79 69.5879 15.98 69.4299 16.22 69.4159C16.3595 69.4485 16.4941 69.4996 16.62 69.5679C16.6832 69.5958 16.751 69.6121 16.82 69.6159C18.124 69.5459 19.234 68.6299 19.982 67.0959C21.024 64.9499 20.702 62.6439 19.264 61.9419C19.0753 61.8478 18.8785 61.7709 18.676 61.7119C18.4433 61.6494 18.2028 61.6211 17.962 61.6279C17.406 61.6676 16.8596 61.7931 16.342 61.9999L16.272 62.0259C15.102 61.5099 14.17 61.5059 13.272 61.9439C11.826 62.6439 11.506 64.9499 12.55 67.0959Z" fill="#5E11E8"/>
<path d="M12.574 64.9219C12.5057 64.7873 12.4649 64.6404 12.454 64.4899C12.4114 64.1266 12.4554 63.7584 12.5823 63.4153C12.7091 63.0723 12.9153 62.7641 13.184 62.5159C13.29 62.4084 13.4165 62.3234 13.556 62.2659C13.556 62.2819 13.424 62.3739 13.234 62.5679C12.9912 62.8218 12.8027 63.1226 12.68 63.4519C12.5582 63.7816 12.5065 64.1331 12.528 64.4839C12.544 64.7519 12.6 64.9159 12.574 64.9219Z" fill="#FAFAFA"/>
<path d="M12.84 65.942C12.812 65.942 12.764 65.848 12.734 65.716C12.704 65.584 12.702 65.474 12.734 65.468C12.766 65.462 12.808 65.562 12.84 65.694C12.872 65.826 12.868 65.936 12.84 65.942Z" fill="#FAFAFA"/>
<path d="M19.456 58.3999C19.456 58.4179 19.188 58.5219 18.782 58.7659C18.5458 58.9081 18.3211 59.0686 18.11 59.2459C17.8532 59.4652 17.6156 59.706 17.4 59.9659C17.1887 60.2295 17 60.5105 16.836 60.8059C16.7045 61.0481 16.5922 61.3002 16.5 61.5599C16.342 62.0039 16.3 62.2959 16.274 62.2919C16.274 62.2246 16.2814 62.1576 16.296 62.0919C16.3058 62.0114 16.3218 61.9319 16.344 61.8539C16.3671 61.7484 16.3958 61.6443 16.43 61.5419C16.5141 61.2742 16.6219 61.0145 16.752 60.7659C17.0717 60.154 17.5134 59.6143 18.05 59.1799C18.2678 59.0022 18.5014 58.8449 18.748 58.7099C18.85 58.6479 18.948 58.6059 19.036 58.5639C19.1085 58.5276 19.1833 58.4962 19.26 58.4699C19.3223 58.4389 19.3881 58.4154 19.456 58.3999Z" fill="#263238"/>
<path d="M8.31995 63.0601L6.05396 91.6441L27.174 96.7501C27.174 96.7501 34.542 94.2521 34.642 94.0821C34.742 93.9121 34.77 64.4821 34.77 64.4821L27.156 66.4561L8.31995 63.0601Z" fill="#5E11E8"/>
<g opacity="0.4">
<path opacity="0.4" d="M8.31995 63.0601L6.05396 91.6441L27.174 96.7501C27.174 96.7501 34.542 94.2521 34.642 94.0821C34.742 93.9121 34.77 64.4821 34.77 64.4821L27.156 66.4561L8.31995 63.0601Z" fill="black"/>
</g>
<path d="M41.446 29.7639L40.268 46.4459C40.1753 47.7586 39.5885 48.9873 38.6257 49.8844C37.663 50.7815 36.3959 51.2802 35.08 51.2799C34.3675 51.2814 33.6624 51.1366 33.0082 50.8542C32.3541 50.5719 31.765 50.1582 31.2774 49.6387C30.7898 49.1192 30.4142 48.5051 30.1738 47.8344C29.9334 47.1638 29.8334 46.4509 29.88 45.7399C29.984 44.1519 30.08 42.8499 30.08 42.8499C30.08 42.8499 26.042 42.2219 25.992 38.1839C25.964 35.8519 26.366 30.5599 26.71 26.5059C26.8229 25.1818 27.4295 23.9485 28.4095 23.0508C29.3894 22.1531 30.671 21.6566 32 21.6599H34.438C35.435 21.7185 36.4102 21.9763 37.3059 22.4181C38.2016 22.8599 38.9997 23.4768 39.653 24.2323C40.3063 24.9877 40.8016 25.8665 41.1095 26.8166C41.4175 27.7667 41.5319 28.7689 41.446 29.7639Z" fill="#FFBE9D"/>
<path d="M30.088 42.8499C30.088 42.8499 32.634 42.9999 35.346 41.2959C35.346 41.2959 34.046 44.2339 30.016 43.8699L30.088 42.8499Z" fill="#EB996E"/>
<path d="M27.476 30.67C27.548 30.746 27.984 30.422 28.606 30.424C29.228 30.426 29.68 30.736 29.748 30.66C29.78 30.626 29.708 30.492 29.51 30.346C29.2413 30.161 28.9223 30.0626 28.596 30.064C28.2731 30.0644 27.9584 30.1658 27.696 30.354C27.506 30.502 27.442 30.638 27.476 30.67Z" fill="#263238"/>
<path d="M34.2 31.384C34.1994 31.5341 34.2569 31.6786 34.3606 31.7871C34.4643 31.8957 34.606 31.9598 34.756 31.966C34.8298 31.9722 34.904 31.9637 34.9744 31.9408C35.0448 31.9179 35.1098 31.8811 35.1658 31.8326C35.2217 31.7841 35.2674 31.725 35.3 31.6586C35.3327 31.5921 35.3517 31.5199 35.356 31.446C35.3577 31.2956 35.3004 31.1505 35.1965 31.0417C35.0926 30.933 34.9503 30.8692 34.8 30.864C34.7262 30.8574 34.6519 30.8658 34.5814 30.8886C34.5109 30.9114 34.4457 30.9482 34.3897 30.9967C34.3337 31.0452 34.2881 31.1045 34.2555 31.171C34.2229 31.2376 34.204 31.31 34.2 31.384Z" fill="#263238"/>
<path d="M28.036 31.3839C28.0348 31.5341 28.0923 31.6789 28.196 31.7875C28.2998 31.8962 28.4419 31.9601 28.592 31.9659C28.6658 31.9724 28.7402 31.964 28.8107 31.9412C28.8812 31.9184 28.9463 31.8817 29.0023 31.8332C29.0583 31.7846 29.104 31.7253 29.1365 31.6588C29.1691 31.5923 29.188 31.5198 29.192 31.4459C29.1942 31.2956 29.1374 31.1506 29.0338 31.0418C28.9302 30.9329 28.7881 30.8691 28.638 30.8639C28.564 30.8567 28.4893 30.8647 28.4184 30.8872C28.3476 30.9098 28.2821 30.9465 28.2258 30.9951C28.1695 31.0437 28.1237 31.1032 28.0911 31.17C28.0584 31.2369 28.0397 31.3096 28.036 31.3839Z" fill="#263238"/>
<path d="M33.5139 30.672C33.5859 30.746 34.0239 30.422 34.6439 30.424C35.2639 30.426 35.7179 30.736 35.7859 30.66C35.8179 30.626 35.7459 30.492 35.5479 30.346C35.2792 30.161 34.9602 30.0626 34.6339 30.064C34.311 30.0644 33.9963 30.1658 33.7339 30.354C33.5439 30.502 33.4799 30.638 33.5139 30.672Z" fill="#263238"/>
<path d="M31.2619 35.272C31.2619 35.238 30.8799 35.172 30.2619 35.092C30.1039 35.074 29.9539 35.044 29.9279 34.936C29.9135 34.7724 29.9498 34.6083 30.0319 34.466L30.5019 33.266C31.1519 31.548 31.6239 30.136 31.5539 30.11C31.4839 30.084 30.8999 31.456 30.2499 33.174C30.0833 33.5913 29.9333 33.9933 29.7999 34.38C29.7017 34.5717 29.6727 34.7914 29.7179 35.002C29.7412 35.058 29.7768 35.108 29.8222 35.1482C29.8676 35.1883 29.9215 35.2177 29.9799 35.234C30.0673 35.2579 30.1574 35.2706 30.2479 35.272C30.8699 35.306 31.2599 35.308 31.2619 35.272Z" fill="#263238"/>
<path d="M33.088 35.702C32.988 35.702 32.986 36.37 32.41 36.848C31.834 37.326 31.116 37.248 31.11 37.346C31.11 37.388 31.27 37.476 31.574 37.486C31.9685 37.491 32.3522 37.3572 32.658 37.108C32.9508 36.8671 33.1393 36.5225 33.184 36.146C33.21 35.866 33.134 35.698 33.088 35.702Z" fill="#263238"/>
<path d="M33.354 28.654C33.416 28.822 34.034 28.742 34.754 28.83C35.474 28.918 36.072 29.116 36.168 28.966C36.212 28.894 36.108 28.734 35.872 28.566C35.5565 28.363 35.1973 28.2376 34.824 28.2C34.4516 28.1548 34.0737 28.1993 33.722 28.33C33.462 28.442 33.328 28.574 33.354 28.654Z" fill="#263238"/>
<path d="M27.562 28.8938C27.672 29.0358 28.1 28.8938 28.614 28.8818C29.128 28.8698 29.562 28.9778 29.664 28.8298C29.706 28.7578 29.638 28.6158 29.448 28.4838C29.1928 28.3233 28.8955 28.2424 28.5941 28.2517C28.2927 28.261 28.0009 28.3599 27.756 28.5358C27.574 28.6798 27.514 28.8258 27.562 28.8938Z" fill="#263238"/>
<path d="M40.084 32.8C40.154 32.77 42.86 31.98 42.772 34.74C42.684 37.5 39.93 36.842 39.928 36.764C39.926 36.686 40.084 32.8 40.084 32.8Z" fill="#FFBE9D"/>
<path d="M40.8 35.738C40.812 35.738 40.848 35.774 40.928 35.814C41.0404 35.8662 41.1688 35.8727 41.286 35.832C41.582 35.734 41.842 35.28 41.87 34.782C41.8858 34.5458 41.8475 34.3091 41.758 34.09C41.7349 34.0028 41.6909 33.9224 41.63 33.8559C41.569 33.7894 41.4928 33.7386 41.408 33.708C41.353 33.6915 41.2941 33.6949 41.2414 33.7176C41.1887 33.7403 41.1457 33.7808 41.12 33.832C41.08 33.908 41.096 33.964 41.082 33.968C41.068 33.972 41.024 33.92 41.05 33.806C41.0683 33.7384 41.1084 33.6787 41.164 33.636C41.2417 33.5811 41.338 33.5588 41.432 33.574C41.5446 33.6004 41.6486 33.655 41.7344 33.7326C41.8201 33.8103 41.8846 33.9085 41.922 34.018C42.0311 34.2614 42.0798 34.5277 42.064 34.794C42.028 35.35 41.726 35.86 41.324 35.964C41.249 35.9829 41.1708 35.9849 41.095 35.9696C41.0192 35.9544 40.9478 35.9224 40.886 35.876C40.8 35.8 40.8 35.744 40.8 35.738Z" fill="#EB996E"/>
<path d="M41.62 32.6999C41.2 32.5979 40.472 32.9879 40.292 33.3819C40.112 33.7759 40.072 34.2219 39.892 34.6159C39.712 35.0099 39.308 35.3679 38.892 35.2679C38.7492 35.2229 38.6209 35.1409 38.5201 35.0302C38.4193 34.9196 38.3495 34.7842 38.318 34.6379C38.2599 34.344 38.2599 34.0417 38.318 33.7479C38.48 32.4579 38.75 31.1799 38.802 29.8819C38.854 28.5839 38.67 27.2339 37.988 26.1279C37.306 25.0219 36.054 24.2079 34.758 24.3119C33.9 24.3819 33.114 24.8299 32.262 24.9479C31.755 25.015 31.2393 24.9658 30.7542 24.8039C30.2691 24.6421 29.8271 24.3719 29.462 24.0139C29.368 23.9219 28.938 23.6359 28.938 23.6359C28.938 23.5699 29 22.9939 29.228 22.7839C30.918 21.2199 33.966 20.7839 36.2 21.3459C38.434 21.9079 40.528 23.4839 41.488 25.5779C42.448 27.6719 42.164 30.5779 41.634 32.6999" fill="#263238"/>
<path d="M26.276 25.778C26.638 26.616 27.562 27.104 28.476 27.196C29.39 27.288 30.292 27.052 31.17 26.796C32.048 26.54 34.406 26.156 35.32 26.184C35.456 26.184 35.62 26.184 35.694 26.07C35.79 25.916 35.636 25.73 35.494 25.62C34.294 24.676 31.38 24.098 29.852 24.034C28.324 23.97 26.722 24.634 25.894 25.912" fill="#263238"/>
<path d="M26.674 25.8819C26.674 25.8819 37.274 22.4819 41.85 31.6399C41.85 31.6399 42.534 29.3459 42.534 28.1159C42.534 27.2959 42.044 22.4039 37.012 20.8659C37.012 20.8659 29.43 17.9739 26.674 25.8819Z" fill="#5E11E8"/>
<g opacity="0.4">
<path opacity="0.4" d="M26.674 25.8819C27.5552 24.954 28.7633 24.4059 30.042 24.3539C33.168 24.2139 39.016 25.9719 41.842 31.6399C41.842 31.6399 42.526 29.3459 42.526 28.1159C42.526 27.2959 42.036 22.4039 37.004 20.8659C37.012 20.8659 29.43 17.9739 26.674 25.8819Z" fill="black"/>
</g>
<path d="M41.3999 30.5658C39.7932 28.1735 37.6876 26.1574 35.2279 24.6558C32.7999 23.1338 28.7739 21.6298 25.9999 20.8918C25.1679 20.6718 24.2999 20.4778 23.4499 20.6258C22.5999 20.7738 21.7679 21.3378 21.5579 22.1738C21.2939 23.2198 23.1579 24.8338 24.0239 25.4678C24.8788 26.0376 25.7641 26.5604 26.6759 27.0338C26.6759 27.0338 26.6519 25.0938 29.7579 24.6938C33.9799 24.1498 41.3999 30.5658 41.3999 30.5658Z" fill="#5E11E8"/>
<path d="M32.72 22.6499C32.72 22.6499 31.192 21.8059 29.66 21.6099C29.9151 21.4087 30.1947 21.2407 30.492 21.1099C31.3242 21.2478 32.1291 21.5178 32.876 21.9099L32.72 22.6499Z" fill="#FAFAFA"/>
<path d="M46.028 50.168C46.028 50.168 43.132 53.478 43.452 58.084C43.496 58.722 43.528 59.612 43.606 60.248C44.094 64.2 44.85 67.868 44.85 67.868H45.126L55.224 65.374C55.224 65.374 53.702 56.608 53.352 55.444C52.234 51.718 48.4 49.668 48.4 49.668L46.028 50.168Z" fill="#5E11E8"/>
<path d="M34.6419 94.082C34.6419 94.082 34.6419 94.032 34.6419 93.934C34.6419 93.836 34.6419 93.686 34.6419 93.494C34.6419 93.106 34.6419 92.538 34.6419 91.804C34.6419 90.33 34.6419 88.204 34.6539 85.54C34.6719 80.222 34.6979 72.822 34.7279 64.476L34.7919 64.526L30.9519 65.526L27.1799 66.504L27.2179 66.454C27.2699 70.638 27.2559 74.586 27.2359 78.154C27.2159 81.722 27.1959 84.908 27.1799 87.572C27.1639 90.236 27.1799 92.372 27.1799 93.852C27.1799 94.588 27.1799 95.158 27.1799 95.548V95.988C27.1799 96.086 27.1799 96.136 27.1799 96.136C27.1799 96.136 27.1799 96.086 27.1799 95.988C27.1799 95.89 27.1799 95.74 27.1799 95.548C27.1799 95.148 27.1659 94.588 27.1539 93.852C27.1359 92.378 27.1239 90.236 27.1259 87.572C27.1279 84.908 27.1479 81.72 27.1599 78.154C27.1719 74.588 27.1839 70.638 27.1299 66.456V66.414L27.1699 66.404L30.9399 65.426L34.7819 64.426L34.8479 64.408V64.476C34.8039 72.822 34.7659 80.224 34.7399 85.54C34.7219 88.196 34.7059 90.33 34.6959 91.804C34.6959 92.538 34.6839 93.106 34.6799 93.494C34.6799 93.694 34.6799 93.832 34.6799 93.934C34.6799 94.036 34.6419 94.082 34.6419 94.082Z" fill="#263238"/>
<path d="M29.966 44.2159C29.966 44.2159 29.566 48.0579 30.858 48.6559C32.316 49.3279 33.77 48.6699 34.658 48.0999C37.04 46.5799 40.58 42.3579 40.58 42.3579L42.98 45.4739C42.98 45.4739 36.936 52.7379 35.722 52.6899C34.922 52.6599 33.692 51.8899 32.922 51.3479C32.5006 51.0536 32.1252 50.6984 31.808 50.2939L30.762 48.9639C29.456 49.6079 28.4 50.4339 27.67 51.4919C27.67 51.4919 27.322 48.8019 27.948 47.5819C28.574 46.3619 29.822 44.2559 29.822 44.2559L29.966 44.2159Z" fill="#5E11E8"/>
<path d="M27.8739 47.6858C27.8691 47.7088 27.861 47.731 27.8499 47.7518C27.8319 47.7998 27.8059 47.8618 27.7719 47.9398C27.6889 48.1884 27.6293 48.4441 27.5939 48.7038C27.4778 49.6603 27.4778 50.6273 27.5939 51.5838L27.5219 51.5698C27.8584 51.0015 28.2979 50.5009 28.8179 50.0938C29.4066 49.6152 30.0498 49.2077 30.7339 48.8798L30.7659 48.8638L30.7899 48.8918C31.2119 49.3818 31.6579 49.8918 32.1279 50.4098C32.598 50.9524 33.1273 51.4408 33.7059 51.8658C33.9824 52.0615 34.2828 52.2208 34.5999 52.3398C34.756 52.3966 34.9166 52.4401 35.0799 52.4698C35.2399 52.4957 35.4025 52.5018 35.5639 52.4878C36.2139 52.4278 36.7639 52.0558 37.2199 51.6638L41.3579 47.2518L42.5579 45.9858L42.8799 45.6518L42.9639 45.5658L42.9959 45.5398L42.9719 45.5718L42.8919 45.6638L42.5819 46.0078L41.4019 47.2938L37.2939 51.7298C37.057 51.9408 36.7982 52.1258 36.5219 52.2818C36.2328 52.4458 35.9127 52.548 35.5819 52.5818C35.4111 52.5958 35.2393 52.5897 35.0699 52.5638C34.9003 52.534 34.7336 52.4891 34.5719 52.4298C34.2452 52.3076 33.9354 52.1442 33.6499 51.9438C33.063 51.5148 32.5262 51.021 32.0499 50.4718C31.5779 49.9518 31.1319 49.4398 30.7119 48.9478L30.7699 48.9598C30.0924 49.2851 29.4548 49.6877 28.8699 50.1598C28.3625 50.5585 27.9321 51.0465 27.5999 51.5998L27.5399 51.7038L27.5279 51.5858C27.4162 50.623 27.4269 49.6499 27.5599 48.6898C27.6009 48.4297 27.668 48.1745 27.7599 47.9278C27.7959 47.8438 27.8279 47.7838 27.8479 47.7418C27.8554 47.7226 27.8641 47.7039 27.8739 47.6858Z" fill="#263238"/>
<g opacity="0.3">
<path opacity="0.3" d="M28.022 50.924C27.9816 51.0247 27.9742 51.1357 28.0008 51.241C28.0273 51.3463 28.0866 51.4404 28.17 51.51C28.2533 51.5419 28.3438 51.5504 28.4316 51.5346C28.5194 51.5187 28.6011 51.4791 28.668 51.42C28.799 51.3001 28.9122 51.162 29.004 51.01C29.2432 50.6652 29.5308 50.3567 29.858 50.094C30.18 49.834 30.622 49.614 30.992 49.798C31.2234 49.9508 31.3988 50.1747 31.492 50.436C31.994 51.462 32.596 52.506 33.578 53.092C34.56 53.678 35.822 53.704 36.904 53.322C37.9796 52.9032 38.9261 52.2086 39.648 51.308C40.3643 50.41 40.9995 49.4503 41.546 48.44C41.998 47.658 42.456 46.852 42.596 45.96C42.472 46.03 42.18 46.48 42.056 46.55C42.056 46.55 37.394 51.684 36.956 51.95C36.518 52.216 35.31 53.988 31.888 50.15L30.756 48.922C30.756 48.922 28.6 49.968 28.022 50.924Z" fill="black"/>
</g>
<path d="M40.5084 62.0006L35.3824 61.2144L35.145 62.7623L40.271 63.5485L40.5084 62.0006Z" fill="white"/>
<path d="M54.376 65.5679L46.376 67.5019L47.3 75.0479L31.98 86.5539C31.368 86.6399 30.74 86.7379 30.392 86.8259C29.554 87.0259 28.074 89.1359 27.656 89.3459L24.67 91.6499C24.67 91.6499 24.408 92.6979 25.77 92.4879C27.132 92.2779 28.65 91.2319 28.808 91.2319C28.966 91.2319 29.442 91.5499 29.208 92.2319C29.008 92.8319 28.188 94.8959 28.188 94.8959L27.174 96.7559C27.174 96.7559 31.558 96.8999 32.774 95.2739C33.606 94.1699 36.174 91.0399 36.174 91.0399C36.174 91.0399 54.208 82.1679 55.29 80.3099C56.764 77.7819 54.376 65.5679 54.376 65.5679Z" fill="#FFBE9D"/>
<path d="M50.688 78.2999C50.6988 78.0247 50.6868 77.7491 50.652 77.4759C50.5552 76.8161 50.2318 76.2106 49.7373 75.7632C49.2429 75.3158 48.6081 75.0544 47.942 75.0239C47.6665 75.0163 47.3909 75.0317 47.118 75.0699C47.1863 75.0373 47.2591 75.015 47.334 75.0039C47.5351 74.9612 47.7406 74.9431 47.946 74.9499C48.6354 74.9613 49.2971 75.2227 49.8081 75.6855C50.3191 76.1483 50.6446 76.781 50.724 77.4659C50.7487 77.6698 50.7487 77.8759 50.724 78.0799C50.7228 78.1546 50.7107 78.2287 50.688 78.2999Z" fill="#EB996E"/>
<path d="M30.776 93.938C30.7603 94.1093 30.7254 94.2784 30.672 94.442C30.5695 94.8465 30.4205 95.2378 30.228 95.608C30.0361 95.9866 29.7442 96.3055 29.384 96.53C29.2739 96.5956 29.1546 96.6441 29.03 96.674C28.985 96.6896 28.9371 96.6944 28.89 96.688C29.0477 96.6273 29.2003 96.5537 29.346 96.468C29.6829 96.2345 29.9575 95.9221 30.146 95.558C30.3304 95.1927 30.4823 94.8119 30.6 94.42C30.6445 94.2545 30.7034 94.0932 30.776 93.938Z" fill="#EB996E"/>
<path d="M32.9 93.24C32.8697 93.4079 32.8179 93.5713 32.746 93.726C32.5954 94.1089 32.4204 94.4816 32.222 94.842C32.0228 95.2023 31.801 95.5497 31.5579 95.882C31.4657 96.0285 31.3555 96.1628 31.2299 96.282C31.3071 96.1301 31.3967 95.985 31.498 95.848C31.67 95.586 31.8979 95.218 32.1299 94.8C32.3619 94.382 32.548 94 32.678 93.706C32.7383 93.5445 32.8125 93.3886 32.9 93.24Z" fill="#EB996E"/>
<path d="M32.842 80.1799C32.8637 80.2636 32.8758 80.3495 32.878 80.4359C32.896 80.5999 32.91 80.8359 32.918 81.1339C32.9556 82.6776 32.7325 84.2165 32.258 85.6859C32.166 85.9659 32.086 86.1919 32.022 86.3439C31.9947 86.4253 31.9591 86.5037 31.916 86.5779C31.9293 86.493 31.9521 86.4098 31.984 86.3299C32.036 86.1739 32.106 85.9459 32.184 85.6639C32.3988 84.9289 32.5619 84.1797 32.672 83.4219C32.7802 82.664 32.8363 81.8995 32.84 81.1339C32.84 80.8399 32.84 80.6019 32.84 80.4379C32.8325 80.3521 32.8332 80.2657 32.842 80.1799Z" fill="#263238"/>
<path d="M28.508 82.582C28.6053 82.7865 28.6894 82.9969 28.76 83.212C28.908 83.612 29.114 84.144 29.36 84.734C29.606 85.324 29.834 85.854 30.004 86.236C30.1041 86.4391 30.1916 86.6482 30.266 86.862C30.137 86.6734 30.0272 86.4724 29.938 86.262C29.75 85.886 29.508 85.36 29.264 84.768C29.02 84.176 28.826 83.63 28.696 83.23C28.6135 83.0203 28.5506 82.8034 28.508 82.582Z" fill="#263238"/>
<path d="M27.346 87.76C27.3056 87.7773 27.2633 87.7894 27.22 87.7961L26.854 87.8841C26.694 87.9221 26.5 87.966 26.27 88.004C26.04 88.042 25.782 88.0981 25.49 88.1341C25.198 88.1701 24.89 88.22 24.54 88.25C24.19 88.28 23.828 88.3061 23.442 88.3281C21.7607 88.4026 20.0766 88.2743 18.426 87.9461C18.048 87.8641 17.686 87.792 17.354 87.7C17.022 87.608 16.712 87.528 16.432 87.442C16.152 87.356 15.9 87.2701 15.68 87.1961C15.46 87.1221 15.28 87.0501 15.122 86.9961L14.772 86.856C14.7307 86.8403 14.6906 86.8216 14.652 86.8C14.6961 86.8062 14.7391 86.8184 14.78 86.836L15.136 86.9581C15.288 87.0141 15.478 87.0821 15.698 87.1581C15.918 87.2341 16.17 87.314 16.452 87.388C16.734 87.462 17.04 87.556 17.374 87.632C17.708 87.708 18.066 87.79 18.444 87.868C19.2664 88.0215 20.0961 88.1323 20.93 88.2C21.7646 88.2599 22.6017 88.276 23.438 88.248C23.824 88.228 24.19 88.214 24.532 88.18C24.874 88.146 25.19 88.1141 25.48 88.0781C25.77 88.0421 26.03 87.998 26.26 87.962C26.49 87.926 26.686 87.892 26.846 87.86L27.216 87.792C27.2579 87.7764 27.3016 87.7657 27.346 87.76Z" fill="#263238"/>
<path d="M26.584 84.2819C26.253 84.1608 25.9348 84.0074 25.634 83.8239C25.3173 83.6702 25.0159 83.4867 24.734 83.2759C25.0656 83.3955 25.3839 83.5489 25.684 83.7339C26.0015 83.8861 26.303 84.0697 26.584 84.2819Z" fill="#263238"/>
<path d="M55.224 65.3739L55.174 65.3899L55.026 65.4299L54.454 65.5759L52.302 66.1079L44.862 67.9079L44.808 67.9199V67.8659C44.598 66.4919 44.31 65.0099 44.032 63.4659C43.85 62.4359 43.692 61.4259 43.584 60.4459C43.476 59.4659 43.428 58.5119 43.414 57.6039C43.3919 56.7445 43.4421 55.8848 43.564 55.0339C43.6723 54.2894 43.8935 53.5657 44.22 52.8879C44.4993 52.3324 44.8728 51.8297 45.324 51.4019C45.6634 51.0785 46.0532 50.8123 46.478 50.6139C46.7482 50.4931 47.0314 50.4039 47.322 50.3479L47.55 50.3199C47.5759 50.3172 47.602 50.3172 47.628 50.3199C47.6026 50.3282 47.5765 50.3335 47.55 50.3359L47.326 50.3759C47.0396 50.4376 46.7612 50.5316 46.496 50.6559C46.0787 50.8611 45.6967 51.1311 45.364 51.4559C44.9234 51.8831 44.5588 52.3822 44.286 52.9319C43.9686 53.6047 43.7542 54.3213 43.65 55.0579C43.5325 55.9052 43.4857 56.7608 43.51 57.6159C43.526 58.5199 43.578 59.4679 43.686 60.4459C43.794 61.4239 43.954 62.4319 44.136 63.4599C44.412 65.0019 44.698 66.4859 44.908 67.8599L44.846 67.8179L52.296 66.0479L54.454 65.5439L55.03 65.4139L55.18 65.3819C55.1943 65.3778 55.2091 65.3752 55.224 65.3739Z" fill="#263238"/>
</svg>
