<svg width="24" height="24" viewBox="0 0 24 24" fill="none" xmlns="http://www.w3.org/2000/svg">
<path d="M1.41 1.69043L0 3.10043L2 5.10043V21.0004H17.9L20.9 24.0004L22.31 22.5904L1.41 1.69043ZM6 19.0004H4V17.0004H6V19.0004ZM6 15.0004H4V13.0004H6V15.0004ZM4 11.0004V9.00043H6V11.0004H4ZM10 19.0004H8V17.0004H10V19.0004ZM8 15.0004V13.0004H10V15.0004H8ZM12 19.0004V17.0004H13.9L15.9 19.0004H12ZM8 5.00043H10V7.00043H9.55L12 9.45043V9.00043H20V17.4504L22 19.4504V7.00043H12V3.00043H5.55L8 5.45043V5.00043ZM16 11.0004H18V13.0004H16V11.0004Z" fill="#323232"/>
</svg>
