<svg width="24" height="24" viewBox="0 0 24 24" fill="none" xmlns="http://www.w3.org/2000/svg">
<g clip-path="url(#clip0_1040_14699)">
<path d="M8.00001 4.9998H10V6.9998H9.10001L12 9.8998V8.9998H20V17.8998L22 19.8998V6.9998H12V2.9998H5.10001L8.00001 5.89981V4.9998ZM16 10.9998H18V12.9998H16V10.9998ZM1.30001 1.7998L0.100006 3.0998L2.00001 4.9998V20.9998H18L21 23.9998L22.3 22.6998L1.30001 1.7998V1.7998ZM6.00001 18.9998H4.00001V16.9998H6.00001V18.9998ZM6.00001 14.9998H4.00001V12.9998H6.00001V14.9998ZM6.00001 10.9998H4.00001V8.9998H6.00001V10.9998ZM10 18.9998H8.00001V16.9998H10V18.9998ZM10 14.9998H8.00001V12.9998H10V14.9998ZM12 18.9998V16.9998H14L16 18.9998H12Z" fill="#323232"/>
</g>
<defs>
<clipPath id="clip0_1040_14699">
<rect width="24" height="24" fill="white"/>
</clipPath>
</defs>
</svg>
