<svg width="24" height="24" viewBox="0 0 24 24" fill="none" xmlns="http://www.w3.org/2000/svg">
<path d="M12 5.09953V9.14953L19.4 16.5495C20.55 13.6695 19.99 10.2695 17.65 7.93953L12 2.26953L8.55999 5.70953L9.96999 7.11953L12 5.09953ZM4.39999 4.36953L2.98999 5.77953L5.76999 8.55953C3.22999 11.6995 3.41999 16.3095 6.33999 19.2395C7.89999 20.7995 9.94999 21.5795 12 21.5795C13.78 21.5795 15.56 20.9895 17.02 19.8095L19.72 22.5095L21.13 21.0995L4.39999 4.36953ZM12 19.5895C10.4 19.5895 8.88999 18.9695 7.75999 17.8295C6.61999 16.6895 5.99999 15.1895 5.99999 13.5895C5.99999 12.2695 6.42999 11.0295 7.20999 9.99953L12 14.7895V19.5895Z" fill="#323232"/>
</svg>
