<svg width="24" height="24" viewBox="0 0 24 24" fill="none" xmlns="http://www.w3.org/2000/svg">
<path d="M17.34 14.5396L15.91 13.1096C16.47 12.3796 16.96 11.6096 17.38 10.7896L15.18 8.58957C14.9 8.30957 14.82 7.91957 14.93 7.56957C15.3 6.44957 15.5 5.24957 15.5 3.99957C15.5 3.44957 15.95 2.99957 16.5 2.99957H20C20.55 2.99957 21 3.44957 21 3.99957C21 7.97957 19.63 11.6396 17.34 14.5396ZM14.52 17.3496C11.63 19.6396 7.97 20.9996 4 20.9996C3.45 20.9996 3 20.5496 3 19.9996V16.5096C3 15.9596 3.45 15.5096 4 15.5096C5.24 15.5096 6.45 15.3096 7.57 14.9396C7.92 14.8196 8.32 14.9096 8.59 15.1796L10.79 17.3796C11.6 16.9596 12.37 16.4796 13.09 15.9196L1.39 4.21957L2.81 2.80957L21.19 21.1996L19.78 22.6096L14.52 17.3496V17.3496Z" fill="#323232"/>
</svg>
