<svg width="24" height="24" viewBox="0 0 24 24" fill="none" xmlns="http://www.w3.org/2000/svg">
<path d="M1.41 1.59961L0 3.00961L5 7.99961C3.34 7.99961 2 9.33961 2 10.9996V16.9996H6V20.9996H18L20.95 23.9596L22.36 22.5496L1.41 1.59961ZM6 14.9996H4V10.9996C4 10.4496 4.45 9.99961 5 9.99961H7L10 12.9996H6V14.9996ZM8 18.9996V14.9996H12L16 18.9996H8ZM8 4.99961H16V7.99961H10.66L12.66 9.99961H19C19.55 9.99961 20 10.4496 20 10.9996V14.9996L18 15.0096V12.9996H15.66L19.66 16.9996H22V10.9996C22 9.33961 20.66 7.99961 19 7.99961H18V2.99961H6V3.35961L8 5.35961V4.99961Z" fill="#323232"/>
<path d="M18 12.5098C18.5523 12.5098 19 12.0621 19 11.5098C19 10.9575 18.5523 10.5098 18 10.5098C17.4477 10.5098 17 10.9575 17 11.5098C17 12.0621 17.4477 12.5098 18 12.5098Z" fill="#323232"/>
</svg>
