<svg width="24" height="24" viewBox="0 0 24 24" fill="none" xmlns="http://www.w3.org/2000/svg">
<path d="M21.22 18.0205L23.22 20.0205H24V18.0205H21.22ZM21.99 16.0205L22 6.02047C22 4.91047 21.1 4.02047 20 4.02047H7.22L12.45 9.25047C12.63 9.21047 12.81 9.18047 13 9.15047V7.02047L17 10.7505L15.42 12.2205L20.96 17.7605C21.57 17.4305 21.99 16.7705 21.99 16.0205V16.0205ZM2.39 1.73047L1.11 3.00047L2.65 4.54047C2.25 4.90047 2 5.43047 2 6.02047V16.0205C2 17.1205 2.89 18.0205 4 18.0205H0V20.0205H18.13L20.84 22.7305L22.11 21.4605L2.39 1.73047ZM7 15.0205C7.31 13.5405 7.92 12.0705 9.07 10.9605L10.66 12.5505C9.12 12.9305 7.96 13.7305 7 15.0205V15.0205Z" fill="#323232"/>
</svg>
