<svg width="24" height="24" viewBox="0 0 24 24" fill="none" xmlns="http://www.w3.org/2000/svg">
<path d="M21.79 18.0003L23.79 20.0003H24V18.0003H21.79ZM1.11 2.98031L2.66 4.54031C2.25 4.91031 2 5.43031 2 6.02031V16.0003C2 17.1003 2.9 18.0003 4.01 18.0003H0V20.0003H18.13L20.84 22.7103L22.25 21.3003L2.52 1.57031L1.11 2.98031ZM4 6.02031H4.13L9.08 10.9503C7.94 12.0703 7.31 13.5203 7 15.0003C7.96 13.7103 9.13 12.9203 10.67 12.5403L14.13 16.0203H4V6.02031ZM20 6.02031V16.2103L21.3 17.5103C21.72 17.1403 22 16.6203 22 16.0203V6.02031C22 4.91031 21.1 4.02031 20 4.02031H7.8L9.8 6.02031H20ZM12.93 9.15031L15.72 11.9303L17 10.7303L13 7.00031V9.13031L12.93 9.15031Z" fill="#323232"/>
</svg>
