<svg width="345" height="345" viewBox="0 0 345 345" fill="none" xmlns="http://www.w3.org/2000/svg">
<path d="M171.554 78.874C136.047 90.8593 57.704 42.442 45.8015 101.133C36.0173 149.302 85.2557 197.637 149.301 214.079C194.766 225.754 256.452 205.703 266.974 149.075C273.557 113.657 246.964 73.216 225.967 65.1568C199.727 55.0966 194.71 71.0701 171.554 78.874Z" fill="#FA4D4E"/>
<path opacity="0.9" d="M171.554 78.874C136.047 90.8593 57.704 42.442 45.8015 101.133C36.0173 149.302 85.2557 197.637 149.301 214.079C194.766 225.754 256.452 205.703 266.974 149.075C273.557 113.657 246.964 73.216 225.967 65.1568C199.727 55.0966 194.71 71.0701 171.554 78.874Z" fill="white"/>
<path d="M172.501 295.017C246.388 295.017 306.285 291.52 306.285 287.206C306.285 282.892 246.388 279.395 172.501 279.395C98.614 279.395 38.7168 282.892 38.7168 287.206C38.7168 291.52 98.614 295.017 172.501 295.017Z" fill="#F5F5F5"/>
<path d="M128.72 88.5134C128.723 87.2282 128.619 85.945 128.41 84.677C127.485 79.0724 124.614 73.9732 120.302 70.2756C115.99 66.5781 110.513 64.5189 104.833 64.46H104.626C100.815 64.4623 97.0594 65.3707 93.669 67.1103C90.2786 68.8499 87.3504 71.3708 85.1262 74.465C84.7605 74.9687 84.4362 75.4862 84.105 76.0037C84.078 76.0378 84.0549 76.0748 84.036 76.1141C81.7709 79.8603 80.5776 84.1563 80.586 88.5341V88.5824C80.6002 93.6703 82.2265 98.6229 85.2314 102.729C88.2363 106.835 92.4651 109.883 97.3105 111.435C102.156 112.987 107.369 112.964 112.2 111.368C117.031 109.773 121.233 106.687 124.201 102.555C124.56 102.051 124.891 101.541 125.215 101.016C125.242 100.982 125.265 100.945 125.284 100.906C127.546 97.1692 128.735 92.8814 128.72 88.5134ZM81.6141 87.9683C81.6938 84.0286 82.7946 80.1771 84.8088 76.7903H92.3367C91.1863 80.4062 90.5839 84.1739 90.5496 87.9683H81.6141ZM93.3924 76.7903H104.129V87.9683H91.5846C91.6074 84.1714 92.2172 80.4008 93.3924 76.7903ZM105.164 75.7553V65.4605C106.656 65.5957 108.085 66.1269 109.304 66.9992C111.864 68.7518 114.01 71.8292 115.514 75.7553H105.164ZM115.886 76.7903C116.74 79.3751 117.296 82.0489 117.542 84.7598C117.646 85.8362 117.694 86.9057 117.708 87.9683H105.164V76.7903H115.886ZM102.611 65.7503C103.106 65.6095 103.615 65.5216 104.129 65.4881V75.776H93.7788C95.7108 70.5734 98.8434 66.7922 102.611 65.7296V65.7503ZM104.129 89.024V100.202H93.4131C92.5593 97.6108 92.0082 94.9296 91.7709 92.2118C91.6743 91.1354 91.6191 90.0659 91.6053 89.0033L104.129 89.024ZM104.129 101.237V111.532C102.637 111.396 101.208 110.864 99.9888 109.993C97.4358 108.24 95.2899 105.163 93.7788 101.237H104.129ZM106.682 111.263C106.187 111.404 105.678 111.492 105.164 111.525V101.216H115.514C113.582 106.398 110.449 110.186 106.682 111.242V111.263ZM105.164 100.223V89.0102H117.708C117.688 92.8074 117.079 96.5784 115.9 100.188L105.164 100.223ZM118.743 89.0102H127.713C127.629 92.9493 126.529 96.7999 124.518 100.188H116.956C118.106 96.5723 118.709 92.8045 118.743 89.0102ZM127.713 87.9752H118.743C118.743 86.885 118.674 85.781 118.57 84.6701C118.335 81.9956 117.805 79.3554 116.99 76.7972H124.504C125.957 79.2626 126.937 81.9769 127.396 84.8012C127.56 85.8496 127.657 86.9074 127.685 87.9683L127.713 87.9752ZM118.143 69.8075C120.398 71.432 122.343 73.449 123.883 75.7622H116.611C115.065 71.4911 112.74 68.1101 109.89 66.1505L109.669 66.0056C112.712 66.6869 115.585 67.9779 118.115 69.8006L118.143 69.8075ZM99.6024 66.0194C96.6975 67.9307 94.3101 71.4083 92.7024 75.7622H85.4574L85.9611 75.0239C89.2378 70.4496 94.0839 67.2418 99.5748 66.0125L99.6024 66.0194ZM81.6624 89.0102H90.5979C90.5979 90.1004 90.6669 91.2044 90.7704 92.3153C91.0092 94.9892 91.5391 97.6291 92.3505 100.188H84.795C83.34 97.7241 82.3594 95.0093 81.9039 92.1842C81.7321 91.1344 81.6353 90.0737 81.6141 89.0102H81.6624ZM85.485 101.223H92.7024C94.248 105.494 96.5733 108.875 99.423 110.835L99.6507 110.98C93.853 109.663 88.7822 106.17 85.485 101.223ZM109.711 110.959C112.609 109.055 114.996 105.57 116.611 101.216H123.842C123.676 101.465 123.511 101.713 123.338 101.955C120.059 106.531 115.207 109.737 109.711 110.959Z" fill="#FA4D4E"/>
<path opacity="0.8" d="M128.72 88.5134C128.723 87.2282 128.619 85.945 128.41 84.677C127.485 79.0724 124.614 73.9732 120.302 70.2756C115.99 66.5781 110.513 64.5189 104.833 64.46H104.626C100.815 64.4623 97.0594 65.3707 93.669 67.1103C90.2786 68.8499 87.3504 71.3708 85.1262 74.465C84.7605 74.9687 84.4362 75.4862 84.105 76.0037C84.078 76.0378 84.0549 76.0748 84.036 76.1141C81.7709 79.8603 80.5776 84.1563 80.586 88.5341V88.5824C80.6002 93.6703 82.2265 98.6229 85.2314 102.729C88.2363 106.835 92.4651 109.883 97.3105 111.435C102.156 112.987 107.369 112.964 112.2 111.368C117.031 109.773 121.233 106.687 124.201 102.555C124.56 102.051 124.891 101.541 125.215 101.016C125.242 100.982 125.265 100.945 125.284 100.906C127.546 97.1692 128.735 92.8814 128.72 88.5134ZM81.6141 87.9683C81.6938 84.0286 82.7946 80.1771 84.8088 76.7903H92.3367C91.1863 80.4062 90.5839 84.1739 90.5496 87.9683H81.6141ZM93.3924 76.7903H104.129V87.9683H91.5846C91.6074 84.1714 92.2172 80.4008 93.3924 76.7903ZM105.164 75.7553V65.4605C106.656 65.5957 108.085 66.1269 109.304 66.9992C111.864 68.7518 114.01 71.8292 115.514 75.7553H105.164ZM115.886 76.7903C116.74 79.3751 117.296 82.0489 117.542 84.7598C117.646 85.8362 117.694 86.9057 117.708 87.9683H105.164V76.7903H115.886ZM102.611 65.7503C103.106 65.6095 103.615 65.5216 104.129 65.4881V75.776H93.7788C95.7108 70.5734 98.8434 66.7922 102.611 65.7296V65.7503ZM104.129 89.024V100.202H93.4131C92.5593 97.6108 92.0082 94.9296 91.7709 92.2118C91.6743 91.1354 91.6191 90.0659 91.6053 89.0033L104.129 89.024ZM104.129 101.237V111.532C102.637 111.396 101.208 110.864 99.9888 109.993C97.4358 108.24 95.2899 105.163 93.7788 101.237H104.129ZM106.682 111.263C106.187 111.404 105.678 111.492 105.164 111.525V101.216H115.514C113.582 106.398 110.449 110.186 106.682 111.242V111.263ZM105.164 100.223V89.0102H117.708C117.688 92.8074 117.079 96.5784 115.9 100.188L105.164 100.223ZM118.743 89.0102H127.713C127.629 92.9493 126.529 96.7999 124.518 100.188H116.956C118.106 96.5723 118.709 92.8045 118.743 89.0102ZM127.713 87.9752H118.743C118.743 86.885 118.674 85.781 118.57 84.6701C118.335 81.9956 117.805 79.3554 116.99 76.7972H124.504C125.957 79.2626 126.937 81.9769 127.396 84.8012C127.56 85.8496 127.657 86.9074 127.685 87.9683L127.713 87.9752ZM118.143 69.8075C120.398 71.432 122.343 73.449 123.883 75.7622H116.611C115.065 71.4911 112.74 68.1101 109.89 66.1505L109.669 66.0056C112.712 66.6869 115.585 67.9779 118.115 69.8006L118.143 69.8075ZM99.6024 66.0194C96.6975 67.9307 94.3101 71.4083 92.7024 75.7622H85.4574L85.9611 75.0239C89.2378 70.4496 94.0839 67.2418 99.5748 66.0125L99.6024 66.0194ZM81.6624 89.0102H90.5979C90.5979 90.1004 90.6669 91.2044 90.7704 92.3153C91.0092 94.9892 91.5391 97.6291 92.3505 100.188H84.795C83.34 97.7241 82.3594 95.0093 81.9039 92.1842C81.7321 91.1344 81.6353 90.0737 81.6141 89.0102H81.6624ZM85.485 101.223H92.7024C94.248 105.494 96.5733 108.875 99.423 110.835L99.6507 110.98C93.853 109.663 88.7822 106.17 85.485 101.223ZM109.711 110.959C112.609 109.055 114.996 105.57 116.611 101.216H123.842C123.676 101.465 123.511 101.713 123.338 101.955C120.059 106.531 115.207 109.737 109.711 110.959Z" fill="#FAFAFA"/>
<path d="M285.862 99.981H68.9258V152.545H285.862V99.981Z" fill="#FA4D4E"/>
<path opacity="0.6" d="M285.862 99.981H68.9258V152.545H285.862V99.981Z" fill="#FAFAFA"/>
<path d="M280.969 104.873H64.0332V157.437H280.969V104.873Z" fill="#FA4D4E"/>
<path d="M280.969 104.873H64.0332V157.437H280.969V104.873Z" fill="#455A64"/>
<path d="M276.077 109.765H59.1406V162.329H276.077V109.765Z" fill="#FA4D4E"/>
<path opacity="0.1" d="M276.077 109.765H59.1406V162.329H276.077V109.765Z" fill="#FAFAFA"/>
<path d="M265.727 151.979V120.115L69.4906 120.115V151.979H265.727Z" fill="#FA4D4E"/>
<path opacity="0.9" d="M265.727 151.979V120.115L69.4906 120.115V151.979H265.727Z" fill="#FAFAFA"/>
<path d="M232.717 120.115V151.979H233.869V120.115H232.717Z" fill="#FA4D4E"/>
<path opacity="0.6" d="M232.717 120.115V151.979H233.869V120.115H232.717Z" fill="#FAFAFA"/>
<path d="M74.3828 124.51V147.584H75.5351V124.51H74.3828Z" fill="#FA4D4E"/>
<path opacity="0.6" d="M74.3828 124.51V147.584H75.5351V124.51H74.3828Z" fill="#FAFAFA"/>
<path d="M248.697 140.07C247.86 140.07 247.036 139.863 246.298 139.468C245.559 139.073 244.93 138.502 244.465 137.806C244 137.11 243.714 136.31 243.632 135.476C243.55 134.643 243.675 133.802 243.995 133.029C244.316 132.255 244.822 131.573 245.469 131.042C246.116 130.511 246.884 130.147 247.706 129.984C248.527 129.82 249.376 129.862 250.177 130.105C250.978 130.348 251.707 130.784 252.299 131.376C253.012 132.088 253.497 132.996 253.694 133.984C253.891 134.972 253.79 135.996 253.404 136.927C253.018 137.858 252.365 138.653 251.528 139.213C250.69 139.772 249.705 140.071 248.697 140.07ZM248.697 131.273C247.838 131.273 247.006 131.571 246.342 132.116C245.678 132.662 245.224 133.42 245.057 134.263C244.89 135.105 245.02 135.98 245.426 136.737C245.831 137.494 246.487 138.088 247.281 138.416C248.075 138.744 248.958 138.786 249.78 138.536C250.602 138.286 251.311 137.758 251.788 137.043C252.264 136.329 252.478 135.471 252.392 134.616C252.307 133.761 251.928 132.962 251.319 132.356C250.979 132.005 250.571 131.725 250.121 131.533C249.671 131.341 249.187 131.241 248.697 131.238V131.273Z" fill="#FA4D4E"/>
<path d="M255.302 142.237C255.21 142.236 255.12 142.218 255.036 142.182C254.952 142.147 254.876 142.095 254.812 142.03L251.327 138.545C251.255 138.483 251.196 138.407 251.155 138.322C251.113 138.236 251.09 138.143 251.086 138.048C251.083 137.953 251.099 137.858 251.133 137.769C251.168 137.681 251.221 137.6 251.288 137.533C251.355 137.466 251.436 137.413 251.524 137.379C251.613 137.344 251.708 137.328 251.803 137.332C251.898 137.335 251.991 137.359 252.076 137.4C252.162 137.441 252.238 137.5 252.3 137.572L255.785 141.057C255.913 141.186 255.985 141.361 255.985 141.543C255.985 141.725 255.913 141.9 255.785 142.03C255.657 142.16 255.484 142.234 255.302 142.237Z" fill="#FA4D4E"/>
<g opacity="0.6">
<path opacity="0.6" d="M248.697 140.07C247.86 140.07 247.036 139.863 246.298 139.468C245.559 139.073 244.93 138.502 244.465 137.806C244 137.11 243.714 136.31 243.632 135.476C243.55 134.643 243.675 133.802 243.995 133.029C244.316 132.255 244.822 131.573 245.469 131.042C246.116 130.511 246.884 130.147 247.706 129.984C248.527 129.82 249.376 129.862 250.177 130.105C250.978 130.348 251.707 130.784 252.299 131.376C253.012 132.088 253.497 132.996 253.694 133.984C253.891 134.972 253.79 135.996 253.404 136.927C253.018 137.858 252.365 138.653 251.528 139.213C250.69 139.772 249.705 140.071 248.697 140.07ZM248.697 131.273C247.838 131.273 247.006 131.571 246.342 132.116C245.678 132.662 245.224 133.42 245.057 134.263C244.89 135.105 245.02 135.98 245.426 136.737C245.831 137.494 246.487 138.088 247.281 138.416C248.075 138.744 248.958 138.786 249.78 138.536C250.602 138.286 251.311 137.758 251.788 137.043C252.264 136.329 252.478 135.471 252.392 134.616C252.307 133.761 251.928 132.962 251.319 132.356C250.979 132.005 250.571 131.725 250.121 131.533C249.671 131.341 249.187 131.241 248.697 131.238V131.273Z" fill="#FAFAFA"/>
<path opacity="0.6" d="M255.302 142.237C255.21 142.236 255.12 142.218 255.036 142.182C254.952 142.147 254.876 142.095 254.812 142.03L251.327 138.545C251.255 138.483 251.196 138.407 251.155 138.322C251.113 138.236 251.09 138.143 251.086 138.048C251.083 137.953 251.099 137.858 251.133 137.769C251.168 137.681 251.221 137.6 251.288 137.533C251.355 137.466 251.436 137.413 251.524 137.379C251.613 137.344 251.708 137.328 251.803 137.332C251.898 137.335 251.991 137.359 252.076 137.4C252.162 137.441 252.238 137.5 252.3 137.572L255.785 141.057C255.913 141.186 255.985 141.361 255.985 141.543C255.985 141.725 255.913 141.9 255.785 142.03C255.657 142.16 255.484 142.234 255.302 142.237Z" fill="#FAFAFA"/>
</g>
<path d="M201.887 68.2065H180.193V68.7447H201.887V68.2065Z" fill="#FA4D4E"/>
<path d="M201.887 70.4907H180.193V71.0289H201.887V70.4907Z" fill="#FA4D4E"/>
<path d="M201.887 72.7812H180.193V73.3195H201.887V72.7812Z" fill="#FA4D4E"/>
<path d="M201.887 75.0654H180.193V75.6036H201.887V75.0654Z" fill="#FA4D4E"/>
<path d="M201.887 77.3491H180.193V77.8873H201.887V77.3491Z" fill="#FA4D4E"/>
<path d="M194.338 79.6401H180.193V80.1783H194.338V79.6401Z" fill="#FA4D4E"/>
<g opacity="0.5">
<path opacity="0.5" d="M201.887 68.2065H180.193V68.7447H201.887V68.2065Z" fill="#FAFAFA"/>
<path opacity="0.5" d="M201.887 70.4902H180.193V71.0284H201.887V70.4902Z" fill="#FAFAFA"/>
<path opacity="0.5" d="M201.887 72.7812H180.193V73.3195H201.887V72.7812Z" fill="#FAFAFA"/>
<path opacity="0.5" d="M201.887 75.0649H180.193V75.6031H201.887V75.0649Z" fill="#FAFAFA"/>
<path opacity="0.5" d="M201.887 77.3491H180.193V77.8873H201.887V77.3491Z" fill="#FAFAFA"/>
<path opacity="0.5" d="M194.338 79.6396H180.193V80.1778H194.338V79.6396Z" fill="#FAFAFA"/>
</g>
<path d="M71.3123 166.87H48.1973V167.215H71.3123V166.87Z" fill="#FA4D4E"/>
<path d="M71.3123 168.333H48.1973V168.678H71.3123V168.333Z" fill="#FA4D4E"/>
<path d="M71.3123 169.795H48.1973V170.14H71.3123V169.795Z" fill="#FA4D4E"/>
<path d="M71.3123 171.258H48.1973V171.603H71.3123V171.258Z" fill="#FA4D4E"/>
<path d="M71.3123 172.721H48.1973V173.066H71.3123V172.721Z" fill="#FA4D4E"/>
<path d="M62.7287 174.19H48.1973V174.535H62.7287V174.19Z" fill="#FA4D4E"/>
<g opacity="0.4">
<path opacity="0.4" d="M71.3123 166.87H48.1973V167.215H71.3123V166.87Z" fill="#FAFAFA"/>
<path opacity="0.4" d="M71.3123 168.333H48.1973V168.678H71.3123V168.333Z" fill="#FAFAFA"/>
<path opacity="0.4" d="M71.3123 169.795H48.1973V170.14H71.3123V169.795Z" fill="#FAFAFA"/>
<path opacity="0.4" d="M71.3123 171.258H48.1973V171.603H71.3123V171.258Z" fill="#FAFAFA"/>
<path opacity="0.4" d="M71.3123 172.721H48.1973V173.066H71.3123V172.721Z" fill="#FAFAFA"/>
<path opacity="0.4" d="M62.7287 174.19H48.1973V174.535H62.7287V174.19Z" fill="#FAFAFA"/>
</g>
<path d="M147.281 71.5947C146.124 71.5947 145.015 72.0542 144.197 72.872C143.379 73.6898 142.92 74.799 142.92 75.9555V90.342C142.92 91.4986 143.379 92.6078 144.197 93.4256C145.015 94.2434 146.124 94.7028 147.281 94.7028C148.437 94.7028 149.546 94.2434 150.364 93.4256C151.182 92.6078 151.642 91.4986 151.642 90.342V75.9555C151.642 74.799 151.182 73.6898 150.364 72.872C149.546 72.0542 148.437 71.5947 147.281 71.5947Z" fill="#FA4D4E"/>
<path opacity="0.2" d="M147.281 71.5947C146.124 71.5947 145.015 72.0542 144.197 72.872C143.379 73.6898 142.92 74.799 142.92 75.9555V90.342C142.92 91.4986 143.379 92.6078 144.197 93.4256C145.015 94.2434 146.124 94.7028 147.281 94.7028C148.437 94.7028 149.546 94.2434 150.364 93.4256C151.182 92.6078 151.642 91.4986 151.642 90.342V75.9555C151.642 74.799 151.182 73.6898 150.364 72.872C149.546 72.0542 148.437 71.5947 147.281 71.5947Z" fill="#FAFAFA"/>
<path d="M158.211 63.0176C157.058 63.0231 155.954 63.485 155.141 64.3022C154.328 65.1194 153.871 66.2254 153.871 67.3784V90.3416C153.871 91.4982 154.331 92.6074 155.148 93.4252C155.966 94.243 157.075 94.7024 158.232 94.7024C159.388 94.7024 160.498 94.243 161.315 93.4252C162.133 92.6074 162.593 91.4982 162.593 90.3416V67.3784C162.593 66.804 162.479 66.2353 162.259 65.7048C162.038 65.1744 161.715 64.6927 161.308 64.2875C160.901 63.8823 160.418 63.5615 159.886 63.3436C159.355 63.1257 158.786 63.0149 158.211 63.0176Z" fill="#FA4D4E"/>
<path opacity="0.3" d="M158.211 63.0176C157.058 63.0231 155.954 63.485 155.141 64.3022C154.328 65.1194 153.871 66.2254 153.871 67.3784V90.3416C153.871 91.4982 154.331 92.6074 155.148 93.4252C155.966 94.243 157.075 94.7024 158.232 94.7024C159.388 94.7024 160.498 94.243 161.315 93.4252C162.133 92.6074 162.593 91.4982 162.593 90.3416V67.3784C162.593 66.804 162.479 66.2353 162.259 65.7048C162.038 65.1744 161.715 64.6927 161.308 64.2875C160.901 63.8823 160.418 63.5615 159.886 63.3436C159.355 63.1257 158.786 63.0149 158.211 63.0176Z" fill="black"/>
<path d="M169.134 80.1714C167.978 80.1714 166.869 80.6308 166.051 81.4486C165.233 82.2664 164.773 83.3756 164.773 84.5322V90.342C164.773 91.4985 165.233 92.6077 166.051 93.4255C166.869 94.2434 167.978 94.7028 169.134 94.7028C169.707 94.7037 170.275 94.5916 170.805 94.3728C171.335 94.1541 171.817 93.833 172.222 93.428C172.628 93.023 172.95 92.5419 173.169 92.0124C173.389 91.4829 173.502 90.9152 173.502 90.342V84.5322C173.502 83.9589 173.389 83.3913 173.169 82.8618C172.95 82.3323 172.628 81.8512 172.222 81.4462C171.817 81.0412 171.335 80.7201 170.805 80.5014C170.275 80.2826 169.707 80.1705 169.134 80.1714Z" fill="#FA4D4E"/>
<path opacity="0.6" d="M169.134 80.1714C167.978 80.1714 166.869 80.6308 166.051 81.4486C165.233 82.2664 164.773 83.3756 164.773 84.5322V90.342C164.773 91.4985 165.233 92.6077 166.051 93.4255C166.869 94.2434 167.978 94.7028 169.134 94.7028C169.707 94.7037 170.275 94.5916 170.805 94.3728C171.335 94.1541 171.817 93.833 172.222 93.428C172.628 93.023 172.95 92.5419 173.169 92.0124C173.389 91.4829 173.502 90.9152 173.502 90.342V84.5322C173.502 83.9589 173.389 83.3913 173.169 82.8618C172.95 82.3323 172.628 81.8512 172.222 81.4462C171.817 81.0412 171.335 80.7201 170.805 80.5014C170.275 80.2826 169.707 80.1705 169.134 80.1714Z" fill="#FAFAFA"/>
<path d="M261.242 178.8H278.871L248.773 147.584L261.242 178.8Z" fill="#FA4D4E"/>
<path d="M261.242 178.8H278.871L248.773 147.584L261.242 178.8Z" fill="#364B55"/>
<g style="mix-blend-mode:multiply">
<path d="M244.295 162.322L248.773 147.584L251.312 162.322H244.295Z" fill="#FA4D4E"/>
</g>
<path d="M248.773 147.584V191.261L251.892 188.149L261.242 178.8L248.773 147.584Z" fill="#FA4D4E"/>
<path d="M248.773 147.584V191.261L251.892 188.149L261.242 178.8L248.773 147.584Z" fill="#455A64"/>
<path d="M279.947 53.896H241.307C239.349 53.9033 237.472 54.6839 236.087 56.068C234.702 57.4522 233.919 59.3276 233.91 61.2859V81.2407C233.919 83.1978 234.701 85.0722 236.085 86.4561C237.469 87.84 239.343 88.6215 241.3 88.6306H269.652L269.445 95.6065L276.6 88.6306H279.933C281.892 88.6233 283.768 87.8426 285.153 86.4585C286.538 85.0744 287.321 83.199 287.33 81.2407V61.2859C287.321 59.33 286.54 57.4566 285.158 56.0729C283.776 54.6892 281.903 53.9069 279.947 53.896ZM240.438 62.3968C240.438 61.8478 240.656 61.3213 241.044 60.9331C241.432 60.5449 241.959 60.3268 242.508 60.3268H251.402C251.951 60.3268 252.477 60.5449 252.865 60.9331C253.254 61.3213 253.472 61.8478 253.472 62.3968C253.472 62.9458 253.254 63.4723 252.865 63.8605C252.477 64.2487 251.951 64.4668 251.402 64.4668H242.501C241.953 64.465 241.428 64.2461 241.041 63.8581C240.655 63.4701 240.438 62.9446 240.438 62.3968ZM277.753 81.7168H262.38C262.082 81.7689 261.777 81.7553 261.485 81.6769C261.193 81.5984 260.922 81.4571 260.691 81.2628C260.46 81.0685 260.274 80.826 260.146 80.5521C260.018 80.2783 259.952 79.9799 259.952 79.6778C259.952 79.3758 260.018 79.0774 260.146 78.8035C260.274 78.5297 260.46 78.2872 260.691 78.0929C260.922 77.8986 261.193 77.7573 261.485 77.6788C261.777 77.6004 262.082 77.5868 262.38 77.6389H277.753C278.05 77.5868 278.356 77.6004 278.647 77.6788C278.939 77.7573 279.21 77.8986 279.441 78.0929C279.673 78.2872 279.859 78.5297 279.986 78.8035C280.114 79.0774 280.18 79.3758 280.18 79.6778C280.18 79.9799 280.114 80.2783 279.986 80.5521C279.859 80.826 279.673 81.0685 279.441 81.2628C279.21 81.4571 278.939 81.5984 278.647 81.6769C278.356 81.7553 278.05 81.7689 277.753 81.7168ZM277.753 73.0849H244.571C244.273 73.137 243.968 73.1234 243.676 73.045C243.384 72.9665 243.113 72.8252 242.882 72.6309C242.651 72.4366 242.465 72.1941 242.337 71.9202C242.21 71.6464 242.143 71.348 242.143 71.0459C242.143 70.7439 242.21 70.4455 242.337 70.1716C242.465 69.8978 242.651 69.6553 242.882 69.461C243.113 69.2667 243.384 69.1254 243.676 69.0469C243.968 68.9685 244.273 68.9549 244.571 69.007H277.753C278.05 68.9549 278.356 68.9685 278.647 69.0469C278.939 69.1254 279.21 69.2667 279.441 69.461C279.673 69.6553 279.859 69.8978 279.986 70.1716C280.114 70.4455 280.18 70.7439 280.18 71.0459C280.18 71.348 280.114 71.6464 279.986 71.9202C279.859 72.1941 279.673 72.4366 279.441 72.6309C279.21 72.8252 278.939 72.9665 278.647 73.045C278.356 73.1234 278.05 73.137 277.753 73.0849ZM277.753 64.453H258.108C257.559 64.453 257.033 64.2349 256.645 63.8467C256.257 63.4585 256.038 62.932 256.038 62.383C256.038 61.834 256.257 61.3075 256.645 60.9193C257.033 60.5311 257.559 60.313 258.108 60.313H277.753C278.302 60.313 278.828 60.5311 279.216 60.9193C279.605 61.3075 279.823 61.834 279.823 62.383C279.823 62.932 279.605 63.4585 279.216 63.8467C278.828 64.2349 278.302 64.453 277.753 64.453Z" fill="#FA4D4E"/>
<path d="M219.515 117.148C217.865 112.615 215.345 108.447 212.098 104.88H157.236C153.988 108.447 151.469 112.615 149.818 117.148L157.408 154.932C163.215 161.227 171.021 165.317 179.502 166.508C187.982 167.7 196.613 165.918 203.929 161.467C211.245 157.016 216.794 150.169 219.634 142.09C222.474 134.011 222.43 125.198 219.508 117.148H219.515Z" fill="#FA4D4E"/>
<path opacity="0.1" d="M219.515 117.148C217.865 112.615 215.345 108.447 212.098 104.88H157.236C153.988 108.447 151.469 112.615 149.818 117.148L157.408 154.932C163.215 161.227 171.021 165.317 179.502 166.508C187.982 167.7 196.613 165.918 203.929 161.467C211.245 157.016 216.794 150.169 219.634 142.09C222.474 134.011 222.43 125.198 219.508 117.148H219.515Z" fill="#FAFAFA"/>
<path d="M221.704 131.521C221.312 140.234 217.851 148.527 211.934 154.933H157.424C152.822 149.932 149.681 143.765 148.342 137.103C147.004 130.44 147.52 123.538 149.834 117.148H219.524C221.197 121.747 221.939 126.633 221.704 131.521Z" fill="#FA4D4E"/>
<path opacity="0.9" d="M221.704 131.521C221.312 140.234 217.851 148.527 211.934 154.933H157.424C152.822 149.932 149.681 143.765 148.342 137.103C147.004 130.44 147.52 123.538 149.834 117.148H219.524C221.197 121.747 221.939 126.633 221.704 131.521Z" fill="#FAFAFA"/>
<path opacity="0.3" d="M221.703 131.521C221.274 140.689 217.452 149.37 210.979 155.878C204.507 162.385 195.846 166.254 186.68 166.732C177.514 167.21 168.498 164.264 161.383 158.465C154.269 152.667 149.564 144.43 148.183 135.357C146.802 126.283 148.844 117.02 153.911 109.367C158.979 101.715 166.711 96.2197 175.604 93.9496C184.497 91.6796 193.916 92.7967 202.032 97.084C210.147 101.371 216.379 108.523 219.516 117.148C221.19 121.747 221.933 126.632 221.703 131.521Z" fill="white"/>
<path opacity="0.4" d="M205.564 99.1944L152.254 147.812C151.988 147.32 151.725 146.823 151.468 146.321C149.838 143.058 148.705 139.57 148.107 135.971L194.151 93.978C198.226 95.0518 202.086 96.8161 205.564 99.1944Z" fill="white"/>
<path opacity="0.4" d="M219.827 118.039L169.74 163.744C164.544 161.452 159.946 157.996 156.299 153.643L211.03 103.728C215.018 107.763 218.028 112.658 219.827 118.039Z" fill="white"/>
<path d="M221.69 108.434C217.462 101.102 211.154 95.1891 203.564 91.4435C195.975 87.6978 187.445 86.2876 179.053 87.3912C170.662 88.4948 162.787 92.0626 156.423 97.6433C150.06 103.224 145.496 110.567 143.307 118.742C141.118 126.918 141.404 135.559 144.127 143.573C146.851 151.586 151.89 158.611 158.608 163.76C165.325 168.909 173.419 171.949 181.865 172.496C190.311 173.044 198.729 171.074 206.055 166.835C215.867 161.158 223.025 151.82 225.956 140.869C228.888 129.919 227.354 118.253 221.69 108.434ZM155.45 146.687C152.114 140.909 150.566 134.272 151.002 127.614C151.438 120.957 153.839 114.578 157.9 109.285C161.961 103.991 167.501 100.021 173.818 97.876C180.136 95.731 186.948 95.5074 193.392 97.2336C199.837 98.9599 205.625 102.558 210.025 107.574C214.424 112.59 217.238 118.797 218.109 125.412C218.981 132.027 217.871 138.751 214.921 144.735C211.971 150.72 207.313 155.695 201.535 159.031C197.7 161.247 193.465 162.685 189.073 163.264C184.681 163.842 180.218 163.55 175.939 162.404C171.66 161.258 167.649 159.28 164.135 156.583C160.621 153.886 157.672 150.524 155.457 146.687H155.45Z" fill="#FA4D4E"/>
<path opacity="0.1" d="M221.69 108.434C217.462 101.102 211.154 95.1891 203.564 91.4435C195.975 87.6978 187.445 86.2876 179.053 87.3912C170.662 88.4948 162.787 92.0626 156.423 97.6433C150.06 103.224 145.496 110.567 143.307 118.742C141.118 126.918 141.404 135.559 144.127 143.573C146.851 151.586 151.89 158.611 158.608 163.76C165.325 168.909 173.419 171.949 181.865 172.496C190.311 173.044 198.729 171.074 206.055 166.835C215.867 161.158 223.025 151.82 225.956 140.869C228.888 129.919 227.354 118.253 221.69 108.434ZM155.45 146.687C152.114 140.909 150.566 134.272 151.002 127.614C151.438 120.957 153.839 114.578 157.9 109.285C161.961 103.991 167.501 100.021 173.818 97.876C180.136 95.731 186.948 95.5074 193.392 97.2336C199.837 98.9599 205.625 102.558 210.025 107.574C214.424 112.59 217.238 118.797 218.109 125.412C218.981 132.027 217.871 138.751 214.921 144.735C211.971 150.72 207.313 155.695 201.535 159.031C197.7 161.247 193.465 162.685 189.073 163.264C184.681 163.842 180.218 163.55 175.939 162.404C171.66 161.258 167.649 159.28 164.135 156.583C160.621 153.886 157.672 150.524 155.457 146.687H155.45Z" fill="black"/>
<path d="M86.2907 173.804L91.5761 175.032L87.1946 178.303C87.1946 178.303 84.0551 176.882 83.9102 174.653L86.2907 173.804Z" fill="#E4897B"/>
<path d="M94.4058 178.551L90.597 181.09L87.1953 178.303L91.5768 175.039L94.4058 178.551Z" fill="#E4897B"/>
<path d="M154.194 152.338C148.577 156.478 142.816 160.411 137.026 164.254C131.237 168.098 125.372 171.844 119.48 175.522C113.587 179.2 107.639 182.802 101.671 186.3C98.6901 188.08 95.6817 189.805 92.7009 191.558C91.2202 192.5 89.6059 193.215 87.9123 193.676C87.0087 193.916 86.0847 194.071 85.1523 194.138C84.1171 194.223 83.0753 194.169 82.0542 193.98C81.3245 193.835 80.6303 193.548 80.0116 193.136C79.3928 192.723 78.8615 192.192 78.4482 191.573C78.0348 190.955 77.7474 190.261 77.6025 189.531C77.4576 188.802 77.458 188.051 77.6037 187.321C77.6509 187.087 77.7155 186.856 77.7969 186.631C78.13 185.653 78.5942 184.725 79.1769 183.871C79.6967 183.104 80.2881 182.388 80.9433 181.732C82.1912 180.497 83.6169 179.455 85.173 178.641C88.1883 176.923 91.1829 175.191 94.2189 173.487C100.263 170.071 106.363 166.745 112.476 163.461C118.59 160.177 124.779 156.996 131.003 153.891C137.227 150.786 143.499 147.763 149.902 144.976C150.868 144.549 151.958 144.493 152.963 144.821C153.967 145.148 154.815 145.836 155.344 146.75C155.873 147.665 156.045 148.743 155.828 149.777C155.61 150.811 155.019 151.728 154.166 152.352L154.194 152.338Z" fill="#FA4D4E"/>
<path opacity="0.1" d="M154.194 152.338C148.577 156.478 142.816 160.411 137.026 164.254C131.237 168.098 125.372 171.844 119.48 175.522C113.587 179.2 107.639 182.802 101.671 186.3C98.6901 188.08 95.6817 189.805 92.7009 191.558C91.2202 192.5 89.6059 193.215 87.9123 193.676C87.0087 193.916 86.0847 194.071 85.1523 194.138C84.1171 194.223 83.0753 194.169 82.0542 193.98C81.3245 193.835 80.6303 193.548 80.0116 193.136C79.3928 192.723 78.8615 192.192 78.4482 191.573C78.0348 190.955 77.7474 190.261 77.6025 189.531C77.4576 188.802 77.458 188.051 77.6037 187.321C77.6509 187.087 77.7155 186.856 77.7969 186.631C78.13 185.653 78.5942 184.725 79.1769 183.871C79.6967 183.104 80.2881 182.388 80.9433 181.732C82.1912 180.497 83.6169 179.455 85.173 178.641C88.1883 176.923 91.1829 175.191 94.2189 173.487C100.263 170.071 106.363 166.745 112.476 163.461C118.59 160.177 124.779 156.996 131.003 153.891C137.227 150.786 143.499 147.763 149.902 144.976C150.868 144.549 151.958 144.493 152.963 144.821C153.967 145.148 154.815 145.836 155.344 146.75C155.873 147.665 156.045 148.743 155.828 149.777C155.61 150.811 155.019 151.728 154.166 152.352L154.194 152.338Z" fill="black"/>
<path d="M93.9502 141.119C93.6052 141.678 93.2119 142.354 92.8393 142.989C92.4667 143.624 92.101 144.286 91.756 144.955C91.066 146.273 90.376 147.612 89.686 148.971C88.996 150.33 88.4371 151.731 87.8713 153.111C87.5953 153.801 87.3055 154.491 87.0502 155.181L86.6638 156.237C86.5879 156.437 86.5741 156.52 86.5258 156.665C86.4775 156.81 86.4568 156.948 86.4154 157.086C86.1461 158.449 86.0098 159.836 86.0083 161.226C85.9738 162.709 86.0083 164.22 86.0911 165.745C86.1739 167.27 86.2567 168.802 86.3947 170.334C86.5327 171.865 86.6707 173.425 86.8156 174.943L84.1522 175.488C83.683 173.949 83.3173 172.417 82.9516 170.865C82.5859 169.312 82.3099 167.753 82.0408 166.166C81.7717 164.579 81.5923 162.985 81.475 161.336C81.3315 159.609 81.3755 157.872 81.6061 156.154C81.6475 155.913 81.682 155.685 81.7441 155.464C81.8062 155.243 81.8683 154.933 81.9235 154.774L82.2616 153.601C82.4824 152.821 82.7377 152.049 82.9999 151.283C83.5312 149.744 84.1108 148.233 84.7594 146.742C85.408 145.252 86.098 143.796 86.8294 142.361C87.2089 141.671 87.6091 140.933 88.0162 140.222C88.4233 139.511 88.8304 138.842 89.341 138.09L93.9502 141.119Z" fill="#E4897B"/>
<path d="M91.004 283.59C90.5384 283.576 90.0757 283.511 89.624 283.397C89.5998 283.393 89.5775 283.382 89.5602 283.364C89.5429 283.347 89.5314 283.325 89.5274 283.3C89.523 283.276 89.5259 283.25 89.5357 283.227C89.5455 283.203 89.5618 283.184 89.5826 283.169C89.7689 283.045 91.3973 281.996 92.0252 282.279C92.095 282.311 92.1549 282.361 92.1986 282.425C92.2423 282.488 92.2682 282.561 92.2736 282.638C92.306 282.761 92.3038 282.89 92.2673 283.012C92.2308 283.134 92.1613 283.243 92.0666 283.328C91.7557 283.541 91.3782 283.634 91.004 283.59ZM89.9483 283.218C90.8867 283.404 91.5905 283.369 91.8596 283.121C91.9187 283.064 91.9619 282.993 91.9849 282.914C92.0079 282.836 92.0099 282.752 91.9907 282.672C91.9898 282.637 91.979 282.603 91.9595 282.574C91.9399 282.544 91.9125 282.521 91.8803 282.507C91.556 282.362 90.6107 282.817 89.9483 283.218Z" fill="#FA4D4E"/>
<path d="M89.6166 283.404C89.5963 283.41 89.5748 283.41 89.5545 283.404C89.5347 283.393 89.5183 283.377 89.5073 283.358C89.4962 283.338 89.4911 283.316 89.4924 283.293C89.4924 283.231 89.4924 281.686 90.0789 281.168C90.1513 281.103 90.2367 281.054 90.3295 281.024C90.4223 280.994 90.5203 280.985 90.6171 280.996C90.7188 280.997 90.8169 281.033 90.8949 281.099C90.9728 281.164 91.0258 281.254 91.0449 281.354C91.1691 281.955 90.1893 283.114 89.6649 283.424C89.6474 283.421 89.6308 283.414 89.6166 283.404ZM90.5343 281.223C90.4297 281.224 90.329 281.263 90.2514 281.334C89.9121 281.833 89.7383 282.427 89.7546 283.031C90.2652 282.617 90.8724 281.748 90.7965 281.382C90.7965 281.32 90.7482 281.251 90.5895 281.23L90.5343 281.223Z" fill="#FA4D4E"/>
<path d="M115.443 283.59C114.875 283.581 114.309 283.517 113.753 283.397C113.726 283.394 113.702 283.382 113.683 283.363C113.664 283.344 113.652 283.32 113.649 283.293C113.646 283.267 113.651 283.24 113.664 283.217C113.676 283.194 113.695 283.174 113.718 283.162C113.96 283.038 116.099 281.948 116.754 282.306C116.817 282.339 116.871 282.387 116.91 282.446C116.948 282.506 116.971 282.574 116.975 282.645C116.99 282.758 116.977 282.874 116.936 282.981C116.895 283.089 116.828 283.184 116.741 283.259C116.359 283.515 115.901 283.632 115.443 283.59ZM114.174 283.217C115.367 283.417 116.244 283.362 116.575 283.072C116.63 283.021 116.672 282.957 116.697 282.887C116.722 282.816 116.73 282.74 116.72 282.665C116.72 282.637 116.712 282.609 116.697 282.585C116.683 282.561 116.662 282.541 116.637 282.527C116.278 282.334 115.05 282.796 114.174 283.217Z" fill="#FA4D4E"/>
<path d="M113.774 283.404C113.763 283.408 113.752 283.411 113.74 283.411C113.728 283.411 113.716 283.408 113.705 283.404C113.685 283.394 113.669 283.377 113.659 283.358C113.649 283.338 113.646 283.315 113.65 283.293C113.65 283.231 113.781 281.782 114.45 281.223C114.643 281.062 114.89 280.983 115.14 281.002C115.492 281.037 115.589 281.216 115.617 281.361C115.713 281.968 114.45 283.128 113.809 283.431L113.774 283.404ZM115.058 281.223C114.896 281.225 114.739 281.283 114.616 281.389C114.22 281.856 113.979 282.435 113.926 283.045C114.575 282.652 115.437 281.741 115.375 281.375C115.375 281.375 115.375 281.251 115.127 281.23L115.058 281.223Z" fill="#FA4D4E"/>
<path d="M102.12 120.398C102.541 123.621 103.5 130.155 101.168 132.128C101.168 132.128 101.858 135.413 107.737 135.792C114.237 136.213 111.049 132.77 111.049 132.77C107.557 131.694 107.82 129.065 108.599 126.636L102.12 120.398Z" fill="#E4897B"/>
<path d="M114.174 113.85C114.132 113.849 114.092 113.837 114.056 113.816C114.026 113.801 113.999 113.779 113.978 113.754C113.956 113.728 113.94 113.698 113.93 113.666C113.921 113.633 113.918 113.599 113.922 113.566C113.925 113.532 113.936 113.5 113.953 113.471C114.132 113.106 114.397 112.79 114.725 112.549C115.053 112.309 115.434 112.152 115.836 112.091C115.898 112.093 115.957 112.118 116.002 112.16C116.047 112.203 116.075 112.26 116.081 112.322C116.087 112.383 116.07 112.445 116.034 112.495C115.998 112.545 115.945 112.58 115.885 112.595C115.57 112.649 115.272 112.776 115.015 112.966C114.758 113.155 114.548 113.401 114.401 113.685C114.382 113.73 114.35 113.77 114.31 113.799C114.27 113.828 114.223 113.846 114.174 113.85Z" fill="#263238"/>
<path d="M116.029 116.679C116.505 117.627 117.108 118.505 117.823 119.287C117.618 119.466 117.377 119.597 117.116 119.672C116.855 119.747 116.581 119.764 116.312 119.722L116.029 116.679Z" fill="#DE5753"/>
<path d="M115.574 115.975C115.615 116.41 115.878 116.734 116.154 116.707C116.43 116.679 116.637 116.313 116.595 115.879C116.554 115.444 116.292 115.12 116.009 115.147C115.726 115.175 115.533 115.547 115.574 115.975Z" fill="#263238"/>
<path d="M115.92 115.182L116.927 114.789C116.927 114.789 116.444 115.644 115.92 115.182Z" fill="#263238"/>
<path d="M107.867 283.273H113.242L113.601 270.839H108.226L107.867 283.273Z" fill="#E4897B"/>
<path d="M83.4609 283.273H88.836L90.561 270.839H85.1928L83.4609 283.273Z" fill="#E4897B"/>
<path d="M89.1685 282.652H83.131C83.0276 282.651 82.9272 282.687 82.8485 282.754C82.7699 282.822 82.7183 282.915 82.7032 283.018L82.0132 287.792C81.9997 287.913 82.0116 288.035 82.0484 288.151C82.0852 288.266 82.146 288.373 82.2267 288.463C82.3074 288.554 82.4064 288.626 82.517 288.676C82.6277 288.725 82.7475 288.751 82.8688 288.751C84.9388 288.717 85.9876 288.593 88.6441 288.593C90.2725 288.593 92.6599 288.758 94.9162 288.758C97.1725 288.758 97.2898 286.53 96.3514 286.33C92.1424 285.426 91.48 284.177 90.0586 282.983C89.8105 282.771 89.4951 282.653 89.1685 282.652Z" fill="#263238"/>
<path d="M113.423 282.651H107.392C107.288 282.649 107.187 282.685 107.108 282.752C107.029 282.82 106.978 282.914 106.964 283.017L106.274 287.792C106.262 287.913 106.275 288.035 106.312 288.151C106.35 288.266 106.411 288.373 106.492 288.463C106.574 288.553 106.673 288.626 106.784 288.675C106.895 288.725 107.015 288.751 107.137 288.751C109.207 288.717 110.255 288.592 112.905 288.592C114.54 288.592 117.914 288.758 120.171 288.758C122.427 288.758 122.544 286.529 121.606 286.329C117.397 285.425 115.741 284.176 114.32 282.983C114.07 282.769 113.751 282.651 113.423 282.651Z" fill="#263238"/>
<path d="M113.594 270.839L113.414 277.249H108.039L108.225 270.839H113.594Z" fill="#CE6F64"/>
<path d="M85.187 270.839H90.5621L89.672 277.249H84.2969L85.187 270.839Z" fill="#CE6F64"/>
<path d="M96.2403 141.947C95.2202 143.541 94.0386 145.025 92.7144 146.377L92.1003 145.969L85.2969 141.45C85.2969 141.45 89.0091 133.17 91.8036 132.749C94.4739 132.321 96.4197 135.081 97.3236 138.034C97.6686 139.104 97.0959 140.553 96.2403 141.947Z" fill="#FA4D4E"/>
<path opacity="0.6" d="M96.2403 141.947C95.2202 143.541 94.0386 145.025 92.7144 146.377L92.1003 145.969L85.2969 141.45C85.2969 141.45 89.0091 133.17 91.8036 132.749C94.4739 132.321 96.4197 135.081 97.3236 138.034C97.6686 139.104 97.0959 140.553 96.2403 141.947Z" fill="#FAFAFA"/>
<path d="M96.2416 141.947C95.2215 143.541 94.0399 145.025 92.7157 146.377L92.1016 145.97C92.4052 143.486 93.3712 141.022 94.4752 140.243C95.1514 140.312 95.7517 141.029 96.2416 141.947Z" fill="#FA4D4E"/>
<path opacity="0.4" d="M96.2416 141.947C95.2215 143.541 94.0399 145.025 92.7157 146.377L92.1016 145.97C92.4052 143.486 93.3712 141.022 94.4752 140.243C95.1514 140.312 95.7517 141.029 96.2416 141.947Z" fill="#FAFAFA"/>
<path d="M119.515 146.08C119.191 148.15 118.77 150.586 118.204 153.477C117.514 157.175 116.548 161.612 115.327 166.918L93.5573 165.538C94.4957 156.699 94.8614 151.234 91.8047 132.777C94.8952 132.345 98.0131 132.14 101.133 132.163C104.438 132.141 107.74 132.356 111.014 132.805C115.237 133.495 119.984 134.764 119.984 134.764C119.984 134.764 121.199 135.24 119.515 146.08Z" fill="#FA4D4E"/>
<path opacity="0.6" d="M119.515 146.08C119.191 148.15 118.77 150.586 118.204 153.477C117.514 157.175 116.548 161.612 115.327 166.918L93.5573 165.538C94.4957 156.699 94.8614 151.234 91.8047 132.777C94.8952 132.345 98.0131 132.14 101.133 132.163C104.438 132.141 107.74 132.356 111.014 132.805C115.237 133.495 119.984 134.764 119.984 134.764C119.984 134.764 121.199 135.24 119.515 146.08Z" fill="#FAFAFA"/>
<path d="M119.513 146.08C119.189 148.15 118.768 150.585 118.202 153.477C117.005 150.93 116.011 148.293 115.229 145.59H119.272L119.513 146.08Z" fill="#FA4D4E"/>
<path opacity="0.4" d="M119.513 146.08C119.189 148.15 118.768 150.585 118.202 153.477C117.005 150.93 116.011 148.293 115.229 145.59H119.272L119.513 146.08Z" fill="#FAFAFA"/>
<path d="M100.933 115.865C101.754 121.13 101.995 123.379 104.928 125.843C109.337 129.555 115.623 127.388 116.389 121.978C117.079 117.114 115.616 109.317 110.227 107.702C109.042 107.339 107.783 107.284 106.571 107.545C105.358 107.805 104.233 108.371 103.301 109.189C102.37 110.008 101.663 111.05 101.248 112.219C100.834 113.388 100.725 114.643 100.933 115.865Z" fill="#E4897B"/>
<path d="M109.571 166.546C109.571 166.546 109.226 176.13 108.398 188.218C107.708 198.361 106.666 210.257 105.21 219.738L105.169 220C102.554 236.781 90.9684 276 90.9684 276H83.6406C83.6406 276 89.6781 238.119 91.0029 221.49C94.3632 179.49 85.9452 174.736 93.5559 165.476L109.571 166.546Z" fill="#FA4D4E"/>
<path d="M109.571 166.546C109.571 166.546 109.226 176.13 108.398 188.218C107.708 198.361 106.666 210.257 105.21 219.738L105.169 220C102.554 236.781 90.9684 276 90.9684 276H83.6406C83.6406 276 89.6781 238.119 91.0029 221.49C94.3632 179.49 85.9452 174.736 93.5559 165.476L109.571 166.546Z" fill="#263238"/>
<path d="M108.399 188.218C107.709 198.361 106.667 210.257 105.211 219.737C102.734 207.421 98.6632 189.433 104.128 177.647C105.432 180.994 106.95 184.775 108.399 188.218Z" fill="#FA4D4E"/>
<path d="M108.399 188.218C107.709 198.361 106.667 210.257 105.211 219.737C102.734 207.421 98.6632 189.433 104.128 177.647C105.432 180.994 106.95 184.775 108.399 188.218Z" fill="black"/>
<path d="M115.327 166.925C115.327 166.925 121.537 203.729 121.164 220.11C120.798 237.153 114.554 276 114.554 276H107.295C107.295 276 108.441 238.14 107.799 221.407C107.109 203.164 99.3809 165.883 99.3809 165.883L115.327 166.925Z" fill="#FA4D4E"/>
<path d="M115.327 166.925C115.327 166.925 121.537 203.729 121.164 220.11C120.798 237.153 114.554 276 114.554 276H107.295C107.295 276 108.441 238.14 107.799 221.407C107.109 203.164 99.3809 165.883 99.3809 165.883L115.327 166.925Z" fill="#263238"/>
<path d="M106.052 276.345H115.788L116.547 273.082L105.707 273.157L106.052 276.345Z" fill="#263238"/>
<path d="M82.5781 276.345H92.314L93.073 273.082L82.6471 273.157L82.5781 276.345Z" fill="#263238"/>
<path d="M93.3077 164.22L92.2037 166.111C92.114 166.255 92.2865 166.421 92.5349 166.435L115.367 167.918C115.56 167.918 115.733 167.849 115.753 167.725L116.078 165.786C116.078 165.655 115.933 165.531 115.719 165.517L93.6389 164.082C93.577 164.079 93.5151 164.09 93.4579 164.114C93.4006 164.138 93.3494 164.174 93.3077 164.22Z" fill="#263238"/>
<path d="M96.1092 166.87L95.5227 166.828C95.4054 166.828 95.3157 166.752 95.3295 166.683L95.7711 164.165C95.7711 164.096 95.8884 164.041 96.0057 164.047L96.5991 164.082C96.7164 164.082 96.7992 164.158 96.7923 164.234L96.3507 166.745C96.3369 166.821 96.2265 166.876 96.1092 166.87Z" fill="#FA4D4E"/>
<path opacity="0.3" d="M96.1092 166.87L95.5227 166.828C95.4054 166.828 95.3157 166.752 95.3295 166.683L95.7711 164.165C95.7711 164.096 95.8884 164.041 96.0057 164.047L96.5991 164.082C96.7164 164.082 96.7992 164.158 96.7923 164.234L96.3507 166.745C96.3369 166.821 96.2265 166.876 96.1092 166.87Z" fill="black"/>
<path d="M110.4 167.794L109.814 167.76C109.696 167.76 109.607 167.684 109.621 167.608L110.062 165.096C110.062 165.021 110.179 164.972 110.304 164.979L110.89 165.014C111.007 165.014 111.097 165.09 111.083 165.165L110.642 167.677C110.649 167.753 110.538 167.801 110.4 167.794Z" fill="#FA4D4E"/>
<path opacity="0.3" d="M110.4 167.794L109.814 167.76C109.696 167.76 109.607 167.684 109.621 167.608L110.062 165.096C110.062 165.021 110.179 164.972 110.304 164.979L110.89 165.014C111.007 165.014 111.097 165.09 111.083 165.165L110.642 167.677C110.649 167.753 110.538 167.801 110.4 167.794Z" fill="black"/>
<path d="M121.219 140.284C122.047 143.044 122.834 145.839 123.6 148.626L125.911 156.968L126.201 158.003L126.277 158.259L126.312 158.39V158.459C126.336 158.55 126.366 158.64 126.401 158.728C126.571 159.147 126.803 159.538 127.091 159.887C127.915 160.757 128.87 161.492 129.92 162.067C132.327 163.37 134.873 164.398 137.51 165.131L137.11 167.822C134.016 167.663 130.968 167.003 128.085 165.869C126.49 165.244 125.019 164.337 123.745 163.192C123.015 162.515 122.408 161.717 121.951 160.832C121.827 160.593 121.719 160.347 121.626 160.094L121.551 159.908L121.502 159.777L121.413 159.521L121.047 158.479C120.081 155.719 119.184 152.959 118.335 150.158C117.486 147.357 116.652 144.597 115.893 141.781L121.219 140.284Z" fill="#E4897B"/>
<path d="M119.984 134.736C122.744 135.64 125.642 144.665 125.642 144.665L115.678 148.957C115.678 148.957 111.538 138.828 113.374 136.537C115.209 134.246 116.817 133.701 119.984 134.736Z" fill="#FA4D4E"/>
<path opacity="0.6" d="M119.984 134.736C122.744 135.64 125.642 144.665 125.642 144.665L115.678 148.957C115.678 148.957 111.538 138.828 113.374 136.537C115.209 134.246 116.817 133.701 119.984 134.736Z" fill="#FAFAFA"/>
<path d="M114.658 107.398C112.898 105.225 99.3051 103.672 98.5806 109.593C93.7506 112.974 98.3322 121.709 99.0222 123.931C95.6895 124.855 84.9531 128.526 92.8122 135.661C100.671 142.795 112.456 141.581 114.761 134.198C116.376 129.037 111.249 120.398 111.359 117.376C111.47 114.354 117.673 111.09 114.658 107.398Z" fill="#263238"/>
<path d="M99.9736 125.021C99.9484 125.022 99.9233 125.017 99.9005 125.006C99.8777 124.995 99.8578 124.979 99.8425 124.959C98.5936 123.441 94.2466 115.464 95.7715 111.67C96.008 111.081 96.4089 110.572 96.9265 110.205C97.4441 109.838 98.0563 109.628 98.6902 109.6C98.7125 109.597 98.7352 109.598 98.7568 109.604C98.7784 109.611 98.7985 109.621 98.816 109.635C98.8334 109.65 98.8478 109.667 98.8582 109.687C98.8686 109.707 98.8748 109.729 98.8765 109.751C98.8824 109.796 98.8706 109.841 98.8435 109.877C98.8164 109.914 98.7762 109.938 98.7316 109.945C98.1617 109.966 97.6098 110.15 97.1413 110.475C96.6729 110.8 96.3077 111.253 96.0889 111.78C94.6192 115.451 98.8834 123.241 100.105 124.731C100.127 124.756 100.141 124.786 100.145 124.818C100.15 124.85 100.145 124.883 100.131 124.913C100.117 124.942 100.095 124.967 100.067 124.984C100.039 125.001 100.006 125.009 99.9736 125.007V125.021Z" fill="#263238"/>
<path d="M110.281 117.052C110.435 118.06 110.921 118.987 111.661 119.688C112.641 120.626 113.566 119.984 113.656 118.791C113.738 117.721 113.324 115.948 112.165 115.451C111.006 114.954 110.137 115.858 110.281 117.052Z" fill="#E4897B"/>
<path d="M134.129 164.386L138.049 163.054L137.434 167.767C137.434 167.767 135.889 168.457 133.888 166.718L131.977 165.497L133.481 164.676C133.687 164.558 133.904 164.461 134.129 164.386Z" fill="#E4897B"/>
<path d="M140.787 163.04L139.586 167.159L137.434 167.76L138.048 163.054L140.787 163.04Z" fill="#E4897B"/>
</svg>
