<svg width="24" height="24" viewBox="0 0 24 24" fill="none" xmlns="http://www.w3.org/2000/svg">
<path d="M7 17C8.65685 17 10 15.6569 10 14C10 12.3431 8.65685 11 7 11C5.34315 11 4 12.3431 4 14C4 15.6569 5.34315 17 7 17Z" fill="#323232"/>
<path d="M11 9C12.6569 9 14 7.65685 14 6C14 4.34315 12.6569 3 11 3C9.34315 3 8 4.34315 8 6C8 7.65685 9.34315 9 11 9Z" fill="#323232"/>
<path d="M16.6 20.5996C18.2568 20.5996 19.6 19.2565 19.6 17.5996C19.6 15.9428 18.2568 14.5996 16.6 14.5996C14.9431 14.5996 13.6 15.9428 13.6 17.5996C13.6 19.2565 14.9431 20.5996 16.6 20.5996Z" fill="#323232"/>
</svg>
