<?xml version="1.0" encoding="iso-8859-1"?>
<!-- Generator: Adobe Illustrator 19.0.0, SVG Export Plug-In . SVG Version: 6.00 Build 0)  -->
<svg version="1.1" id="Layer_1" xmlns="http://www.w3.org/2000/svg" xmlns:xlink="http://www.w3.org/1999/xlink" x="0px" y="0px"
	 viewBox="0 0 512 512" style="enable-background:new 0 0 512 512;" xml:space="preserve">
<rect x="227.115" y="385.429" style="fill:#042431;" width="22.505" height="45.011"/>
<path style="fill:#074761;" d="M260.869,70.293H35.08c-12.378,0-22.505,10.127-22.505,22.505v281.379
	c0,12.378,10.127,22.505,22.505,22.505h225.788c12.378,0,22.505-10.127,22.505-22.505V92.798
	C283.374,80.42,273.247,70.293,260.869,70.293z"/>
<g>
	<rect x="57.581" y="11.881" style="fill:#042431;" width="180.775" height="290.478"/>
	<path style="fill:#042431;" d="M409.405,360.705c0-11.788,9.645-21.434,21.434-21.434h42.867c11.788,0,25.72,9.645,25.72,21.434
		v79.84h-90.022V360.705z"/>
</g>
<path d="M147.974,265.231c-3.197,0-6.119-1.806-7.548-4.664l-13.503-27.007c-1.309-2.616-1.169-5.723,0.369-8.212
	c1.538-2.488,4.255-4.003,7.179-4.003h27.007c2.925,0,5.641,1.515,7.179,4.003c1.538,2.489,1.678,5.596,0.369,8.212l-13.503,27.007
	C154.093,263.425,151.171,265.231,147.974,265.231z"/>
<path d="M499.427,443.358h-90.022c-4.661,0-8.44-3.778-8.44-8.44v-68.588c0-16.473,13.401-29.874,29.873-29.874h42.867
	c16.125,0,34.16,12.775,34.16,29.874v68.588C507.866,439.581,504.088,443.358,499.427,443.358z M417.844,426.479h73.143v-60.148
	c0-6.073-9.206-12.995-17.281-12.995h-42.867c-7.165,0-12.994,5.83-12.994,12.995v60.148H417.844z"/>
<path d="M429.662,512c-4.661,0-8.44-3.778-8.44-8.44v-68.642c0-4.662,3.779-8.44,8.44-8.44s8.44,3.778,8.44,8.44v68.642
	C438.102,508.222,434.323,512,429.662,512z"/>
<path d="M479.168,512c-4.661,0-8.44-3.778-8.44-8.44v-68.642c0-4.662,3.779-8.44,8.44-8.44s8.44,3.778,8.44,8.44v68.642
	C487.608,508.222,483.829,512,479.168,512z"/>
<path d="M292.376,512c-34.437,0-62.453-28.016-62.453-62.453v-19.105c0-4.662,3.779-8.44,8.44-8.44c4.661,0,8.44,3.778,8.44,8.44
	v19.105c0,25.13,20.444,45.574,45.574,45.574c25.13,0,45.574-20.444,45.574-45.574V62.453C337.95,28.016,365.966,0,400.403,0
	s62.453,28.016,62.453,62.453v271.17c0,4.662-3.779,8.44-8.44,8.44s-8.44-3.778-8.44-8.44V62.453
	c0-25.13-20.444-45.574-45.574-45.574s-45.574,20.444-45.574,45.574v387.095C354.829,483.984,326.813,512,292.376,512z"/>
<path d="M260.869,405.123H35.08c-17.064,0-30.945-13.881-30.945-30.945V92.798c0-17.063,13.881-30.945,30.945-30.945h22.505
	c4.661,0,8.44,3.778,8.44,8.44s-3.779,8.44-8.44,8.44H35.08c-7.757,0-14.066,6.309-14.066,14.066v281.379
	c0,7.757,6.309,14.066,14.066,14.066h225.788c7.757,0,14.066-6.309,14.066-14.066V92.798c0-7.757-6.309-14.066-14.066-14.066
	h-22.506c-4.661,0-8.44-3.778-8.44-8.44s3.779-8.44,8.44-8.44h22.506c17.064,0,30.945,13.883,30.945,30.945v281.379
	C291.814,391.241,277.931,405.123,260.869,405.123z"/>
<path d="M240.051,371.365c-9.307,0-16.879-7.572-16.879-16.879c0-9.308,7.572-16.879,16.879-16.879s16.879,7.571,16.879,16.879
	C256.93,363.793,249.358,371.365,240.051,371.365z"/>
<path d="M238.363,310.804H57.585c-4.661,0-8.44-3.778-8.44-8.44V11.881c0-4.662,3.779-8.44,8.44-8.44h180.777
	c4.661,0,8.44,3.778,8.44,8.44v290.485C246.803,307.027,243.024,310.804,238.363,310.804z M66.025,293.925h163.897V20.32H66.025
	V293.925z"/>
<path d="M249.616,438.882H227.11c-4.661,0-8.44-3.778-8.44-8.44s3.779-8.44,8.44-8.44h22.505c4.661,0,8.44,3.778,8.44,8.44
	C258.055,435.103,254.277,438.882,249.616,438.882z"/>
<g>
</g>
<g>
</g>
<g>
</g>
<g>
</g>
<g>
</g>
<g>
</g>
<g>
</g>
<g>
</g>
<g>
</g>
<g>
</g>
<g>
</g>
<g>
</g>
<g>
</g>
<g>
</g>
<g>
</g>
</svg>
