<?xml version="1.0" encoding="iso-8859-1"?>
<!-- Generator: Adobe Illustrator 19.0.0, SVG Export Plug-In . SVG Version: 6.00 Build 0)  -->
<svg version="1.1" id="Layer_1" xmlns="http://www.w3.org/2000/svg" xmlns:xlink="http://www.w3.org/1999/xlink" x="0px" y="0px"
	 viewBox="0 0 512 512" style="enable-background:new 0 0 512 512;" xml:space="preserve">
<g>
	<g>
		<g>
			<path d="M196.267,273.067c-4.71,0-8.533,3.823-8.533,8.533v17.067c0,4.71,3.823,8.533,8.533,8.533H230.4
				c4.71,0,8.533-3.823,8.533-8.533V281.6c0-4.71-3.823-8.533-8.533-8.533s-8.533,3.823-8.533,8.533v8.533H204.8V281.6
				C204.8,276.89,200.977,273.067,196.267,273.067z"/>
			<path d="M59.733,426.667c-4.71,0-8.533,3.823-8.533,8.533v17.067c0,4.71,3.823,8.533,8.533,8.533h34.133
				c4.71,0,8.533-3.823,8.533-8.533V435.2c0-4.71-3.823-8.533-8.533-8.533c-4.71,0-8.533,3.823-8.533,8.533v8.533H68.267V435.2
				C68.267,430.49,64.444,426.667,59.733,426.667z"/>
			<path d="M187.733,401.067c0,4.71,3.823,8.533,8.533,8.533H230.4c4.71,0,8.533-3.823,8.533-8.533V384
				c0-4.71-3.823-8.533-8.533-8.533s-8.533,3.823-8.533,8.533v8.533H204.8V384c0-4.71-3.823-8.533-8.533-8.533
				s-8.533,3.823-8.533,8.533V401.067z"/>
			<path d="M256,349.867c0,4.71,3.823,8.533,8.533,8.533h34.133c4.71,0,8.533-3.823,8.533-8.533V332.8
				c0-4.71-3.823-8.533-8.533-8.533s-8.533,3.823-8.533,8.533v8.533h-17.067V332.8c0-4.71-3.823-8.533-8.533-8.533
				c-4.71,0-8.533,3.823-8.533,8.533V349.867z"/>
			<path d="M264.533,273.067c-4.71,0-8.533,3.823-8.533,8.533v17.067c0,4.71,3.823,8.533,8.533,8.533h34.133
				c4.71,0,8.533-3.823,8.533-8.533V281.6c0-4.71-3.823-8.533-8.533-8.533s-8.533,3.823-8.533,8.533v8.533h-17.067V281.6
				C273.067,276.89,269.244,273.067,264.533,273.067z"/>
			<path d="M187.733,349.867c0,4.71,3.823,8.533,8.533,8.533H230.4c4.71,0,8.533-3.823,8.533-8.533V332.8
				c0-4.71-3.823-8.533-8.533-8.533s-8.533,3.823-8.533,8.533v8.533H204.8V332.8c0-4.71-3.823-8.533-8.533-8.533
				s-8.533,3.823-8.533,8.533V349.867z"/>
			<path d="M469.333,221.867h-128V128c0-23.526-19.14-42.667-42.667-42.667C275.14,85.333,256,104.474,256,128
				c0,14.114-11.486,25.6-25.6,25.6s-25.6-11.486-25.6-25.6V8.533c0-4.71-3.823-8.533-8.533-8.533s-8.533,3.823-8.533,8.533V128
				c0,23.526,19.14,42.667,42.667,42.667c23.526,0,42.667-19.14,42.667-42.667c0-14.114,11.486-25.6,25.6-25.6
				s25.6,11.486,25.6,25.6v102.4c0,4.71,3.823,8.533,8.533,8.533h136.533c14.114,0,25.6,11.486,25.6,25.6v204.8
				c0,14.114-11.486,25.6-25.6,25.6H42.667c-14.114,0-25.6-11.486-25.6-25.6v-204.8c0-14.114,11.486-25.6,25.6-25.6h256
				c4.71,0,8.533-3.823,8.533-8.533s-3.823-8.533-8.533-8.533h-256C19.14,221.867,0,241.007,0,264.533v204.8
				C0,492.86,19.14,512,42.667,512h426.667C492.86,512,512,492.86,512,469.333v-204.8C512,241.007,492.86,221.867,469.333,221.867z"
				/>
			<path d="M128,273.067c-4.71,0-8.533,3.823-8.533,8.533v17.067c0,4.71,3.823,8.533,8.533,8.533h34.133
				c4.71,0,8.533-3.823,8.533-8.533V281.6c0-4.71-3.823-8.533-8.533-8.533c-4.71,0-8.533,3.823-8.533,8.533v8.533h-17.067V281.6
				C136.533,276.89,132.71,273.067,128,273.067z"/>
			<path d="M119.467,452.267c0,4.71,3.823,8.533,8.533,8.533h187.733c4.71,0,8.533-3.823,8.533-8.533V435.2
				c0-4.71-3.823-8.533-8.533-8.533s-8.533,3.823-8.533,8.533v8.533H136.533V435.2c0-4.71-3.823-8.533-8.533-8.533
				s-8.533,3.823-8.533,8.533V452.267z"/>
			<path d="M119.467,401.067c0,4.71,3.823,8.533,8.533,8.533h34.133c4.71,0,8.533-3.823,8.533-8.533V384
				c0-4.71-3.823-8.533-8.533-8.533c-4.71,0-8.533,3.823-8.533,8.533v8.533h-17.067V384c0-4.71-3.823-8.533-8.533-8.533
				s-8.533,3.823-8.533,8.533V401.067z"/>
			<path d="M119.467,349.867c0,4.71,3.823,8.533,8.533,8.533h34.133c4.71,0,8.533-3.823,8.533-8.533V332.8
				c0-4.71-3.823-8.533-8.533-8.533c-4.71,0-8.533,3.823-8.533,8.533v8.533h-17.067V332.8c0-4.71-3.823-8.533-8.533-8.533
				s-8.533,3.823-8.533,8.533V349.867z"/>
			<path d="M256,401.067c0,4.71,3.823,8.533,8.533,8.533h34.133c4.71,0,8.533-3.823,8.533-8.533V384c0-4.71-3.823-8.533-8.533-8.533
				s-8.533,3.823-8.533,8.533v8.533h-17.067V384c0-4.71-3.823-8.533-8.533-8.533c-4.71,0-8.533,3.823-8.533,8.533V401.067z"/>
			<path d="M324.267,401.067c0,4.71,3.823,8.533,8.533,8.533h34.133c4.71,0,8.533-3.823,8.533-8.533V384
				c0-4.71-3.823-8.533-8.533-8.533S358.4,379.29,358.4,384v8.533h-17.067V384c0-4.71-3.823-8.533-8.533-8.533
				c-4.71,0-8.533,3.823-8.533,8.533V401.067z"/>
			<path d="M401.067,273.067c-4.71,0-8.533,3.823-8.533,8.533v17.067c0,4.71,3.823,8.533,8.533,8.533h51.2
				c4.71,0,8.533-3.823,8.533-8.533V281.6c0-4.71-3.823-8.533-8.533-8.533c-4.71,0-8.533,3.823-8.533,8.533v8.533H409.6V281.6
				C409.6,276.89,405.777,273.067,401.067,273.067z"/>
			<path d="M392.533,349.867c0,4.71,3.823,8.533,8.533,8.533h51.2c4.71,0,8.533-3.823,8.533-8.533V332.8
				c0-4.71-3.823-8.533-8.533-8.533c-4.71,0-8.533,3.823-8.533,8.533v8.533H409.6V332.8c0-4.71-3.823-8.533-8.533-8.533
				s-8.533,3.823-8.533,8.533V349.867z"/>
			<path d="M102.4,384c0-4.71-3.823-8.533-8.533-8.533c-4.71,0-8.533,3.823-8.533,8.533v8.533H68.267V384
				c0-4.71-3.823-8.533-8.533-8.533S51.2,379.29,51.2,384v17.067c0,4.71,3.823,8.533,8.533,8.533h34.133
				c4.71,0,8.533-3.823,8.533-8.533V384z"/>
			<path d="M418.133,426.667c-4.71,0-8.533,3.823-8.533,8.533v17.067c0,4.71,3.823,8.533,8.533,8.533h34.133
				c4.71,0,8.533-3.823,8.533-8.533V435.2c0-4.71-3.823-8.533-8.533-8.533c-4.71,0-8.533,3.823-8.533,8.533v8.533h-17.067V435.2
				C426.667,430.49,422.844,426.667,418.133,426.667z"/>
			<path d="M392.533,401.067c0,4.71,3.823,8.533,8.533,8.533h51.2c4.71,0,8.533-3.823,8.533-8.533V384
				c0-4.71-3.823-8.533-8.533-8.533c-4.71,0-8.533,3.823-8.533,8.533v8.533H409.6V384c0-4.71-3.823-8.533-8.533-8.533
				s-8.533,3.823-8.533,8.533V401.067z"/>
			<path d="M102.4,281.6c0-4.71-3.823-8.533-8.533-8.533c-4.71,0-8.533,3.823-8.533,8.533v8.533H68.267V281.6
				c0-4.71-3.823-8.533-8.533-8.533S51.2,276.89,51.2,281.6v17.067c0,4.71,3.823,8.533,8.533,8.533h34.133
				c4.71,0,8.533-3.823,8.533-8.533V281.6z"/>
			<path d="M324.267,349.867c0,4.71,3.823,8.533,8.533,8.533h34.133c4.71,0,8.533-3.823,8.533-8.533V332.8
				c0-4.71-3.823-8.533-8.533-8.533s-8.533,3.823-8.533,8.533v8.533h-17.067V332.8c0-4.71-3.823-8.533-8.533-8.533
				c-4.71,0-8.533,3.823-8.533,8.533V349.867z"/>
			<path d="M102.4,332.8c0-4.71-3.823-8.533-8.533-8.533c-4.71,0-8.533,3.823-8.533,8.533v8.533H68.267V332.8
				c0-4.71-3.823-8.533-8.533-8.533S51.2,328.09,51.2,332.8v17.067c0,4.71,3.823,8.533,8.533,8.533h34.133
				c4.71,0,8.533-3.823,8.533-8.533V332.8z"/>
			<path d="M349.867,426.667c-4.71,0-8.533,3.823-8.533,8.533v17.067c0,4.71,3.823,8.533,8.533,8.533H384
				c4.71,0,8.533-3.823,8.533-8.533V435.2c0-4.71-3.823-8.533-8.533-8.533s-8.533,3.823-8.533,8.533v8.533H358.4V435.2
				C358.4,430.49,354.577,426.667,349.867,426.667z"/>
			<path d="M332.8,273.067c-4.71,0-8.533,3.823-8.533,8.533v17.067c0,4.71,3.823,8.533,8.533,8.533h34.133
				c4.71,0,8.533-3.823,8.533-8.533V281.6c0-4.71-3.823-8.533-8.533-8.533s-8.533,3.823-8.533,8.533v8.533h-17.067V281.6
				C341.333,276.89,337.51,273.067,332.8,273.067z"/>
		</g>
	</g>
</g>
<g>
</g>
<g>
</g>
<g>
</g>
<g>
</g>
<g>
</g>
<g>
</g>
<g>
</g>
<g>
</g>
<g>
</g>
<g>
</g>
<g>
</g>
<g>
</g>
<g>
</g>
<g>
</g>
<g>
</g>
</svg>
