<?xml version="1.0" encoding="UTF-8"?>
<svg width="700pt" height="700pt" version="1.1" viewBox="0 0 700 700" xmlns="http://www.w3.org/2000/svg" xmlns:xlink="http://www.w3.org/1999/xlink">
 <defs>
  <symbol id="w" overflow="visible">
   <path d="m3.6562-0.21875c-0.1875 0.09375-0.38672 0.16797-0.59375 0.21875-0.19922 0.050781-0.40625 0.078125-0.625 0.078125-0.66797 0-1.1992-0.17969-1.5938-0.54688-0.38672-0.375-0.57812-0.87891-0.57812-1.5156 0-0.64453 0.19141-1.1484 0.57812-1.5156 0.39453-0.375 0.92578-0.5625 1.5938-0.5625 0.21875 0 0.42578 0.027344 0.625 0.078125 0.20703 0.054687 0.40625 0.125 0.59375 0.21875v0.82812c-0.1875-0.125-0.375-0.21875-0.5625-0.28125-0.17969-0.0625-0.37109-0.09375-0.57812-0.09375-0.36719 0-0.65625 0.12109-0.875 0.35938-0.21094 0.23047-0.3125 0.55469-0.3125 0.96875 0 0.40625 0.10156 0.73047 0.3125 0.96875 0.21875 0.23047 0.50781 0.34375 0.875 0.34375 0.20703 0 0.39844-0.023437 0.57812-0.078125 0.1875-0.0625 0.375-0.16016 0.5625-0.29688z"/>
  </symbol>
  <symbol id="d" overflow="visible">
   <path d="m2.6875-2.1719c-0.085938-0.039063-0.16797-0.070313-0.25-0.09375-0.085938-0.019531-0.16797-0.03125-0.25-0.03125-0.25 0-0.44531 0.085937-0.57812 0.25-0.125 0.15625-0.1875 0.38281-0.1875 0.67188v1.375h-0.96875v-2.9844h0.96875v0.48438c0.11328-0.19531 0.25-0.33594 0.40625-0.42188 0.16406-0.09375 0.35938-0.14062 0.57812-0.14062h0.10938c0.039063 0 0.09375 0.007812 0.15625 0.015625z"/>
  </symbol>
  <symbol id="a" overflow="visible">
   <path d="m3.4375-1.5v0.26562h-2.2344c0.03125 0.23047 0.11328 0.40234 0.25 0.51562 0.13281 0.10547 0.32812 0.15625 0.57812 0.15625 0.20703 0 0.41406-0.023438 0.625-0.078125 0.20703-0.0625 0.42188-0.15625 0.64062-0.28125v0.73438c-0.21875 0.09375-0.44531 0.16406-0.67188 0.20312-0.23047 0.039062-0.45312 0.0625-0.67188 0.0625-0.54297 0-0.96484-0.13281-1.2656-0.40625-0.30469-0.28125-0.45312-0.67188-0.45312-1.1719 0-0.47656 0.14453-0.85938 0.4375-1.1406 0.30078-0.28125 0.70703-0.42188 1.2188-0.42188 0.46875 0 0.84375 0.14062 1.125 0.42188s0.42188 0.66406 0.42188 1.1406zm-0.96875-0.32812c0-0.17578-0.058594-0.31641-0.17188-0.42188-0.10547-0.11328-0.24219-0.17188-0.40625-0.17188-0.1875 0-0.33984 0.054687-0.45312 0.15625-0.11719 0.10547-0.1875 0.25-0.21875 0.4375z"/>
  </symbol>
  <symbol id="f" overflow="visible">
   <path d="m1.7969-1.3438c-0.19922 0-0.35156 0.039062-0.45312 0.10938-0.09375 0.0625-0.14062 0.16406-0.14062 0.29688 0 0.11719 0.035156 0.21094 0.10938 0.28125 0.082031 0.0625 0.19531 0.09375 0.34375 0.09375 0.17578 0 0.32812-0.0625 0.45312-0.1875s0.1875-0.28516 0.1875-0.48438v-0.10938zm1.4688-0.35938v1.7031h-0.96875v-0.4375c-0.125 0.17969-0.27344 0.30859-0.4375 0.39062-0.15625 0.082031-0.35156 0.125-0.57812 0.125-0.3125 0-0.57031-0.085938-0.76562-0.26562-0.1875-0.1875-0.28125-0.42188-0.28125-0.70312 0-0.35156 0.11719-0.61328 0.35938-0.78125 0.23828-0.16406 0.61719-0.25 1.1406-0.25h0.5625v-0.0625c0-0.15625-0.0625-0.26562-0.1875-0.32812-0.11719-0.070312-0.29688-0.10938-0.54688-0.10938-0.21094 0-0.40234 0.023437-0.57812 0.0625-0.17969 0.042969-0.33984 0.10156-0.48438 0.17188v-0.71875c0.19531-0.050781 0.39844-0.085938 0.60938-0.10938 0.20703-0.03125 0.41406-0.046875 0.625-0.046875 0.53906 0 0.92969 0.10938 1.1719 0.32812 0.23828 0.21094 0.35938 0.55469 0.35938 1.0312z"/>
  </symbol>
  <symbol id="b" overflow="visible">
   <path d="m1.5-3.8438v0.85938h0.98438v0.67188h-0.98438v1.2812c0 0.13672 0.023438 0.23047 0.078125 0.28125 0.0625 0.042969 0.17578 0.0625 0.34375 0.0625h0.48438v0.6875h-0.8125c-0.38672 0-0.65625-0.078125-0.8125-0.23438s-0.23438-0.42188-0.23438-0.79688v-1.2812h-0.46875v-0.67188h0.46875v-0.85938z"/>
  </symbol>
  <symbol id="l" overflow="visible">
   <path d="m2.5-2.5469v-1.6094h0.95312v4.1562h-0.95312v-0.4375c-0.13672 0.17969-0.28125 0.30859-0.4375 0.39062-0.15625 0.082031-0.33984 0.125-0.54688 0.125-0.375 0-0.68359-0.14453-0.92188-0.4375-0.23047-0.28906-0.34375-0.67188-0.34375-1.1406 0-0.45703 0.11328-0.83203 0.34375-1.125 0.23828-0.28906 0.54688-0.4375 0.92188-0.4375 0.19531 0 0.375 0.042969 0.53125 0.125 0.16406 0.085938 0.31641 0.21484 0.45312 0.39062zm-0.64062 1.9375c0.20703 0 0.36328-0.070313 0.46875-0.21875 0.11328-0.15625 0.17188-0.37891 0.17188-0.67188 0-0.28125-0.058594-0.49219-0.17188-0.64062-0.10547-0.15625-0.26172-0.23438-0.46875-0.23438-0.19922 0-0.35547 0.078125-0.46875 0.23438-0.10547 0.14844-0.15625 0.35938-0.15625 0.64062 0 0.29297 0.050781 0.51562 0.15625 0.67188 0.11328 0.14844 0.26953 0.21875 0.46875 0.21875z"/>
  </symbol>
  <symbol id="k" overflow="visible">
   <path d="m2.0469-0.60938c0.20703 0 0.36328-0.070313 0.46875-0.21875 0.11328-0.15625 0.17188-0.37891 0.17188-0.67188 0-0.28125-0.058594-0.49219-0.17188-0.64062-0.10547-0.15625-0.26172-0.23438-0.46875-0.23438-0.19922 0-0.35547 0.078125-0.46875 0.23438-0.10547 0.14844-0.15625 0.35938-0.15625 0.64062 0 0.29297 0.050781 0.51562 0.15625 0.67188 0.11328 0.14844 0.26953 0.21875 0.46875 0.21875zm-0.625-1.9375c0.125-0.17578 0.26562-0.30469 0.42188-0.39062 0.16406-0.082031 0.35156-0.125 0.5625-0.125 0.36328 0 0.66406 0.14844 0.90625 0.4375 0.23828 0.29297 0.35938 0.66797 0.35938 1.125 0 0.46875-0.12109 0.85156-0.35938 1.1406-0.24219 0.29297-0.54297 0.4375-0.90625 0.4375-0.21094 0-0.39844-0.042969-0.5625-0.125-0.15625-0.082031-0.29688-0.21094-0.42188-0.39062v0.4375h-0.96875v-4.1562h0.96875z"/>
  </symbol>
  <symbol id="j" overflow="visible">
   <path d="m0.0625-2.9844h0.95312l0.8125 2.0156 0.6875-2.0156h0.95312l-1.2656 3.2656c-0.125 0.33203-0.27344 0.56641-0.4375 0.70312-0.16797 0.13281-0.39062 0.20312-0.67188 0.20312h-0.54688v-0.64062h0.29688c0.16406 0 0.28516-0.027344 0.35938-0.078125 0.070313-0.054688 0.12891-0.14062 0.17188-0.26562l0.03125-0.09375z"/>
  </symbol>
  <symbol id="c" overflow="visible">
   <path d="m0.5-3.9844h1.7031c0.50781 0 0.89844 0.11719 1.1719 0.34375 0.26953 0.21875 0.40625 0.53906 0.40625 0.95312 0 0.41797-0.13672 0.74219-0.40625 0.96875-0.27344 0.21875-0.66406 0.32812-1.1719 0.32812h-0.67188v1.3906h-1.0312zm1.0312 0.75v1.1094h0.5625c0.19531 0 0.34766-0.046875 0.45312-0.14062 0.11328-0.10156 0.17188-0.24219 0.17188-0.42188 0-0.17578-0.058594-0.3125-0.17188-0.40625-0.10547-0.09375-0.25781-0.14062-0.45312-0.14062z"/>
  </symbol>
  <symbol id="i" overflow="visible">
   <path d="m3.4688-1.8281v1.8281h-0.96875v-1.3906c0-0.25781-0.007812-0.4375-0.015625-0.53125-0.011719-0.10156-0.03125-0.17578-0.0625-0.21875-0.03125-0.0625-0.085937-0.10938-0.15625-0.14062-0.0625-0.039062-0.13281-0.0625-0.20312-0.0625-0.21094 0-0.37109 0.078125-0.48438 0.23438-0.10547 0.15625-0.15625 0.37109-0.15625 0.64062v1.4688h-0.96875v-4.1562h0.96875v1.6094c0.13281-0.17578 0.28516-0.30469 0.45312-0.39062 0.16406-0.082031 0.34375-0.125 0.53125-0.125 0.34375 0 0.60156 0.10938 0.78125 0.32812 0.1875 0.21094 0.28125 0.51172 0.28125 0.90625z"/>
  </symbol>
  <symbol id="h" overflow="visible">
   <path d="m0.45312-2.9844h0.96875v2.9844h-0.96875zm0-1.1719h0.96875v0.78125h-0.96875z"/>
  </symbol>
  <symbol id="v" overflow="visible">
   <path d="m0.45312-4.1562h0.96875v4.1562h-0.96875z"/>
  </symbol>
  <symbol id="g" overflow="visible">
   <path d="m1.4219-0.4375v1.5781h-0.96875v-4.125h0.96875v0.4375c0.125-0.17578 0.26562-0.30469 0.42188-0.39062 0.16406-0.082031 0.35156-0.125 0.5625-0.125 0.36328 0 0.66406 0.14844 0.90625 0.4375 0.23828 0.29297 0.35938 0.66797 0.35938 1.125 0 0.46875-0.12109 0.85156-0.35938 1.1406-0.24219 0.29297-0.54297 0.4375-0.90625 0.4375-0.21094 0-0.39844-0.042969-0.5625-0.125-0.15625-0.082031-0.29688-0.21094-0.42188-0.39062zm0.625-1.9375c-0.19922 0-0.35547 0.078125-0.46875 0.23438-0.10547 0.14844-0.15625 0.35938-0.15625 0.64062 0 0.29297 0.050781 0.51562 0.15625 0.67188 0.11328 0.14844 0.26953 0.21875 0.46875 0.21875 0.20703 0 0.36328-0.070313 0.46875-0.21875 0.11328-0.15625 0.17188-0.37891 0.17188-0.67188 0-0.28125-0.058594-0.49219-0.17188-0.64062-0.10547-0.15625-0.26172-0.23438-0.46875-0.23438z"/>
  </symbol>
  <symbol id="u" overflow="visible">
   <path d="m0.3125-2.9844h2.6094v0.65625l-1.5781 1.6406h1.5781v0.6875h-2.6719v-0.67188l1.5781-1.6406h-1.5156z"/>
  </symbol>
  <symbol id="t" overflow="visible">
   <path d="m0.45312-4.1562h0.96875v2.2656l1.0938-1.0938h1.1094l-1.4531 1.3594 1.5625 1.625h-1.1562l-1.1562-1.25v1.25h-0.96875z"/>
  </symbol>
  <symbol id="s" overflow="visible">
   <path d="m2.4219-4.1562v0.625h-0.51562c-0.13672 0-0.23438 0.027344-0.29688 0.078125-0.054687 0.054687-0.078125 0.13672-0.078125 0.25v0.21875h0.82812v0.67188h-0.82812v2.3125h-0.95312v-2.3125h-0.46875v-0.67188h0.46875v-0.21875c0-0.32031 0.085937-0.5625 0.26562-0.71875 0.1875-0.15625 0.47266-0.23438 0.85938-0.23438z"/>
  </symbol>
  <symbol id="e" overflow="visible">
   <path d="m1.875-2.375c-0.21094 0-0.37109 0.078125-0.48438 0.23438-0.10547 0.14844-0.15625 0.35938-0.15625 0.64062 0 0.29297 0.050781 0.51562 0.15625 0.67188 0.11328 0.14844 0.27344 0.21875 0.48438 0.21875 0.20703 0 0.36719-0.070313 0.48438-0.21875 0.11328-0.15625 0.17188-0.37891 0.17188-0.67188 0-0.28125-0.058594-0.49219-0.17188-0.64062-0.11719-0.15625-0.27734-0.23438-0.48438-0.23438zm0-0.6875c0.51953 0 0.92188 0.14062 1.2031 0.42188 0.28906 0.27344 0.4375 0.65234 0.4375 1.1406 0 0.5-0.14844 0.89062-0.4375 1.1719-0.28125 0.27344-0.68359 0.40625-1.2031 0.40625-0.51172 0-0.91406-0.13281-1.2031-0.40625-0.29297-0.28125-0.4375-0.67188-0.4375-1.1719 0-0.48828 0.14453-0.86719 0.4375-1.1406 0.28906-0.28125 0.69141-0.42188 1.2031-0.42188z"/>
  </symbol>
  <symbol id="r" overflow="visible">
   <path d="m3.2344-2.5c0.11328-0.17578 0.25391-0.3125 0.42188-0.40625 0.16406-0.10156 0.35156-0.15625 0.5625-0.15625 0.33203 0 0.58594 0.10938 0.76562 0.32812 0.1875 0.21094 0.28125 0.51172 0.28125 0.90625v1.8281h-0.96875v-1.5625c0.007813-0.019531 0.015625-0.039062 0.015625-0.0625v-0.10938c0-0.21875-0.03125-0.375-0.09375-0.46875s-0.16406-0.14062-0.29688-0.14062c-0.1875 0-0.33594 0.078125-0.4375 0.23438-0.09375 0.14844-0.14062 0.35938-0.14062 0.64062v1.4688h-0.96875v-1.5625c0-0.33203-0.03125-0.54688-0.09375-0.64062-0.054688-0.09375-0.15234-0.14062-0.29688-0.14062-0.17969 0-0.32031 0.078125-0.42188 0.23438-0.09375 0.14844-0.14062 0.35938-0.14062 0.64062v1.4688h-0.96875v-2.9844h0.96875v0.4375c0.11328-0.17578 0.24219-0.30469 0.39062-0.39062 0.15625-0.082031 0.32812-0.125 0.51562-0.125 0.20703 0 0.39062 0.054688 0.54688 0.15625 0.15625 0.09375 0.27344 0.23047 0.35938 0.40625z"/>
  </symbol>
  <symbol id="q" overflow="visible">
   <path d="m0.5-3.9844h1.1562l1.4375 2.7344v-2.7344h0.98438v3.9844h-1.1562l-1.4375-2.7344v2.7344h-0.98438z"/>
  </symbol>
  <symbol id="p" overflow="visible">
   <path d="m0.42188-1.1719v-1.8125h0.96875v0.29688 0.60938 0.48438c0 0.24219 0.003906 0.41797 0.015625 0.53125 0.007812 0.10547 0.03125 0.17969 0.0625 0.21875 0.039062 0.0625 0.09375 0.11719 0.15625 0.15625 0.0625 0.03125 0.13281 0.046875 0.21875 0.046875 0.19531 0 0.35156-0.078125 0.46875-0.23438 0.11328-0.15625 0.17188-0.36719 0.17188-0.64062v-1.4688h0.95312v2.9844h-0.95312v-0.4375c-0.14844 0.17969-0.30469 0.30859-0.46875 0.39062-0.15625 0.082031-0.33594 0.125-0.53125 0.125-0.34375 0-0.60938-0.10156-0.79688-0.3125-0.17969-0.21875-0.26562-0.53125-0.26562-0.9375z"/>
  </symbol>
  <symbol id="o" overflow="visible">
   <path d="m3.4688-1.8281v1.8281h-0.96875v-1.3906c0-0.25781-0.007812-0.4375-0.015625-0.53125-0.011719-0.10156-0.03125-0.17578-0.0625-0.21875-0.03125-0.0625-0.085937-0.10938-0.15625-0.14062-0.0625-0.039062-0.13281-0.0625-0.20312-0.0625-0.21094 0-0.37109 0.078125-0.48438 0.23438-0.10547 0.15625-0.15625 0.37109-0.15625 0.64062v1.4688h-0.96875v-2.9844h0.96875v0.4375c0.13281-0.17578 0.28516-0.30469 0.45312-0.39062 0.16406-0.082031 0.34375-0.125 0.53125-0.125 0.34375 0 0.60156 0.10938 0.78125 0.32812 0.1875 0.21094 0.28125 0.51172 0.28125 0.90625z"/>
  </symbol>
  <symbol id="n" overflow="visible">
   <path d="m0.45312-2.9844h0.96875v2.9375c0 0.39453-0.10156 0.69531-0.29688 0.90625-0.1875 0.21875-0.46484 0.32812-0.82812 0.32812h-0.48438v-0.64062h0.17188c0.17578 0 0.29688-0.042969 0.35938-0.125 0.070312-0.074219 0.10938-0.23047 0.10938-0.46875zm0-1.1719h0.96875v0.78125h-0.96875z"/>
  </symbol>
  <symbol id="m" overflow="visible">
   <path d="m2.875-2.8906v0.76562c-0.125-0.082031-0.25781-0.14453-0.39062-0.1875-0.13672-0.039062-0.27344-0.0625-0.40625-0.0625-0.27344 0-0.48047 0.078125-0.625 0.23438-0.14844 0.15625-0.21875 0.37109-0.21875 0.64062 0 0.28125 0.070313 0.5 0.21875 0.65625 0.14453 0.15625 0.35156 0.23438 0.625 0.23438 0.14453 0 0.28516-0.019531 0.42188-0.0625 0.13281-0.039063 0.25781-0.10938 0.375-0.20312v0.78125c-0.14844 0.0625-0.29688 0.10156-0.45312 0.125-0.15625 0.03125-0.3125 0.046875-0.46875 0.046875-0.54297 0-0.96484-0.13281-1.2656-0.40625-0.30469-0.28125-0.45312-0.67188-0.45312-1.1719 0-0.48828 0.14844-0.86719 0.45312-1.1406 0.30078-0.28125 0.72266-0.42188 1.2656-0.42188 0.15625 0 0.3125 0.015625 0.46875 0.046875 0.15625 0.023437 0.30469 0.0625 0.45312 0.125z"/>
  </symbol>
 </defs>
 <g>
  <path d="m531.9 493.71c0.042968-0.070312 0.082031-0.14453 0.12109-0.21875 0-0.078125 0.054687-0.16406 0.085937-0.24219s0.054687-0.17578 0.078125-0.27344v0.003906c0.003906-0.070312 0.003906-0.14062 0-0.21094v-0.32812c0.003906-0.058594 0.003906-0.12109 0-0.18359 0.007812-0.10938 0.007812-0.21875 0-0.32812-0.015625-0.09375-0.042969-0.1875-0.078125-0.27344 0-0.066406 0-0.14062-0.054687-0.20703l-10.195-26.359c-1.9258-6.9844-6.8594-12.75-13.465-15.73-6.6055-2.9766-14.191-2.8594-20.703 0.31641l-101.12-59.895 65.383-38.281c0.66406 0.25391 1.3398 0.47266 2.0352 0.65625v0.003906c1.7852 0.47656 3.625 0.71875 5.4688 0.71875 5.6016-0.027344 10.953-2.3008 14.863-6.3086 3.9102-4.0078 6.0469-9.418 5.9375-15.016-0.10938-5.5977-2.4609-10.918-6.5273-14.77h16.406c0.86328 0.003906 1.6719-0.40234 2.1875-1.0938l27.824-27.824h0.003906c1.0625-1.0703 1.0625-2.8008 0-3.8711l-9.8438-9.8438c-0.51562-0.51563-1.2109-0.80469-1.9375-0.80469s-1.4219 0.28906-1.9375 0.80469l-23.219 23.121h-3.2812c3.0703-3.9414 3.6328-9.2891 1.4531-13.785s-6.7266-7.3672-11.723-7.3984h-200.43l-37.09-208.91c-0.023438-0.10547-0.050782-0.20703-0.085938-0.30859-0.019531-0.074219-0.046875-0.14844-0.078125-0.21875-0.035156-0.085938-0.074219-0.17188-0.12109-0.25 0-0.078125-0.078125-0.15234-0.12109-0.21875l-0.16406-0.20703c0-0.066406-0.10938-0.14062-0.17578-0.20703l-0.20703-0.17578-0.1875-0.15234 0.003907-0.003906c-0.082031-0.058594-0.17188-0.10938-0.26172-0.15234l-0.19531-0.10938-0.27344-0.085937-0.23047-0.078125h-12.395c-0.082031-0.003907-0.16016-0.003907-0.24219 0h-0.27344l-0.29688 0.085937-0.23047 0.066406-0.24219 0.13281-0.23047 0.12109-0.19531 0.15234-0.20703 0.17578-0.17578 0.19531-0.16406 0.20703h0.003906c-0.046875 0.074218-0.089844 0.15234-0.12891 0.23047-0.046876 0.074219-0.085938 0.15234-0.12109 0.23047-0.03125 0.074219-0.058594 0.15234-0.078125 0.23047-0.035157 0.09375-0.0625 0.1875-0.085938 0.28516-0.007812 0.066406-0.007812 0.13672 0 0.20703v0.32812c-0.007812 0.074219-0.007812 0.15234 0 0.23047-0.007812 0.082031-0.007812 0.16797 0 0.25l36.926 208.36c-4.2031 1.0469-7.6133 4.1133-9.1016 8.1797-1.4922 4.0664-0.86719 8.6055 1.6641 12.121h-26.82c-1.5117 0-2.7344 1.2227-2.7344 2.7344v17.652c0 0.72656 0.28906 1.4219 0.80078 1.9336 0.51172 0.51172 1.207 0.80078 1.9336 0.80078 24.062 0 27.344 7.7969 27.344 15.422-0.003906 6.9883 3.4883 13.516 9.3086 17.391 5.8164 3.875 13.184 4.5781 19.633 1.8828l40.785 23.734-42.207 26.938-90.016 57.969c-0.25 0.054688-0.48828 0.14453-0.71094 0.26172-11.977 6.793-13.957 27.75-14.035 28.668v0.10938 0.13281c-0.003906 0.050781-0.003906 0.10156 0 0.15234-0.003906 0.089844-0.003906 0.17969 0 0.27344-0.003906 0.085937-0.003906 0.17578 0 0.26172 0 0.085937 0.054688 0.17578 0.078126 0.25 0.023437 0.078124 0.078124 0.16406 0.10937 0.25 0.03125 0.085937 0.078126 0.15234 0.12109 0.21875l0.15234 0.23047 0.16406 0.1875 0.19531 0.19531 0.1875 0.15234v0.003907c0.070313 0.058593 0.14844 0.10938 0.23047 0.15234l0.21875 0.12109 0.27344 0.10938 0.23047 0.078125 0.29688 0.054688h62.68v-0.003906c0.19531-0.003907 0.39063-0.027344 0.57813-0.0625l0.1875-0.066407c0.10937-0.027343 0.21484-0.058593 0.31641-0.097656l0.21875-0.12109 0.24219-0.14062 0.20703-0.17578 0.19531-0.16406 0.16406-0.19531v-0.003906c0.0625-0.066406 0.11719-0.14062 0.16406-0.21875l0.12109-0.20703 0.13281-0.25c0-0.085937 0-0.17578 0.078125-0.26172l-0.003906-0.003906c0.066406-0.1875 0.097656-0.38672 0.10156-0.58984 0.003906-0.058594 0.003906-0.11719 0-0.17578v-0.27344-0.28516c-0.15234-0.73438-3.6211-16.23-8.8711-24.695l34.094-22.508 185.2 10.852 26.684 15.727-7.8203 20.211v0.17578c0 0.054687-0.066407 0.20703-0.085938 0.31641-0.007812 0.10156-0.007812 0.20312 0 0.30859-0.007812 0.0625-0.007812 0.12891 0 0.19531v0.32812c-0.007812 0.074219-0.007812 0.14453 0 0.21875 0.019531 0.089844 0.042969 0.17578 0.074219 0.26172 0.023437 0.082031 0.054687 0.16406 0.089843 0.24219l0.10938 0.21875c0.042968 0.082031 0.089843 0.16016 0.14062 0.23828 0 0.066407 0.10938 0.13281 0.16406 0.19531l0.16406 0.19531 0.19531 0.16406 0.21875 0.17578 0.1875 0.097657v0.003906c0.097656 0.058594 0.19922 0.10938 0.30469 0.15234l0.46094 0.13281c0.17188 0.035156 0.34766 0.050781 0.52344 0.054688h62.344c0.17969-0.003907 0.35547-0.019532 0.52734-0.054688l0.19531-0.066406c0.089843-0.015625 0.17578-0.039063 0.26172-0.066406 0.097656-0.039063 0.19531-0.085938 0.28516-0.14063l0.20703-0.10937 0.20703-0.16406h0.003906c0.070313-0.050781 0.13672-0.10938 0.19531-0.17578 0.058594-0.054688 0.11719-0.11719 0.16406-0.18359 0.0625-0.066406 0.12109-0.13672 0.17578-0.21094 0.039062-0.066406 0.074219-0.13672 0.10938-0.20703zm-45.633-38.586h0.097657c0.15625 0.082031 0.31641 0.14844 0.48437 0.19531l0.14063 0.054688c0.20312 0.046875 0.41406 0.074218 0.625 0.078125h0.10937c0.16016-0.003907 0.32031-0.019531 0.48047-0.054688l0.19531-0.054687c0.14453-0.046875 0.28125-0.10156 0.41797-0.16406l0.17578-0.085937h0.066406l-0.003906-0.003906c5.0508-2.8711 11.141-3.25 16.512-1.0312 5.3672 2.2188 9.4141 6.7891 10.965 12.387v0.097656c0.015625 0.12109 0.046875 0.23828 0.097656 0.35156l8.8047 22.781h-54.227l7.2188-18.66s0.066406-0.20703 0.085937-0.31641c0.023437-0.10937 0-0.14062 0.054687-0.21875 0.003907-0.09375 0.003907-0.19141 0-0.28516 0.011719-0.082031 0.011719-0.16797 0-0.25 0.003907-0.085937 0.003907-0.16797 0-0.25391v-0.27344c-0.015624-0.082031-0.042968-0.16016-0.078124-0.23828 0-0.078125-0.054688-0.16406-0.085938-0.25l-0.13281-0.23047-0.13281-0.21875c-0.054687-0.078124-0.12109-0.13281-0.17578-0.19531l0.003906-0.003906c-0.050781-0.074219-0.10938-0.14453-0.17578-0.20703l-0.20703-0.15234c-0.070313-0.066407-0.14844-0.125-0.23047-0.17578l-111.46-65.93 15.312-8.9375zm-200.35-27.191 45.227-29.914c3.3164 4.3711 8.0508 7.4492 13.391 8.7109 5.3438 1.2617 10.953 0.625 15.879-1.7969l56.625 33.48-134.63-8.1602zm186.84-103.71h-0.003906c2.1992 3.8203 2.6602 8.3984 1.2617 12.578-1.4023 4.1758-4.5234 7.5586-8.5781 9.2812-4.0547 1.7266-8.6562 1.6289-12.637-0.26172s-6.957-5.3984-8.1836-9.6289c-1.2227-4.2344-0.57812-8.7891 1.7773-12.512 2.3555-3.7266 6.1953-6.2617 10.547-6.9688h4.8906-0.003906c4.5938 0.71484 8.6133 3.4805 10.926 7.5117zm-103.91 45.477-0.003906 0.003907c-3.2617-4.3672-7.9375-7.4727-13.234-8.7852-5.293-1.3125-10.875-0.75-15.805 1.5859l-53.418-31.094c-0.98438-5.0703-3.8086-9.5938-7.9297-12.711 0.29688-0.44531 0.44922-0.97266 0.44922-1.5078v-14.918h168.84v11.703c0 0.20703 0.019531 0.41016 0.0625 0.61328-4.8633 3.2305-8.1406 8.3594-9.0312 14.129zm115.47-66.961-0.003906 0.003906c0.72656 0 1.4219-0.28516 1.9375-0.79688l22.027-22.039 5.9922 5.9922-25.352 25.344h-35.699v-8.4648zm-226.93-26.648-36.453-205.76h6.2891l36.508 205.76zm-9.9102 13.125h0.003906c0-4.2305 3.4258-7.6562 7.6562-7.6562h214.48c2.1445-0.19922 4.2734 0.51172 5.8633 1.9648 1.5938 1.4492 2.5 3.5039 2.5 5.6562 0 2.1562-0.90625 4.207-2.5 5.6602-1.5898 1.4492-3.7188 2.1641-5.8633 1.9648h-214.53c-4.1953-0.023437-7.5938-3.4258-7.6094-7.625zm-27.125 25.289 0.003906-12.23h53.078v13.605c-4.6484-1.8281-9.8047-1.9219-14.516-0.26172-4.7109 1.6641-8.668 4.9648-11.145 9.3086-5.1836-8.4336-17.094-10.219-27.418-10.457zm30.113 20.832c-0.003906-3.6719 1.3008-7.2266 3.6836-10.023 2.3867-2.7969 5.6875-4.6484 9.3164-5.2266s7.3438 0.16016 10.477 2.0781c3.1328 1.918 5.4766 4.8945 6.6133 8.3867 1.1328 3.4961 0.98438 7.2812-0.42188 10.676-1.4102 3.3906-3.9805 6.1719-7.2578 7.8359-4.7734 2.4492-10.48 2.2344-15.059-0.57031-4.5781-2.8047-7.3633-7.7891-7.3516-13.156zm28.789 16.035c4.0703-3.4062 6.6875-8.2461 7.3047-13.52l47.906 27.859-14.59 9.3203zm-95.508 117.33c0.31641-0.058593 0.61719-0.17969 0.88672-0.35156l90.781-58.449 65.527-41.824c4.1602-2.3789 9.0977-3.0117 13.727-1.7656 4.6289 1.25 8.5742 4.2773 10.98 8.4258 0.36328 0.62891 0.96484 1.0898 1.668 1.2773 0.70313 0.1875 1.4531 0.085938 2.082-0.28125l69.344-40.664v-0.003906c0.75781 5.2422 3.4961 9.9922 7.6562 13.27l-86.93 50.891c-0.25 0.09375-0.48438 0.22266-0.69922 0.38281-4.1562 2.3086-9.0508 2.8906-13.633 1.625-4.5781-1.2656-8.4805-4.2812-10.859-8.3945-0.39062-0.65234-1.0352-1.1133-1.7812-1.2695-0.73438-0.17188-1.5039-0.035156-2.1328 0.38281l-47.512 31.422-10.16 6.7148c-0.085937 0-0.16406 0.10938-0.25 0.16406l-13.922 9.1992-0.13281 0.085938-37.188 24.578-0.12109 0.097656-0.13281 0.085938-0.078125 0.085937v0.003906c-0.074219 0.0625-0.14062 0.13281-0.19531 0.21094-0.0625 0.058594-0.11719 0.125-0.16406 0.19531l-0.15234 0.23047c-0.046875 0.074219-0.085937 0.14844-0.12109 0.23047l-0.097656 0.24219c0 0.085937-0.054687 0.17578-0.078125 0.25-0.003906 0.085937-0.003906 0.17187 0 0.26172v0.26172c-0.003906 0.082031-0.003906 0.16797 0 0.25-0.011719 0.09375-0.011719 0.18359 0 0.27344-0.003906 0.085938-0.003906 0.16797 0 0.25391 0 0.085937 0 0.17578 0.078125 0.26172l0.097656 0.23047c0 0.085938 0.085938 0.17578 0.14062 0.26172l0.054688 0.097656c0.066406 0.082031 0.12891 0.16406 0.1875 0.25391 3.6953 4.375 7.0117 15.094 8.6719 21.523h-55.672c0.89844-5.3906 3.5664-16.594 10.129-20.977zm84.492-29.125 6.5625-4.2969 152.55 9.2422 8.2266 4.8672z"/>
  <use x="70" y="576.40625" xlink:href="#w"/>
  <use x="74.011719" y="576.40625" xlink:href="#d"/>
  <use x="76.710938" y="576.40625" xlink:href="#a"/>
  <use x="80.417969" y="576.40625" xlink:href="#f"/>
  <use x="84.109375" y="576.40625" xlink:href="#b"/>
  <use x="86.722656" y="576.40625" xlink:href="#a"/>
  <use x="90.433594" y="576.40625" xlink:href="#l"/>
  <use x="96.25" y="576.40625" xlink:href="#k"/>
  <use x="100.167969" y="576.40625" xlink:href="#j"/>
  <use x="105.636719" y="576.40625" xlink:href="#c"/>
  <use x="109.644531" y="576.40625" xlink:href="#i"/>
  <use x="113.535156" y="576.40625" xlink:href="#h"/>
  <use x="115.410156" y="576.40625" xlink:href="#v"/>
  <use x="117.285156" y="576.40625" xlink:href="#h"/>
  <use x="119.160156" y="576.40625" xlink:href="#g"/>
  <use x="123.074219" y="576.40625" xlink:href="#g"/>
  <use x="128.894531" y="576.40625" xlink:href="#c"/>
  <use x="132.902344" y="576.40625" xlink:href="#a"/>
  <use x="136.609375" y="576.40625" xlink:href="#b"/>
  <use x="139.222656" y="576.40625" xlink:href="#u"/>
  <use x="142.40625" y="576.40625" xlink:href="#t"/>
  <use x="146.042969" y="576.40625" xlink:href="#f"/>
  <use x="70" y="581.875" xlink:href="#s"/>
  <use x="72.378906" y="581.875" xlink:href="#d"/>
  <use x="75.078125" y="581.875" xlink:href="#e"/>
  <use x="78.832031" y="581.875" xlink:href="#r"/>
  <use x="86.4375" y="581.875" xlink:href="#b"/>
  <use x="89.050781" y="581.875" xlink:href="#i"/>
  <use x="92.941406" y="581.875" xlink:href="#a"/>
  <use x="98.554688" y="581.875" xlink:href="#q"/>
  <use x="103.132812" y="581.875" xlink:href="#e"/>
  <use x="106.890625" y="581.875" xlink:href="#p"/>
  <use x="110.785156" y="581.875" xlink:href="#o"/>
  <use x="116.582031" y="581.875" xlink:href="#c"/>
  <use x="120.589844" y="581.875" xlink:href="#d"/>
  <use x="123.285156" y="581.875" xlink:href="#e"/>
  <use x="127.042969" y="581.875" xlink:href="#n"/>
  <use x="128.917969" y="581.875" xlink:href="#a"/>
  <use x="132.625" y="581.875" xlink:href="#m"/>
  <use x="135.867188" y="581.875" xlink:href="#b"/>
 </g>
</svg>
