<svg width="24" height="24" viewBox="0 0 24 24" fill="none" xmlns="http://www.w3.org/2000/svg">
<mask id="mask0_9445_95318" style="mask-type:alpha" maskUnits="userSpaceOnUse" x="0" y="0" width="24" height="24">
<path fill-rule="evenodd" clip-rule="evenodd" d="M7.5 22.5C8.32843 22.5 9 21.8284 9 21C9 20.1716 8.32843 19.5 7.5 19.5C6.67157 19.5 6 20.1716 6 21C6 21.8284 6.67157 22.5 7.5 22.5ZM18 22.5C18.8284 22.5 19.5 21.8284 19.5 21C19.5 20.1716 18.8284 19.5 18 19.5C17.1716 19.5 16.5 20.1716 16.5 21C16.5 21.8284 17.1716 22.5 18 22.5ZM4.365 5.25H21C21.2311 5.24432 21.4519 5.34554 21.5985 5.52433C21.745 5.70312 21.8009 5.9395 21.75 6.165L20.25 12.915C20.1714 13.2639 19.8575 13.5087 19.5 13.5H6L6.615 16.5H19.5V18H6C5.63793 18.0073 5.32236 17.7548 5.25 17.4L2.385 3H0V1.5H3C3.36207 1.4927 3.67764 1.74516 3.75 2.1L4.365 5.25ZM5.715 12H18.9L20.0625 6.75H4.665L5.715 12Z" fill="black"/>
</mask>
<g mask="url(#mask0_9445_95318)">
<rect y="-1" width="24" height="24" fill="black" fill-opacity="0.7"/>
</g>
</svg>
