<svg width="12" height="13" viewBox="0 0 12 13" fill="none" xmlns="http://www.w3.org/2000/svg">
<path d="M6 1.5C4.065 1.5 2.5 3.065 2.5 5C2.5 5.87 2.75 6.685 3.205 7.42C3.68 8.19 4.305 8.85 4.785 9.62C5.02 9.995 5.19 10.345 5.37 10.75C5.5 11.025 5.605 11.5 6 11.5C6.395 11.5 6.5 11.025 6.625 10.75C6.81 10.345 6.975 9.995 7.21 9.62C7.69 8.855 8.315 8.195 8.79 7.42C9.25 6.685 9.5 5.87 9.5 5C9.5 3.065 7.935 1.5 6 1.5ZM6 6.375C5.31 6.375 4.75 5.815 4.75 5.125C4.75 4.435 5.31 3.875 6 3.875C6.69 3.875 7.25 4.435 7.25 5.125C7.25 5.815 6.69 6.375 6 6.375Z" fill="#323232"/>
</svg>
