<svg width="24" height="24" viewBox="0 0 24 24" fill="none" xmlns="http://www.w3.org/2000/svg">
<path d="M11.1 12.0798C8.76998 7.56977 10.6 3.59977 11.63 2.00977C6.26998 2.19977 1.97998 6.58977 1.97998 11.9998C1.97998 12.1398 1.99998 12.2798 1.99998 12.4198C2.61998 12.1498 3.28998 11.9998 3.99998 11.9998C5.65998 11.9998 7.17998 12.8298 8.09998 14.1498C9.76998 14.6298 11 16.1698 11 17.9998C11 19.5198 10.13 20.8298 8.87998 21.5098C9.85998 21.8298 10.91 22.0098 11.99 22.0098C15.49 22.0098 18.57 20.2098 20.36 17.4898C18 17.7198 13.38 16.5198 11.1 12.0798Z" fill="#323232"/>
<path d="M7 16H6.82C6.4 14.84 5.3 14 4 14C2.34 14 1 15.34 1 17C1 18.66 2.34 20 4 20C4.62 20 6.49 20 7 20C8.1 20 9 19.1 9 18C9 16.9 8.1 16 7 16Z" fill="#323232"/>
</svg>
