<svg width="24" height="24" viewBox="0 0 24 24" fill="none" xmlns="http://www.w3.org/2000/svg">
<path d="M19.93 8.35043L16.33 10.0304L14 7.70042V6.30043L16.33 3.97043L19.93 5.65042C20.31 5.83043 20.75 5.66042 20.93 5.29042C21.11 4.91042 20.94 4.47042 20.57 4.29042L16.65 2.46043C16.27 2.28043 15.82 2.36043 15.52 2.66043L13.78 4.40042C13.6 4.16042 13.32 4.00042 13 4.00042C12.45 4.00042 12 4.45042 12 5.00042V6.00042H8.82C8.4 4.84043 7.3 4.00042 6 4.00042C4.34 4.00042 3 5.34043 3 7.00042C3 8.10042 3.6 9.05042 4.48 9.58042L7.08 18.0004H6C4.9 18.0004 4 18.9004 4 20.0004V21.0004H17V20.0004C17 18.9004 16.1 18.0004 15 18.0004H13.38L8.41 8.77043C8.58 8.53043 8.72 8.28043 8.82 8.00042H12V9.00042C12 9.55043 12.45 10.0004 13 10.0004C13.32 10.0004 13.6 9.84043 13.78 9.60043L15.52 11.3404C15.82 11.6404 16.27 11.7204 16.65 11.5404L20.57 9.71042C20.95 9.53043 21.11 9.09043 20.93 8.71042C20.75 8.34043 20.31 8.17043 19.93 8.35043ZM6 8.00042C5.45 8.00042 5 7.55043 5 7.00042C5 6.45042 5.45 6.00042 6 6.00042C6.55 6.00042 7 6.45042 7 7.00042C7 7.55043 6.55 8.00042 6 8.00042ZM11.11 18.0004H9.17L6.71 10.0004H6.81L11.11 18.0004Z" fill="#323232"/>
</svg>
