<svg width="24" height="24" viewBox="0 0 24 24" fill="none" xmlns="http://www.w3.org/2000/svg">
<path d="M21.5801 16.09L20.4901 8.43C20.2101 6.46 18.5201 5 16.5301 5H7.47006C5.48006 5 3.79007 6.46 3.51007 8.43L2.42007 16.09C2.20007 17.63 3.39007 19 4.94007 19C5.62007 19 6.26006 18.73 6.74006 18.25L9.00006 16H15.0001L17.2501 18.25C17.7301 18.73 18.3801 19 19.0501 19C20.6101 19 21.8001 17.63 21.5801 16.09ZM19.4801 16.81C19.4001 16.9 19.2701 17 19.0601 17C18.9101 17 18.7701 16.94 18.6701 16.84L15.8301 14H8.17006L5.33007 16.84C5.23007 16.94 5.09007 17 4.94007 17C4.73007 17 4.60006 16.9 4.52007 16.81C4.44007 16.72 4.36006 16.58 4.39006 16.37L5.48007 8.71C5.63007 7.74 6.48006 7 7.47006 7H16.5301C17.5201 7 18.3701 7.74 18.5101 8.72L19.6001 16.38C19.6301 16.58 19.5501 16.72 19.4801 16.81Z" fill="#323232"/>
<path d="M9 8H8V10H6V11H8V13H9V11H11V10H9V8Z" fill="#323232"/>
<path d="M17 13C17.5523 13 18 12.5523 18 12C18 11.4477 17.5523 11 17 11C16.4477 11 16 11.4477 16 12C16 12.5523 16.4477 13 17 13Z" fill="#323232"/>
<path d="M15 10C15.5523 10 16 9.55228 16 9C16 8.44772 15.5523 8 15 8C14.4477 8 14 8.44772 14 9C14 9.55228 14.4477 10 15 10Z" fill="#323232"/>
</svg>
