<svg width="24" height="24" viewBox="0 0 24 24" fill="none" xmlns="http://www.w3.org/2000/svg">
<path d="M6 4.00977C3.58 5.83977 2 8.72977 2 11.9998C2 13.4598 2.32 14.8498 2.89 16.1098L6 14.3098V4.00977Z" fill="#323232"/>
<path d="M11 11.4198V2.0498C9.94 2.1598 8.93 2.4298 8 2.8398V13.1598L11 11.4198Z" fill="#323232"/>
<path d="M11.9999 13.1494L3.88989 17.8294C4.49989 18.6694 5.22989 19.4194 6.06989 20.0294L14.9999 14.8894L11.9999 13.1494Z" fill="#323232"/>
<path d="M13 7.95996V11.42L21.11 16.1C21.53 15.17 21.81 14.17 21.93 13.12L13 7.95996Z" fill="#323232"/>
<path d="M8.07007 21.2C9.28007 21.71 10.6001 22 12.0001 22C15.3401 22 18.2901 20.35 20.1101 17.84L17.0001 16.04L8.07007 21.2Z" fill="#323232"/>
<path d="M21.92 10.8098C21.37 6.1798 17.66 2.5098 13 2.0498V5.6498L21.92 10.8098Z" fill="#323232"/>
</svg>
