<svg width="24" height="24" viewBox="0 0 24 24" fill="none" xmlns="http://www.w3.org/2000/svg">
<path d="M7.52005 21.48C4.25005 19.94 1.91005 16.76 1.55005 13H0.0500488C0.560049 19.16 5.71005 24 12 24L12.66 23.97L8.85005 20.16L7.52005 21.48ZM8.41005 14.96C8.22005 14.96 8.04005 14.93 7.89005 14.88C7.73005 14.82 7.60005 14.75 7.49005 14.64C7.38005 14.54 7.29005 14.42 7.23005 14.27C7.17005 14.13 7.14005 13.97 7.14005 13.8H5.84005C5.84005 14.16 5.91005 14.48 6.05005 14.75C6.19005 15.02 6.38005 15.25 6.61005 15.44C6.85005 15.62 7.12005 15.76 7.43005 15.85C7.73005 15.95 8.05005 16 8.39005 16C8.76005 16 9.11005 15.95 9.42005 15.85C9.74005 15.75 10.02 15.6 10.25 15.41C10.48 15.22 10.67 14.98 10.8 14.69C10.93 14.4 11 14.08 11 13.72C11 13.53 10.98 13.34 10.93 13.16C10.88 12.98 10.81 12.81 10.7 12.65C10.6 12.49 10.46 12.35 10.3 12.22C10.13 12.09 9.93005 11.99 9.69005 11.91C9.89005 11.82 10.06 11.71 10.21 11.58C10.36 11.45 10.48 11.31 10.58 11.16C10.68 11.01 10.75 10.86 10.8 10.7C10.85 10.54 10.87 10.38 10.87 10.22C10.87 9.86 10.81 9.54 10.69 9.26C10.57 8.98 10.4 8.75 10.18 8.57C9.98005 8.38 9.71005 8.24 9.41005 8.14C9.10005 8.05 8.76005 8 8.39005 8C8.03005 8 7.70005 8.05 7.39005 8.16C7.09005 8.27 6.82005 8.42 6.60005 8.61C6.39005 8.8 6.22005 9.02 6.09005 9.28C5.97005 9.54 5.91005 9.82 5.91005 10.13H7.21005C7.21005 9.96 7.24005 9.81 7.30005 9.68C7.36005 9.55 7.44005 9.43 7.55005 9.34C7.66005 9.25 7.78005 9.17 7.93005 9.12C8.08005 9.07 8.23005 9.04 8.41005 9.04C8.81005 9.04 9.11005 9.14 9.30005 9.35C9.49005 9.55 9.59005 9.84 9.59005 10.21C9.59005 10.39 9.56005 10.55 9.51005 10.7C9.46005 10.85 9.37005 10.97 9.26005 11.07C9.15005 11.17 9.01005 11.25 8.85005 11.31C8.69005 11.37 8.49005 11.4 8.27005 11.4H7.50005V12.43H8.27005C8.49005 12.43 8.69005 12.45 8.87005 12.5C9.05005 12.55 9.20005 12.63 9.32005 12.73C9.44005 12.84 9.54005 12.97 9.61005 13.13C9.68005 13.29 9.71005 13.48 9.71005 13.7C9.71005 14.11 9.59005 14.42 9.36005 14.63C9.13005 14.86 8.81005 14.96 8.41005 14.96V14.96ZM16.96 9.04C16.64 8.71 16.26 8.45 15.82 8.27C15.39 8.09 14.9 8 14.36 8H12V16H14.3C14.85 16 15.36 15.91 15.81 15.73C16.26 15.55 16.65 15.3 16.97 14.97C17.29 14.64 17.54 14.24 17.71 13.78C17.88 13.31 17.97 12.79 17.97 12.21V11.81C17.97 11.23 17.88 10.71 17.71 10.24C17.53 9.77 17.28 9.37 16.96 9.04V9.04ZM16.57 12.2C16.57 12.62 16.52 12.99 16.43 13.33C16.33 13.66 16.19 13.95 16 14.18C15.81 14.41 15.57 14.59 15.29 14.71C15 14.83 14.67 14.89 14.3 14.89H13.39V9.12H14.36C15.08 9.12 15.63 9.35 16 9.81C16.38 10.27 16.57 10.93 16.57 11.8V12.2V12.2ZM12 0L11.34 0.03L15.15 3.84L16.48 2.51C19.75 4.06 22.0901 7.23 22.4401 10.99H23.9401C23.4401 4.84 18.29 0 12 0Z" fill="#323232"/>
</svg>
