<svg width="24" height="24" viewBox="0 0 24 24" fill="none" xmlns="http://www.w3.org/2000/svg">
<path d="M10.04 6.28957C10.66 6.10957 11.32 5.99957 12 5.99957C15.86 5.99957 19 9.13957 19 12.9996C19 13.6796 18.89 14.3396 18.71 14.9596L20.27 16.5196C20.74 15.4396 21 14.2496 21 12.9996C21 8.02957 16.97 3.99957 12 3.99957C10.75 3.99957 9.55999 4.25957 8.46999 4.71957L10.04 6.28957ZM17.337 1.80957L21.944 5.65457L20.664 7.18957L16.054 3.34657L17.337 1.80957ZM3.01999 2.09957L1.60999 3.50957L2.97999 4.87957L2.05999 5.64957L3.33999 7.18957L4.39999 6.30957L5.19999 7.10957C3.82999 8.68957 2.99999 10.7496 2.99999 12.9996C2.99999 17.9696 7.02999 21.9996 12 21.9996C14.25 21.9996 16.31 21.1696 17.89 19.7996L19.99 21.8996L21.4 20.4896L3.01999 2.09957ZM12 19.9996C8.13999 19.9996 4.99999 16.8596 4.99999 12.9996C4.99999 11.2996 5.60999 9.73957 6.61999 8.52957L16.47 18.3796C15.26 19.3896 13.7 19.9996 12 19.9996ZM7.47999 3.72957L7.93999 3.34957L6.65999 1.80957L6.05999 2.30957L7.47999 3.72957Z" fill="#323232"/>
</svg>
