<svg width="20" height="13" viewBox="0 0 20 13" fill="none" xmlns="http://www.w3.org/2000/svg">
<path d="M1.3021 4.40039L0 4.63647V9.73353L1.3021 9.96961V4.40039Z" fill="#B41D8D"/>
<path d="M19.7826 4.63647L18.4805 4.40039V9.97348L19.7826 9.7374V4.63647Z" fill="#B41D8D"/>
<path d="M13.5695 1.42423L13.0441 0H6.73837L6.21289 1.42423H13.5695Z" fill="#B41D8D"/>
<path d="M11.5801 6.83872C11.7385 6.83872 11.893 6.83872 11.9935 6.83872C12.2331 6.83872 12.4417 6.65295 12.4417 6.44395C12.4417 6.23496 12.2331 6.04919 11.9935 6.04919H11.5801C11.5801 6.20787 11.5801 6.68778 11.5801 6.83872Z" fill="#B41D8D"/>
<path d="M17.3211 4.35788C15.9997 3.17359 14.288 2.51953 12.5145 2.51953H7.26749C5.49401 2.51953 3.78235 3.17359 2.46094 4.35788V10.4263C3.51189 12.0325 5.30082 13 7.22113 13H8.18708L9.89487 12.2647L11.6027 13H12.5686C14.4851 13 16.274 12.0325 17.3288 10.4263V4.35788H17.3211ZM8.22185 9.78777H7.20954L5.63311 5.21319L6.73043 4.83391L7.70797 7.66303L8.643 4.84165L9.74418 5.20932L8.22185 9.78777ZM12.8198 9.86904L11.5756 8.45255V9.64457H10.4165V4.88809H11.9929C12.8816 4.88809 13.6002 5.58473 13.6002 6.44391C13.6002 7.09024 13.1907 7.64368 12.6111 7.87976L13.6891 9.10274L12.8198 9.86904Z" fill="#B41D8D"/>
</svg>
