<svg width="21" height="13" viewBox="0 0 21 13" fill="none" xmlns="http://www.w3.org/2000/svg">
<path d="M18.207 0H2.79297C1.52734 0 0.5 1.00176 0.5 2.23586V10.7679C0.5 12.0021 1.52734 13.0038 2.79297 13.0038H18.2109C19.4766 13.0038 20.5039 12.0021 20.5039 10.7679V2.23586C20.5 1.00176 19.4727 0 18.207 0ZM7.16797 9.14152C7.16797 9.47671 6.88672 9.75095 6.54297 9.75095C6.19922 9.75095 5.91797 9.47671 5.91797 9.14152V7.51509H4.25V9.14152C4.25 9.47671 3.96875 9.75095 3.625 9.75095C3.28125 9.75095 3 9.47671 3 9.14152V5.28304C3 4.1632 3.93359 3.25286 5.08203 3.25286C6.23047 3.25286 7.16406 4.1632 7.16406 5.28304V9.14152H7.16797ZM11.543 4.46792H10.7109V9.14152C10.7109 9.47671 10.4297 9.75095 10.0859 9.75095C9.74219 9.75095 9.46094 9.47671 9.46094 9.14152V4.46792H8.625C8.28125 4.46792 8 4.19367 8 3.85848C8 3.52329 8.28125 3.24905 8.625 3.24905H11.543C11.8867 3.24905 12.168 3.52329 12.168 3.85848C12.168 4.19367 11.8867 4.46792 11.543 4.46792ZM18 9.14152C18 9.47671 17.7188 9.75095 17.375 9.75095C17.0312 9.75095 16.75 9.47671 16.75 9.14152V6.15529L16.25 7.0085C16.0273 7.38939 15.3867 7.38939 15.1641 7.0085L14.6641 6.15529V9.14152C14.6641 9.47671 14.3828 9.75095 14.0391 9.75095C13.6953 9.75095 13.4141 9.47671 13.4141 9.14152V3.85848C13.4141 3.58043 13.6055 3.34046 13.8789 3.26809C14.1523 3.19953 14.4414 3.3138 14.582 3.55377L15.707 5.46968L16.832 3.55377C16.9727 3.3138 17.2617 3.19572 17.5352 3.26809C17.8086 3.34046 18 3.58043 18 3.85848V9.14152Z" fill="#2F80ED"/>
</svg>
