<svg width="17" height="20" viewBox="0 0 17 20" fill="none" xmlns="http://www.w3.org/2000/svg">
<path d="M5.66667 8.62861H3.77778V10.5286H5.66667V8.62861ZM9.44444 8.62861H7.55556V10.5286H9.44444V8.62861ZM13.2222 8.62861H11.3333V10.5286H13.2222V8.62861ZM15.1111 1.97861H14.1667V0.0786133H12.2778V1.97861H4.72222V0.0786133H2.83333V1.97861H1.88889C0.85 1.97861 0 2.83361 0 3.87861V17.1786C0 18.2236 0.85 19.0786 1.88889 19.0786H15.1111C16.15 19.0786 17 18.2236 17 17.1786V3.87861C17 2.83361 16.15 1.97861 15.1111 1.97861ZM15.1111 17.1786H1.88889V6.72861H15.1111V17.1786Z" fill="#000"/>
</svg>
