<svg width="135" height="52" viewBox="0 0 135 52" fill="none" xmlns="http://www.w3.org/2000/svg">
<g clip-path="url(#clip0_2593_44279)">
<path d="M42.4491 27.7372C41.1497 27.7372 39.9657 27.5056 38.8395 27.0134C37.7133 26.5212 36.7315 25.8842 35.9229 25.0446C35.0855 24.2049 34.4213 23.2495 33.9304 22.1493C33.4395 21.049 33.2085 19.8619 33.2085 18.588V0.926536H37.5112V18.5301C37.5112 19.225 37.6267 19.8619 37.8866 20.47C38.1465 21.078 38.493 21.5991 38.9261 22.0334C39.3882 22.4677 39.908 22.8152 40.4855 23.0758C41.0919 23.3363 41.7272 23.4521 42.4203 23.4521C43.0844 23.4521 43.7197 23.3363 44.3261 23.0758C44.9326 22.8152 45.4523 22.4677 45.8855 22.0334C46.3187 21.5991 46.6652 21.078 46.9251 20.47C47.185 19.8619 47.3294 19.225 47.3294 18.5301V0.897583H51.632V18.559C51.632 19.833 51.401 21.0201 50.9101 22.1203C50.4192 23.2205 49.755 24.2049 48.9176 25.0156C48.0802 25.8553 47.0983 26.4922 46.001 26.9844C44.9037 27.4766 43.7197 27.7372 42.4491 27.7372Z" fill="white"/>
<path d="M74.0695 4.51672H67.1968V27.4477H62.8941V4.51672H56.0503V0.608032H74.0695V4.51672Z" fill="white"/>
<path d="M89.2588 27.4187C87.3529 27.4187 85.5625 27.0712 83.8877 26.3474C82.2128 25.6236 80.7401 24.6392 79.4983 23.4231C78.2566 22.1782 77.2748 20.7305 76.5529 19.0512C75.831 17.3719 75.4556 15.6058 75.4556 13.6949C75.4556 11.7839 75.831 10.0467 76.5529 8.36746C77.2748 6.71713 78.2566 5.24051 79.4983 4.02448C80.7401 2.77949 82.2128 1.79508 83.8877 1.1002C85.5625 0.376369 87.3818 0.0289307 89.2588 0.0289307C91.1647 0.0289307 92.955 0.376369 94.6299 1.1002C96.3048 1.82403 97.7775 2.80844 99.0192 4.02448C100.261 5.26946 101.243 6.71713 101.965 8.36746C102.687 10.0178 103.062 11.8129 103.062 13.6949C103.062 15.5768 102.687 17.3719 101.965 19.0512C101.243 20.7305 100.261 22.1782 99.0192 23.4231C97.7775 24.6681 96.3048 25.6525 94.6299 26.3474C92.9262 27.0712 91.1358 27.4187 89.2588 27.4187ZM89.2588 4.28506C87.9304 4.28506 86.6887 4.54563 85.5336 5.03784C84.3786 5.53004 83.3679 6.19597 82.5304 7.06457C81.6641 7.90421 80.9999 8.91757 80.509 10.0467C80.0181 11.2049 79.7582 12.4209 79.7582 13.6949C79.7582 15.0267 80.0181 16.2427 80.509 17.4009C80.9999 18.559 81.693 19.5434 82.5304 20.3831C83.3967 21.2227 84.3786 21.9176 85.5336 22.4098C86.6887 22.902 87.9304 23.1626 89.2588 23.1626C90.5582 23.1626 91.7999 22.902 92.955 22.4098C94.1101 21.9176 95.1208 21.2516 95.9582 20.3831C96.8245 19.5434 97.4887 18.53 97.9796 17.4009C98.4705 16.2717 98.7304 15.0267 98.7304 13.6949C98.7304 12.392 98.4705 11.1759 97.9796 10.0467C97.4887 8.88862 96.7957 7.90421 95.9582 7.06457C95.0919 6.22492 94.1101 5.53004 92.955 5.03784C91.7711 4.51668 90.5582 4.28506 89.2588 4.28506Z" fill="white"/>
<path d="M116.519 27.7372C115.364 27.7372 114.295 27.5346 113.256 27.1003C112.216 26.666 111.321 26.058 110.541 25.2183C109.761 24.4076 109.155 23.5101 108.751 22.4677C108.346 21.4544 108.115 20.3542 108.115 19.225H112.505C112.505 19.8041 112.62 20.3542 112.822 20.8753C113.025 21.3965 113.313 21.8308 113.689 22.1782C114.035 22.5546 114.468 22.8441 114.959 23.0468C115.45 23.2495 115.97 23.3653 116.548 23.3653C116.923 23.3653 117.356 23.3074 117.818 23.2205C118.28 23.1337 118.713 22.96 119.146 22.6994C119.551 22.4388 119.926 22.0914 120.186 21.6571C120.475 21.2228 120.619 20.6437 120.619 19.9199C120.619 19.7172 120.59 19.4566 120.561 19.1092C120.533 18.7617 120.359 18.3564 120.071 17.8931C119.782 17.4588 119.291 16.9666 118.627 16.4455C117.963 15.9243 117.01 15.4032 115.768 14.882C115.046 14.5635 114.324 14.2161 113.544 13.7818C112.765 13.3475 112.072 12.8553 111.407 12.2473C110.743 11.6682 110.195 10.9733 109.761 10.1626C109.328 9.35193 109.097 8.45439 109.068 7.41207C109.04 6.48557 109.213 5.61697 109.53 4.74837C109.877 3.90873 110.368 3.15594 111.032 2.49002C111.725 1.79514 112.534 1.24503 113.487 0.839685C114.44 0.463293 115.45 0.26062 116.519 0.26062C117.529 0.26062 118.511 0.463293 119.435 0.839685C120.359 1.21608 121.139 1.76619 121.803 2.43211C122.467 3.09804 122.987 3.87977 123.391 4.77732C123.796 5.67487 123.969 6.63033 123.969 7.64369H119.551C119.551 7.2094 119.464 6.833 119.32 6.45661C119.175 6.08022 118.944 5.76173 118.656 5.50116C118.367 5.24058 118.049 5.00895 117.674 4.83523C117.298 4.66151 116.894 4.57465 116.49 4.57465C115.508 4.57465 114.728 4.86418 114.18 5.4722C113.775 5.81964 113.573 6.42766 113.573 7.2673C113.573 7.41207 113.602 7.58579 113.631 7.81741C113.66 8.04904 113.804 8.30962 114.035 8.6281C114.266 8.94659 114.642 9.29403 115.161 9.67042C115.681 10.0468 116.432 10.4522 117.414 10.9154C118.887 11.5813 120.128 12.2183 121.11 12.8842C122.092 13.5212 122.901 14.2161 123.507 14.911C124.113 15.6058 124.547 16.3876 124.806 17.1983C125.066 18.009 125.211 18.9065 125.211 19.862C125.211 20.6437 125.124 21.3386 124.951 21.9755C124.778 22.6125 124.546 23.1626 124.287 23.6259C124.027 24.1181 123.709 24.5234 123.391 24.8998C123.074 25.2762 122.756 25.5657 122.438 25.7974C120.879 27.1003 118.915 27.7372 116.519 27.7372Z" fill="white"/>
<path d="M134.682 0.608032H130.38V27.4187H134.682V0.608032Z" fill="white"/>
<path d="M5.11123 8.45435L0 27.4477H4.41818L7.88342 15.4321L5.11123 8.45435Z" fill="white"/>
<path d="M24.6321 8.54126L21.8888 15.519L25.3252 27.4477H29.7433L24.6321 8.54126Z" fill="white"/>
<path d="M21.1957 13.1158L23.9968 6.08015L22.3508 0.0289307L14.8716 18.1826L7.3925 0.0289307L5.77539 5.9933L8.54758 13.0289L14.8716 28.6058L21.1668 13.0289L21.1957 13.1158Z" fill="white"/>
<path d="M9.09623 48.1783C9.09623 48.2941 9.0096 48.352 8.86521 48.352H7.42136C7.2481 48.352 7.10371 48.2941 7.01708 48.1783L1.79034 41.8085V48.0045C1.79034 48.1203 1.76147 48.2072 1.70371 48.2651C1.61708 48.323 1.55933 48.352 1.44382 48.352H0.433126C0.346495 48.352 0.259864 48.323 0.20211 48.2362C0.144356 48.1783 0.115479 48.0914 0.115479 47.9756V34.8887C0.115479 34.8019 0.144356 34.715 0.230987 34.6281C0.317618 34.5413 0.375372 34.5123 0.49088 34.5123H1.4727C1.55933 34.5123 1.64596 34.5413 1.73259 34.5992C1.79034 34.6571 1.8481 34.744 1.8481 34.8598V40.882L7.19035 34.6861C7.30585 34.5702 7.42136 34.5123 7.56575 34.5123H8.89409C9.06735 34.5123 9.15398 34.5702 9.15398 34.715C9.15398 34.8019 9.1251 34.8598 9.06735 34.8887L3.49409 41.2295L9.06735 47.9177C9.06735 48.0045 9.09623 48.0624 9.09623 48.1783Z" fill="white"/>
<path d="M12.6193 36.1047C12.6193 36.2205 12.5904 36.3074 12.5038 36.3653C12.4171 36.4232 12.3305 36.4811 12.2439 36.4811H11.2909C11.1754 36.4811 11.0888 36.4522 11.031 36.3653C10.9444 36.2784 10.9155 36.1916 10.9155 36.1047V34.6281C10.9155 34.5123 10.9444 34.4254 11.031 34.3675C11.1177 34.3096 11.1754 34.2517 11.2909 34.2517H12.2439C12.3594 34.2517 12.446 34.2807 12.5038 34.3386C12.5615 34.3965 12.5904 34.4833 12.5904 34.5991V36.1047H12.6193ZM12.5615 47.9755C12.5615 48.0913 12.5326 48.1782 12.446 48.2361C12.3594 48.294 12.2727 48.3519 12.1861 48.3519H11.2909C11.2043 48.3519 11.1177 48.323 11.031 48.2361C10.9444 48.1493 10.9155 48.0624 10.9155 47.9755V38.5078C10.9155 38.392 10.9444 38.3052 11.031 38.2473C11.1177 38.1893 11.2043 38.1314 11.2909 38.1314H12.1861C12.3016 38.1314 12.3883 38.1604 12.446 38.2183C12.5038 38.2762 12.5326 38.3631 12.5326 38.4789V47.9755H12.5615Z" fill="white"/>
<path d="M18.7411 47.049C19.1454 47.049 19.5497 47.0201 19.954 46.9332C20.3582 46.8464 20.7336 46.7595 21.109 46.6147C21.4844 46.4989 21.8021 46.3831 22.0331 46.2962C22.1775 46.2383 22.2641 46.2383 22.3507 46.2962C22.4374 46.3541 22.4663 46.441 22.4663 46.5568V47.3096C22.4663 47.4254 22.3796 47.5412 22.2064 47.657C21.1379 48.2361 19.9828 48.4967 18.77 48.4967C17.9903 48.4967 17.2973 48.3519 16.662 48.0913C16.0267 47.8018 15.5358 47.3386 15.1315 46.6726C14.7561 46.0067 14.554 45.1381 14.554 44.0379V42.3586C14.554 41.0268 14.9005 39.9555 15.6224 39.1737C16.3443 38.392 17.355 38.0156 18.6545 38.0156C19.5208 38.0156 20.2716 38.1893 20.878 38.5368C21.4844 38.8842 21.9465 39.4054 22.2641 40.0713C22.5818 40.7372 22.7261 41.49 22.7261 42.3586V43.372C22.7261 43.6325 22.6106 43.7773 22.3796 43.7773H16.1422V44.0379C16.1422 45.1092 16.3443 45.8909 16.7775 46.3541C17.2106 46.8174 17.8459 47.049 18.7411 47.049ZM21.7443 36.9154C21.7443 37.0023 21.6866 37.0312 21.5711 37.0312H20.6181C20.5315 37.0312 20.4737 37.0023 20.416 36.9733C20.3871 36.9443 20.3005 36.8575 20.185 36.7417L18.6545 34.9466L17.124 36.7417C17.0085 36.8575 16.9507 36.9443 16.893 36.9733C16.8352 37.0023 16.7775 37.0312 16.6909 37.0312H15.709C15.5935 37.0312 15.5358 37.0023 15.5358 36.9154C15.5358 36.8285 15.5646 36.7706 15.6224 36.7127L17.4128 34.3965C17.4994 34.2807 17.586 34.1938 17.6438 34.1648C17.7015 34.1359 17.7593 34.1069 17.8748 34.1069H19.463C19.6074 34.1069 19.7807 34.1938 19.9251 34.3675L21.6866 36.6838C21.7155 36.7706 21.7443 36.8285 21.7443 36.9154ZM21.0802 42.5034V42.3296C21.0802 41.6348 20.9935 41.0847 20.8203 40.6504C20.647 40.2161 20.3871 39.8976 20.0117 39.6949C19.6652 39.4922 19.2032 39.4054 18.6545 39.4054C17.0085 39.4054 16.1711 40.3898 16.1711 42.3296V42.5034H21.0802ZM24.2855 31.9065C24.2855 31.9644 24.2566 31.9933 24.1989 32.0513L22.0909 34.3965C21.9753 34.5123 21.9176 34.5991 21.8598 34.6281C21.831 34.657 21.7443 34.686 21.6577 34.686H20.647C20.5315 34.686 20.4737 34.657 20.4737 34.5702C20.4737 34.4833 20.5026 34.4254 20.5604 34.3675L22.3796 32.0513C22.4663 31.9354 22.5529 31.8486 22.6106 31.8196C22.6684 31.7907 22.7261 31.7617 22.8417 31.7617H24.0545C24.1989 31.7617 24.2855 31.8196 24.2855 31.9065Z" fill="white"/>
<path d="M32.3133 41.8664V47.9756C32.3133 48.0914 32.2845 48.1782 32.1978 48.2361C32.1112 48.323 32.0246 48.352 31.9379 48.352H31.0428C30.9272 48.352 30.8406 48.323 30.7829 48.2361C30.6962 48.1493 30.6673 48.0624 30.6673 47.9756V41.8664C30.6673 41.2584 30.5807 40.7662 30.4363 40.3898C30.2919 40.0134 30.0609 39.7528 29.7433 39.6081C29.4256 39.4633 29.0214 39.3765 28.5016 39.3765C27.7508 39.3765 26.9422 39.4923 26.1048 39.7239V47.9756C26.1048 48.0624 26.0759 48.1493 25.9893 48.2361C25.9026 48.323 25.816 48.352 25.7294 48.352H24.8342C24.7476 48.352 24.6609 48.323 24.6032 48.2361C24.5165 48.1493 24.4877 48.0624 24.4877 47.9756V39.0001C24.4877 38.7684 24.6032 38.6237 24.8342 38.5658C26.3358 38.1894 27.6064 37.9867 28.6748 37.9867C29.3679 37.9867 29.9454 38.0736 30.4363 38.2473C30.9272 38.421 31.3026 38.6816 31.5625 39.0001C31.8224 39.3185 32.0246 39.7239 32.1401 40.1871C32.2556 40.6504 32.3133 41.2295 32.3133 41.8664Z" fill="white"/>
<path d="M44.4995 48.0624C44.4995 48.2362 44.3839 48.352 44.1529 48.3809C43.7486 48.4388 43.3444 48.4678 42.9401 48.4678C42.0449 48.4678 41.3807 48.2941 41.0053 47.9466C40.6299 47.5992 40.4278 46.9333 40.4278 45.9778V39.4923L38.6374 39.2896C38.4064 39.2607 38.2909 39.1738 38.2909 38.9422V38.421C38.2909 38.1894 38.4064 38.1025 38.6374 38.1025H40.4278V36.2785C40.4278 36.0758 40.5433 35.96 40.7454 35.9021L41.7273 35.7573H41.785C41.8716 35.7573 41.9294 35.7863 41.9871 35.8442C42.0449 35.9021 42.0738 35.9889 42.0738 36.0758V38.1025H44.0663C44.1818 38.1025 44.2684 38.1315 44.3262 38.2183C44.3839 38.3052 44.4417 38.3921 44.4417 38.4789V39.1159C44.4417 39.2317 44.4128 39.3186 44.3262 39.3765C44.2396 39.4633 44.1529 39.4923 44.0663 39.4923H42.0738V45.9778C42.0738 46.47 42.1315 46.7885 42.2759 46.9333C42.4203 47.078 42.6802 47.1359 43.0556 47.1359H44.0952C44.3551 47.1359 44.4706 47.2228 44.4706 47.3965V48.0624H44.4995Z" fill="white"/>
<path d="M53.0759 47.628C53.0759 47.8597 52.9893 48.0044 52.7871 48.0334C52.2962 48.1782 51.8053 48.265 51.3144 48.3519C50.8235 48.4387 50.2748 48.4677 49.6395 48.4677C48.1957 48.4677 47.1561 48.2361 46.5208 47.7439C45.8855 47.2517 45.5679 46.4699 45.5679 45.3986V45.2249C45.5679 44.53 45.7123 43.951 46.001 43.5167C46.2898 43.0824 46.7807 42.7349 47.416 42.5323C48.0802 42.3296 48.9465 42.2138 50.0149 42.2138H51.401V41.461C51.401 40.6793 51.2566 40.1581 50.9679 39.8396C50.6791 39.5501 50.1593 39.3764 49.4374 39.3764C48.8887 39.3764 48.3978 39.4053 47.9935 39.4922C47.5893 39.579 47.1272 39.6949 46.6074 39.8396C46.4919 39.8686 46.3764 39.8686 46.2898 39.8396C46.2032 39.7817 46.1743 39.7238 46.1743 39.608V38.8842C46.1743 38.7394 46.2609 38.6236 46.4342 38.5367C46.723 38.4209 47.1272 38.2761 47.7048 38.1314C48.2534 37.9866 48.831 37.9287 49.4374 37.9287C51.8342 37.9287 53.047 39.0868 53.047 41.4321V47.628H53.0759ZM51.4299 47.02V43.4298H50.0438C49.4663 43.4298 49.0042 43.4588 48.6288 43.5167C48.2823 43.5746 47.9935 43.6904 47.7914 43.8352C47.5893 43.9799 47.4449 44.1537 47.3582 44.3853C47.2716 44.6169 47.2139 44.8775 47.2139 45.2249V45.3986C47.2139 45.8329 47.2716 46.1804 47.416 46.441C47.5604 46.7015 47.7914 46.9042 48.1379 47.02C48.4844 47.1358 48.9754 47.1937 49.6107 47.1937C49.8705 47.1937 50.1016 47.1937 50.3326 47.1648C50.5636 47.1358 50.7657 47.1358 50.939 47.1069C51.1123 47.0779 51.3144 47.049 51.4299 47.02ZM50.0727 51.0156C50.0727 51.1314 50.0438 51.1893 49.9572 51.2762C49.8705 51.3341 49.7839 51.363 49.6973 51.363H48.9754C48.8887 51.363 48.8021 51.3341 48.7155 51.2762C48.6288 51.2182 48.6 51.1314 48.6 51.0156V49.51C48.6 49.4231 48.6288 49.3363 48.7155 49.2494C48.8021 49.1626 48.8887 49.1336 48.9754 49.1336H49.6973C49.8128 49.1336 49.8994 49.1626 49.9572 49.2494C50.0438 49.3363 50.0727 49.4231 50.0727 49.51V51.0156Z" fill="white"/>
<path d="M63.0962 43.9511C63.0962 45.3408 62.7497 46.441 62.0278 47.2517C61.3058 48.0624 60.2951 48.4678 58.9668 48.4678C57.6385 48.4678 56.6278 48.0624 55.9059 47.2517C55.1839 46.441 54.8374 45.3408 54.8374 43.9511V42.5324C54.8374 41.1426 55.1839 40.0424 55.9059 39.2027C56.6278 38.392 57.6385 37.9867 58.9668 37.9867C60.2951 37.9867 61.3347 38.392 62.0278 39.2027C62.7497 40.0134 63.0962 41.1136 63.0962 42.5324V43.9511ZM61.4502 43.9511V42.5324C61.4502 41.8954 61.3636 41.3163 61.1903 40.8531C61.0171 40.3898 60.7283 40.0424 60.3529 39.7818C59.9775 39.5212 59.5155 39.4054 58.9379 39.4054C58.1005 39.4054 57.4652 39.666 57.0609 40.2161C56.6567 40.7662 56.4545 41.519 56.4545 42.5034V43.9221C56.4545 45.9778 57.2919 47.0201 58.9379 47.0201C59.7754 47.0201 60.4107 46.7595 60.8149 46.2094C61.2481 45.7172 61.4502 44.9355 61.4502 43.9511Z" fill="white"/>
<path d="M74.9936 48.0624C74.9936 48.2362 74.8781 48.352 74.6471 48.3809C74.2428 48.4388 73.8385 48.4678 73.4342 48.4678C72.539 48.4678 71.8749 48.2941 71.4995 47.9466C71.1241 47.5992 70.9219 46.9333 70.9219 45.9778V39.4923L69.1316 39.2896C68.9005 39.2607 68.785 39.1738 68.785 38.9422V38.421C68.785 38.1894 68.9005 38.1025 69.1316 38.1025H70.9219V36.2785C70.9219 36.0758 71.0374 35.96 71.2396 35.9021L72.2214 35.7573H72.2791C72.3658 35.7573 72.4235 35.7863 72.4813 35.8442C72.539 35.9021 72.5679 35.9889 72.5679 36.0758V38.1025H74.5604C74.6759 38.1025 74.7626 38.1315 74.8203 38.2183C74.8781 38.3052 74.9358 38.3921 74.9358 38.4789V39.1159C74.9358 39.2317 74.907 39.3186 74.8203 39.3765C74.7337 39.4633 74.6471 39.4923 74.5604 39.4923H72.5679V45.9778C72.5679 46.47 72.6257 46.7885 72.7701 46.9333C72.9144 47.078 73.1743 47.1359 73.5497 47.1359H74.5893C74.8492 47.1359 74.9647 47.2228 74.9647 47.3965V48.0624H74.9936Z" fill="white"/>
<path d="M76.3796 44.5881V38.5079C76.3796 38.3921 76.4085 38.3052 76.4951 38.2473C76.5818 38.1894 76.6395 38.1315 76.755 38.1315H77.6502C77.7657 38.1315 77.8524 38.1604 77.9101 38.2473C77.9679 38.3342 78.0256 38.421 78.0256 38.5079V44.5881C78.0256 45.5146 78.1989 46.1515 78.5165 46.5279C78.8631 46.9043 79.4117 47.078 80.1625 47.078C80.4513 47.078 80.8267 47.0491 81.3176 46.9912C81.8085 46.9333 82.2128 46.8464 82.5593 46.7596V38.5079C82.5593 38.421 82.5882 38.3342 82.6748 38.2473C82.7326 38.1604 82.8192 38.1315 82.9347 38.1315H83.8299C83.9454 38.1315 84.0032 38.1604 84.0898 38.2473C84.1476 38.3342 84.1764 38.421 84.1764 38.5079V47.4834C84.1764 47.715 84.0609 47.8598 83.8299 47.9177C82.3572 48.2941 81.0577 48.4967 79.9893 48.4967C79.0652 48.4967 78.3433 48.352 77.8235 48.0335C77.2748 47.744 76.8994 47.3097 76.6973 46.7306C76.4951 46.1515 76.3796 45.4567 76.3796 44.5881ZM85.8224 38.3052C86.0246 40.3898 85.2738 41.548 83.57 41.7506L83.4545 40.4767C84.1187 40.1872 84.4941 39.8108 84.4941 39.2896V38.3342C84.4941 38.1894 84.5807 38.1315 84.8117 38.1025H85.5625C85.7069 38.1315 85.7936 38.1894 85.8224 38.3052Z" fill="white"/>
<path d="M94.1968 43.9511C94.1968 45.3408 93.8503 46.441 93.1284 47.2517C92.4064 48.0624 91.3957 48.4678 90.0674 48.4678C88.7391 48.4678 87.7284 48.0624 87.0064 47.2517C86.2845 46.441 85.938 45.3408 85.938 43.9511V42.5324C85.938 41.1426 86.2845 40.0424 87.0064 39.2027C87.7284 38.392 88.7391 37.9867 90.0674 37.9867C91.3957 37.9867 92.4353 38.392 93.1284 39.2027C93.8503 40.0134 94.1968 41.1136 94.1968 42.5324V43.9511ZM92.5797 43.9511V42.5324C92.5797 41.8954 92.4931 41.3163 92.3198 40.8531C92.1465 40.3898 91.8578 40.0424 91.4824 39.7818C91.107 39.5212 90.6449 39.4054 90.0674 39.4054C89.23 39.4054 88.5947 39.666 88.1904 40.2161C87.7861 40.7662 87.584 41.519 87.584 42.5034V43.9221C87.584 45.9778 88.4214 47.0201 90.0674 47.0201C90.9048 47.0201 91.5401 46.7595 91.9444 46.2094C92.3487 45.7172 92.5797 44.9355 92.5797 43.9511ZM95.2364 38.3052C95.4385 40.3898 94.6877 41.5479 92.984 41.7506L92.8685 40.4767C93.5326 40.1871 93.908 39.8107 93.908 39.2896V38.3341C93.908 38.1894 93.9947 38.1315 94.2257 38.1025H94.9765C95.1209 38.1315 95.2075 38.1894 95.2364 38.3052Z" fill="white"/>
<path d="M103.784 41.8664V47.9756C103.784 48.0914 103.755 48.1782 103.668 48.2361C103.582 48.323 103.495 48.352 103.409 48.352H102.513C102.398 48.352 102.311 48.323 102.253 48.2361C102.167 48.1493 102.138 48.0624 102.138 47.9756V41.8664C102.138 41.2584 102.051 40.7662 101.907 40.3898C101.763 40.0134 101.532 39.7528 101.214 39.6081C100.896 39.4633 100.492 39.3765 99.9722 39.3765C99.2214 39.3765 98.4128 39.4923 97.5754 39.7239V47.9756C97.5754 48.0624 97.5465 48.1493 97.4599 48.2361C97.3732 48.323 97.2866 48.352 97.2 48.352H96.3048C96.2181 48.352 96.1315 48.323 96.0738 48.2361C95.9871 48.1493 95.9583 48.0624 95.9583 47.9756V39.0001C95.9583 38.7684 96.0738 38.6237 96.3048 38.5658C97.8064 38.1894 99.077 37.9867 100.145 37.9867C100.838 37.9867 101.416 38.0736 101.907 38.2473C102.398 38.421 102.773 38.6816 103.033 39.0001C103.293 39.3185 103.495 39.7239 103.611 40.1871C103.726 40.6504 103.784 41.2295 103.784 41.8664Z" fill="white"/>
<path d="M109.386 50.6682C109.992 50.6682 110.455 50.6103 110.801 50.4655C111.119 50.3497 111.379 50.1181 111.523 49.7706C111.667 49.4232 111.754 48.9599 111.754 48.323V48.2072C111.523 48.2651 111.176 48.323 110.743 48.3809C110.31 48.4388 109.964 48.4677 109.675 48.4677C106.903 48.4677 105.545 46.9332 105.545 43.8931V42.5613C105.545 41.519 105.69 40.6793 106.007 40.0134C106.296 39.3475 106.758 38.8263 107.394 38.5078C108 38.1893 108.78 38.0156 109.704 38.0156C110.686 38.0156 111.783 38.1604 113.025 38.4499C113.169 38.4789 113.284 38.5368 113.342 38.5947C113.4 38.6526 113.429 38.7395 113.429 38.8842V48.3519C113.429 49.6838 113.082 50.6392 112.418 51.1893C111.754 51.7395 110.743 52.029 109.444 52.029C108.809 52.029 108.202 51.9421 107.653 51.7974C107.105 51.6526 106.7 51.4789 106.412 51.3341C106.238 51.2183 106.152 51.0735 106.152 50.8998V50.2918C106.152 50.176 106.181 50.0891 106.267 50.0602C106.354 50.0312 106.441 50.0023 106.585 50.0602C107.22 50.2918 107.711 50.4655 108.058 50.5813C108.318 50.6392 108.809 50.6682 109.386 50.6682ZM111.754 46.9043V39.5791C111.032 39.4343 110.339 39.3764 109.675 39.3764C109.213 39.3764 108.837 39.4343 108.491 39.5501C108.173 39.666 107.913 39.8686 107.711 40.1003C107.509 40.3319 107.365 40.6793 107.278 41.0847C107.191 41.49 107.134 41.9822 107.134 42.5323V43.8931C107.134 44.6749 107.22 45.3118 107.422 45.7751C107.596 46.2383 107.884 46.5858 108.26 46.7885C108.635 46.9911 109.097 47.1069 109.675 47.1069C109.964 47.1069 110.31 47.078 110.714 47.049C111.119 47.0201 111.465 46.9622 111.754 46.9043Z" fill="white"/>
<path d="M121.774 47.9756C121.774 48.0914 121.745 48.1782 121.688 48.2361C121.63 48.2941 121.543 48.352 121.457 48.352H120.504C120.417 48.352 120.33 48.323 120.273 48.2361C120.215 48.1782 120.186 48.0914 120.186 47.9756V34.715C120.186 34.6281 120.215 34.5413 120.273 34.4834C120.33 34.3965 120.417 34.3676 120.533 34.3676H121.485C121.601 34.3676 121.659 34.3965 121.717 34.4544C121.774 34.5123 121.803 34.5992 121.803 34.715V47.9756H121.774Z" fill="white"/>
<path d="M131.13 47.628C131.13 47.8597 131.044 48.0044 130.842 48.0334C130.351 48.1782 129.86 48.265 129.369 48.3519C128.878 48.4387 128.329 48.4677 127.694 48.4677C126.25 48.4677 125.211 48.2361 124.575 47.7439C123.94 47.2516 123.622 46.4699 123.622 45.3986V45.2249C123.622 44.53 123.767 43.951 124.056 43.5167C124.344 43.0824 124.835 42.7349 125.471 42.5323C126.135 42.3296 127.001 42.2138 128.069 42.2138H129.456V41.461C129.456 40.6793 129.311 40.1581 129.022 39.8396C128.734 39.5211 128.214 39.3764 127.492 39.3764C126.943 39.3764 126.452 39.4053 126.048 39.4922C125.644 39.579 125.182 39.6949 124.662 39.8396C124.547 39.8686 124.431 39.8686 124.344 39.8396C124.258 39.7817 124.229 39.7238 124.229 39.608V38.8842C124.229 38.7394 124.315 38.6236 124.489 38.5367C124.778 38.4209 125.182 38.2761 125.759 38.1314C126.337 37.9866 126.886 37.9287 127.492 37.9287C129.889 37.9287 131.102 39.0868 131.102 41.4321V47.628H131.13ZM129.513 47.02V43.4298H128.127C127.55 43.4298 127.088 43.4588 126.712 43.5167C126.366 43.5746 126.077 43.6904 125.875 43.8352C125.673 43.9799 125.528 44.1537 125.442 44.3853C125.355 44.6169 125.297 44.8775 125.297 45.2249V45.3986C125.297 45.8329 125.355 46.1804 125.499 46.441C125.644 46.7015 125.875 46.9042 126.221 47.02C126.568 47.1358 127.059 47.1937 127.694 47.1937C127.954 47.1937 128.185 47.1937 128.416 47.1648C128.647 47.1358 128.849 47.1358 129.022 47.1069C129.196 47.0779 129.398 47.049 129.513 47.02Z" fill="white"/>
<path d="M135 36.1047C135 36.2205 134.971 36.3074 134.884 36.3653C134.798 36.4232 134.711 36.4811 134.625 36.4811H133.7C133.585 36.4811 133.498 36.4522 133.441 36.3653C133.383 36.2784 133.325 36.1916 133.325 36.1047V34.6281C133.325 34.5123 133.354 34.4254 133.441 34.3675C133.498 34.2807 133.585 34.2517 133.7 34.2517H134.653C134.769 34.2517 134.856 34.2807 134.913 34.3386C134.971 34.3965 135 34.4833 135 34.5991V36.1047ZM134.971 47.9755C134.971 48.0913 134.942 48.1782 134.856 48.2361C134.769 48.294 134.682 48.3519 134.596 48.3519H133.7C133.614 48.3519 133.527 48.323 133.441 48.2361C133.354 48.1493 133.325 48.0624 133.325 47.9755V38.5078C133.325 38.392 133.354 38.3052 133.441 38.2473C133.527 38.1893 133.614 38.1314 133.7 38.1314H134.596C134.711 38.1314 134.798 38.1604 134.856 38.2183C134.913 38.2762 134.942 38.3631 134.942 38.4789V47.9755H134.971Z" fill="white"/>
</g>
<defs>
<clipPath id="clip0_2593_44279">
<rect width="135" height="52" fill="white"/>
</clipPath>
</defs>
</svg>
