<svg width="24" height="24" viewBox="0 0 24 24" fill="none" xmlns="http://www.w3.org/2000/svg">
<path d="M14 2H6C4.9 2 4 2.9 4 4V20C4 21.1 4.89 22 5.99 22H18C19.1 22 20 21.1 20 20V8L14 2ZM18 20H6V4H13V9H18V20Z" fill="#323232"/>
<path d="M9.02994 11.0304C7.65994 12.4004 7.65994 14.6104 9.02994 15.9804C10.1499 17.1004 11.8299 17.2904 13.1599 16.5704L15.0399 18.4504L16.4499 17.0404L14.5699 15.1604C15.2799 13.8304 15.0999 12.1504 13.9799 11.0304C12.6099 9.66043 10.3899 9.66043 9.02994 11.0304ZM12.5599 14.5604C11.9699 15.1504 11.0199 15.1504 10.4399 14.5604C9.84994 13.9704 9.84994 13.0204 10.4399 12.4404C11.0299 11.8504 11.9799 11.8504 12.5599 12.4404C13.1499 13.0304 13.1499 13.9704 12.5599 14.5604Z" fill="#323232"/>
</svg>
