<svg width="24" height="24" viewBox="0 0 24 24" fill="none" xmlns="http://www.w3.org/2000/svg">
<path d="M22.73 22.7295L2.77 2.76953L2 1.99953L1.27 1.26953L0 2.53953L4.39 6.92953L6.6 11.5895L5.25 14.0395C5.09 14.3195 5 14.6495 5 14.9995C5 16.0995 5.9 16.9995 7 16.9995H14.46L15.84 18.3795C15.34 18.7395 15.01 19.3295 15.01 19.9995C15.01 21.0995 15.9 21.9995 17 21.9995C17.67 21.9995 18.26 21.6695 18.62 21.1595L21.46 23.9995L22.73 22.7295ZM7.42 14.9995C7.28 14.9995 7.17 14.8895 7.17 14.7495L7.2 14.6295L8.1 12.9995H10.46L12.46 14.9995H7.42ZM15.55 12.9995C16.3 12.9995 16.96 12.5895 17.3 11.9695L20.88 5.47953C20.96 5.33953 21 5.16953 21 4.99953C21 4.44953 20.55 3.99953 20 3.99953H6.54L15.55 12.9995ZM7 17.9995C5.9 17.9995 5.01 18.8995 5.01 19.9995C5.01 21.0995 5.9 21.9995 7 21.9995C8.1 21.9995 9 21.0995 9 19.9995C9 18.8995 8.1 17.9995 7 17.9995Z" fill="#323232"/>
</svg>
