<svg width="24" height="24" viewBox="0 0 24 24" fill="none" xmlns="http://www.w3.org/2000/svg">
<path d="M15.4999 14H14.7099L14.4299 13.73C15.4099 12.59 15.9999 11.11 15.9999 9.5C15.9999 5.91 13.0899 3 9.49991 3C6.07991 3 3.27991 5.64 3.02991 9H5.04991C5.29991 6.75 7.17991 5 9.49991 5C11.9899 5 13.9999 7.01 13.9999 9.5C13.9999 11.99 11.9899 14 9.49991 14C9.32991 14 9.16991 13.97 8.99991 13.95V15.97C9.16991 15.99 9.32991 16 9.49991 16C11.1099 16 12.5899 15.41 13.7299 14.43L13.9999 14.71V15.5L18.9999 20.49L20.4899 19L15.4999 14Z" fill="#323232"/>
<path d="M6.46995 10.8203L3.99995 13.2903L1.52995 10.8203L0.819946 11.5303L3.28995 14.0003L0.819946 16.4703L1.52995 17.1803L3.99995 14.7103L6.46995 17.1803L7.17995 16.4703L4.70995 14.0003L7.17995 11.5303L6.46995 10.8203Z" fill="#323232"/>
</svg>
