<svg width="44" height="44" viewBox="0 0 44 44" fill="none" xmlns="http://www.w3.org/2000/svg">
<g clip-path="url(#clip0_2593_44872)">
<path d="M34.8517 5.5H9.18501C7.16834 5.5 5.51834 7.15 5.51834 9.16667V34.8333C5.51834 36.85 7.16834 38.5 9.18501 38.5H34.8517C36.8683 38.5 38.5183 36.85 38.5183 34.8333V9.16667C38.5183 7.15 36.8683 5.5 34.8517 5.5ZM27.5183 19.25C27.5183 20.7717 26.29 22 24.7683 22C26.29 22 27.5183 23.2283 27.5183 24.75V27.5C27.5183 29.535 25.8683 31.1667 23.8517 31.1667H16.5183V27.5H23.8517V23.8333H20.185V20.1667H23.8517V16.5H16.5183V12.8333H23.8517C25.8683 12.8333 27.5183 14.465 27.5183 16.5V19.25Z" fill="#B41D8D"/>
</g>
<defs>
<clipPath id="clip0_2593_44872">
<rect width="44" height="44" fill="white"/>
</clipPath>
</defs>
</svg>
