<svg width="24" height="24" viewBox="0 0 24 24" fill="none" xmlns="http://www.w3.org/2000/svg">
<path d="M10.54 11.0005L10 10.4605L7.54 8.00047L6 6.46047L2.38 2.84047L1.27 1.73047L0 3.00047L2.01 5.01047L2 22.0005L6 18.0005H15L20.73 23.7305L22 22.4605L17.54 18.0005L10.54 11.0005ZM8 14.0005H6V12.0005H8V14.0005ZM6 11.0005V9.00047L8 11.0005H6ZM20 2.00047H4.08L10 7.92047V6.00047H18V8.00047H10.08L11.08 9.00047H18V11.0005H13.08L20.07 17.9905C21.14 17.9505 22 17.0805 22 16.0005V4.00047C22 2.90047 21.1 2.00047 20 2.00047Z" fill="#323232"/>
</svg>
