<svg width="24" height="24" viewBox="0 0 24 24" fill="none" xmlns="http://www.w3.org/2000/svg">
<path d="M20.0001 4H6.83008L8.83008 6H20.0001V17.17L21.7601 18.93C21.9101 18.65 22.0001 18.34 22.0001 18V6C22.0001 4.9 21.1001 4 20.0001 4Z" fill="#323232"/>
<path d="M18.0001 10H12.8301L14.8301 12H18.0001V10Z" fill="#323232"/>
<path d="M1.04004 3.8702L2.24004 5.0702C2.09004 5.3502 2.00004 5.6602 2.00004 6.0002V18.0002C2.00004 19.1002 2.90004 20.0002 4.00004 20.0002H17.17L20.13 22.9602L21.54 21.5502L2.45004 2.4502L1.04004 3.8702ZM4.00004 6.8302L7.17004 10.0002H6.00004V12.0002H8.00004V10.8302L11.17 14.0002H6.00004V16.0002H13.17L15.17 18.0002H4.00004V6.8302Z" fill="#323232"/>
</svg>
