<svg width="24" height="24" viewBox="0 0 24 24" fill="none" xmlns="http://www.w3.org/2000/svg">
<path d="M15 4C10.58 4 7 7.58 7 12C7 16.42 10.58 20 15 20C19.42 20 23 16.42 23 12C23 7.58 19.42 4 15 4ZM15 18C11.69 18 9 15.31 9 12C9 8.69 11.69 6 15 6C18.31 6 21 8.69 21 12C21 15.31 18.31 18 15 18Z" fill="#323232"/>
<path d="M3 11.9998C3 9.38977 4.67 7.16977 7 6.34977V4.25977C3.55 5.14977 1 8.26977 1 11.9998C1 15.7298 3.55 18.8498 7 19.7398V17.6498C4.67 16.8298 3 14.6098 3 11.9998V11.9998Z" fill="#323232"/>
</svg>
