<svg width="32" height="32" viewBox="0 0 32 32" fill="none" xmlns="http://www.w3.org/2000/svg">
<path d="M22.1935 27.8707H14.6652L15.3323 27.2036C15.5342 27.0017 15.5342 26.6759 15.3323 26.4739L9.13871 20.2804C9.04193 20.1836 8.91032 20.1294 8.77355 20.1294H1.03226V19.0972H0V28.3875H1.03226V27.3552H5.4929L11.0277 31.8836C11.1194 31.9591 11.2355 32.0004 11.3542 32.0004H22.1929C22.4781 32.0004 22.709 31.7694 22.709 31.4843V28.3875C22.7097 28.1017 22.4787 27.8707 22.1935 27.8707ZM21.6774 30.9675H11.5394L6.00452 26.4391C5.91226 26.3636 5.79677 26.3223 5.67742 26.3223H1.03226V21.161H8.56065L14.2381 26.8385L12.9032 28.1733L10.1716 25.4417L9.44194 26.1714L12.5387 29.2681C12.6394 29.3688 12.7716 29.4191 12.9039 29.4191C13.0361 29.4191 13.1684 29.3688 13.269 29.2681L13.6342 28.903H21.6774V30.9675Z" fill="#B41D8D"/>
<path d="M30.9682 23.3208V18.0647C30.9682 14.0802 27.727 10.8389 23.7424 10.8389C19.7579 10.8389 16.5166 14.0802 16.5166 18.0647V23.3208C15.9173 23.5344 15.4844 24.1021 15.4844 24.7744C15.4844 25.6279 16.1792 26.3227 17.0328 26.3227H30.4521C31.3057 26.3227 32.0005 25.6279 32.0005 24.7744C32.0005 24.1021 31.5676 23.5344 30.9682 23.3208ZM30.4521 25.2905H17.0328C16.7482 25.2905 16.5166 25.0595 16.5166 24.7744C16.5166 24.4892 16.7482 24.2582 17.0328 24.2582H18.5811V23.226H17.5489V18.0647C17.5489 14.6492 20.327 11.8711 23.7424 11.8711C27.1579 11.8711 29.936 14.6492 29.936 18.0647V23.226H28.9037V24.2582H30.4521C30.7366 24.2582 30.9682 24.4892 30.9682 24.7744C30.9682 25.0595 30.7366 25.2905 30.4521 25.2905Z" fill="#B41D8D"/>
<path d="M23.7422 16.0001C24.3113 16.0001 24.7745 16.4633 24.7745 17.0323H25.8068C25.8068 16.073 25.1461 15.2717 24.2584 15.0414V13.9355H23.2261V15.0414C22.3384 15.2723 21.6777 16.073 21.6777 17.0323C21.6777 18.171 22.6035 19.0968 23.7422 19.0968C24.3113 19.0968 24.7745 19.5601 24.7745 20.1291C24.7745 20.6981 24.3113 21.1614 23.7422 21.1614C23.1732 21.1614 22.71 20.6981 22.71 20.1291H21.6777C21.6777 21.0885 22.3384 21.8897 23.2261 22.1201V23.2259H24.2584V22.1201C25.1461 21.8891 25.8068 21.0885 25.8068 20.1291C25.8068 18.9904 24.881 18.0646 23.7422 18.0646C23.1732 18.0646 22.71 17.6014 22.71 17.0323C22.71 16.4633 23.1732 16.0001 23.7422 16.0001Z" fill="#B41D8D"/>
<path d="M26.8391 9.80631H25.5191L26.8055 6.37534C26.8771 6.18373 26.8294 5.96824 26.6829 5.82502C26.5365 5.68179 26.3197 5.63986 26.13 5.71469L23.7423 6.66953L21.3539 5.7134C21.1636 5.63792 20.9474 5.68115 20.801 5.82373C20.6552 5.96695 20.6068 6.18244 20.6784 6.37405L21.9655 9.80631H20.6455V10.8386H23.7423H26.8391V9.80631ZM23.0674 9.80631L22.0545 7.10695L23.55 7.70502C23.6732 7.7547 23.81 7.7547 23.9333 7.70502L25.4287 7.10695L24.4171 9.80631H23.0674Z" fill="#B41D8D"/>
<path d="M8.25806 16.5161C9.85355 16.5161 11.3935 16.0606 12.7297 15.1961L15.8013 16.4755C15.8658 16.5026 15.9329 16.5155 16 16.5155C16.1342 16.5155 16.2665 16.4626 16.3652 16.3645C16.5135 16.2168 16.5574 15.9942 16.4768 15.8006L15.1974 12.729C16.0606 11.3929 16.5161 9.85355 16.5161 8.25806C16.5161 3.70452 12.8116 0 8.25806 0C3.70452 0 0 3.70452 0 8.25806C0 12.8116 3.70452 16.5161 8.25806 16.5161ZM8.25806 1.03226C12.2426 1.03226 15.4839 4.27355 15.4839 8.25806C15.4839 9.73677 15.0361 11.1613 14.1897 12.3774C14.089 12.5219 14.0697 12.7084 14.1368 12.871L15.0413 15.0413L12.871 14.1368C12.7084 14.0684 12.5226 14.0884 12.3774 14.1897C11.1613 15.0361 9.73677 15.4839 8.25806 15.4839C4.27355 15.4839 1.03226 12.2426 1.03226 8.25806C1.03226 4.27355 4.27355 1.03226 8.25806 1.03226Z" fill="#B41D8D"/>
<path d="M5.6778 7.74183C6.81651 7.74183 7.74231 6.81602 7.74231 5.67731C7.74231 4.5386 6.81651 3.61279 5.6778 3.61279C4.53909 3.61279 3.61328 4.5386 3.61328 5.67731C3.61328 6.81602 4.53909 7.74183 5.6778 7.74183ZM5.6778 4.64505C6.24683 4.64505 6.71006 5.10828 6.71006 5.67731C6.71006 6.24634 6.24683 6.70957 5.6778 6.70957C5.10877 6.70957 4.64554 6.24634 4.64554 5.67731C4.64554 5.10828 5.10877 4.64505 5.6778 4.64505Z" fill="#B41D8D"/>
<path d="M10.8389 8.77441C9.70022 8.77441 8.77441 9.70022 8.77441 10.8389C8.77441 11.9776 9.70022 12.9034 10.8389 12.9034C11.9776 12.9034 12.9034 11.9776 12.9034 10.8389C12.9034 9.70022 11.9776 8.77441 10.8389 8.77441ZM10.8389 11.8712C10.2699 11.8712 9.80667 11.408 9.80667 10.8389C9.80667 10.2699 10.2699 9.80667 10.8389 9.80667C11.408 9.80667 11.8712 10.2699 11.8712 10.8389C11.8712 11.408 11.408 11.8712 10.8389 11.8712Z" fill="#B41D8D"/>
<path d="M3.7627 12.0219L12.0195 3.76514L12.7492 4.49481L4.49237 12.7516L3.7627 12.0219Z" fill="#B41D8D"/>
</svg>
