<svg width="40" height="32" viewBox="0 0 40 32" fill="none" xmlns="http://www.w3.org/2000/svg">
<path d="M9.37461 13.5076C9.9418 13.5076 10.4035 13.8924 10.4035 14.3651C10.4035 14.7943 10.7535 15.1427 11.1848 15.1427C11.616 15.1427 11.966 14.7943 11.966 14.3651C11.966 13.2883 11.2043 12.3739 10.1559 12.0653V11.9572C10.1559 11.528 9.80586 11.1797 9.37461 11.1797C8.94336 11.1797 8.59336 11.528 8.59336 11.9572V12.0653C7.54492 12.3747 6.7832 13.2883 6.7832 14.3651C6.7832 15.6955 7.9457 16.7778 9.37461 16.7778C9.9418 16.7778 10.4035 17.1626 10.4035 17.6354C10.4035 18.1081 9.9418 18.493 9.37461 18.493C8.80742 18.493 8.3457 18.1081 8.3457 17.6354C8.3457 17.2062 7.9957 16.8578 7.56445 16.8578C7.1332 16.8578 6.7832 17.2062 6.7832 17.6354C6.7832 18.7122 7.54492 19.6266 8.59336 19.9352V20.0433C8.59336 20.4725 8.94336 20.8208 9.37461 20.8208C9.80586 20.8208 10.1559 20.4725 10.1559 20.0433V19.9352C11.2043 19.6258 11.966 18.7122 11.966 17.6354C11.966 16.305 10.8035 15.2227 9.37461 15.2227C8.80742 15.2227 8.3457 14.8379 8.3457 14.3651C8.3457 13.8924 8.80742 13.5076 9.37461 13.5076Z" fill="#B41D8D"/>
<path d="M18.75 16.0005C18.75 14.8187 18.5305 13.6664 18.0984 12.5764C17.9398 12.1767 17.4867 11.9808 17.0852 12.1386C16.6836 12.2965 16.4867 12.7482 16.6453 13.1471C17.0055 14.0544 17.1875 15.0147 17.1875 16.0005C17.1875 20.2877 13.6828 23.7756 9.375 23.7756C5.06719 23.7756 1.5625 20.2877 1.5625 16.0005C1.5625 11.7133 5.06719 8.22543 9.375 8.22543C10.3594 8.22543 11.3188 8.40504 12.2258 8.7588C12.6273 8.91586 13.0805 8.71837 13.2383 8.31873C13.3961 7.91909 13.1977 7.46814 12.7961 7.31108C11.7062 6.88578 10.5555 6.67041 9.375 6.67041C4.20547 6.67041 0 10.8557 0 16.0005C0 21.1453 4.20547 25.3307 9.375 25.3307C14.5445 25.3307 18.75 21.1445 18.75 16.0005Z" fill="#B41D8D"/>
<path d="M30.6246 13.5076C31.1918 13.5076 31.6535 13.8924 31.6535 14.3651C31.6535 14.7943 32.0035 15.1427 32.4348 15.1427C32.866 15.1427 33.216 14.7943 33.216 14.3651C33.216 13.2883 32.4543 12.3739 31.4059 12.0653V11.9572C31.4059 11.528 31.0559 11.1797 30.6246 11.1797C30.1934 11.1797 29.8434 11.528 29.8434 11.9572V12.0653C28.7949 12.3747 28.0332 13.2883 28.0332 14.3651C28.0332 15.6955 29.1957 16.7778 30.6246 16.7778C31.1918 16.7778 31.6535 17.1626 31.6535 17.6354C31.6535 18.1081 31.1918 18.493 30.6246 18.493C30.0574 18.493 29.5957 18.1081 29.5957 17.6354C29.5957 17.2062 29.2457 16.8578 28.8145 16.8578C28.3832 16.8578 28.0332 17.2062 28.0332 17.6354C28.0332 18.7122 28.7949 19.6266 29.8434 19.9352V20.0433C29.8434 20.4725 30.1934 20.8208 30.6246 20.8208C31.0559 20.8208 31.4059 20.4725 31.4059 20.0433V19.9352C32.4543 19.6258 33.216 18.7122 33.216 17.6354C33.216 16.305 32.0535 15.2227 30.6246 15.2227C30.0574 15.2227 29.5957 14.8379 29.5957 14.3651C29.5957 13.8924 30.0574 13.5076 30.6246 13.5076Z" fill="#B41D8D"/>
<path d="M30.625 6.67041C25.4555 6.67041 21.25 10.8557 21.25 16.0005C21.25 21.1453 25.4555 25.3307 30.625 25.3307C35.7945 25.3307 40 21.1453 40 16.0005C40 10.8557 35.7945 6.67041 30.625 6.67041ZM30.625 23.7756C26.3172 23.7756 22.8125 20.2877 22.8125 16.0005C22.8125 11.7133 26.3172 8.22543 30.625 8.22543C34.9328 8.22543 38.4375 11.7133 38.4375 16.0005C38.4375 20.2877 34.9328 23.7756 30.625 23.7756Z" fill="#B41D8D"/>
<path d="M26.6889 27.3954C26.3842 27.0922 25.8889 27.0922 25.5842 27.3954C25.2795 27.6986 25.2795 28.1916 25.5842 28.4948L25.8975 28.8066H12.2178C11.7865 28.8066 11.4365 29.1549 11.4365 29.5841C11.4365 30.0133 11.7865 30.3616 12.2178 30.3616H25.8975L25.5842 30.6734C25.2795 30.9766 25.2795 31.4695 25.5842 31.7728C25.7365 31.9244 25.9365 32.0006 26.1365 32.0006C26.3365 32.0006 26.5365 31.9244 26.6889 31.7728L28.3357 30.1338C28.6412 29.8306 28.6412 29.3376 28.3357 29.0344L26.6889 27.3954Z" fill="#B41D8D"/>
<path d="M13.3111 4.60423C13.4635 4.75584 13.6635 4.83204 13.8635 4.83204C14.0635 4.83204 14.2635 4.75584 14.4158 4.60423C14.7205 4.301 14.7205 3.80806 14.4158 3.50483L14.1025 3.19382H27.7822C28.2135 3.19382 28.5635 2.8455 28.5635 2.41631C28.5635 1.98713 28.2135 1.6388 27.7822 1.6388H14.1025L14.4158 1.3278C14.7205 1.02457 14.7205 0.531628 14.4158 0.228398C14.1111 -0.0748307 13.6158 -0.0748307 13.3111 0.228398L11.665 1.86584C11.3604 2.16906 11.3604 2.66201 11.665 2.96524L13.3111 4.60423Z" fill="#B41D8D"/>
<path d="M14.8988 9.40213C14.7535 9.54674 14.6699 9.74734 14.6699 9.95183C14.6699 10.1563 14.7535 10.3569 14.8988 10.5015C15.0441 10.6461 15.2457 10.7293 15.4512 10.7293C15.6566 10.7293 15.8582 10.6461 16.0035 10.5015C16.1488 10.3569 16.2324 10.1563 16.2324 9.95183C16.2324 9.74734 16.1488 9.54674 16.0035 9.40213C15.8582 9.25673 15.6566 9.17432 15.4512 9.17432C15.2457 9.17432 15.0441 9.25751 14.8988 9.40213Z" fill="#B41D8D"/>
</svg>
