<svg width="24" height="24" viewBox="0 0 24 24" fill="none" xmlns="http://www.w3.org/2000/svg">
<path d="M4 9H9C9 7.9 8.1 7 7 7H4C3.45 7 3 7.45 3 8C3 8.55 3.45 9 4 9Z" fill="#323232"/>
<path d="M22 14.0603V8.00031C22 6.90031 21.1 6.00031 20 6.00031H13.71L12.65 4.94031L14.06 3.53031L13.35 2.82031L9.82 6.35031L10.53 7.06031L11.94 5.65031L13 6.71031V9.00031C13 10.1003 12.1 11.0003 11 11.0003H8.96C8.74 10.8403 8.51 10.7003 8.27 10.5703L7.87 11.4603L7.41 11.2503L7.81 10.3503C7.26 10.1303 6.64 10.0003 6 10.0003C5.47 10.0003 4.96 10.1103 4.48 10.2603L4.82 11.1703L4.35 11.3503L4 10.4203C2.94 10.8803 2.09 11.7003 1.57 12.7303L2.46 13.1303L2.25 13.5903L1.35 13.1903C1.13 13.7403 1 14.3603 1 15.0003C1 15.5303 1.11 16.0403 1.26 16.5203L2.17 16.1803L2.35 16.6503L1.42 17.0003C1.88 18.0603 2.7 18.9103 3.73 19.4303L4.13 18.5403L4.59 18.7503L4.19 19.6503C4.74 19.8703 5.36 20.0003 6 20.0003C6.53 20.0003 7.04 19.8903 7.52 19.7403L7.18 18.8303L7.65 18.6503L8 19.5803C9.06 19.1203 9.91 18.3003 10.43 17.2703L9.54 16.8703L9.75 16.4103L10.65 16.8103C10.75 16.5503 10.83 16.2703 10.89 15.9903H16.05C16.03 16.1603 16 16.3303 16 16.5003C16 18.4303 17.57 20.0003 19.5 20.0003C21.43 20.0003 23 18.4303 23 16.5003C23 15.5503 22.62 14.6903 22 14.0603ZM6 18.0003C4.34 18.0003 3 16.6603 3 15.0003C3 13.3403 4.34 12.0003 6 12.0003C7.66 12.0003 9 13.3403 9 15.0003C9 16.6603 7.66 18.0003 6 18.0003ZM10.87 14.0003C10.83 13.8203 10.79 13.6503 10.74 13.4803L9.83 13.8203L9.65 13.3503L10.58 13.0003H11C13.21 13.0003 15 11.2103 15 9.00031V8.00031H20V13.0503C19.84 13.0303 19.67 13.0003 19.5 13.0003C18.55 13.0003 17.69 13.3803 17.06 14.0003H10.87ZM19.5 18.0003C18.67 18.0003 18 17.3303 18 16.5003C18 15.6703 18.67 15.0003 19.5 15.0003C20.33 15.0003 21 15.6703 21 16.5003C21 17.3303 20.33 18.0003 19.5 18.0003Z" fill="#323232"/>
</svg>
