<svg width="24" height="24" viewBox="0 0 24 24" fill="none" xmlns="http://www.w3.org/2000/svg">
<path d="M12 2C6.48 2 2 6.48 2 12C2 17.52 6.48 22 12 22C17.52 22 22 17.52 22 12C22 6.48 17.52 2 12 2ZM12 20C7.58 20 4 16.42 4 12C4 7.58 7.58 4 12 4C16.42 4 20 7.58 20 12C20 16.42 16.42 20 12 20Z" fill="#323232"/>
<path d="M13.54 8.96976C13.31 8.49976 12.78 8.25976 12.28 8.43976L8.99998 9.64976V11.9998H9.99998V10.3498L11.54 9.77976L10.58 14.6698L7.79998 14.0998L7.59998 15.0798L11.36 15.8498L11.88 13.2098L13 14.4198V17.9998H14V14.0298L12.68 12.5898L13.09 10.2398C13.99 11.4598 15.3 11.9998 16 11.9998V10.9998C15.59 10.9998 14.37 10.6698 13.54 8.96976Z" fill="#323232"/>
<path d="M13.5 8C14.0523 8 14.5 7.55228 14.5 7C14.5 6.44772 14.0523 6 13.5 6C12.9477 6 12.5 6.44772 12.5 7C12.5 7.55228 12.9477 8 13.5 8Z" fill="#323232"/>
</svg>
