<svg width="24" height="24" viewBox="0 0 24 24" fill="none" xmlns="http://www.w3.org/2000/svg">
<path d="M5 16.0004C5 19.8704 8.13 23.0004 12 23.0004C15.87 23.0004 19 19.8704 19 16.0004V12.0004H5V16.0004ZM16.12 4.37043L18.22 2.27043L17.4 1.44043L15.1 3.75043C14.16 3.28043 13.12 3.00043 12 3.00043C10.88 3.00043 9.84 3.28043 8.91 3.75043L6.6 1.44043L5.78 2.27043L7.88 4.37043C6.14 5.64043 5 7.68043 5 10.0004V11.0004H19V10.0004C19 7.68043 17.86 5.64043 16.12 4.37043ZM9 9.00043C8.45 9.00043 8 8.55043 8 8.00043C8 7.45043 8.45 7.00043 9 7.00043C9.55 7.00043 10 7.45043 10 8.00043C10 8.55043 9.55 9.00043 9 9.00043ZM15 9.00043C14.45 9.00043 14 8.55043 14 8.00043C14 7.45043 14.45 7.00043 15 7.00043C15.55 7.00043 16 7.45043 16 8.00043C16 8.55043 15.55 9.00043 15 9.00043Z" fill="#323232"/>
</svg>
