<svg width="24" height="24" viewBox="0 0 24 24" fill="none" xmlns="http://www.w3.org/2000/svg">
<path d="M9.41 6.58012L12 4.00012L20 12.0001L17.42 14.5901L18.83 16.0001L21.41 13.4101C22.19 12.6301 22.19 11.3601 21.41 10.5801L13.41 2.58012C12.63 1.80012 11.36 1.80012 10.58 2.58012L8 5.17012L9.41 6.58012Z" fill="#323232"/>
<path d="M2.80989 2.81006L1.38989 4.22006L5.16989 8.00006L2.58989 10.5901C1.80989 11.3701 1.80989 12.6401 2.58989 13.4201L10.5899 21.4201C11.3699 22.2001 12.6399 22.2001 13.4199 21.4201L15.9999 18.8301L19.7799 22.6101L21.1899 21.2001L2.80989 2.81006ZM11.9999 20.0001L3.99989 12.0001L6.57989 9.41006L8.16989 11.0001H6.99989V13.0001H10.1699L11.6699 14.5001L10.5899 15.5901L11.9999 17.0001L13.0899 15.9101L14.5899 17.4101L11.9999 20.0001Z" fill="#323232"/>
<path d="M12.0052 6.99847L10.9163 8.0874L15.9155 13.0866L17.0044 11.9977L12.0052 6.99847Z" fill="#323232"/>
</svg>
