<svg width="24" height="24" viewBox="0 0 24 24" fill="none" xmlns="http://www.w3.org/2000/svg">
<path d="M21 10.9996L23 8.99965C19.27 5.26965 14.13 3.84965 9.3 4.68965L11.88 7.26965C15.18 7.24965 18.49 8.48965 21 10.9996ZM19 12.9996C17.92 11.9196 16.64 11.1496 15.28 10.6696L18.3 13.6896L19 12.9996ZM9 16.9996L12 19.9996L15 16.9996C13.35 15.3396 10.66 15.3396 9 16.9996ZM3.41 1.63965L2 3.04965L5.05 6.09965C3.59 6.82965 2.22 7.78965 1 8.99965L3 10.9996C4.23 9.76965 5.65 8.83965 7.17 8.21965L9.41 10.4596C7.79 10.8896 6.27 11.7396 5 12.9996L7 14.9996C8.35 13.6496 10.11 12.9596 11.89 12.9396L18.97 20.0196L20.38 18.6096L3.41 1.63965Z" fill="#323232"/>
</svg>
