<svg width="40" height="41" viewBox="0 0 40 41" fill="none" xmlns="http://www.w3.org/2000/svg">
<mask id="mask0_12904_15216" style="mask-type:alpha" maskUnits="userSpaceOnUse" x="8" y="8" width="24" height="25">
<path fill-rule="evenodd" clip-rule="evenodd" d="M30.4998 29.5213L24.8373 23.8288C27.6493 20.4359 27.2985 15.4321 24.0405 12.4648C20.7825 9.4976 15.7677 9.61465 12.6517 12.7307C9.53573 15.8467 9.41868 20.8614 12.3859 24.1194C15.3531 27.3774 20.357 27.7283 23.7498 24.9163L29.4423 30.5788L30.4998 29.5213ZM11.7498 18.5788C11.7498 14.8508 14.7719 11.8288 18.4998 11.8288C22.2278 11.8288 25.2498 14.8508 25.2498 18.5788C25.2498 22.3067 22.2278 25.3288 18.4998 25.3288C14.7719 25.3288 11.7498 22.3067 11.7498 18.5788Z" fill="black"/>
</mask>
<g mask="url(#mask0_12904_15216)">
<rect x="8" y="7.07877" width="24" height="24" fill="#231F20"/>
</g>
</svg>
