<svg width="35" height="36" viewBox="0 0 35 36" fill="none" xmlns="http://www.w3.org/2000/svg">
<circle cx="17.5" cy="18" r="17.5" fill="#B41D8D" fill-opacity="0.1"/>
<g clip-path="url(#clip0_8886_114483)">
<path d="M25.7612 19.5139C25.462 18.9729 24.7824 18.7779 24.2439 19.0786L22.7225 19.7365L22.3324 18.9526C22.2742 18.836 22.2435 18.7076 22.2432 18.5774V15.4806C22.2408 13.5179 20.7938 11.8593 18.8576 11.5999L19.9722 10.0431C20.0617 9.91714 20.0324 9.7425 19.907 9.65255C19.8569 9.61685 19.7966 9.59865 19.7353 9.60075H15.2769C15.1229 9.60145 14.9989 9.72745 14.9996 9.88214C15 9.93989 15.0181 9.99624 15.0512 10.0431L16.1658 11.5999C14.2249 11.854 12.7721 13.514 12.769 15.4806V18.6362C12.6143 18.7622 12.4736 18.9036 12.3482 19.059L11.1166 20.6073L10.771 20.0865C10.7299 20.0207 10.6631 19.9749 10.5871 19.9605C10.5115 19.9497 10.4346 19.9686 10.3726 20.0137L9.25795 20.8537C9.1869 20.9073 9.1458 20.9913 9.14649 21.0805V26.1204C9.14649 26.2751 9.27119 26.4004 9.42515 26.4004H13.0476C13.1218 26.4008 13.1929 26.3717 13.2455 26.3192L14.0814 25.4792C14.1748 25.3847 14.1887 25.237 14.1149 25.1264L13.9756 24.9164L20.4208 23.4269C20.7698 23.3457 21.1077 23.2214 21.4267 23.0573L25.3279 21.0385C25.8664 20.7375 26.0604 20.055 25.7612 19.5139ZM15.8175 10.1607H19.1947L18.1999 11.5607H16.8067L15.8175 10.1607ZM13.3263 15.4806C13.3263 13.625 14.8234 12.1207 16.6701 12.1207H18.342C20.1888 12.1207 21.6859 13.625 21.6859 15.4806V18.5774C21.6862 18.7944 21.7367 19.0079 21.8336 19.2018L22.207 19.9605L20.2926 20.7781C20.2581 20.7928 20.2212 20.8005 20.1839 20.8005H15.2769C15.1229 20.8005 14.9982 20.6752 14.9982 20.5205C14.9982 20.3658 15.1229 20.2405 15.2769 20.2405H17.5061C18.5834 20.2405 19.4567 19.3631 19.4567 18.2806C19.4567 18.1259 19.332 18.0006 19.178 18.0006H18.8185C18.8708 17.8805 18.8983 17.751 18.8994 17.6198C18.8983 17.2278 18.6566 16.8771 18.2919 16.7378L17.7847 16.5474V15.4806H17.9631C18.1724 15.4806 18.342 15.6511 18.342 15.8614V16.0406H18.8994V15.8614C18.898 15.3424 18.4796 14.922 17.9631 14.9206H17.7847V14.3607H17.2274V14.9206H17.0491C16.5318 14.9189 16.1114 15.3389 16.1097 15.8583C16.1083 16.2527 16.3521 16.6062 16.7203 16.7434L17.2274 16.9338V18.0006H17.0491C16.8398 18.0006 16.6701 17.8301 16.6701 17.6198V17.4406H16.1128V17.6198C16.1139 17.751 16.1414 17.8805 16.1936 18.0006H14.5412C14.1205 18.0006 13.7049 18.0961 13.3263 18.2806V15.4806ZM18.342 17.6198C18.342 17.8301 18.1724 18.0006 17.9631 18.0006H17.7847V17.1438L18.0968 17.2614C18.2442 17.3188 18.3414 17.4609 18.342 17.6198ZM17.2274 15.4806V16.3374L16.9153 16.2198C16.768 16.1624 16.6708 16.02 16.6701 15.8614C16.6701 15.6511 16.8398 15.4806 17.0491 15.4806H17.2274ZM12.9334 25.8404H9.7038V21.2205L10.4701 20.6409L13.5353 25.244L12.9334 25.8404ZM25.0576 20.5513L21.1732 22.5589C20.8938 22.7024 20.5981 22.8102 20.2926 22.8809L13.6467 24.418L11.4426 21.0945L12.7829 19.4005C13.2113 18.8661 13.8585 18.5571 14.5412 18.5606H18.8715C18.7391 19.2126 18.1682 19.6805 17.5061 19.6805H15.2769C14.815 19.6805 14.4409 20.0564 14.4409 20.5205C14.4409 20.9846 14.815 21.3605 15.2769 21.3605H20.1784C20.2912 21.3609 20.403 21.3378 20.5072 21.2933L24.4864 19.5853C24.7518 19.4268 25.0949 19.5146 25.2526 19.7813C25.4104 20.048 25.323 20.3928 25.0576 20.5513Z" fill="#B92C95"/>
<path d="M11.9326 23.8809C11.4711 23.8809 11.0967 24.2568 11.0967 24.7208C11.0967 25.1849 11.4711 25.5608 11.9326 25.5608C12.3942 25.5608 12.7686 25.1849 12.7686 24.7208C12.7686 24.2568 12.3945 23.8809 11.9326 23.8809ZM11.9326 25.0008C11.7787 25.0008 11.654 24.8755 11.654 24.7208C11.654 24.5661 11.7787 24.4408 11.9326 24.4408C12.0866 24.4408 12.2113 24.5661 12.2113 24.7208C12.2113 24.8755 12.0866 25.0008 11.9326 25.0008Z" fill="#B92C95"/>
<path d="M24.2377 11.281C23.7873 11.2033 23.4345 10.8487 23.3571 10.3962C23.3571 10.2415 23.2324 10.1162 23.0785 10.1162C22.9245 10.1162 22.7998 10.2415 22.7998 10.3962C22.7225 10.8487 22.3697 11.2033 21.9193 11.281C21.7653 11.281 21.6406 11.4063 21.6406 11.561C21.6406 11.7157 21.7653 11.841 21.9193 11.841C22.3697 11.9187 22.7225 12.2732 22.7998 12.7258C22.7998 12.8805 22.9245 13.0058 23.0785 13.0058C23.2324 13.0058 23.3571 12.8805 23.3571 12.7258C23.4345 12.2732 23.7873 11.9187 24.2377 11.841C24.3916 11.841 24.5163 11.7157 24.5163 11.561C24.5163 11.4063 24.3916 11.281 24.2377 11.281ZM23.0785 11.9614C22.9705 11.8053 22.8354 11.6695 22.68 11.561C22.8354 11.4525 22.9705 11.3167 23.0785 11.1606C23.1865 11.3167 23.3216 11.4525 23.477 11.561C23.3216 11.6695 23.1865 11.8049 23.0785 11.9614Z" fill="#B92C95"/>
<path d="M11.6986 16.8806C11.2482 16.8029 10.8954 16.4484 10.8181 15.9958C10.8181 15.8411 10.6934 15.7158 10.5394 15.7158C10.3855 15.7158 10.2608 15.8411 10.2608 15.9958C10.1834 16.4484 9.83059 16.8029 9.38022 16.8806C9.22626 16.8806 9.10156 17.0059 9.10156 17.1606C9.10156 17.3153 9.22626 17.4406 9.38022 17.4406C9.83059 17.5183 10.1834 17.8728 10.2608 18.3254C10.2608 18.4801 10.3855 18.6054 10.5394 18.6054C10.6934 18.6054 10.8181 18.4801 10.8181 18.3254C10.8954 17.8728 11.2482 17.5183 11.6986 17.4406C11.8526 17.4406 11.9773 17.3153 11.9773 17.1606C11.9773 17.0059 11.8526 16.8806 11.6986 16.8806ZM10.5394 17.561C10.4314 17.4049 10.2963 17.2691 10.1409 17.1606C10.2963 17.0521 10.4314 16.9163 10.5394 16.7602C10.6474 16.9163 10.7825 17.0521 10.9379 17.1606C10.7825 17.2691 10.6474 17.4045 10.5394 17.561Z" fill="#B92C95"/>
</g>
<defs>
<clipPath id="clip0_8886_114483">
<rect width="16.8" height="16.8" fill="white" transform="translate(9.10156 9.60059)"/>
</clipPath>
</defs>
</svg>
