<svg width="24" height="24" viewBox="0 0 24 24" fill="none" xmlns="http://www.w3.org/2000/svg">
<path d="M18 13C18 16.31 15.31 19 12 19C8.69 19 6 16.31 6 13C6 9.69 8.69 7 12 7V11L17 6L12 1V5C7.58 5 4 8.58 4 13C4 17.42 7.58 21 12 21C16.42 21 20 17.42 20 13H18Z" fill="#323232"/>
<path d="M12.03 15.3805C11.59 15.3805 11.45 15.0705 11.43 14.8205H10.59C10.62 15.6705 11.38 16.0705 12.03 16.0705C12.96 16.0705 13.47 15.4405 13.47 14.6405C13.47 13.3105 12.5 13.2005 12.17 13.2005C11.97 13.2005 11.74 13.2505 11.53 13.3605L11.64 12.4405H13.34V11.7305H10.95L10.7 13.9005L11.37 14.0705C11.5 13.9405 11.65 13.8405 11.94 13.8405C12.34 13.8405 12.63 14.0705 12.63 14.5905C12.62 14.6405 12.65 15.3805 12.03 15.3805Z" fill="#323232"/>
</svg>
