<svg width="24" height="24" viewBox="0 0 24 24" fill="none" xmlns="http://www.w3.org/2000/svg">
<path d="M18 13C18 16.31 15.31 19 12 19C8.69 19 6 16.31 6 13C6 9.69 8.69 7 12 7V11L17 6L12 1V5C7.58 5 4 8.58 4 13C4 17.42 7.58 21 12 21C16.42 21 20 17.42 20 13H18Z" fill="#323232"/>
<path d="M10.86 15.9399V11.6699H10.77L9 12.2999V12.9899L10.01 12.6799V15.9399H10.86Z" fill="#323232"/>
<path d="M12.25 13.4398V14.1798C12.25 16.0798 13.56 15.9998 13.69 15.9998C13.83 15.9998 15.13 16.0898 15.13 14.1798V13.4398C15.13 11.5398 13.82 11.6198 13.69 11.6198C13.55 11.6198 12.25 11.5298 12.25 13.4398ZM14.29 13.3198V14.2898C14.29 15.0598 14.08 15.3198 13.7 15.3198C13.32 15.3198 13.1 15.0598 13.1 14.2898V13.3198C13.1 12.5698 13.32 12.3098 13.69 12.3098C14.07 12.2998 14.29 12.5698 14.29 13.3198Z" fill="#323232"/>
</svg>
