<svg width="24" height="24" viewBox="0 0 24 24" fill="none" xmlns="http://www.w3.org/2000/svg">
<path d="M6.03001 3.19973C7.15001 2.43973 8.51001 1.99973 10 1.99973C13.93 1.99973 17 5.06973 17 8.99973C17 10.2597 16.62 11.6497 15.93 12.8997C15.91 12.9397 15.88 12.9797 15.85 13.0297L14.37 11.5497C14.77 10.6897 15 9.79973 15 8.99973C15 6.19973 12.8 3.99973 10 3.99973C9.08001 3.99973 8.24002 4.25973 7.50001 4.66973L6.03001 3.19973ZM17.21 14.3797L18.64 15.8097C20.11 13.9297 21 11.5697 21 8.99973C21 5.95973 19.77 3.20973 17.78 1.21973L16.36 2.63973C17.99 4.25973 19 6.50973 19 8.99973C19 11.0197 18.33 12.8797 17.21 14.3797ZM10 6.49973C9.79001 6.49973 9.60001 6.52973 9.41001 6.57973L12.42 9.58973C12.47 9.39973 12.5 9.20973 12.5 8.99973C12.5 7.61973 11.38 6.49973 10 6.49973ZM21.19 21.1897L2.81001 2.80973L1.39001 4.21973L3.52001 6.34973C3.19001 7.15973 3.00001 8.04973 3.00001 8.99973H5.00001C5.00001 8.63973 5.05001 8.28973 5.12001 7.94973L11.73 14.5597C10.85 15.2397 9.95001 15.9697 9.46001 17.4597C8.96001 18.9597 8.46001 19.4697 7.75001 19.8397C7.56001 19.9397 7.29001 19.9997 7.00001 19.9997C5.90001 19.9997 5.00001 19.0997 5.00001 17.9997H3.00001C3.00001 20.2097 4.79001 21.9997 7.00001 21.9997C7.57001 21.9997 8.13002 21.8797 8.64002 21.6497C10 20.9397 10.77 19.9197 11.37 18.0997C11.69 17.1197 12.27 16.6697 13.08 16.0497C13.11 16.0297 13.13 16.0097 13.16 15.9897L19.78 22.6097L21.19 21.1897Z" fill="#323232"/>
</svg>
