<svg width="24" height="24" viewBox="0 0 24 24" fill="none" xmlns="http://www.w3.org/2000/svg">
<path d="M12 5V1L7 6L12 11V7C15.31 7 18 9.69 18 13C18 16.31 15.31 19 12 19C8.69 19 6 16.31 6 13H4C4 17.42 7.58 21 12 21C16.42 21 20 17.42 20 13C20 8.58 16.42 5 12 5Z" fill="#323232"/>
<path d="M10.69 13.9005L10.94 11.7305H13.33V12.4405H11.63L11.52 13.3605C11.55 13.3405 11.59 13.3305 11.63 13.3105C11.67 13.2905 11.72 13.2705 11.78 13.2605C11.84 13.2505 11.9 13.2305 11.96 13.2205C12.02 13.2105 12.09 13.2005 12.16 13.2005C12.37 13.2005 12.55 13.2305 12.71 13.3005C12.87 13.3705 13.01 13.4605 13.12 13.5805C13.23 13.7005 13.32 13.8505 13.37 14.0305C13.42 14.2105 13.46 14.4105 13.46 14.6305C13.46 14.8205 13.43 15.0005 13.37 15.1705C13.31 15.3405 13.22 15.4905 13.1 15.6205C12.98 15.7505 12.83 15.8605 12.65 15.9305C12.47 16.0005 12.26 16.0505 12.01 16.0505C11.83 16.0505 11.65 16.0205 11.48 15.9705C11.31 15.9205 11.16 15.8305 11.02 15.7305C10.88 15.6305 10.78 15.4905 10.7 15.3405C10.62 15.1905 10.57 15.0105 10.57 14.8105H11.41C11.43 14.9905 11.49 15.1305 11.6 15.2205C11.71 15.3105 11.85 15.3705 12.02 15.3705C12.13 15.3705 12.22 15.3505 12.29 15.3105C12.36 15.2705 12.43 15.2105 12.47 15.1405C12.51 15.0705 12.55 14.9905 12.58 14.8905C12.61 14.7905 12.61 14.6905 12.61 14.5805C12.61 14.4705 12.6 14.3705 12.57 14.2705C12.54 14.1705 12.5 14.1005 12.44 14.0305C12.38 13.9605 12.31 13.9105 12.23 13.8805C12.15 13.8505 12.04 13.8305 11.93 13.8305C11.85 13.8305 11.78 13.8405 11.73 13.8505C11.68 13.8605 11.62 13.8805 11.58 13.9005C11.54 13.9205 11.5 13.9505 11.46 13.9705C11.42 13.9905 11.39 14.0305 11.36 14.0605L10.69 13.9005Z" fill="#323232"/>
</svg>
